<svg width="150" height="190" viewBox="0 0 150 190" fill="none" xmlns="http://www.w3.org/2000/svg">
<path d="M74.9522 127.343C73.7245 135.298 70.1322 142.255 64.161 147.144C58.1874 152.012 50.6463 154.118 42.6001 153.726C41.3748 145.788 37.7896 138.797 31.8089 133.926C25.8377 129.056 18.2894 126.952 10.2576 127.343C11.4853 135.298 15.068 142.255 21.0488 147.144C27.0319 152.012 34.5731 154.118 42.6001 153.726C43.8255 145.788 47.4201 138.797 53.4009 133.926C59.3816 129.056 66.9228 126.952 74.9522 127.343Z" fill="#F0B465"/>
<path d="M44.4785 155.327C43.8539 155.327 43.2292 155.313 42.5998 155.282C41.9728 155.313 41.3481 155.327 40.7259 155.327C32.8185 155.327 25.6771 152.915 20.0672 148.351C13.9716 143.371 10.049 136.188 8.71839 127.58C8.65138 127.142 8.77104 126.699 9.05106 126.357C9.32867 126.015 9.74031 125.809 10.1807 125.787C18.8515 125.373 26.7373 127.783 32.7922 132.718C37.3155 136.401 40.6421 141.31 42.6022 147.123C44.5623 141.312 47.8913 136.404 52.4194 132.718C58.4791 127.781 66.3577 125.368 75.0285 125.787C75.4689 125.809 75.8781 126.017 76.1581 126.357C76.4381 126.699 76.5578 127.142 76.4908 127.577C75.1649 136.176 71.2424 143.359 65.1467 148.349C59.5417 152.915 52.3954 155.327 44.4785 155.327ZM44.4498 152.216C44.4594 152.216 44.4689 152.216 44.4785 152.216C51.6727 152.216 58.1393 150.045 63.1771 145.939C68.2532 141.784 71.6612 135.904 73.1019 128.851C73.0971 128.851 73.09 128.851 73.0852 128.851C65.8958 128.851 59.4268 131.021 54.3842 135.131C49.3033 139.269 45.8929 145.149 44.4498 152.216ZM12.1073 128.853C13.5504 135.911 16.9584 141.793 22.0321 145.943C27.0771 150.048 33.5437 152.219 40.7259 152.219C40.7235 152.219 40.7402 152.219 40.7498 152.219C39.3067 145.146 35.8987 139.266 30.8249 135.133C25.7895 131.024 19.3229 128.853 12.124 128.853C12.1192 128.853 12.112 128.853 12.1073 128.853Z" fill="black"/>
<path d="M74.9522 71.177C73.7245 79.1298 70.1322 86.1039 64.161 90.9741C58.1874 95.8612 50.6463 97.9671 42.6001 97.5723C41.3748 89.6195 37.7896 82.6431 31.8089 77.7776C25.8377 72.8882 18.2894 70.7821 10.2576 71.177C11.4853 79.1298 15.068 86.1039 21.0488 90.9741C27.0319 95.8612 34.5731 97.9671 42.6001 97.5723C43.8255 89.6195 47.4201 82.6431 53.4009 77.7776C59.3816 72.8882 66.9228 70.7821 74.9522 71.177Z" fill="#F0B465"/>
<path d="M44.4881 99.1762C43.8611 99.1762 43.234 99.1594 42.5998 99.1283C41.968 99.1594 41.3433 99.1762 40.7163 99.1762C32.809 99.1738 25.6675 96.7542 20.0649 92.1783C13.9764 87.2219 10.0514 80.042 8.71839 71.4143C8.65138 70.9763 8.77104 70.5336 9.05106 70.1914C9.33107 69.8492 9.74031 69.6434 10.1807 69.6219C18.8299 69.1935 26.7421 71.6178 32.7922 76.5719C37.3155 80.2503 40.6421 85.1541 42.5998 90.9674C44.5575 85.1589 47.8889 80.2526 52.4194 76.5694C58.4767 71.6177 66.4032 69.1911 75.0285 69.6219C75.4689 69.6434 75.8781 69.8515 76.1581 70.1914C76.4381 70.5336 76.5578 70.9764 76.4908 71.412C75.1601 80.0301 71.2376 87.2122 65.1443 92.1807C59.5513 96.7566 52.4074 99.1738 44.4881 99.1762ZM44.4498 96.065C44.4618 96.065 44.4761 96.065 44.4905 96.065C51.6822 96.065 58.1464 93.8895 63.1771 89.7731C68.2532 85.6351 71.6636 79.7501 73.1043 72.6876C73.0923 72.6876 73.0804 72.6876 73.0684 72.6876C65.8838 72.6876 59.4244 74.8631 54.3866 78.9819C49.3009 83.1175 45.8905 88.9953 44.4498 96.065ZM12.1073 72.6876C13.5504 79.7597 16.9584 85.64 22.0321 89.7707C27.0747 93.8895 33.5341 96.065 40.7163 96.065C40.7283 96.065 40.7378 96.065 40.7498 96.065C39.3091 88.9929 35.9011 83.115 30.8249 78.9843C25.7919 74.8631 19.3325 72.6876 12.1408 72.6876C12.1312 72.6876 12.1192 72.6876 12.1073 72.6876Z" fill="black"/>
<path d="M74.9525 42.7966C73.7247 50.7518 70.1324 57.7258 64.1612 62.5961C58.1877 67.4832 50.6465 69.5867 42.6004 69.1942C41.375 61.239 37.7899 54.2652 31.8091 49.3949C25.8379 44.5079 18.2896 42.4233 10.2578 42.7966C11.4856 50.7518 15.0683 57.7258 21.049 62.5961C27.0322 67.4832 34.5734 69.5867 42.6004 69.1942C43.8257 61.239 47.4204 54.2652 53.4011 49.3949C59.3819 44.5079 66.9231 42.4209 74.9525 42.7966Z" fill="#F0B465"/>
<path d="M44.4811 70.7951C43.8565 70.7951 43.2319 70.7808 42.6001 70.7497C33.9723 71.1757 26.1081 68.7346 20.0651 63.7997C13.9766 58.8432 10.0517 51.661 8.71862 43.0333C8.65161 42.5954 8.77129 42.1526 9.05369 41.8104C9.33371 41.4658 9.74535 41.2623 10.1857 41.2407C18.8613 40.8434 26.7686 43.2559 32.7949 48.1884C37.3181 51.8692 40.6448 56.7755 42.6024 62.5887C44.5601 56.7803 47.8916 51.8741 52.4196 48.1861C58.4554 43.2535 66.3628 40.865 75.0264 41.2407C75.4667 41.2623 75.8784 41.4682 76.1584 41.8104C76.4384 42.1526 76.558 42.5953 76.4934 43.0308C75.1628 51.6514 71.2402 58.8336 65.147 63.802C59.5515 68.3755 52.4052 70.7951 44.4811 70.7951ZM44.45 67.6839C44.4596 67.6839 44.4716 67.6839 44.4811 67.6839C51.6801 67.6839 58.1443 65.5085 63.1773 61.3921C68.2534 57.2541 71.6614 51.3714 73.1022 44.3065C65.8841 44.3161 59.4127 46.4891 54.3869 50.596C49.3012 54.7387 45.8884 60.619 44.45 67.6839ZM12.1075 44.309C13.5506 51.3835 16.9586 57.2613 22.03 61.3921C27.0702 65.5109 33.5344 67.6862 40.7237 67.6862C40.7309 67.6862 40.7405 67.6862 40.7501 67.6862C39.3093 60.6165 35.9013 54.7364 30.8252 50.6008C25.8065 46.4916 19.3351 44.3162 12.1075 44.309Z" fill="black"/>
<path d="M42.3035 43.3129C37 37.2675 33.9773 30.0255 34.0946 22.3216C34.1975 14.5938 37.4356 7.46179 42.9185 1.55762C48.21 7.603 51.2375 14.8475 51.1274 22.5705C51.0102 30.272 47.7745 37.4087 42.3035 43.3129Z" fill="#F0B465"/>
<path d="M42.3034 44.8689C42.2962 44.8689 42.289 44.8689 42.2818 44.8689C41.8415 44.8617 41.4251 44.6702 41.1331 44.3376C35.3917 37.7944 32.4192 30.172 32.5389 22.2957C32.6442 14.4315 35.8392 6.89261 41.7769 0.497817C42.076 0.174727 42.4566 0.0526518 42.94 0C43.3804 0.00717979 43.7968 0.201088 44.0864 0.533751C49.8206 7.08172 52.7907 14.7114 52.6806 22.5924C52.5633 30.4471 49.3683 37.9788 43.4426 44.3712C43.1482 44.6871 42.7342 44.8689 42.3034 44.8689ZM42.8826 3.94178C38.2324 9.46304 35.7387 15.7884 35.6501 22.3412C35.552 28.9011 37.8567 35.2911 42.3369 40.9272C46.9798 35.4083 49.4736 29.0902 49.5717 22.547C49.6627 15.9823 47.3556 9.5827 42.8826 3.94178Z" fill="black"/>
<path d="M42.3034 176.065C41.4442 176.065 40.7478 175.368 40.7478 174.509V43.3152C40.7478 42.456 41.4442 41.7595 42.3034 41.7595C43.1626 41.7595 43.859 42.456 43.859 43.3152V174.509C43.8567 175.368 43.1602 176.065 42.3034 176.065Z" fill="black"/>
<path d="M74.9522 99.0371C73.7245 106.99 70.1322 113.964 64.161 118.834C58.1874 123.721 50.6463 125.827 42.6001 125.418C41.3748 117.48 37.7896 110.503 31.8089 105.619C25.8377 100.751 18.2894 98.6422 10.2576 99.0371C11.4853 106.99 15.068 113.964 21.0488 118.834C27.0319 123.721 34.5731 125.827 42.6001 125.418C43.8255 117.48 47.4201 110.503 53.4009 105.619C59.3816 100.751 66.9228 98.6422 74.9522 99.0371Z" fill="#F0B465"/>
<path d="M44.5455 127.024C43.8993 127.024 43.2532 127.007 42.5998 126.974C33.996 127.405 26.1174 124.98 20.0649 120.038C13.9764 115.082 10.0514 107.902 8.71839 99.2744C8.65138 98.8365 8.77104 98.3938 9.05106 98.0515C9.33107 97.7093 9.74031 97.5034 10.1807 97.4818C18.8347 97.0487 26.7325 99.4706 32.7898 104.413C37.3155 108.108 40.6421 113.016 42.5998 118.823C44.5575 113.021 47.8865 108.11 52.417 104.413C58.4863 99.473 66.3721 97.0415 75.0285 97.4818C75.4689 97.5034 75.8781 97.7117 76.1581 98.0515C76.4381 98.3938 76.5578 98.8364 76.4908 99.272C75.1601 107.89 71.2376 115.072 65.1443 120.041C59.5608 124.607 52.4361 127.024 44.5455 127.024ZM44.4498 123.913C51.6272 123.949 58.1297 121.759 63.1771 117.631C68.2532 113.493 71.6636 107.608 73.1043 100.545C73.0923 100.545 73.0828 100.545 73.0708 100.545C65.891 100.545 59.4316 102.716 54.3842 106.823C49.3009 110.973 45.8905 116.855 44.4498 123.913ZM12.1073 100.548C13.5504 107.62 16.9584 113.5 22.0321 117.631C27.0867 121.759 33.4552 123.906 40.7522 123.916C39.3115 116.853 35.9011 110.97 30.8249 106.825C25.7895 102.718 19.3277 100.548 12.1408 100.548C12.1288 100.548 12.1192 100.548 12.1073 100.548Z" fill="black"/>
<path d="M136.019 140.029C135.119 145.843 132.493 150.947 128.119 154.513C123.763 158.063 118.244 159.616 112.38 159.331C111.469 153.515 108.855 148.413 104.49 144.847C100.11 141.279 94.6033 139.745 88.7302 140.029C89.6301 145.843 92.2531 150.947 96.6184 154.513C100.988 158.063 106.498 159.616 112.383 159.331C113.271 153.515 115.901 148.413 120.259 144.847C124.624 141.276 130.143 139.745 136.019 140.029Z" fill="#FACA44"/>
<path d="M113.735 160.915C113.285 160.915 112.835 160.903 112.381 160.881C105.957 161.161 100.141 159.376 95.6349 155.717C91.0997 152.012 88.1823 146.67 87.1891 140.263C87.1221 139.825 87.2417 139.383 87.5217 139.04C87.7994 138.698 88.211 138.492 88.6514 138.471C95.0773 138.162 100.958 139.955 105.471 143.635C108.544 146.146 110.878 149.418 112.373 153.271C113.86 149.432 116.191 146.158 119.271 143.638C123.775 139.957 129.629 138.148 136.095 138.471C136.536 138.492 136.945 138.7 137.225 139.04C137.505 139.383 137.625 139.825 137.558 140.263C136.564 146.673 133.642 152.014 129.102 155.714C124.928 159.115 119.613 160.915 113.735 160.915ZM134.147 141.551C129.181 141.649 124.727 143.197 121.24 146.045C117.727 148.922 115.331 152.962 114.25 157.796C119.197 157.696 123.646 156.15 127.137 153.302C130.651 150.437 133.054 146.402 134.147 141.551ZM90.5995 141.551C91.6932 146.4 94.0912 150.437 97.5998 153.304C101.099 156.147 105.553 157.696 110.504 157.796C109.403 152.943 107.003 148.905 103.504 146.045C100.012 143.2 95.5583 141.649 90.5995 141.551Z" fill="black"/>
<path d="M136.019 98.9835C135.119 104.799 132.493 109.899 128.119 113.448C123.763 117.036 118.244 118.568 112.38 118.264C111.469 112.467 108.855 107.37 104.49 103.799C100.11 100.233 94.6033 98.6963 88.7302 98.9835C89.6301 104.799 92.2531 109.899 96.6184 113.448C100.988 117.036 106.498 118.568 112.383 118.264C113.271 112.467 115.901 107.37 120.259 103.799C124.624 100.233 130.143 98.6963 136.019 98.9835Z" fill="#FACA44"/>
<path d="M113.821 119.856C113.342 119.856 112.861 119.845 112.378 119.818C105.974 120.16 100.112 118.337 95.6251 114.649C91.0994 110.97 88.1796 105.631 87.1864 99.2217C87.1194 98.7838 87.2391 98.3411 87.5191 97.9988C87.7991 97.6566 88.2083 97.4508 88.6487 97.4293C95.0914 97.1253 100.952 98.9131 105.469 102.592C108.542 105.104 110.875 108.376 112.371 112.222C113.857 108.386 116.188 105.116 119.266 102.594C123.777 98.913 129.636 97.1229 136.09 97.4293C136.531 97.4508 136.94 97.659 137.22 97.9988C137.498 98.3411 137.62 98.7838 137.553 99.2217C136.559 105.636 133.635 110.973 129.095 114.656C124.971 118.054 119.685 119.856 113.821 119.856ZM134.147 100.509C129.183 100.605 124.73 102.156 121.24 105.004C117.727 107.883 115.331 111.916 114.249 116.74C119.211 116.657 123.657 115.106 127.13 112.246C130.65 109.391 133.053 105.358 134.147 100.509ZM90.5992 100.509C91.6929 105.358 94.0886 109.388 97.5971 112.241C101.086 115.106 105.54 116.657 110.504 116.74C109.403 111.899 107.003 107.864 103.504 105.002C100.009 102.154 95.5556 100.608 90.5992 100.509Z" fill="black"/>
<path d="M136.019 78.2372C135.119 84.0504 132.493 89.1552 128.119 92.7236C123.763 96.2704 118.244 97.8211 112.38 97.5196C111.469 91.7231 108.855 86.6208 104.49 83.0548C100.11 79.5032 94.6033 77.9692 88.7302 78.2372C89.6301 84.0504 92.2531 89.1552 96.6184 92.7236C100.988 96.2704 106.498 97.8211 112.383 97.5196C113.271 91.7231 115.901 86.6208 120.259 83.0548C124.624 79.5032 130.143 77.9692 136.019 78.2372Z" fill="#FACA44"/>
<path d="M113.802 99.1109C113.331 99.1109 112.857 99.0989 112.381 99.0749C105.998 99.4028 100.149 97.5959 95.6349 93.9319C91.0997 90.2247 88.1823 84.8829 87.1891 78.4761C87.1221 78.0382 87.2417 77.5955 87.5241 77.2532C87.8041 76.9086 88.2158 76.7051 88.6561 76.6835C95.0988 76.4011 100.958 78.1866 105.469 81.8459C108.544 84.3588 110.878 87.628 112.373 91.4764C113.86 87.6376 116.191 84.3707 119.271 81.8506C123.777 78.1865 129.648 76.3963 136.091 76.6835C136.531 76.7051 136.943 76.9109 137.223 77.2507C137.503 77.5954 137.622 78.0382 137.558 78.4761C136.564 84.8829 133.642 90.227 129.102 93.9294C124.938 97.3206 119.646 99.1109 113.802 99.1109ZM134.145 79.7685C129.176 79.8785 124.723 81.427 121.236 84.2606C117.725 87.1349 115.329 91.1676 114.247 95.9948C119.192 95.9087 123.638 94.3626 127.135 91.517C130.648 88.6522 133.051 84.6148 134.145 79.7685ZM90.6019 79.7685C91.6956 84.6148 94.0936 88.6523 97.6022 91.5195C101.103 94.3626 105.56 95.9087 110.507 95.9948C109.403 91.1509 107.005 87.1159 103.506 84.2583C100.015 81.4271 95.5607 79.8809 90.6019 79.7685Z" fill="black"/>
<path d="M112.143 78.6151C108.278 74.2091 106.065 68.9105 106.146 63.2767C106.227 57.6406 108.599 52.4328 112.593 48.1154C116.47 52.5214 118.67 57.8176 118.603 63.4538C118.517 69.0875 116.147 74.3168 112.143 78.6151Z" fill="#FACA44"/>
<path d="M112.143 80.168C112.136 80.168 112.129 80.168 112.119 80.168C111.679 80.1609 111.265 79.967 110.973 79.6368C106.713 74.7832 104.506 69.116 104.59 63.2502C104.674 57.4154 107.048 51.8151 111.452 47.0525C111.751 46.7295 112.139 46.55 112.612 46.5524C113.053 46.5596 113.469 46.7511 113.759 47.0813C118.014 51.9181 120.228 57.5829 120.156 63.4679C120.067 69.3362 117.689 74.9364 113.278 79.6727C112.986 79.9886 112.574 80.168 112.143 80.168ZM112.562 50.5228C109.441 54.3927 107.766 58.7747 107.701 63.2956C107.637 67.8356 109.18 72.2655 112.182 76.2024C115.305 72.3517 116.98 67.9696 117.05 63.4272C117.1 58.8728 115.556 54.4454 112.562 50.5228Z" fill="black"/>
<path d="M112.143 176.061C111.284 176.061 110.588 175.365 110.588 174.506V78.6124C110.588 77.7533 111.284 77.0568 112.143 77.0568C113.002 77.0568 113.699 77.7533 113.699 78.6124V174.506C113.699 175.365 113.002 176.061 112.143 176.061Z" fill="black"/>
<path d="M136.019 119.353C135.119 125.169 132.494 130.252 128.119 133.818C123.763 137.384 118.244 138.921 112.381 138.636C111.469 132.82 108.855 127.737 104.49 124.152C100.11 120.6 94.6035 119.049 88.7305 119.353C89.6303 125.169 92.2533 130.252 96.6186 133.818C100.989 137.384 106.498 138.921 112.383 138.636C113.271 132.82 115.901 127.737 120.259 124.152C124.625 120.598 130.143 119.049 136.019 119.353Z" fill="#FACA44"/>
<path d="M113.745 140.225C113.293 140.225 112.838 140.213 112.381 140.191C111.924 140.213 111.466 140.225 111.014 140.225C105.122 140.225 99.8017 138.425 95.635 135.024C91.1022 131.319 88.1824 125.985 87.194 119.592C87.127 119.157 87.2466 118.714 87.5243 118.372C87.8019 118.029 88.2111 117.824 88.6515 117.8C95.0702 117.477 100.934 119.262 105.474 122.943C108.549 125.47 110.882 128.744 112.378 132.588C113.862 128.756 116.193 125.482 119.271 122.95C123.809 119.26 129.682 117.469 136.103 117.8C136.543 117.824 136.95 118.032 137.23 118.372C137.508 118.714 137.627 119.157 137.56 119.592C136.569 125.987 133.647 131.322 129.105 135.024C124.948 138.425 119.637 140.225 113.745 140.225ZM134.147 120.875C129.201 120.961 124.744 122.507 121.236 125.358C117.725 128.249 115.329 132.286 114.247 137.109C119.209 137.011 123.655 135.462 127.133 132.614C130.653 129.747 133.054 125.712 134.147 120.875ZM90.5996 120.875C91.6909 125.712 94.089 129.744 97.5999 132.614C101.089 135.46 105.541 137.008 110.504 137.109C109.403 132.269 107.005 128.23 103.502 125.353C99.9931 122.507 95.5393 120.961 90.5996 120.875Z" fill="black"/>
<path d="M126.278 176.425H1.55562C0.696443 176.425 0 175.729 0 174.87C0 174.01 0.696443 173.314 1.55562 173.314H126.278C127.137 173.314 127.834 174.01 127.834 174.87C127.834 175.729 127.137 176.425 126.278 176.425Z" fill="black"/>
<path d="M140.047 176.425H130.153C129.294 176.425 128.597 175.729 128.597 174.87C128.597 174.01 129.294 173.314 130.153 173.314H140.047C140.906 173.314 141.602 174.01 141.602 174.87C141.602 175.729 140.906 176.425 140.047 176.425Z" fill="black"/>
<path d="M148.444 176.425H143.651C142.791 176.425 142.095 175.729 142.095 174.87C142.095 174.01 142.791 173.314 143.651 173.314H148.444C149.304 173.314 150 174.01 150 174.87C150 175.729 149.304 176.425 148.444 176.425Z" fill="black"/>
<path d="M119.07 183.128H40.269C39.4098 183.128 38.7134 182.432 38.7134 181.573C38.7134 180.713 39.4098 180.017 40.269 180.017H119.07C119.929 180.017 120.625 180.713 120.625 181.573C120.625 182.432 119.929 183.128 119.07 183.128Z" fill="black"/>
<path d="M37.8182 183.128H31.5717C30.7126 183.128 30.0161 182.432 30.0161 181.573C30.0161 180.713 30.7126 180.017 31.5717 180.017H37.8182C38.6773 180.017 39.3738 180.713 39.3738 181.573C39.3738 182.432 38.6773 183.128 37.8182 183.128Z" fill="black"/>
<path d="M29.2958 183.128H26.2587C25.3996 183.128 24.7031 182.432 24.7031 181.573C24.7031 180.713 25.3996 180.017 26.2587 180.017H29.2958C30.155 180.017 30.8514 180.713 30.8514 181.573C30.8514 182.432 30.155 183.128 29.2958 183.128Z" fill="black"/>
<path d="M96.4268 189.513H38.6391C37.7799 189.513 37.0835 188.816 37.0835 187.957C37.0835 187.098 37.7799 186.401 38.6391 186.401H96.4268C97.286 186.401 97.9824 187.098 97.9824 187.957C97.9824 188.816 97.286 189.513 96.4268 189.513Z" fill="black"/>
<path d="M102.815 189.513H98.2219C97.3627 189.513 96.6663 188.816 96.6663 187.957C96.6663 187.098 97.3627 186.401 98.2219 186.401H102.815C103.674 186.401 104.37 187.098 104.37 187.957C104.37 188.816 103.674 189.513 102.815 189.513Z" fill="black"/>
<path d="M106.696 189.513H104.478C103.619 189.513 102.922 188.816 102.922 187.957C102.922 187.098 103.619 186.401 104.478 186.401H106.696C107.556 186.401 108.252 187.098 108.252 187.957C108.252 188.816 107.556 189.513 106.696 189.513Z" fill="black"/>
</svg>
