<svg width="96" height="123" viewBox="0 0 96 123" fill="none" xmlns="http://www.w3.org/2000/svg">
<path d="M53.3428 33.9951C56.7786 30.6037 62.2243 23.6654 65.7878 20.1792C66.5212 19.4617 66.0717 18.2174 65.0488 18.1288L59.1578 17.6185L65.8029 5.53525C66.0866 5.01931 65.3929 4.52857 65.0012 4.96779L50.0072 21.7875C49.5701 22.2781 49.9344 23.0531 50.5916 23.0298L57.3316 22.7861L52.4194 33.3417C52.1493 33.923 52.8868 34.4448 53.3428 33.9951Z" fill="#00B9B6"/>
<path d="M43.9894 41.6833C42.4435 41.6801 41.073 42.4844 40.3232 43.8357L6.4138 104.941C5.68869 106.248 5.70765 107.797 6.46448 109.087C7.2213 110.376 8.5659 111.148 10.0604 111.151L77.5897 111.31C79.085 111.314 80.4329 110.548 81.1954 109.262C81.9588 107.977 81.9847 106.428 81.2659 105.117L47.6451 43.8533C46.9013 42.4977 45.5344 41.6872 43.9894 41.6833ZM77.5779 116.418L10.0486 116.259C6.72756 116.252 3.74042 114.537 2.05903 111.673C0.377579 108.809 0.335893 105.365 1.94755 102.462L35.8561 41.3573C37.522 38.3547 40.5672 36.5663 44.0012 36.5751C47.4353 36.583 50.4718 38.385 52.1237 41.3951L85.7443 102.659C87.3422 105.571 87.2838 109.013 85.5888 111.87C83.8939 114.726 80.8989 116.426 77.5779 116.418Z" fill="black"/>
<path d="M48.7205 89.3466L38.9932 89.3235L37.6935 56.0846L50.1766 56.1138L48.7205 89.3466ZM37.3046 100.577C37.307 99.7071 37.4641 98.9027 37.7766 98.1647C38.0891 97.4276 38.5293 96.7888 39.0981 96.2495C39.6668 95.7109 40.3497 95.2897 41.1481 94.9884C41.9456 94.6877 42.844 94.537 43.8447 94.5395C44.8437 94.5418 45.7485 94.6964 46.5585 95.0015C47.3686 95.3067 48.0568 95.7304 48.6226 96.2718C49.1891 96.8141 49.626 97.455 49.9357 98.1939C50.2438 98.9328 50.3978 99.7376 50.3963 100.608C50.3938 101.478 50.2365 102.276 49.9244 103C49.6114 103.725 49.1709 104.357 48.6029 104.896C48.0341 105.435 47.3441 105.856 46.5321 106.157C45.7209 106.458 44.8153 106.608 43.8163 106.606C42.8157 106.603 41.918 106.449 41.1216 106.144C40.3252 105.84 39.6442 105.416 39.0784 104.874C38.5118 104.332 38.0735 103.698 37.7652 102.971C37.456 102.245 37.303 101.447 37.3046 100.577Z" fill="#00B9B6"/>
</svg>
