<svg width="8" height="10" viewBox="0 0 8 10" fill="none" xmlns="http://www.w3.org/2000/svg">
<path d="M1.17 0.416667C0.983753 0.588415 0.879211 0.820746 0.879211 1.06292C0.879211 1.30509 0.983753 1.53742 1.17 1.70917L4.71 5L1.17 8.245C0.983753 8.41675 0.879211 8.64908 0.879211 8.89125C0.879211 9.13342 0.983753 9.36575 1.17 9.5375C1.26297 9.62342 1.37357 9.69161 1.49543 9.73815C1.61729 9.78469 1.74799 9.80865 1.88 9.80865C2.01202 9.80865 2.14272 9.78469 2.26458 9.73815C2.38644 9.69161 2.49704 9.62342 2.59 9.5375L6.83 5.65083C6.92373 5.56562 6.99813 5.46423 7.04889 5.35253C7.09966 5.24082 7.1258 5.12101 7.1258 5C7.1258 4.87899 7.09966 4.75917 7.04889 4.64747C6.99813 4.53577 6.92373 4.43438 6.83 4.34917L2.59 0.416667C2.49704 0.330748 2.38644 0.262554 2.26458 0.216017C2.14272 0.169478 2.01202 0.145517 1.88 0.145517C1.74799 0.145517 1.61729 0.169478 1.49543 0.216017C1.37357 0.262554 1.26297 0.330749 1.17 0.416667Z" fill="#91A1BC"/>
</svg>
