<svg width="24" height="24" viewBox="0 0 24 24" fill="none" xmlns="http://www.w3.org/2000/svg">
<g clip-path="url(#clip0_1374_82)">
<path d="M3 5.36302C3 4.7363 3.24896 4.13526 3.69211 3.69211C4.13526 3.24896 4.7363 3 5.36302 3H19.5411C20.1678 3 20.7689 3.24896 21.212 3.69211C21.6552 4.13526 21.9041 4.7363 21.9041 5.36302V6.93836C21.9041 7.75754 21.4872 8.47905 20.8539 8.90334V11.9248C20.3486 11.714 19.8196 11.5652 19.2786 11.4817V9.30138H5.62557V17.9658C5.62557 18.5925 5.87453 19.1935 6.31768 19.6367C6.76084 20.0798 7.36188 20.3288 7.98859 20.3288H11.7306C11.9122 20.8896 12.1632 21.4179 12.4752 21.9041H7.98859C6.94407 21.9041 5.94233 21.4892 5.20375 20.7506C4.46516 20.012 4.05023 19.0103 4.05023 17.9658V8.90334C3.72695 8.68756 3.46195 8.39531 3.27874 8.05253C3.09553 7.70974 2.99979 7.32703 3 6.93836V5.36302ZM5.36302 4.57534C5.15411 4.57534 4.95376 4.65833 4.80605 4.80605C4.65833 4.95376 4.57534 5.15411 4.57534 5.36302V6.93836C4.57534 7.37315 4.92822 7.72603 5.36302 7.72603H19.5411C19.75 7.72603 19.9504 7.64304 20.0981 7.49533C20.2458 7.34761 20.3288 7.14726 20.3288 6.93836V5.36302C20.3288 5.15411 20.2458 4.95376 20.0981 4.80605C19.9504 4.65833 19.75 4.57534 19.5411 4.57534H5.36302Z" fill="#0050A4" stroke="#0050A4" stroke-width="0.5"/>
<path d="M14.4635 12C14.6691 11.9999 14.8667 12.0803 15.0139 12.224C15.161 12.3676 15.2462 12.5632 15.2511 12.7688C14.8196 12.9937 14.4133 13.2641 14.0392 13.5753H10.7877C10.5788 13.5753 10.3784 13.4924 10.2307 13.3446C10.083 13.1969 10 12.9966 10 12.7877C10 12.5788 10.083 12.3784 10.2307 12.2307C10.3784 12.083 10.5788 12 10.7877 12H14.4635ZM15.0169 15.1255C15.0953 15.397 15.1181 15.6816 15.0839 15.9621C15.0497 16.2426 14.9592 16.5134 14.8179 16.7581C14.6766 17.0029 14.4874 17.2166 14.2615 17.3865C14.0357 17.5564 13.7779 17.6789 13.5036 17.7469L12.8902 17.8991C12.7919 18.5281 12.7941 19.1686 12.8965 19.7969L13.4637 19.9334C13.7405 20.0001 14.0008 20.1224 14.229 20.2928C14.4571 20.4632 14.6481 20.6782 14.7906 20.9248C14.933 21.1713 15.0238 21.4443 15.0575 21.727C15.0912 22.0098 15.067 22.2964 14.9865 22.5695L14.7901 23.2322C15.2522 23.6376 15.7773 23.9674 16.3497 24.2005L16.8674 23.6554C17.0637 23.4491 17.2998 23.2847 17.5615 23.1724C17.8232 23.0601 18.105 23.0022 18.3898 23.0022C18.6745 23.0022 18.9563 23.0601 19.218 23.1724C19.4797 23.2847 19.7158 23.4491 19.9121 23.6554L20.4361 24.2079C21.0044 23.9765 21.5303 23.6525 21.9926 23.249L21.7846 22.5285C21.7063 22.2569 21.6835 21.9723 21.7178 21.6917C21.7521 21.4111 21.8426 21.1404 21.984 20.8956C22.1254 20.6508 22.3148 20.4371 22.5407 20.2673C22.7667 20.0974 23.0246 19.975 23.2991 19.9072L23.9113 19.7549C24.0096 19.126 24.0075 18.4854 23.905 17.8571L23.3379 17.7206C23.0612 17.6538 22.8009 17.5315 22.5729 17.361C22.345 17.1905 22.154 16.9755 22.0117 16.7289C21.8693 16.4824 21.7786 16.2095 21.745 15.9268C21.7114 15.6441 21.7356 15.3576 21.8161 15.0845L22.0115 14.4218C21.5494 14.0147 21.0226 13.6875 20.4529 13.4535L19.9352 13.9975C19.7389 14.2041 19.5027 14.3686 19.241 14.481C18.9792 14.5933 18.6972 14.6513 18.4123 14.6513C18.1274 14.6513 17.8455 14.5933 17.5837 14.481C17.3219 14.3686 17.0857 14.2041 16.8895 13.9975L16.3665 13.4462C15.7952 13.6772 15.27 14.0028 14.809 14.405L15.0169 15.1255ZM18.4018 20.4018C17.5616 20.4018 16.879 19.6971 16.879 18.8265C16.879 17.9569 17.5616 17.2511 18.4018 17.2511C19.242 17.2511 19.9247 17.9569 19.9247 18.8265C19.9247 19.6971 19.242 20.4018 18.4018 20.4018Z" fill="#00B9B6" stroke="#00B9B6" stroke-width="0.5"/>
</g>
<defs>
<clipPath id="clip0_1374_82">
<rect width="24" height="24" fill="white"/>
</clipPath>
</defs>
</svg>
