<svg width="33" height="32" viewBox="0 0 33 32" fill="none" xmlns="http://www.w3.org/2000/svg">
<g clip-path="url(#clip0_1401_328)">
<path d="M1.06587 9.59189L15.0214 15.6755C15.3606 15.8089 15.7233 15.871 16.0872 15.858C16.469 15.8594 16.8465 15.7763 17.1931 15.6147L31.2693 9.28771C31.5877 9.14685 31.8584 8.91554 32.0486 8.62204C32.2387 8.32854 32.3399 7.98555 32.3399 7.63498C32.3399 7.28441 32.2387 6.94142 32.0486 6.64792C31.8584 6.35442 31.5877 6.12311 31.2693 5.98225L17.1931 0.243347C16.8588 0.0885188 16.4953 0.00836182 16.1274 0.00836182C15.7595 0.00836182 15.3959 0.0885188 15.0616 0.243347L0.985434 6.327C0.692322 6.47311 0.445083 6.69826 0.271153 6.97747C0.0972226 7.25668 0.00340212 7.57903 0.000101939 7.90874C-0.00363003 8.26339 0.0951813 8.61144 0.284456 8.91036C0.47373 9.20927 0.745267 9.4461 1.06587 9.59189ZM15.8861 2.02788C15.9662 1.98351 16.0561 1.96024 16.1475 1.96024C16.2389 1.96024 16.3288 1.98351 16.4089 2.02788L29.922 7.58428L16.3888 13.6679C16.3072 13.7075 16.2179 13.728 16.1274 13.728C16.0369 13.728 15.9475 13.7075 15.866 13.6679L2.33273 7.92902L15.8861 2.02788Z" fill="#0050A4"/>
<path d="M31.2291 14.8441C31.0903 14.8113 30.9457 14.8113 30.8068 14.8441L16.2481 21.4956C16.1665 21.5351 16.0771 21.5557 15.9866 21.5557C15.8961 21.5557 15.8068 21.5351 15.7252 21.4956L1.44796 14.9658H1.06589C0.940103 14.9488 0.812219 14.9576 0.689866 14.9916C0.567513 15.0256 0.453196 15.084 0.353735 15.1635C0.254273 15.243 0.171704 15.3419 0.110951 15.4542C0.0501979 15.5666 0.0125061 15.6901 0.000123242 15.8175C-0.00014793 15.9893 0.0466524 16.1579 0.135361 16.3046C0.224071 16.4513 0.351241 16.5705 0.502844 16.6489L14.9209 23.2193C15.2539 23.3789 15.6179 23.462 15.9866 23.4626C16.3361 23.462 16.6804 23.3786 16.9921 23.2193L31.6112 16.6489C31.7772 16.5778 31.9189 16.4592 32.0189 16.3079C32.119 16.1566 32.1729 15.9791 32.1742 15.7972C32.1691 15.5461 32.0679 15.3066 31.8917 15.129C31.7156 14.9514 31.4782 14.8493 31.2291 14.8441Z" fill="#00B9B6"/>
<path d="M31.2291 21.9413C31.0903 21.9085 30.9457 21.9085 30.8068 21.9413L16.2481 28.5928C16.1665 28.6324 16.0771 28.6529 15.9866 28.6529C15.8961 28.6529 15.8068 28.6324 15.7252 28.5928L1.44796 22.063H1.06589C0.940103 22.0461 0.812219 22.0548 0.689866 22.0888C0.567513 22.1228 0.453196 22.1813 0.353735 22.2607C0.254273 22.3402 0.171704 22.4391 0.110951 22.5515C0.0501979 22.6638 0.0125061 22.7874 0.000123242 22.9147C-0.00014793 23.0866 0.0466524 23.2551 0.135361 23.4018C0.224071 23.5486 0.351241 23.6677 0.502844 23.7462L14.9209 30.3165C15.2539 30.4761 15.6179 30.5592 15.9866 30.5598C16.3361 30.5592 16.6804 30.4759 16.9921 30.3165L31.6112 23.7462C31.7772 23.675 31.9189 23.5565 32.0189 23.4051C32.119 23.2538 32.1729 23.0763 32.1742 22.8944C32.1691 22.6433 32.0679 22.4039 31.8917 22.2262C31.7156 22.0486 31.4782 21.9465 31.2291 21.9413Z" fill="#00B9B6"/>
</g>
<defs>
<clipPath id="clip0_1401_328">
<rect width="32.4444" height="32" fill="white"/>
</clipPath>
</defs>
</svg>
