<svg width="21" height="24" viewBox="0 0 21 24" fill="none" xmlns="http://www.w3.org/2000/svg">
<path d="M20.2874 15.969L18.2019 13.8719V8.70459C18.2297 6.78576 17.5622 4.92168 16.3228 3.45655C15.0834 1.99143 13.3558 1.0242 11.4589 0.733473C10.358 0.588495 9.23889 0.679964 8.17616 1.00177C7.11344 1.32359 6.13156 1.86834 5.29604 2.59969C4.46053 3.33104 3.79059 4.23216 3.33093 5.24294C2.87128 6.25372 2.63247 7.3509 2.63044 8.46128V13.8719L0.544972 15.969C0.283021 16.2353 0.105383 16.5729 0.0342649 16.9396C-0.0368533 17.3064 0.00170379 17.6859 0.145116 18.0308C0.288528 18.3758 0.530432 18.6708 0.840588 18.879C1.15074 19.0872 1.51539 19.1993 1.88894 19.2014H5.78181V19.5954C5.83593 20.7716 6.3541 21.8783 7.22278 22.6732C8.09146 23.468 9.23981 23.8861 10.4162 23.8358C11.5926 23.8861 12.7409 23.468 13.6096 22.6732C14.4783 21.8783 14.9964 20.7716 15.0506 19.5954V19.2014H18.9434C19.317 19.1993 19.6816 19.0872 19.9918 18.879C20.3019 18.6708 20.5438 18.3758 20.6872 18.0308C20.8307 17.6859 20.8692 17.3064 20.7981 16.9396C20.727 16.5729 20.5493 16.2353 20.2874 15.969ZM12.7334 19.5954C12.6691 20.1526 12.3923 20.6636 11.9607 21.0219C11.529 21.3802 10.9758 21.5581 10.4162 21.5186C9.8566 21.5581 9.30335 21.3802 8.87169 21.0219C8.44003 20.6636 8.16325 20.1526 8.099 19.5954V19.2014H12.7334V19.5954ZM2.89692 16.8842L4.26405 15.5171C4.48091 15.3015 4.65295 15.0452 4.77027 14.7628C4.88759 14.4805 4.94787 14.1777 4.94762 13.8719V8.46128C4.94826 7.6797 5.11606 6.90729 5.43979 6.1959C5.76351 5.48451 6.23566 4.85059 6.82454 4.3367C7.40548 3.81033 8.09387 3.41648 8.84205 3.18243C9.59023 2.94837 10.3803 2.87969 11.1577 2.98114C12.4976 3.1987 13.7138 3.89297 14.5824 4.93613C15.4509 5.97929 15.9135 7.30111 15.8847 8.65824V13.8719C15.883 14.1769 15.9414 14.4792 16.0567 14.7615C16.1721 15.0438 16.342 15.3006 16.5567 15.5171L17.9354 16.8842H2.89692Z" fill="white"/>
</svg>
