<svg width="30" height="26" viewBox="0 0 30 26" fill="none" xmlns="http://www.w3.org/2000/svg">
<path d="M21.003 11.5169C23.1065 11.5169 24.8337 9.78839 24.8337 7.68549C24.8337 5.57551 23.1063 3.83899 21.003 3.83899C18.8919 3.83899 17.1558 5.57527 17.1558 7.68549C17.1555 9.78839 18.8919 11.5169 21.003 11.5169V11.5169ZM21.003 5.15248C22.3788 5.15248 23.5204 6.27891 23.5204 7.68579C23.5204 9.06976 22.3788 10.1955 21.003 10.1955C19.6106 10.1955 18.4856 9.06927 18.4856 7.68579C18.4856 6.27891 19.6109 5.15248 21.003 5.15248V5.15248Z" fill="#E1E9F7"/>
<path d="M1.14916 25.3187H28.5135C29.1444 25.3187 29.646 24.7934 29.646 24.1698V1.13352C29.646 0.51068 29.1441 0 28.5135 0H1.14916C0.517999 0 0 0.510443 0 1.13352V24.1698C0 24.7931 0.518012 25.319 1.14916 25.319V25.3187ZM2.28167 2.27367H27.3641V18.5868L21.9591 13.1897C21.7004 12.9224 21.2721 12.9224 21.005 13.1897L16.9266 17.2756L10.9069 11.2559C10.6317 10.9886 10.2193 10.9886 9.93587 11.2559L2.2813 18.9261L2.28167 2.27367ZM2.28167 20.8518L10.4217 12.7125L15.9563 18.2391L13.9981 20.1883C13.7393 20.4639 13.7393 20.8925 13.9981 21.1513C14.2732 21.4181 14.7096 21.4181 14.9687 21.1513L17.3963 18.732H17.4127V18.7161L21.491 14.6384L27.3646 20.5203V23.0285H2.28159L2.28167 20.8518Z" fill="#E1E9F7"/>
</svg>
