<svg width="24" height="24" viewBox="0 0 24 24" fill="none" xmlns="http://www.w3.org/2000/svg">
<path d="M15 9H17V11H15V9ZM17 5H15V7H17V5ZM13 5H11V7H13V5ZM9 5H7V7H9V5ZM14.55 21H13V17.5H11V21H5V3H19V11.03C19.71 11.09 20.39 11.31 21 11.63V1H3V23H15.91C15.5 22.44 15 21.76 14.55 21ZM7 19H9V17H7V19Z" fill="#0050A4"/>
<path d="M19.6922 15.4911C20.3801 15.4911 20.9377 14.9334 20.9377 14.2455C20.9377 13.5576 20.3801 13 19.6922 13C19.0043 13 18.4467 13.5576 18.4467 14.2455C18.4467 14.9334 19.0043 15.4911 19.6922 15.4911Z" fill="#00B9B6"/>
<path d="M20.9658 20.5448C20.9314 20.5217 20.8927 20.5056 20.852 20.4977C20.8113 20.4897 20.7694 20.4899 20.7288 20.4983C20.6882 20.5067 20.6497 20.5231 20.6155 20.5466C20.5813 20.5701 20.5522 20.6002 20.5298 20.6351C20.2288 21.0809 19.86 21.477 19.4369 21.809C19.3341 21.8869 18.9511 22.1827 18.7892 22.1204C18.6771 22.0862 18.7425 21.8651 18.7643 21.7717L18.9293 21.2828C18.9978 21.0835 20.1904 17.5462 20.3212 17.1414C20.5143 16.5498 20.4302 15.9675 19.549 16.1076C19.3092 16.1325 16.8773 16.447 16.8337 16.4501C16.7928 16.4528 16.7528 16.4635 16.7161 16.4816C16.6793 16.4997 16.6465 16.5249 16.6194 16.5557C16.5924 16.5864 16.5717 16.6223 16.5585 16.6611C16.5453 16.6999 16.5399 16.7409 16.5426 16.7818C16.5452 16.8227 16.5559 16.8626 16.574 16.8994C16.5921 16.9361 16.6173 16.969 16.6481 16.996C16.6789 17.0231 16.7147 17.0438 16.7535 17.057C16.7923 17.0701 16.8333 17.0756 16.8742 17.0729C16.8742 17.0729 17.8083 16.9515 17.9111 16.9421C17.9637 16.937 18.0167 16.9472 18.0637 16.9715C18.1106 16.9958 18.1496 17.0332 18.1758 17.0791C18.2322 17.2536 18.2245 17.4424 18.154 17.6116C18.073 17.923 16.7932 21.5288 16.7527 21.7374C16.7093 21.912 16.7214 22.0958 16.7872 22.2632C16.8531 22.4306 16.9695 22.5734 17.1202 22.6716C17.4031 22.8601 17.7399 22.9509 18.0792 22.93C18.4092 22.926 18.7355 22.8605 19.0414 22.737C19.8168 22.4256 20.6264 21.5973 21.0529 20.9465C21.0897 20.8804 21.1011 20.8032 21.085 20.7292C21.069 20.6553 21.0266 20.5898 20.9658 20.5448Z" fill="#00B9B6"/>
<path d="M13 15H11V13H13V15Z" fill="#00B9B6"/>
<path d="M13 11H11V9H13V11Z" fill="#00B9B6"/>
<path d="M7 9H9V11H7V9Z" fill="#00B9B6"/>
<path d="M7 13H9V15H7V13Z" fill="#00B9B6"/>
</svg>
