<svg width="25" height="20" viewBox="0 0 25 20" fill="none" xmlns="http://www.w3.org/2000/svg">
<path d="M23.2143 2.85714C23.2143 1.28179 21.9325 0 20.3571 0H4.64286C3.0675 0 1.78571 1.28179 1.78571 2.85714V13.9286H0V16.0714C0 18.0407 1.60214 19.6429 3.57143 19.6429H21.4286C23.3979 19.6429 25 18.0407 25 16.0714V13.9286H23.2143V2.85714ZM3.21429 2.85714C3.21429 2.06929 3.855 1.42857 4.64286 1.42857H20.3571C21.145 1.42857 21.7857 2.06929 21.7857 2.85714V13.9286H3.21429V2.85714ZM23.5714 15.3571V16.0714C23.5714 17.2532 22.6104 18.2143 21.4286 18.2143H3.57143C2.38964 18.2143 1.42857 17.2532 1.42857 16.0714V15.3571H23.5714Z" fill="black"/>
<path d="M15.4786 5.8907L16.2207 5.14641L15.2093 4.13784L14.4679 4.88106C14.0874 4.62828 13.6618 4.45124 13.2143 4.35963V3.3107H11.7858V4.35891C11.3382 4.45063 10.9126 4.6278 10.5322 4.8807L9.79075 4.13748L8.77932 5.14606L9.52218 5.88927C9.2688 6.26947 9.09115 6.69499 8.99896 7.14249H7.95396V8.57106H8.99789C9.08938 9.01987 9.2668 9.44676 9.52039 9.8282L8.78039 10.5661L9.78932 11.5775L10.53 10.8389C10.911 11.0926 11.3374 11.2702 11.7858 11.3621V12.4032H13.2143V11.3621C13.6627 11.2703 14.089 11.0928 14.47 10.8393L15.2108 11.5778L16.2197 10.5664L15.4797 9.82856C15.7333 9.44712 15.9107 9.02023 16.0022 8.57141H17.0461V7.14284H16.0011C15.909 6.69576 15.7316 6.27063 15.4786 5.8907ZM12.5 10.0057C11.3172 10.0057 10.355 9.0432 10.355 7.8607C10.355 6.6782 11.3172 5.71606 12.5 5.71606C13.6829 5.71606 14.645 6.67784 14.645 7.8607C14.645 9.04356 13.6829 10.0057 12.5 10.0057Z" fill="black"/>
</svg>
