<svg width="24" height="24" viewBox="0 0 24 24" fill="none" xmlns="http://www.w3.org/2000/svg">
<path d="M9.75 17L9 20L8 21H16L15 20L14.25 17H9.75ZM3 13H21H3ZM5 17H19C19.5304 17 20.0391 16.7893 20.4142 16.4142C20.7893 16.0391 21 15.5304 21 15V5C21 4.46957 20.7893 3.96086 20.4142 3.58579C20.0391 3.21071 19.5304 3 19 3H5C4.46957 3 3.96086 3.21071 3.58579 3.58579C3.21071 3.96086 3 4.46957 3 5V15C3 15.5304 3.21071 16.0391 3.58579 16.4142C3.96086 16.7893 4.46957 17 5 17Z" stroke="#0050A4" stroke-width="2" stroke-linecap="round" stroke-linejoin="round"/>
<path d="M14.6921 8.77801L14.0621 8.28802C14.0758 8.1926 14.0835 8.0964 14.0851 8.00002C14.0862 7.90314 14.0781 7.80639 14.0611 7.71102L14.6861 7.22101C14.7126 7.19844 14.7306 7.16752 14.7371 7.13334C14.7437 7.09916 14.7384 7.06377 14.7221 7.03302L14.1321 6.01301C14.1143 5.98224 14.0861 5.95881 14.0526 5.9469C14.019 5.935 13.9824 5.93539 13.9491 5.94801L13.2191 6.24302C13.0666 6.12302 12.8975 6.02568 12.7171 5.95402L12.6051 5.17601C12.6012 5.14155 12.5845 5.10978 12.5585 5.08687C12.5324 5.06396 12.4988 5.05154 12.4641 5.05202H11.2841C11.249 5.05238 11.2151 5.06496 11.1883 5.08759C11.1615 5.11022 11.1434 5.14148 11.1371 5.17601L11.0251 5.95402C10.8472 6.02978 10.6792 6.12718 10.5251 6.24402L9.79311 5.94801C9.75978 5.93619 9.7234 5.9362 9.69008 5.94803C9.65675 5.95987 9.62852 5.98282 9.61011 6.01301L9.02011 7.03302C9.00219 7.06353 8.99596 7.09952 9.00258 7.13428C9.0092 7.16905 9.02823 7.20023 9.05611 7.22202L9.68111 7.71201C9.65757 7.90363 9.65757 8.0974 9.68111 8.28901L9.05611 8.77902C9.02979 8.80172 9.01199 8.8327 9.00562 8.86687C8.99926 8.90104 9.00473 8.93636 9.02111 8.96702L9.61111 9.98701C9.62892 10.0176 9.65695 10.0408 9.69025 10.0527C9.72355 10.0646 9.75998 10.0644 9.79311 10.052L10.5241 9.75702C10.6764 9.87693 10.8451 9.97426 11.0251 10.046L11.1371 10.824C11.1427 10.8591 11.1607 10.8909 11.1879 10.9137C11.2151 10.9365 11.2496 10.9487 11.2851 10.948H12.4641C12.4992 10.9477 12.5331 10.9351 12.5599 10.9124C12.5867 10.8898 12.6048 10.8585 12.6111 10.824L12.7231 10.046C12.9002 9.9716 13.0666 9.87409 13.2181 9.75602L13.9551 10.052C13.9884 10.0638 14.0248 10.0638 14.0582 10.052C14.0915 10.0402 14.1197 10.0172 14.1381 9.98701L14.7281 8.96702C14.7446 8.93615 14.7501 8.90055 14.7435 8.86615C14.737 8.83175 14.7188 8.80064 14.6921 8.77801ZM11.8741 8.88401C11.6993 8.88382 11.5285 8.8318 11.3833 8.73455C11.238 8.63729 11.1249 8.49916 11.0581 8.33761C10.9914 8.17607 10.974 7.99836 11.0082 7.82694C11.0424 7.65553 11.1267 7.49811 11.2504 7.37458C11.3741 7.25105 11.5316 7.16696 11.703 7.13293C11.8745 7.0989 12.0522 7.11646 12.2136 7.1834C12.3751 7.25034 12.5131 7.36364 12.6102 7.50899C12.7073 7.65435 12.7591 7.82522 12.7591 8.00002C12.7592 8.11622 12.7364 8.23132 12.692 8.33869C12.6476 8.44607 12.5824 8.54362 12.5001 8.62575C12.4179 8.70787 12.3203 8.77296 12.2129 8.81728C12.1054 8.8616 11.9903 8.88428 11.8741 8.88401Z" fill="#00B9B6"/>
</svg>
