<svg width="1920" height="376" viewBox="0 0 1920 376" fill="none" xmlns="http://www.w3.org/2000/svg">
<rect width="1920" height="376" fill="#E8F0F9"/>
<g opacity="0.8">
<mask id="mask0" mask-type="alpha" maskUnits="userSpaceOnUse" x="0" y="0" width="1933" height="376">
<rect width="1933" height="376" fill="#DCE8F4"/>
</mask>
<g mask="url(#mask0)">
<path d="M-15.9323 -176C-0.128195 -114.319 44.1333 21.6722 167.472 111.172C225.313 153.143 283.401 172.457 336.356 184.106C625.206 247.647 747.554 79.5487 1002.51 99.0151C1297.8 121.563 1365.12 364.74 1633.48 334.838C1762.8 320.428 1861.19 251.248 1919.64 201.124C1920.41 434.449 1921.17 142.675 1921.94 376C1263.9 376 642.104 376 -15.9318 376C-19.969 36.1491 -11.8962 163.851 -15.9323 -176Z" fill="#DCE8F4"/>
</g>
</g>
<path d="M292.38 310.789C292.38 312.33 291.131 313.579 289.59 313.579C288.049 313.579 286.801 312.33 286.801 310.789C286.801 309.249 288.049 308 289.59 308C291.131 308 292.38 309.249 292.38 310.789Z" fill="#0050A4"/>
<path d="M312.281 310.789C312.281 312.33 311.031 313.579 309.492 313.579C307.951 313.579 306.702 312.33 306.702 310.789C306.702 309.249 307.951 308 309.492 308C311.031 308 312.281 309.249 312.281 310.789Z" fill="#0050A4"/>
<path d="M332.181 310.789C332.181 312.33 330.933 313.579 329.392 313.579C327.852 313.579 326.602 312.33 326.602 310.789C326.602 309.249 327.852 308 329.392 308C330.933 308 332.181 309.249 332.181 310.789Z" fill="#0050A4"/>
<path d="M352.082 310.789C352.082 312.33 350.834 313.579 349.293 313.579C347.752 313.579 346.502 312.33 346.502 310.789C346.502 309.249 347.752 308 349.293 308C350.834 308 352.082 309.249 352.082 310.789Z" fill="#0050A4"/>
<path d="M272.48 329.956C272.48 331.497 271.232 332.747 269.691 332.747C268.15 332.747 266.9 331.497 266.9 329.956C266.9 328.417 268.15 327.167 269.691 327.167C271.232 327.167 272.48 328.417 272.48 329.956Z" fill="#0050A4"/>
<path d="M292.38 329.956C292.38 331.497 291.131 332.747 289.59 332.747C288.049 332.747 286.801 331.497 286.801 329.956C286.801 328.417 288.049 327.167 289.59 327.167C291.131 327.167 292.38 328.417 292.38 329.956Z" fill="#0050A4"/>
<path d="M312.281 329.956C312.281 331.497 311.031 332.747 309.492 332.747C307.951 332.747 306.702 331.497 306.702 329.956C306.702 328.417 307.951 327.167 309.492 327.167C311.031 327.167 312.281 328.417 312.281 329.956Z" fill="#0050A4"/>
<path d="M332.181 329.956C332.181 331.497 330.933 332.747 329.392 332.747C327.852 332.747 326.602 331.497 326.602 329.956C326.602 328.417 327.852 327.167 329.392 327.167C330.933 327.167 332.181 328.417 332.181 329.956Z" fill="#0050A4"/>
<path d="M352.082 329.956C352.082 331.497 350.834 332.747 349.293 332.747C347.752 332.747 346.502 331.497 346.502 329.956C346.502 328.417 347.752 327.167 349.293 327.167C350.834 327.167 352.082 328.417 352.082 329.956Z" fill="#0050A4"/>
<path d="M371.983 329.956C371.983 331.497 370.735 332.747 369.192 332.747C367.653 332.747 366.404 331.497 366.404 329.956C366.404 328.417 367.653 327.167 369.192 327.167C370.735 327.167 371.983 328.417 371.983 329.956Z" fill="#0050A4"/>
<path d="M252.579 349.126C252.579 350.665 251.33 351.915 249.789 351.915C248.249 351.915 247 350.665 247 349.126C247 347.585 248.249 346.335 249.789 346.335C251.33 346.335 252.579 347.585 252.579 349.126Z" fill="#0050A4"/>
<path d="M272.48 349.126C272.48 350.665 271.232 351.915 269.691 351.915C268.15 351.915 266.9 350.665 266.9 349.126C266.9 347.585 268.15 346.335 269.691 346.335C271.232 346.335 272.48 347.585 272.48 349.126Z" fill="#0050A4"/>
<path d="M292.38 349.126C292.38 350.665 291.131 351.915 289.59 351.915C288.049 351.915 286.801 350.665 286.801 349.126C286.801 347.585 288.049 346.335 289.59 346.335C291.131 346.335 292.38 347.585 292.38 349.126Z" fill="#0050A4"/>
<path d="M312.281 349.126C312.281 350.665 311.031 351.915 309.492 351.915C307.951 351.915 306.702 350.665 306.702 349.126C306.702 347.585 307.951 346.335 309.492 346.335C311.031 346.335 312.281 347.585 312.281 349.126Z" fill="#0050A4"/>
<path d="M332.181 349.126C332.181 350.665 330.933 351.915 329.392 351.915C327.852 351.915 326.602 350.665 326.602 349.126C326.602 347.585 327.852 346.335 329.392 346.335C330.933 346.335 332.181 347.585 332.181 349.126Z" fill="#0050A4"/>
<path d="M352.082 349.126C352.082 350.665 350.834 351.915 349.293 351.915C347.752 351.915 346.502 350.665 346.502 349.126C346.502 347.585 347.752 346.335 349.293 346.335C350.834 346.335 352.082 347.585 352.082 349.126Z" fill="#0050A4"/>
<path d="M371.983 349.126C371.983 350.665 370.735 351.915 369.192 351.915C367.653 351.915 366.404 350.665 366.404 349.126C366.404 347.585 367.653 346.335 369.192 346.335C370.735 346.335 371.983 347.585 371.983 349.126Z" fill="#0050A4"/>
<path d="M252.579 368.294C252.579 369.833 251.33 371.083 249.789 371.083C248.249 371.083 247 369.833 247 368.294C247 366.753 248.249 365.503 249.789 365.503C251.33 365.503 252.579 366.753 252.579 368.294Z" fill="#0050A4"/>
<path d="M272.48 368.294C272.48 369.833 271.232 371.083 269.691 371.083C268.15 371.083 266.9 369.833 266.9 368.294C266.9 366.753 268.15 365.503 269.691 365.503C271.232 365.503 272.48 366.753 272.48 368.294Z" fill="#0050A4"/>
<path d="M292.38 368.294C292.38 369.833 291.131 371.083 289.59 371.083C288.049 371.083 286.801 369.833 286.801 368.294C286.801 366.753 288.049 365.503 289.59 365.503C291.131 365.503 292.38 366.753 292.38 368.294Z" fill="#0050A4"/>
<path d="M312.281 368.294C312.281 369.833 311.031 371.083 309.492 371.083C307.951 371.083 306.702 369.833 306.702 368.294C306.702 366.753 307.951 365.503 309.492 365.503C311.031 365.503 312.281 366.753 312.281 368.294Z" fill="#0050A4"/>
<path d="M332.181 368.294C332.181 369.833 330.933 371.083 329.392 371.083C327.852 371.083 326.602 369.833 326.602 368.294C326.602 366.753 327.852 365.503 329.392 365.503C330.933 365.503 332.181 366.753 332.181 368.294Z" fill="#0050A4"/>
<path d="M352.082 368.294C352.082 369.833 350.834 371.083 349.293 371.083C347.752 371.083 346.502 369.833 346.502 368.294C346.502 366.753 347.752 365.503 349.293 365.503C350.834 365.503 352.082 366.753 352.082 368.294Z" fill="#0050A4"/>
<path d="M371.983 368.294C371.983 369.833 370.735 371.083 369.192 371.083C367.653 371.083 366.404 369.833 366.404 368.294C366.404 366.753 367.653 365.503 369.192 365.503C370.735 365.503 371.983 366.753 371.983 368.294Z" fill="#0050A4"/>
<path d="M391.803 368.294C391.803 369.833 390.554 371.083 389.013 371.083C387.473 371.083 386.222 369.833 386.222 368.294C386.222 366.753 387.473 365.503 389.013 365.503C390.554 365.503 391.803 366.753 391.803 368.294Z" fill="#0050A4"/>
<path d="M391.782 349.126C391.782 350.665 390.532 351.915 388.991 351.915C387.452 351.915 386.201 350.665 386.201 349.126C386.201 347.585 387.452 346.335 388.991 346.335C390.532 346.335 391.782 347.585 391.782 349.126Z" fill="#0050A4"/>
<path d="M1712.13 50.5652C1712.13 51.9825 1710.98 53.1318 1709.57 53.1318C1708.15 53.1318 1707 51.9825 1707 50.5652C1707 49.1478 1708.15 47.9998 1709.57 47.9998C1710.98 47.9998 1712.13 49.1478 1712.13 50.5652Z" fill="#0050A4"/>
<path d="M1712.13 68.197C1712.13 69.6143 1710.98 70.7637 1709.57 70.7637C1708.15 70.7637 1707 69.6143 1707 68.197C1707 66.7797 1708.15 65.6317 1709.57 65.6317C1710.98 65.6317 1712.13 66.7797 1712.13 68.197Z" fill="#0050A4"/>
<path d="M1712.13 85.8284C1712.13 87.2457 1710.98 88.395 1709.57 88.395C1708.15 88.395 1707 87.2457 1707 85.8284C1707 84.411 1708.15 83.263 1709.57 83.263C1710.98 83.263 1712.13 84.411 1712.13 85.8284Z" fill="#0050A4"/>
<path d="M1712.13 103.46C1712.13 104.877 1710.98 106.026 1709.57 106.026C1708.15 106.026 1707 104.877 1707 103.46C1707 102.042 1708.15 100.894 1709.57 100.894C1710.98 100.894 1712.13 102.042 1712.13 103.46Z" fill="#0050A4"/>
<path d="M1730.36 85.8284C1730.36 87.2457 1729.21 88.395 1727.8 88.395C1726.38 88.395 1725.23 87.2457 1725.23 85.8284C1725.23 84.411 1726.38 83.263 1727.8 83.263C1729.21 83.263 1730.36 84.411 1730.36 85.8284Z" fill="#0050A4"/>
<path d="M1730.36 103.46C1730.36 104.877 1729.21 106.026 1727.8 106.026C1726.38 106.026 1725.23 104.877 1725.23 103.46C1725.23 102.042 1726.38 100.894 1727.8 100.894C1729.21 100.894 1730.36 102.042 1730.36 103.46Z" fill="#0050A4"/>
<path d="M1712.13 121.092C1712.13 122.508 1710.98 123.657 1709.57 123.657C1708.15 123.657 1707 122.508 1707 121.092C1707 119.675 1708.15 118.525 1709.57 118.525C1710.98 118.525 1712.13 119.675 1712.13 121.092Z" fill="#0050A4"/>
<path d="M1712.13 138.724C1712.13 140.14 1710.98 141.289 1709.57 141.289C1708.15 141.289 1707 140.14 1707 138.724C1707 137.306 1708.15 136.157 1709.57 136.157C1710.98 136.157 1712.13 137.306 1712.13 138.724Z" fill="#0050A4"/>
<path d="M1712.13 156.355C1712.13 157.771 1710.98 158.922 1709.57 158.922C1708.15 158.922 1707 157.771 1707 156.355C1707 154.938 1708.15 153.789 1709.57 153.789C1710.98 153.789 1712.13 154.938 1712.13 156.355Z" fill="#0050A4"/>
<path d="M1730.34 68.197C1730.34 69.6143 1729.2 70.7637 1727.78 70.7637C1726.36 70.7637 1725.21 69.6143 1725.21 68.197C1725.21 66.7797 1726.36 65.6317 1727.78 65.6317C1729.2 65.6317 1730.34 66.7797 1730.34 68.197Z" fill="#0050A4"/>
<path d="M1730.34 121.092C1730.34 122.508 1729.2 123.657 1727.78 123.657C1726.36 123.657 1725.21 122.508 1725.21 121.092C1725.21 119.675 1726.36 118.525 1727.78 118.525C1729.2 118.525 1730.34 119.675 1730.34 121.092Z" fill="#0050A4"/>
<path d="M1730.34 138.724C1730.34 140.14 1729.2 141.289 1727.78 141.289C1726.36 141.289 1725.21 140.14 1725.21 138.724C1725.21 137.306 1726.36 136.157 1727.78 136.157C1729.2 136.157 1730.34 137.306 1730.34 138.724Z" fill="#0050A4"/>
</svg>
