<svg width="25" height="32" viewBox="0 0 25 32" fill="none" xmlns="http://www.w3.org/2000/svg">
<path d="M12.0161 13.3308C11.225 13.3308 10.4516 13.5654 9.79385 14.0049C9.13605 14.4444 8.62336 15.0691 8.32061 15.8C8.01786 16.531 7.93865 17.3352 8.09299 18.1111C8.24733 18.8871 8.62829 19.5998 9.1877 20.1592C9.74711 20.7186 10.4598 21.0996 11.2358 21.2539C12.0117 21.4083 12.816 21.3291 13.5469 21.0263C14.2778 20.7235 14.9025 20.2109 15.342 19.5531C15.7815 18.8953 16.0161 18.1219 16.0161 17.3308C16.0161 16.2699 15.5947 15.2525 14.8446 14.5024C14.0944 13.7522 13.077 13.3308 12.0161 13.3308ZM12.0161 19.9974C11.4887 19.9974 10.9731 19.8411 10.5346 19.548C10.0961 19.255 9.75429 18.8385 9.55245 18.3513C9.35062 17.864 9.29781 17.3278 9.4007 16.8105C9.5036 16.2933 9.75757 15.8181 10.1305 15.4452C10.5035 15.0722 10.9786 14.8182 11.4959 14.7154C12.0132 14.6125 12.5493 14.6653 13.0366 14.8671C13.5239 15.0689 13.9404 15.4107 14.2334 15.8493C14.5264 16.2878 14.6828 16.8034 14.6828 17.3308C14.6828 18.038 14.4018 18.7163 13.9017 19.2164C13.4016 19.7165 12.7234 19.9974 12.0161 19.9974Z" fill="#00B9B6"/>
<path d="M23.8828 24.4441L20.2428 19.5908C20.7228 12.5708 18.3028 5.77079 12.4761 0.184127C12.3521 0.0659341 12.1874 0 12.0161 0C11.8448 0 11.6801 0.0659341 11.5561 0.184127C5.73613 5.75746 3.30946 12.5708 3.78946 19.5908C-0.143869 24.8375 0.016131 24.5241 0.016131 24.8441C0.016131 30.3241 -0.117202 30.3441 0.382798 30.5908C0.882798 30.8374 0.682798 30.8308 5.5828 27.1508C6.24946 28.8241 6.1228 28.6641 7.5228 28.6641C8.4028 31.6041 8.3628 31.9974 9.01613 31.9974H15.0161C15.6828 31.9974 15.6428 31.5641 16.5095 28.6641C17.9028 28.6641 17.7561 28.8375 18.4495 27.1508C23.3495 30.8041 23.0361 30.6641 23.3495 30.6641C23.5263 30.6641 23.6958 30.5939 23.8209 30.4689C23.9459 30.3438 24.0161 30.1743 24.0161 29.9974C24.0161 24.4375 24.0695 24.6975 23.8828 24.4441ZM12.0161 1.58413C13.9358 3.43166 15.5154 5.60252 16.6828 7.99746H7.34946C8.51683 5.60252 10.0965 3.43166 12.0161 1.58413ZM1.34946 25.0641L4.01613 21.5308C4.24188 23.0017 4.60571 24.4481 5.1028 25.8508L1.34946 28.6641V25.0641ZM14.5228 30.6641H9.50946L8.90946 28.6641H15.1228L14.5228 30.6641ZM16.9228 27.3308H12.6828V25.3308C12.6828 25.154 12.6126 24.9844 12.4875 24.8594C12.3625 24.7344 12.1929 24.6641 12.0161 24.6641C11.8393 24.6641 11.6697 24.7344 11.5447 24.8594C11.4197 24.9844 11.3495 25.154 11.3495 25.3308V27.3308H7.10946C5.82424 24.5137 5.12982 21.4632 5.06905 18.3674C5.00828 15.2716 5.58245 12.1961 6.75613 9.33079H17.2761C18.4498 12.1961 19.024 15.2716 18.9632 18.3674C18.9024 21.4632 18.208 24.5137 16.9228 27.3308ZM22.6828 28.6641L18.9428 25.8508C19.4353 24.4477 19.7947 23.0013 20.0161 21.5308L22.6828 25.0641V28.6641Z" fill="#0050A4"/>
</svg>
