<svg width="20" height="20" viewBox="0 0 20 20" fill="none" xmlns="http://www.w3.org/2000/svg">
<path d="M13.75 2.5C15.8181 2.5 17.5 4.18188 17.5 6.25C17.5 8.31812 15.8181 10 13.75 10C13.555 10 13.34 9.97563 13.0712 9.92688L11.7775 9.6875L10.8475 10.6175L10.7325 10.7325L10 11.465V12.5H7.5V15H5V17.5H2.5V16.035L9.3825 9.1525L10.3125 8.2225L10.0731 6.92875C10.0231 6.66 10 6.445 10 6.25C10 4.18188 11.6819 2.5 13.75 2.5ZM13.75 0C10.2981 0 7.5 2.79813 7.5 6.25C7.5 6.64062 7.54625 7.01687 7.615 7.385L0 15V20H7.5V17.5H10V15H12.5V12.5L12.615 12.385C12.9831 12.4537 13.3594 12.5 13.75 12.5C17.2019 12.5 20 9.70187 20 6.25C20 2.79813 17.2019 0 13.75 0Z" fill="#00B9B6"/>
</svg>
