<svg width="24" height="32" viewBox="0 0 24 32" fill="none" xmlns="http://www.w3.org/2000/svg">
<path opacity="0.5" d="M18.3978 16.8012C21.0484 16.8012 23.1972 14.6524 23.1972 12.0018C23.1972 9.35116 21.0484 7.20239 18.3978 7.20239C15.7472 7.20239 13.5984 9.35116 13.5984 12.0018C13.5984 14.6524 15.7472 16.8012 18.3978 16.8012Z" fill="#00FFC2"/>
<path d="M17.5978 32.0001H3.1996C2.35102 32.0001 1.53718 31.663 0.937142 31.063C0.3371 30.4629 0 29.6491 0 28.8005V3.20369C0 2.35511 0.3371 1.54127 0.937142 0.941231C1.53718 0.341189 2.35102 0.00408936 3.1996 0.00408936H17.5978C18.4464 0.00408936 19.2602 0.341189 19.8603 0.941231C20.4603 1.54127 20.7974 2.35511 20.7974 3.20369V28.8005C20.7974 29.6491 20.4603 30.4629 19.8603 31.063C19.2602 31.663 18.4464 32.0001 17.5978 32.0001ZM3.1996 1.60389C2.77531 1.60389 2.36839 1.77244 2.06837 2.07246C1.76835 2.37248 1.5998 2.7794 1.5998 3.20369V28.8005C1.5998 29.2248 1.76835 29.6317 2.06837 29.9318C2.36839 30.2318 2.77531 30.4003 3.1996 30.4003H17.5978C18.0221 30.4003 18.429 30.2318 18.729 29.9318C19.0291 29.6317 19.1976 29.2248 19.1976 28.8005V3.20369C19.1976 2.7794 19.0291 2.37248 18.729 2.07246C18.429 1.77244 18.0221 1.60389 17.5978 1.60389H3.1996Z" fill="#231F20"/>
<path d="M12.7984 4.00278H7.99896C7.89369 4.00339 7.78933 3.98321 7.69187 3.9434C7.59441 3.90359 7.50577 3.84494 7.43103 3.77081L5.03133 1.3711C4.8807 1.22048 4.79608 1.01619 4.79608 0.803174C4.79608 0.590159 4.8807 0.385868 5.03133 0.235244C5.18195 0.0846199 5.38624 0 5.59926 0C5.81227 0 6.01656 0.0846199 6.16718 0.235244L8.32692 2.40298H12.4704L14.6301 0.235244C14.7808 0.0846199 14.9851 0 15.1981 0C15.4111 0 15.6154 0.0846199 15.766 0.235244C15.9166 0.385868 16.0012 0.590159 16.0012 0.803174C16.0012 1.01619 15.9166 1.22048 15.766 1.3711L13.3663 3.77081C13.2915 3.84494 13.2029 3.90359 13.1055 3.9434C13.008 3.98321 12.9036 4.00339 12.7984 4.00278ZM10.3987 17.6011C9.29122 17.6011 8.20865 17.2727 7.28785 16.6574C6.36705 16.0422 5.64937 15.1677 5.22558 14.1445C4.80178 13.1214 4.69089 11.9956 4.90694 10.9094C5.12299 9.82325 5.65628 8.82555 6.43935 8.04248C7.22243 7.2594 8.22013 6.72612 9.30629 6.51007C10.3924 6.29402 11.5183 6.4049 12.5414 6.8287C13.5646 7.2525 14.4391 7.97018 15.0543 8.89098C15.6696 9.81178 15.998 10.8943 15.998 12.0018C15.998 13.4868 15.408 14.911 14.358 15.9611C13.3079 17.0112 11.8837 17.6011 10.3987 17.6011ZM10.3987 8.00228C9.60763 8.00228 8.83437 8.23685 8.17665 8.67632C7.51894 9.11579 7.00631 9.74043 6.7036 10.4712C6.40089 11.2021 6.32168 12.0062 6.476 12.782C6.63033 13.5579 7.01124 14.2705 7.57058 14.8299C8.12992 15.3892 8.84257 15.7701 9.6184 15.9244C10.3942 16.0788 11.1984 15.9996 11.9292 15.6968C12.66 15.3941 13.2847 14.8815 13.7241 14.2238C14.1636 13.5661 14.3982 12.7928 14.3982 12.0018C14.3982 10.941 13.9768 9.92376 13.2267 9.17371C12.4767 8.42365 11.4594 8.00228 10.3987 8.00228ZM15.1981 21.6006H5.59926C5.38711 21.6006 5.18365 21.5163 5.03364 21.3663C4.88363 21.2163 4.79935 21.0128 4.79935 20.8007C4.79935 20.5885 4.88363 20.3851 5.03364 20.2351C5.18365 20.0851 5.38711 20.0008 5.59926 20.0008H15.1981C15.4102 20.0008 15.6137 20.0851 15.7637 20.2351C15.9137 20.3851 15.998 20.5885 15.998 20.8007C15.998 21.0128 15.9137 21.2163 15.7637 21.3663C15.6137 21.5163 15.4102 21.6006 15.1981 21.6006ZM15.1981 24.8002H5.59926C5.38711 24.8002 5.18365 24.7159 5.03364 24.5659C4.88363 24.4159 4.79935 24.2124 4.79935 24.0003C4.79935 23.7881 4.88363 23.5847 5.03364 23.4347C5.18365 23.2847 5.38711 23.2004 5.59926 23.2004H15.1981C15.4102 23.2004 15.6137 23.2847 15.7637 23.4347C15.9137 23.5847 15.998 23.7881 15.998 24.0003C15.998 24.2124 15.9137 24.4159 15.7637 24.5659C15.6137 24.7159 15.4102 24.8002 15.1981 24.8002ZM15.1981 27.9998H5.59926C5.38711 27.9998 5.18365 27.9155 5.03364 27.7655C4.88363 27.6155 4.79935 27.412 4.79935 27.1999C4.79935 26.9878 4.88363 26.7843 5.03364 26.6343C5.18365 26.4843 5.38711 26.4 5.59926 26.4H15.1981C15.4102 26.4 15.6137 26.4843 15.7637 26.6343C15.9137 26.7843 15.998 26.9878 15.998 27.1999C15.998 27.412 15.9137 27.6155 15.7637 27.7655C15.6137 27.9155 15.4102 27.9998 15.1981 27.9998Z" fill="#231F20"/>
</svg>
