<svg width="118" height="110" viewBox="0 0 118 110" fill="none" xmlns="http://www.w3.org/2000/svg">
<path d="M115.25 81.25V87.8125C115.25 88.4281 115.129 89.0378 114.894 89.6065C114.658 90.1753 114.313 90.6922 113.877 91.1275C113.442 91.5628 112.925 91.9081 112.357 92.1436C111.788 92.3791 111.178 92.5002 110.562 92.5H7.4375C6.82188 92.5002 6.21225 92.3791 5.64345 92.1436C5.07466 91.9081 4.55784 91.5628 4.12252 91.1275C3.68721 90.6922 3.34194 90.1753 3.10644 89.6065C2.87094 89.0378 2.74982 88.4281 2.75 87.8125V81.25H115.25Z" fill="#D8D7DA"/>
<path d="M72.125 101.875H45.875L47.75 92.5H70.25L72.125 101.875Z" fill="#787680"/>
<path d="M36.5 101.875H81.5V107.5H36.5V101.875Z" fill="#D8D7DA"/>
<path d="M59 32.5C67.2843 32.5 74 25.7843 74 17.5C74 9.21573 67.2843 2.5 59 2.5C50.7157 2.5 44 9.21573 44 17.5C44 25.7843 50.7157 32.5 59 32.5Z" fill="#00B9B6"/>
<path d="M59 25C60.0355 25 60.875 24.1605 60.875 23.125C60.875 22.0895 60.0355 21.25 59 21.25C57.9645 21.25 57.125 22.0895 57.125 23.125C57.125 24.1605 57.9645 25 59 25Z" fill="#D8D7DA"/>
<path d="M55.25 18.9324C56.2813 18.01 57.6164 17.5 59 17.5C60.3836 17.5 61.7187 18.01 62.75 18.9324" fill="#D8D7DA"/>
<path d="M110.562 11.8748H74.907C73.7445 8.58493 71.5904 5.73642 68.7416 3.72166C65.8927 1.70689 62.4893 0.625 59 0.625C55.5107 0.625 52.1073 1.70689 49.2584 3.72166C46.4096 5.73642 44.2555 8.58493 43.093 11.8748H7.4375C5.69761 11.8768 4.02953 12.5688 2.79924 13.7991C1.56895 15.0294 0.876923 16.6975 0.875 18.4373V87.8123C0.876923 89.5522 1.56895 91.2203 2.79924 92.4506C4.02953 93.6809 5.69761 94.3729 7.4375 94.3748H45.4625L44.3375 99.9998H36.5C36.0027 99.9998 35.5258 100.197 35.1742 100.549C34.8225 100.901 34.625 101.378 34.625 101.875V105.625H21.5C21.0027 105.625 20.5258 105.822 20.1742 106.174C19.8225 106.526 19.625 107.003 19.625 107.5C19.625 107.997 19.8225 108.474 20.1742 108.826C20.5258 109.177 21.0027 109.375 21.5 109.375H89C89.4973 109.375 89.9742 109.177 90.3258 108.826C90.6775 108.474 90.875 107.997 90.875 107.5C90.875 107.003 90.6775 106.526 90.3258 106.174C89.9742 105.822 89.4973 105.625 89 105.625H83.375V101.875C83.375 101.378 83.1775 100.901 82.8258 100.549C82.4742 100.197 81.9973 99.9998 81.5 99.9998H73.6625L72.5375 94.3748H110.562C112.302 94.3729 113.97 93.6809 115.201 92.4506C116.431 91.2203 117.123 89.5522 117.125 87.8123V18.4373C117.123 16.6975 116.431 15.0294 115.201 13.7991C113.97 12.5688 112.302 11.8768 110.562 11.8748ZM59 4.37485C61.5959 4.37485 64.1335 5.14462 66.2919 6.58681C68.4503 8.029 70.1325 10.0788 71.1259 12.4771C72.1193 14.8754 72.3792 17.5144 71.8728 20.0604C71.3664 22.6064 70.1163 24.9451 68.2808 26.7806C66.4452 28.6162 64.1066 29.8662 61.5606 30.3727C59.0146 30.8791 56.3756 30.6192 53.9773 29.6258C51.579 28.6324 49.5292 26.9501 48.087 24.7917C46.6448 22.6333 45.875 20.0957 45.875 17.4998C45.8788 14.0201 47.2629 10.6839 49.7235 8.22332C52.1841 5.76274 55.5202 4.37869 59 4.37485ZM79.625 103.75V105.625H38.375V103.75H79.625ZM48.1625 99.9998L49.2875 94.3748H68.7125L69.8375 99.9998H48.1625ZM113.375 87.8123C113.374 88.5581 113.078 89.2731 112.551 89.8004C112.023 90.3277 111.308 90.6242 110.562 90.6248H7.4375C6.69177 90.6242 5.97676 90.3277 5.44945 89.8004C4.92214 89.2731 4.62562 88.5581 4.625 87.8123V83.1248H113.375V87.8123ZM113.375 79.3748H4.625V18.4373C4.62562 17.6916 4.92214 16.9766 5.44945 16.4493C5.97676 15.922 6.69177 15.6255 7.4375 15.6248H42.2328C42.1613 16.2473 42.1253 16.8733 42.125 17.4998C42.125 21.9754 43.9029 26.2676 47.0676 29.4323C50.2323 32.5969 54.5245 34.3748 59 34.3748C63.4755 34.3748 67.7677 32.5969 70.9324 29.4323C74.0971 26.2676 75.875 21.9754 75.875 17.4998C75.8747 16.8733 75.8387 16.2473 75.7672 15.6248H110.562C111.308 15.6255 112.023 15.922 112.551 16.4493C113.078 16.9766 113.374 17.6916 113.375 18.4373V79.3748Z" fill="black"/>
<path d="M60.875 85H57.125C56.6277 85 56.1508 85.1975 55.7992 85.5492C55.4475 85.9008 55.25 86.3777 55.25 86.875C55.25 87.3723 55.4475 87.8492 55.7992 88.2008C56.1508 88.5525 56.6277 88.75 57.125 88.75H60.875C61.3723 88.75 61.8492 88.5525 62.2008 88.2008C62.5525 87.8492 62.75 87.3723 62.75 86.875C62.75 86.3777 62.5525 85.9008 62.2008 85.5492C61.8492 85.1975 61.3723 85 60.875 85Z" fill="black"/>
<path d="M96.5 105.625H94.625C94.1277 105.625 93.6508 105.823 93.2992 106.174C92.9475 106.526 92.75 107.003 92.75 107.5C92.75 107.997 92.9475 108.474 93.2992 108.826C93.6508 109.177 94.1277 109.375 94.625 109.375H96.5C96.9973 109.375 97.4742 109.177 97.8258 108.826C98.1775 108.474 98.375 107.997 98.375 107.5C98.375 107.003 98.1775 106.526 97.8258 106.174C97.4742 105.823 96.9973 105.625 96.5 105.625Z" fill="black"/>
<path d="M59 25C60.0355 25 60.875 24.1605 60.875 23.125C60.875 22.0895 60.0355 21.25 59 21.25C57.9645 21.25 57.125 22.0895 57.125 23.125C57.125 24.1605 57.9645 25 59 25Z" fill="black"/>
<path d="M64.0005 17.5349C62.6254 16.3047 60.845 15.6245 58.9999 15.6245C57.1548 15.6245 55.3744 16.3047 53.9993 17.5349C53.6287 17.8666 53.4051 18.3318 53.3776 18.8283C53.3501 19.3249 53.521 19.812 53.8527 20.1825C54.1843 20.5531 54.6496 20.7767 55.1461 20.8042C55.6426 20.8316 56.1297 20.6608 56.5003 20.3291C57.1878 19.7144 58.0777 19.3746 58.9999 19.3746C59.9221 19.3746 60.812 19.7144 61.4995 20.3291C61.87 20.6608 62.3572 20.8316 62.8537 20.8042C63.3502 20.7767 63.8155 20.5531 64.1471 20.1825C64.4788 19.812 64.6497 19.3249 64.6222 18.8283C64.5947 18.3318 64.3711 17.8666 64.0005 17.5349Z" fill="black"/>
<path d="M50.1027 15.99C50.267 16.1736 50.4658 16.323 50.6878 16.4298C50.9098 16.5365 51.1507 16.5984 51.3966 16.612C51.6426 16.6256 51.8888 16.5906 52.1212 16.5091C52.3536 16.4275 52.5677 16.3009 52.7512 16.1365C54.47 14.5994 56.6949 13.7496 59.0008 13.7496C61.3067 13.7496 63.5316 14.5994 65.2504 16.1365C65.4335 16.3031 65.6477 16.4318 65.8808 16.5151C66.1139 16.5985 66.3611 16.6348 66.6083 16.6221C66.8555 16.6095 67.0977 16.548 67.321 16.4412C67.5443 16.3344 67.7443 16.1845 67.9093 16C68.0744 15.8156 68.2013 15.6003 68.2828 15.3666C68.3642 15.1329 68.3986 14.8853 68.3839 14.6382C68.3692 14.3912 68.3057 14.1494 68.1971 13.927C68.0885 13.7046 67.937 13.5059 67.7512 13.3423C65.3448 11.1898 62.2294 9.99976 59.0008 9.99976C55.7722 9.99976 52.6568 11.1898 50.2504 13.3423C50.0668 13.5065 49.9174 13.7052 49.8106 13.9271C49.7039 14.149 49.6419 14.3897 49.6282 14.6356C49.6144 14.8815 49.6493 15.1276 49.7307 15.36C49.8122 15.5924 49.9386 15.8065 50.1027 15.99Z" fill="black"/>
</svg>
