<svg width="49" height="49" viewBox="0 0 49 49" fill="none" xmlns="http://www.w3.org/2000/svg">
<path d="M6.61404 3.30807C6.61404 5.13542 5.1355 6.61621 3.30589 6.61621C1.48079 6.61621 0 5.13542 0 3.30807C0 1.48071 1.48079 -7.62939e-05 3.30589 -7.62939e-05C5.1355 -7.62939e-05 6.61404 1.48071 6.61404 3.30807Z" fill="#00B9B6"/>
<path d="M27.3118 3.30807C27.3118 5.13542 25.831 6.61621 24.0036 6.61621C22.1785 6.61621 20.6978 5.13542 20.6978 3.30807C20.6978 1.48071 22.1785 -7.62939e-05 24.0036 -7.62939e-05C25.831 -7.62939e-05 27.3118 1.48071 27.3118 3.30807Z" fill="#00B9B6" fill-opacity="0.3"/>
<path d="M48.0099 3.30807C48.0099 5.13542 46.5291 6.61621 44.7018 6.61621C42.8767 6.61621 41.3959 5.13542 41.3959 3.30807C41.3959 1.48071 42.8767 -7.62939e-05 44.7018 -7.62939e-05C46.5291 -7.62939e-05 48.0099 1.48071 48.0099 3.30807Z" fill="#00B9B6"/>
<path d="M6.61404 24.0053C6.61404 25.8327 5.1355 27.3135 3.30589 27.3135C1.48079 27.3135 0 25.8327 0 24.0053C0 22.178 1.48079 20.6972 3.30589 20.6972C5.1355 20.6972 6.61404 22.178 6.61404 24.0053Z" fill="#00B9B6" fill-opacity="0.3"/>
<path d="M27.3118 24.0053C27.3118 25.8327 25.831 27.3135 24.0036 27.3135C22.1785 27.3135 20.6978 25.8327 20.6978 24.0053C20.6978 22.178 22.1785 20.6972 24.0036 20.6972C25.831 20.6972 27.3118 22.178 27.3118 24.0053Z" fill="#00B9B6"/>
<path d="M48.0099 24.0053C48.0099 25.8327 46.5291 27.3135 44.7018 27.3135C42.8767 27.3135 41.3959 25.8327 41.3959 24.0053C41.3959 22.178 42.8767 20.6972 44.7018 20.6972C46.5291 20.6972 48.0099 22.178 48.0099 24.0053Z" fill="#00B9B6" fill-opacity="0.3"/>
<path d="M6.61404 44.7031C6.61404 46.5304 5.1355 48.0112 3.30589 48.0112C1.48079 48.0112 0 46.5304 0 44.7031C0 42.8757 1.48079 41.3949 3.30589 41.3949C5.1355 41.3949 6.61404 42.8757 6.61404 44.7031Z" fill="#00B9B6"/>
<path d="M27.3118 44.7031C27.3118 46.5304 25.831 48.0112 24.0036 48.0112C22.1785 48.0112 20.6978 46.5304 20.6978 44.7031C20.6978 42.8757 22.1785 41.3949 24.0036 41.3949C25.831 41.3949 27.3118 42.8757 27.3118 44.7031Z" fill="#00B9B6" fill-opacity="0.3"/>
<path d="M48.0099 44.7031C48.0099 46.5304 46.5291 48.0112 44.7018 48.0112C42.8767 48.0112 41.3959 46.5304 41.3959 44.7031C41.3959 42.8757 42.8767 41.3949 44.7018 41.3949C46.5291 41.3949 48.0099 42.8757 48.0099 44.7031Z" fill="#00B9B6"/>
</svg>
