<svg width="19" height="15" viewBox="0 0 19 15" fill="none" xmlns="http://www.w3.org/2000/svg">
<path d="M15.8695 0H2.8005C2.05776 0 1.34544 0.295052 0.820248 0.820247C0.295052 1.34544 0 2.05776 0 2.8005V12.1355C0 12.8782 0.295052 13.5906 0.820248 14.1158C1.34544 14.6409 2.05776 14.936 2.8005 14.936H15.8695C16.6122 14.936 17.3246 14.6409 17.8498 14.1158C18.3749 13.5906 18.67 12.8782 18.67 12.1355V2.8005C18.67 2.05776 18.3749 1.34544 17.8498 0.820247C17.3246 0.295052 16.6122 0 15.8695 0ZM15.2441 1.867L9.335 6.30112L3.42595 1.867H15.2441ZM15.8695 13.069H2.8005C2.55292 13.069 2.31548 12.9706 2.14042 12.7956C1.96535 12.6205 1.867 12.3831 1.867 12.1355V3.03387L8.7749 8.2148C8.93649 8.33599 9.13302 8.4015 9.335 8.4015C9.53698 8.4015 9.73351 8.33599 9.8951 8.2148L16.803 3.03387V12.1355C16.803 12.3831 16.7047 12.6205 16.5296 12.7956C16.3545 12.9706 16.1171 13.069 15.8695 13.069Z" fill="#00B9B6"/>
</svg>
