<svg width="37" height="32" viewBox="0 0 37 32" fill="none" xmlns="http://www.w3.org/2000/svg">
<path opacity="0.5" d="M29.9586 21.0933C32.7181 21.0933 34.9552 18.8562 34.9552 16.0967C34.9552 13.3371 32.7181 11.1 29.9586 11.1C27.199 11.1 24.9619 13.3371 24.9619 16.0967C24.9619 18.8562 27.199 21.0933 29.9586 21.0933Z" fill="#00FFC2"/>
<path d="M17.9529 28.2343C21.6907 28.2343 24.7312 25.1931 24.7312 21.456C24.7312 17.7189 21.6907 14.6777 17.9529 14.6777C14.215 14.6777 11.1746 17.7189 11.1746 21.456C11.1746 25.1931 14.215 28.2343 17.9529 28.2343ZM17.9529 16.184C20.8593 16.184 23.2249 18.5488 23.2249 21.456C23.2249 24.3631 20.8593 26.728 17.9529 26.728C15.0465 26.728 12.6809 24.3631 12.6809 21.456C12.6809 18.5488 15.0465 16.184 17.9529 16.184Z" fill="black"/>
<path d="M18.2826 31.9999C28.1007 31.9999 35.8701 22.3348 36.1955 21.9236L36.5653 21.4559L36.1955 20.9882C35.8701 20.577 28.1007 10.9118 18.2826 10.9118C8.46462 10.9118 0.695154 20.577 0.369795 20.9882L0 21.4559L0.369795 21.9236C0.695154 22.3348 8.46462 31.9999 18.2826 31.9999ZM18.2826 12.4181C26.1862 12.4181 32.9464 19.5429 34.6184 21.4559C32.9487 23.3704 26.1975 30.4936 18.2826 30.4936C10.3791 30.4936 3.61887 23.3689 1.94688 21.4559C3.61661 19.5414 10.3678 12.4181 18.2826 12.4181Z" fill="black"/>
<rect x="7.33569" y="2.42134" width="1.7515" height="7.88177" rx="0.875752" transform="rotate(-22.4847 7.33569 2.42134)" fill="black"/>
<rect x="25.8784" y="1.75142" width="1.7515" height="7.88177" rx="0.875752" transform="rotate(20.6473 25.8784 1.75142)" fill="black"/>
<rect x="16.9691" width="1.7515" height="7.88177" rx="0.875752" fill="black"/>
</svg>
