<svg width="24" height="24" viewBox="0 0 24 24" fill="none" xmlns="http://www.w3.org/2000/svg">
<path d="M6.25 2C5.65326 2 5.08097 2.23705 4.65901 2.65901C4.23705 3.08097 4 3.65326 4 4.25V17.25C4 17.8467 4.23705 18.419 4.65901 18.841C5.08097 19.2629 5.65326 19.5 6.25 19.5H15.25C15.8467 19.5 16.419 19.2629 16.841 18.841C17.2629 18.419 17.5 17.8467 17.5 17.25V8.869C17.5 8.57353 17.4418 8.28094 17.3287 8.00796C17.2157 7.73497 17.0499 7.48693 16.841 7.278L12.222 2.659C11.8003 2.23729 11.2284 2.00026 10.632 2H6.25ZM5.5 4.25C5.5 4.05109 5.57902 3.86032 5.71967 3.71967C5.86032 3.57902 6.05109 3.5 6.25 3.5H10.504V6.748C10.504 7.04347 10.5622 7.33606 10.6753 7.60904C10.7883 7.88202 10.9541 8.13006 11.163 8.33899C11.585 8.76095 12.1573 8.998 12.754 8.998H16V17.25C16 17.4489 15.921 17.6397 15.7803 17.7803C15.6397 17.921 15.4489 18 15.25 18H6.25C6.05109 18 5.86032 17.921 5.71967 17.7803C5.57902 17.6397 5.5 17.4489 5.5 17.25V4.25ZM12.004 6.748V4.562L14.939 7.498H12.754C12.5551 7.498 12.3643 7.41898 12.2237 7.27833C12.083 7.13768 12.004 6.94691 12.004 6.748Z" fill="#0050A4" stroke="#0050A4" stroke-width="0.2"/>
<path d="M7.21967 11.7197C7.36032 11.579 7.55109 11.5 7.75 11.5C7.94891 11.5 8.13968 11.579 8.28033 11.7197C8.42098 11.8603 8.5 12.0511 8.5 12.25C8.5 12.4489 8.42098 12.6397 8.28033 12.7803C8.13968 12.921 7.94891 13 7.75 13C7.55109 13 7.36032 12.921 7.21967 12.7803C7.07902 12.6397 7 12.4489 7 12.25C7 12.0511 7.07902 11.8603 7.21967 11.7197Z" fill="#00B9B6"/>
<path d="M7.21967 14.7197C7.07902 14.8603 7 15.0511 7 15.25C7 15.4489 7.07902 15.6397 7.21967 15.7803C7.36032 15.921 7.55109 16 7.75 16C7.94891 16 8.13968 15.921 8.28033 15.7803C8.42098 15.6397 8.5 15.4489 8.5 15.25C8.5 15.0511 8.42098 14.8603 8.28033 14.7197C8.13968 14.579 7.94891 14.5 7.75 14.5C7.55109 14.5 7.36032 14.579 7.21967 14.7197Z" fill="#00B9B6"/>
<path d="M10.2197 11.7197C10.079 11.8603 10 12.0511 10 12.25C10 12.4489 10.079 12.6397 10.2197 12.7803C10.3603 12.921 10.5511 13 10.75 13H13.804C14.0029 13 14.1937 12.921 14.3343 12.7803C14.475 12.6397 14.554 12.4489 14.554 12.25C14.554 12.0511 14.475 11.8603 14.3343 11.7197C14.1937 11.579 14.0029 11.5 13.804 11.5H10.75C10.5511 11.5 10.3603 11.579 10.2197 11.7197Z" fill="#00B9B6"/>
<path d="M10.2197 14.7197C10.3603 14.579 10.5511 14.5 10.75 14.5H13.804C14.0029 14.5 14.1937 14.579 14.3343 14.7197C14.475 14.8603 14.554 15.0511 14.554 15.25C14.554 15.4489 14.475 15.6397 14.3343 15.7803C14.1937 15.921 14.0029 16 13.804 16H10.75C10.5511 16 10.3603 15.921 10.2197 15.7803C10.079 15.6397 10 15.4489 10 15.25C10 15.0511 10.079 14.8603 10.2197 14.7197Z" fill="#00B9B6"/>
<path d="M7.21967 11.7197C7.36032 11.579 7.55109 11.5 7.75 11.5C7.94891 11.5 8.13968 11.579 8.28033 11.7197C8.42098 11.8603 8.5 12.0511 8.5 12.25C8.5 12.4489 8.42098 12.6397 8.28033 12.7803C8.13968 12.921 7.94891 13 7.75 13C7.55109 13 7.36032 12.921 7.21967 12.7803C7.07902 12.6397 7 12.4489 7 12.25C7 12.0511 7.07902 11.8603 7.21967 11.7197Z" stroke="#00B9B6" stroke-width="0.2"/>
<path d="M7.21967 14.7197C7.07902 14.8603 7 15.0511 7 15.25C7 15.4489 7.07902 15.6397 7.21967 15.7803C7.36032 15.921 7.55109 16 7.75 16C7.94891 16 8.13968 15.921 8.28033 15.7803C8.42098 15.6397 8.5 15.4489 8.5 15.25C8.5 15.0511 8.42098 14.8603 8.28033 14.7197C8.13968 14.579 7.94891 14.5 7.75 14.5C7.55109 14.5 7.36032 14.579 7.21967 14.7197Z" stroke="#00B9B6" stroke-width="0.2"/>
<path d="M10.2197 11.7197C10.079 11.8603 10 12.0511 10 12.25C10 12.4489 10.079 12.6397 10.2197 12.7803C10.3603 12.921 10.5511 13 10.75 13H13.804C14.0029 13 14.1937 12.921 14.3343 12.7803C14.475 12.6397 14.554 12.4489 14.554 12.25C14.554 12.0511 14.475 11.8603 14.3343 11.7197C14.1937 11.579 14.0029 11.5 13.804 11.5H10.75C10.5511 11.5 10.3603 11.579 10.2197 11.7197Z" stroke="#00B9B6" stroke-width="0.2"/>
<path d="M10.2197 14.7197C10.3603 14.579 10.5511 14.5 10.75 14.5H13.804C14.0029 14.5 14.1937 14.579 14.3343 14.7197C14.475 14.8603 14.554 15.0511 14.554 15.25C14.554 15.4489 14.475 15.6397 14.3343 15.7803C14.1937 15.921 14.0029 16 13.804 16H10.75C10.5511 16 10.3603 15.921 10.2197 15.7803C10.079 15.6397 10 15.4489 10 15.25C10 15.0511 10.079 14.8603 10.2197 14.7197Z" stroke="#00B9B6" stroke-width="0.2"/>
<path d="M9.122 22.063C8.6566 22.0631 8.2026 21.919 7.82256 21.6503C7.44252 21.3817 7.15513 21.0018 7 20.563H15.622C16.484 20.563 17.3106 20.2206 17.9201 19.6111C18.5296 19.0016 18.872 18.175 18.872 17.313V9L19.712 9.84C20.135 10.263 20.372 10.835 20.372 11.432V17.313C20.372 17.9368 20.2491 18.5545 20.0104 19.1307C19.7717 19.707 19.4218 20.2307 18.9808 20.6718C18.5397 21.1128 18.016 21.4627 17.4397 21.7014C16.8635 21.9401 16.2458 22.063 15.622 22.063H9.122Z" fill="#00B9B6" stroke="#00B9B6" stroke-width="0.2"/>
</svg>
