<svg width="1920" height="614" viewBox="0 0 1920 614" fill="none" xmlns="http://www.w3.org/2000/svg">
<rect width="1920" height="613" fill="#013265"/>
<path d="M-50 245.208C-50 281.932 -20.2309 311.702 16.4871 311.702C53.2051 311.702 82.9808 281.932 82.9808 245.208C82.9808 208.49 53.2051 178.727 16.4871 178.727C-20.2309 178.727 -50 208.49 -50 245.208Z" fill="white" fill-opacity="0.05"/>
<path d="M133.225 59.3191C133.225 70.5332 142.317 79.6316 153.537 79.6316C164.758 79.6316 173.85 70.5332 173.85 59.3191C173.85 48.0914 164.758 38.9999 153.537 38.9999C142.317 38.9999 133.225 48.0914 133.225 59.3191Z" fill="white" fill-opacity="0.05"/>
<path d="M460 613.455H688.904C660.555 582.445 619.777 563 574.452 563C529.125 563 488.348 582.445 460 613.455Z" fill="white" fill-opacity="0.05"/>
<path d="M689.769 2.99994C607.675 204.67 676.081 473.736 886.039 570.211C1095.46 666.44 1368.42 574.188 1444.86 353.918C1486.69 233.363 1522.72 116.395 1662.39 78.4428C1690.89 70.7006 1720.54 67.1033 1748.44 57.4944C1772.18 49.3144 1787.41 38.9952 1796 27.2326V2.99994L689.769 2.99994Z" fill="url(#paint0_linear)" fill-opacity="0.5"/>
<g opacity="0.2">
<path d="M1022.9 316.449C1022.9 376.896 973.901 425.898 913.449 425.898C853.006 425.898 804 376.896 804 316.449C804 256.002 853.006 207 913.449 207C973.901 207 1022.9 256.002 1022.9 316.449Z" stroke="#CFC2E7" stroke-width="1.33333" stroke-miterlimit="10"/>
<path d="M1006.43 316.449C1006.43 367.799 964.803 409.426 913.449 409.426C862.103 409.426 820.472 367.799 820.472 316.449C820.472 265.099 862.103 223.472 913.449 223.472C964.803 223.472 1006.43 265.099 1006.43 316.449Z" stroke="#CFC2E7" stroke-width="1.33333" stroke-miterlimit="10"/>
<path d="M989.953 316.449C989.953 358.701 955.705 392.949 913.449 392.949C871.197 392.949 836.945 358.701 836.945 316.449C836.945 274.197 871.197 239.945 913.449 239.945C955.705 239.945 989.953 274.197 989.953 316.449Z" stroke="#CFC2E7" stroke-width="1.33333" stroke-miterlimit="10"/>
<path d="M973.481 316.449C973.481 349.599 946.603 376.477 913.449 376.477C880.294 376.477 853.421 349.599 853.421 316.449C853.421 283.294 880.294 256.417 913.449 256.417C946.603 256.417 973.481 283.294 973.481 316.449Z" stroke="#CFC2E7" stroke-width="1.33333" stroke-miterlimit="10"/>
<path d="M957.008 316.449C957.008 340.502 937.506 360.004 913.449 360.004C889.396 360.004 869.894 340.502 869.894 316.449C869.894 292.392 889.396 272.894 913.449 272.894C937.506 272.894 957.008 292.392 957.008 316.449Z" stroke="#CFC2E7" stroke-width="1.33333" stroke-miterlimit="10"/>
<path d="M940.536 316.449C940.536 331.408 928.408 343.532 913.449 343.532C898.493 343.532 886.366 331.408 886.366 316.449C886.366 301.489 898.493 289.366 913.449 289.366C928.408 289.366 940.536 301.489 940.536 316.449Z" stroke="#CFC2E7" stroke-width="1.33333" stroke-miterlimit="10"/>
<path d="M924.059 316.449C924.059 322.307 919.311 327.059 913.449 327.059C907.591 327.059 902.839 322.307 902.839 316.449C902.839 310.587 907.591 305.838 913.449 305.838C919.311 305.838 924.059 310.587 924.059 316.449Z" stroke="#CFC2E7" stroke-width="1.33333" stroke-miterlimit="10"/>
</g>
<path d="M1696.61 386.308C1696.61 388.135 1695.14 389.616 1693.31 389.616C1691.48 389.616 1690 388.135 1690 386.308C1690 384.481 1691.48 383 1693.31 383C1695.14 383 1696.61 384.481 1696.61 386.308Z" fill="#00B9B6"/>
<path d="M1717.31 386.308C1717.31 388.135 1715.83 389.616 1714 389.616C1712.18 389.616 1710.7 388.135 1710.7 386.308C1710.7 384.481 1712.18 383 1714 383C1715.83 383 1717.31 384.481 1717.31 386.308Z" fill="#00B9B6"/>
<path d="M1738.01 386.308C1738.01 388.135 1736.53 389.616 1734.7 389.616C1732.88 389.616 1731.4 388.135 1731.4 386.308C1731.4 384.481 1732.88 383 1734.7 383C1736.53 383 1738.01 384.481 1738.01 386.308Z" fill="#00B9B6"/>
<path d="M1758.71 386.308C1758.71 388.135 1757.23 389.616 1755.4 389.616C1753.57 389.616 1752.09 388.135 1752.09 386.308C1752.09 384.481 1753.57 383 1755.4 383C1757.23 383 1758.71 384.481 1758.71 386.308Z" fill="#00B9B6"/>
<path d="M1779.4 386.308C1779.4 388.135 1777.92 389.616 1776.1 389.616C1774.27 389.616 1772.79 388.135 1772.79 386.308C1772.79 384.481 1774.27 383 1776.1 383C1777.92 383 1779.4 384.481 1779.4 386.308Z" fill="#00B9B6"/>
<path d="M1696.61 407.005C1696.61 408.832 1695.14 410.313 1693.31 410.313C1691.48 410.313 1690 408.832 1690 407.005C1690 405.178 1691.48 403.697 1693.31 403.697C1695.14 403.697 1696.61 405.178 1696.61 407.005Z" fill="#00B9B6"/>
<path d="M1717.31 407.005C1717.31 408.832 1715.83 410.313 1714 410.313C1712.18 410.313 1710.7 408.832 1710.7 407.005C1710.7 405.178 1712.18 403.697 1714 403.697C1715.83 403.697 1717.31 405.178 1717.31 407.005Z" fill="#00B9B6"/>
<path d="M1738.01 407.005C1738.01 408.832 1736.53 410.313 1734.7 410.313C1732.88 410.313 1731.4 408.832 1731.4 407.005C1731.4 405.178 1732.88 403.697 1734.7 403.697C1736.53 403.697 1738.01 405.178 1738.01 407.005Z" fill="#00B9B6"/>
<path d="M1758.71 407.005C1758.71 408.832 1757.23 410.313 1755.4 410.313C1753.57 410.313 1752.09 408.832 1752.09 407.005C1752.09 405.178 1753.57 403.697 1755.4 403.697C1757.23 403.697 1758.71 405.178 1758.71 407.005Z" fill="#00B9B6"/>
<path d="M1779.4 407.005C1779.4 408.832 1777.92 410.313 1776.1 410.313C1774.27 410.313 1772.79 408.832 1772.79 407.005C1772.79 405.178 1774.27 403.697 1776.1 403.697C1777.92 403.697 1779.4 405.178 1779.4 407.005Z" fill="#00B9B6"/>
<path d="M1696.61 427.703C1696.61 429.531 1695.14 431.011 1693.31 431.011C1691.48 431.011 1690 429.531 1690 427.703C1690 425.876 1691.48 424.395 1693.31 424.395C1695.14 424.395 1696.61 425.876 1696.61 427.703Z" fill="#00B9B6"/>
<path d="M1717.31 427.703C1717.31 429.531 1715.83 431.011 1714 431.011C1712.18 431.011 1710.7 429.531 1710.7 427.703C1710.7 425.876 1712.18 424.395 1714 424.395C1715.83 424.395 1717.31 425.876 1717.31 427.703Z" fill="#00B9B6"/>
<path d="M1738.01 427.703C1738.01 429.531 1736.53 431.011 1734.7 431.011C1732.88 431.011 1731.4 429.531 1731.4 427.703C1731.4 425.876 1732.88 424.395 1734.7 424.395C1736.53 424.395 1738.01 425.876 1738.01 427.703Z" fill="#00B9B6"/>
<path d="M1758.71 427.703C1758.71 429.531 1757.23 431.011 1755.4 431.011C1753.57 431.011 1752.09 429.531 1752.09 427.703C1752.09 425.876 1753.57 424.395 1755.4 424.395C1757.23 424.395 1758.71 425.876 1758.71 427.703Z" fill="#00B9B6"/>
<path d="M1779.4 427.703C1779.4 429.531 1777.92 431.011 1776.1 431.011C1774.27 431.011 1772.79 429.531 1772.79 427.703C1772.79 425.876 1774.27 424.395 1776.1 424.395C1777.92 424.395 1779.4 425.876 1779.4 427.703Z" fill="#00B9B6"/>
<path d="M1696.61 448.4C1696.61 450.227 1695.14 451.708 1693.31 451.708C1691.48 451.708 1690 450.227 1690 448.4C1690 446.572 1691.48 445.091 1693.31 445.091C1695.14 445.091 1696.61 446.572 1696.61 448.4Z" fill="#00B9B6"/>
<path d="M1717.31 448.4C1717.31 450.227 1715.83 451.708 1714 451.708C1712.18 451.708 1710.7 450.227 1710.7 448.4C1710.7 446.572 1712.18 445.091 1714 445.091C1715.83 445.091 1717.31 446.572 1717.31 448.4Z" fill="#00B9B6"/>
<path d="M1738.01 448.4C1738.01 450.227 1736.53 451.708 1734.7 451.708C1732.88 451.708 1731.4 450.227 1731.4 448.4C1731.4 446.572 1732.88 445.091 1734.7 445.091C1736.53 445.091 1738.01 446.572 1738.01 448.4Z" fill="#00B9B6"/>
<path d="M1758.71 448.4C1758.71 450.227 1757.23 451.708 1755.4 451.708C1753.57 451.708 1752.09 450.227 1752.09 448.4C1752.09 446.572 1753.57 445.091 1755.4 445.091C1757.23 445.091 1758.71 446.572 1758.71 448.4Z" fill="#00B9B6"/>
<path d="M1779.4 448.4C1779.4 450.227 1777.92 451.708 1776.1 451.708C1774.27 451.708 1772.79 450.227 1772.79 448.4C1772.79 446.572 1774.27 445.091 1776.1 445.091C1777.92 445.091 1779.4 446.572 1779.4 448.4Z" fill="#00B9B6"/>
<circle cx="790.315" cy="75.3153" r="4.81532" stroke="white"/>
<circle cx="821.992" cy="75.3153" r="4.81532" fill="#00B9B6" stroke="#00B9B6"/>
<circle cx="853.67" cy="75.3153" r="4.81532" stroke="white"/>
<circle cx="790.315" cy="106.992" r="4.81532" fill="#00B9B6" stroke="#00B9B6"/>
<circle cx="821.992" cy="106.992" r="4.81532" stroke="white"/>
<circle cx="853.67" cy="106.992" r="4.81532" fill="#00B9B6" stroke="#00B9B6"/>
<g opacity="0.3">
<path d="M2085.89 382.443C2085.89 473.814 2011.81 547.885 1920.44 547.885C1829.07 547.885 1755 473.814 1755 382.443C1755 291.073 1829.07 217 1920.44 217C2011.81 217 2085.89 291.073 2085.89 382.443Z" stroke="url(#paint1_linear)" stroke-width="2.124" stroke-miterlimit="10"/>
<path d="M2074.39 382.443C2074.39 467.467 2005.47 536.394 1920.44 536.394C1835.42 536.394 1766.49 467.467 1766.49 382.443C1766.49 297.418 1835.42 228.494 1920.44 228.494C2005.47 228.494 2074.39 297.418 2074.39 382.443Z" stroke="url(#paint2_linear)" stroke-width="2.124" stroke-miterlimit="10"/>
<path d="M2062.9 382.443C2062.9 461.12 1999.12 524.901 1920.44 524.901C1841.77 524.901 1777.99 461.12 1777.99 382.443C1777.99 303.768 1841.77 239.987 1920.44 239.987C1999.12 239.987 2062.9 303.768 2062.9 382.443Z" stroke="url(#paint3_linear)" stroke-width="2.124" stroke-miterlimit="10"/>
<path d="M2051.41 382.443C2051.41 454.773 1992.77 513.409 1920.44 513.409C1848.11 513.409 1789.48 454.773 1789.48 382.443C1789.48 310.115 1848.11 251.478 1920.44 251.478C1992.77 251.478 2051.41 310.115 2051.41 382.443Z" stroke="url(#paint4_linear)" stroke-width="2.124" stroke-miterlimit="10"/>
<path d="M2039.91 382.442C2039.91 448.426 1986.42 501.913 1920.44 501.913C1854.46 501.913 1800.97 448.426 1800.97 382.442C1800.97 316.459 1854.46 262.972 1920.44 262.972C1986.42 262.972 2039.91 316.459 2039.91 382.442Z" stroke="url(#paint5_linear)" stroke-width="2.124" stroke-miterlimit="10"/>
<path d="M2028.42 382.442C2028.42 442.078 1980.08 490.422 1920.44 490.422C1860.81 490.422 1812.46 442.078 1812.46 382.442C1812.46 322.809 1860.81 274.465 1920.44 274.465C1980.08 274.465 2028.42 322.809 2028.42 382.442Z" stroke="url(#paint6_linear)" stroke-width="2.124" stroke-miterlimit="10"/>
<path d="M2016.93 382.443C2016.93 435.732 1973.73 478.931 1920.44 478.931C1867.16 478.931 1823.96 435.732 1823.96 382.443C1823.96 329.154 1867.16 285.957 1920.44 285.957C1973.73 285.957 2016.93 329.154 2016.93 382.443Z" stroke="url(#paint7_linear)" stroke-width="2.124" stroke-miterlimit="10"/>
<path d="M2005.44 382.442C2005.44 429.384 1967.38 467.437 1920.44 467.437C1873.5 467.437 1835.45 429.384 1835.45 382.442C1835.45 335.503 1873.5 297.45 1920.44 297.45C1967.38 297.45 2005.44 335.503 2005.44 382.442Z" stroke="url(#paint8_linear)" stroke-width="2.124" stroke-miterlimit="10"/>
<path d="M1993.94 382.442C1993.94 423.037 1961.04 455.946 1920.44 455.946C1879.85 455.946 1846.94 423.037 1846.94 382.442C1846.94 341.85 1879.85 308.941 1920.44 308.941C1961.04 308.941 1993.94 341.85 1993.94 382.442Z" stroke="url(#paint9_linear)" stroke-width="2.124" stroke-miterlimit="10"/>
<path d="M1982.45 382.443C1982.45 416.69 1954.69 444.45 1920.44 444.45C1886.2 444.45 1858.43 416.69 1858.43 382.443C1858.43 348.195 1886.2 320.435 1920.44 320.435C1954.69 320.435 1982.45 348.195 1982.45 382.443Z" stroke="url(#paint10_linear)" stroke-width="2.124" stroke-miterlimit="10"/>
<path d="M1970.96 382.443C1970.96 410.343 1948.34 432.959 1920.44 432.959C1892.54 432.959 1869.93 410.343 1869.93 382.443C1869.93 354.545 1892.54 331.926 1920.44 331.926C1948.34 331.926 1970.96 354.545 1970.96 382.443Z" stroke="url(#paint11_linear)" stroke-width="2.124" stroke-miterlimit="10"/>
<path d="M1959.47 382.443C1959.47 403.996 1941.99 421.468 1920.44 421.468C1898.89 421.468 1881.42 403.996 1881.42 382.443C1881.42 360.89 1898.89 343.42 1920.44 343.42C1941.99 343.42 1959.47 360.89 1959.47 382.443Z" stroke="url(#paint12_linear)" stroke-width="2.124" stroke-miterlimit="10"/>
<path d="M1947.97 382.443C1947.97 397.646 1935.65 409.975 1920.44 409.975C1905.24 409.975 1892.91 397.646 1892.91 382.443C1892.91 367.239 1905.24 354.913 1920.44 354.913C1935.65 354.913 1947.97 367.239 1947.97 382.443Z" stroke="url(#paint13_linear)" stroke-width="2.124" stroke-miterlimit="10"/>
<path d="M1936.48 382.443C1936.48 391.301 1929.3 398.483 1920.44 398.483C1911.59 398.483 1904.41 391.301 1904.41 382.443C1904.41 373.586 1911.59 366.404 1920.44 366.404C1929.3 366.404 1936.48 373.586 1936.48 382.443Z" stroke="url(#paint14_linear)" stroke-width="2.124" stroke-miterlimit="10"/>
</g>
<defs>
<linearGradient id="paint0_linear" x1="1226" y1="608.132" x2="1226" y2="2.99994" gradientUnits="userSpaceOnUse">
<stop stop-color="#02263D"/>
<stop offset="1" stop-color="#07305A"/>
</linearGradient>
<linearGradient id="paint1_linear" x1="1920.44" y1="547.885" x2="1920.44" y2="217" gradientUnits="userSpaceOnUse">
<stop stop-color="#00B9B6"/>
<stop offset="0.516186" stop-color="#03314C"/>
<stop offset="1" stop-color="#00B9B6"/>
</linearGradient>
<linearGradient id="paint2_linear" x1="1920.44" y1="536.394" x2="1920.44" y2="228.494" gradientUnits="userSpaceOnUse">
<stop stop-color="#00B9B6"/>
<stop offset="0.516186" stop-color="#03314C"/>
<stop offset="1" stop-color="#00B9B6"/>
</linearGradient>
<linearGradient id="paint3_linear" x1="1920.44" y1="524.901" x2="1920.44" y2="239.987" gradientUnits="userSpaceOnUse">
<stop stop-color="#00B9B6"/>
<stop offset="0.516186" stop-color="#03314C"/>
<stop offset="1" stop-color="#00B9B6"/>
</linearGradient>
<linearGradient id="paint4_linear" x1="1920.44" y1="513.409" x2="1920.44" y2="251.478" gradientUnits="userSpaceOnUse">
<stop stop-color="#00B9B6"/>
<stop offset="0.516186" stop-color="#03314C"/>
<stop offset="1" stop-color="#00B9B6"/>
</linearGradient>
<linearGradient id="paint5_linear" x1="1920.44" y1="501.913" x2="1920.44" y2="262.972" gradientUnits="userSpaceOnUse">
<stop stop-color="#00B9B6"/>
<stop offset="0.516186" stop-color="#03314C"/>
<stop offset="1" stop-color="#00B9B6"/>
</linearGradient>
<linearGradient id="paint6_linear" x1="1920.44" y1="490.422" x2="1920.44" y2="274.465" gradientUnits="userSpaceOnUse">
<stop stop-color="#00B9B6"/>
<stop offset="0.516186" stop-color="#03314C"/>
<stop offset="1" stop-color="#00B9B6"/>
</linearGradient>
<linearGradient id="paint7_linear" x1="1920.44" y1="478.931" x2="1920.44" y2="285.957" gradientUnits="userSpaceOnUse">
<stop stop-color="#00B9B6"/>
<stop offset="0.516186" stop-color="#03314C"/>
<stop offset="1" stop-color="#00B9B6"/>
</linearGradient>
<linearGradient id="paint8_linear" x1="1920.44" y1="467.437" x2="1920.44" y2="297.45" gradientUnits="userSpaceOnUse">
<stop stop-color="#00B9B6"/>
<stop offset="0.516186" stop-color="#03314C"/>
<stop offset="1" stop-color="#00B9B6"/>
</linearGradient>
<linearGradient id="paint9_linear" x1="1920.44" y1="455.946" x2="1920.44" y2="308.941" gradientUnits="userSpaceOnUse">
<stop stop-color="#00B9B6"/>
<stop offset="0.516186" stop-color="#03314C"/>
<stop offset="1" stop-color="#00B9B6"/>
</linearGradient>
<linearGradient id="paint10_linear" x1="1920.44" y1="444.45" x2="1920.44" y2="320.435" gradientUnits="userSpaceOnUse">
<stop stop-color="#00B9B6"/>
<stop offset="0.516186" stop-color="#03314C"/>
<stop offset="1" stop-color="#00B9B6"/>
</linearGradient>
<linearGradient id="paint11_linear" x1="1920.44" y1="432.959" x2="1920.44" y2="331.926" gradientUnits="userSpaceOnUse">
<stop stop-color="#00B9B6"/>
<stop offset="0.516186" stop-color="#03314C"/>
<stop offset="1" stop-color="#00B9B6"/>
</linearGradient>
<linearGradient id="paint12_linear" x1="1920.44" y1="421.468" x2="1920.44" y2="343.42" gradientUnits="userSpaceOnUse">
<stop stop-color="#00B9B6"/>
<stop offset="0.516186" stop-color="#03314C"/>
<stop offset="1" stop-color="#00B9B6"/>
</linearGradient>
<linearGradient id="paint13_linear" x1="1920.44" y1="409.975" x2="1920.44" y2="354.913" gradientUnits="userSpaceOnUse">
<stop stop-color="#00B9B6"/>
<stop offset="0.516186" stop-color="#03314C"/>
<stop offset="1" stop-color="#00B9B6"/>
</linearGradient>
<linearGradient id="paint14_linear" x1="1920.44" y1="398.483" x2="1920.44" y2="366.404" gradientUnits="userSpaceOnUse">
<stop stop-color="#00B9B6"/>
<stop offset="0.516186" stop-color="#03314C"/>
<stop offset="1" stop-color="#00B9B6"/>
</linearGradient>
</defs>
</svg>
