<svg width="1920" height="329" viewBox="0 0 1920 329" fill="none" xmlns="http://www.w3.org/2000/svg">
<path d="M655.824 93.848V105H654.368V99.944H648.688V105H647.232V93.848H648.688V98.744H654.368V93.848H655.824ZM662.134 105.144C661.313 105.144 660.566 104.957 659.894 104.584C659.233 104.211 658.71 103.683 658.326 103C657.953 102.307 657.766 101.507 657.766 100.6C657.766 99.704 657.958 98.9147 658.342 98.232C658.737 97.5387 659.27 97.0107 659.942 96.648C660.614 96.2747 661.366 96.088 662.198 96.088C663.03 96.088 663.782 96.2747 664.454 96.648C665.126 97.0107 665.654 97.5333 666.038 98.216C666.433 98.8987 666.63 99.6933 666.63 100.6C666.63 101.507 666.427 102.307 666.022 103C665.627 103.683 665.089 104.211 664.406 104.584C663.723 104.957 662.966 105.144 662.134 105.144ZM662.134 103.864C662.657 103.864 663.147 103.741 663.606 103.496C664.065 103.251 664.433 102.883 664.71 102.392C664.998 101.901 665.142 101.304 665.142 100.6C665.142 99.896 665.003 99.2987 664.726 98.808C664.449 98.3173 664.086 97.9547 663.638 97.72C663.19 97.4747 662.705 97.352 662.182 97.352C661.649 97.352 661.158 97.4747 660.71 97.72C660.273 97.9547 659.921 98.3173 659.654 98.808C659.387 99.2987 659.254 99.896 659.254 100.6C659.254 101.315 659.382 101.917 659.638 102.408C659.905 102.899 660.257 103.267 660.694 103.512C661.131 103.747 661.611 103.864 662.134 103.864ZM679.089 96.072C679.771 96.072 680.379 96.216 680.913 96.504C681.446 96.7813 681.867 97.2027 682.177 97.768C682.486 98.3333 682.641 99.0213 682.641 99.832V105H681.201V100.04C681.201 99.1653 680.982 98.4987 680.545 98.04C680.118 97.5707 679.537 97.336 678.801 97.336C678.043 97.336 677.441 97.5813 676.993 98.072C676.545 98.552 676.321 99.2507 676.321 100.168V105H674.881V100.04C674.881 99.1653 674.662 98.4987 674.225 98.04C673.798 97.5707 673.217 97.336 672.481 97.336C671.723 97.336 671.121 97.5813 670.673 98.072C670.225 98.552 670.001 99.2507 670.001 100.168V105H668.545V96.232H670.001V97.496C670.289 97.0373 670.673 96.6853 671.153 96.44C671.643 96.1947 672.182 96.072 672.769 96.072C673.505 96.072 674.155 96.2373 674.721 96.568C675.286 96.8987 675.707 97.384 675.985 98.024C676.23 97.4053 676.635 96.9253 677.201 96.584C677.766 96.2427 678.395 96.072 679.089 96.072ZM693.029 100.28C693.029 100.557 693.013 100.851 692.981 101.16H685.973C686.026 102.024 686.32 102.701 686.853 103.192C687.397 103.672 688.053 103.912 688.821 103.912C689.45 103.912 689.973 103.768 690.389 103.48C690.816 103.181 691.114 102.787 691.285 102.296H692.853C692.618 103.139 692.149 103.827 691.445 104.36C690.741 104.883 689.866 105.144 688.821 105.144C687.989 105.144 687.242 104.957 686.581 104.584C685.93 104.211 685.418 103.683 685.045 103C684.672 102.307 684.485 101.507 684.485 100.6C684.485 99.6933 684.666 98.8987 685.029 98.216C685.392 97.5333 685.898 97.0107 686.549 96.648C687.21 96.2747 687.968 96.088 688.821 96.088C689.653 96.088 690.389 96.2693 691.029 96.632C691.669 96.9947 692.16 97.496 692.501 98.136C692.853 98.7653 693.029 99.48 693.029 100.28ZM691.525 99.976C691.525 99.4213 691.402 98.9467 691.157 98.552C690.912 98.1467 690.576 97.8427 690.149 97.64C689.733 97.4267 689.269 97.32 688.757 97.32C688.021 97.32 687.392 97.5547 686.869 98.024C686.357 98.4933 686.064 99.144 685.989 99.976H691.525ZM648.688 128.848V140H647.232V128.848H648.688ZM655.442 131.072C656.508 131.072 657.372 131.397 658.034 132.048C658.695 132.688 659.026 133.616 659.026 134.832V140H657.586V135.04C657.586 134.165 657.367 133.499 656.93 133.04C656.492 132.571 655.895 132.336 655.138 132.336C654.37 132.336 653.756 132.576 653.298 133.056C652.85 133.536 652.626 134.235 652.626 135.152V140H651.17V131.232H652.626V132.48C652.914 132.032 653.303 131.685 653.794 131.44C654.295 131.195 654.844 131.072 655.442 131.072ZM660.86 135.584C660.86 134.688 661.041 133.904 661.404 133.232C661.767 132.549 662.263 132.021 662.892 131.648C663.532 131.275 664.247 131.088 665.036 131.088C665.719 131.088 666.353 131.248 666.94 131.568C667.527 131.877 667.975 132.288 668.284 132.8V128.16H669.756V140H668.284V138.352C667.996 138.875 667.569 139.307 667.004 139.648C666.439 139.979 665.777 140.144 665.02 140.144C664.241 140.144 663.532 139.952 662.892 139.568C662.263 139.184 661.767 138.645 661.404 137.952C661.041 137.259 660.86 136.469 660.86 135.584ZM668.284 135.6C668.284 134.939 668.151 134.363 667.884 133.872C667.617 133.381 667.255 133.008 666.796 132.752C666.348 132.485 665.852 132.352 665.308 132.352C664.764 132.352 664.268 132.48 663.82 132.736C663.372 132.992 663.015 133.365 662.748 133.856C662.481 134.347 662.348 134.923 662.348 135.584C662.348 136.256 662.481 136.843 662.748 137.344C663.015 137.835 663.372 138.213 663.82 138.48C664.268 138.736 664.764 138.864 665.308 138.864C665.852 138.864 666.348 138.736 666.796 138.48C667.255 138.213 667.617 137.835 667.884 137.344C668.151 136.843 668.284 136.261 668.284 135.6ZM679.992 131.232V140H678.536V138.704C678.259 139.152 677.87 139.504 677.368 139.76C676.878 140.005 676.334 140.128 675.736 140.128C675.054 140.128 674.44 139.989 673.896 139.712C673.352 139.424 672.92 138.997 672.6 138.432C672.291 137.867 672.136 137.179 672.136 136.368V131.232H673.576V136.176C673.576 137.04 673.795 137.707 674.232 138.176C674.67 138.635 675.267 138.864 676.024 138.864C676.803 138.864 677.416 138.624 677.864 138.144C678.312 137.664 678.536 136.965 678.536 136.048V131.232H679.992ZM685.555 140.144C684.883 140.144 684.28 140.032 683.747 139.808C683.213 139.573 682.792 139.253 682.483 138.848C682.173 138.432 682.003 137.957 681.971 137.424H683.475C683.517 137.861 683.72 138.219 684.083 138.496C684.456 138.773 684.941 138.912 685.539 138.912C686.093 138.912 686.531 138.789 686.851 138.544C687.171 138.299 687.331 137.989 687.331 137.616C687.331 137.232 687.16 136.949 686.819 136.768C686.477 136.576 685.949 136.389 685.235 136.208C684.584 136.037 684.051 135.867 683.635 135.696C683.229 135.515 682.877 135.253 682.579 134.912C682.291 134.56 682.147 134.101 682.147 133.536C682.147 133.088 682.28 132.677 682.547 132.304C682.813 131.931 683.192 131.637 683.683 131.424C684.173 131.2 684.733 131.088 685.363 131.088C686.333 131.088 687.117 131.333 687.715 131.824C688.312 132.315 688.632 132.987 688.675 133.84H687.219C687.187 133.381 687 133.013 686.659 132.736C686.328 132.459 685.88 132.32 685.315 132.32C684.792 132.32 684.376 132.432 684.067 132.656C683.757 132.88 683.603 133.173 683.603 133.536C683.603 133.824 683.693 134.064 683.875 134.256C684.067 134.437 684.301 134.587 684.579 134.704C684.867 134.811 685.261 134.933 685.763 135.072C686.392 135.243 686.904 135.413 687.299 135.584C687.693 135.744 688.029 135.989 688.307 136.32C688.595 136.651 688.744 137.083 688.755 137.616C688.755 138.096 688.621 138.528 688.355 138.912C688.088 139.296 687.709 139.6 687.219 139.824C686.739 140.037 686.184 140.144 685.555 140.144ZM692.586 132.432V137.6C692.586 138.027 692.677 138.331 692.858 138.512C693.039 138.683 693.354 138.768 693.802 138.768H694.874V140H693.562C692.751 140 692.143 139.813 691.738 139.44C691.333 139.067 691.13 138.453 691.13 137.6V132.432H689.994V131.232H691.13V129.024H692.586V131.232H694.874V132.432H692.586ZM698.094 132.656C698.35 132.155 698.713 131.765 699.182 131.488C699.662 131.211 700.244 131.072 700.926 131.072V132.576H700.542C698.91 132.576 698.094 133.461 698.094 135.232V140H696.638V131.232H698.094V132.656ZM703.359 129.808C703.082 129.808 702.847 129.712 702.655 129.52C702.463 129.328 702.367 129.093 702.367 128.816C702.367 128.539 702.463 128.304 702.655 128.112C702.847 127.92 703.082 127.824 703.359 127.824C703.626 127.824 703.85 127.92 704.031 128.112C704.223 128.304 704.319 128.539 704.319 128.816C704.319 129.093 704.223 129.328 704.031 129.52C703.85 129.712 703.626 129.808 703.359 129.808ZM704.063 131.232V140H702.607V131.232H704.063ZM714.545 135.28C714.545 135.557 714.529 135.851 714.497 136.16H707.489C707.542 137.024 707.835 137.701 708.369 138.192C708.913 138.672 709.569 138.912 710.337 138.912C710.966 138.912 711.489 138.768 711.905 138.48C712.331 138.181 712.63 137.787 712.801 137.296H714.369C714.134 138.139 713.665 138.827 712.961 139.36C712.257 139.883 711.382 140.144 710.337 140.144C709.505 140.144 708.758 139.957 708.097 139.584C707.446 139.211 706.934 138.683 706.561 138C706.187 137.307 706.001 136.507 706.001 135.6C706.001 134.693 706.182 133.899 706.545 133.216C706.907 132.533 707.414 132.011 708.065 131.648C708.726 131.275 709.483 131.088 710.337 131.088C711.169 131.088 711.905 131.269 712.545 131.632C713.185 131.995 713.675 132.496 714.017 133.136C714.369 133.765 714.545 134.48 714.545 135.28ZM713.041 134.976C713.041 134.421 712.918 133.947 712.673 133.552C712.427 133.147 712.091 132.843 711.665 132.64C711.249 132.427 710.785 132.32 710.273 132.32C709.537 132.32 708.907 132.555 708.385 133.024C707.873 133.493 707.579 134.144 707.505 134.976H713.041ZM719.57 140.144C718.898 140.144 718.296 140.032 717.762 139.808C717.229 139.573 716.808 139.253 716.498 138.848C716.189 138.432 716.018 137.957 715.986 137.424H717.49C717.533 137.861 717.736 138.219 718.098 138.496C718.472 138.773 718.957 138.912 719.554 138.912C720.109 138.912 720.546 138.789 720.866 138.544C721.186 138.299 721.346 137.989 721.346 137.616C721.346 137.232 721.176 136.949 720.834 136.768C720.493 136.576 719.965 136.389 719.25 136.208C718.6 136.037 718.066 135.867 717.65 135.696C717.245 135.515 716.893 135.253 716.594 134.912C716.306 134.56 716.162 134.101 716.162 133.536C716.162 133.088 716.296 132.677 716.562 132.304C716.829 131.931 717.208 131.637 717.698 131.424C718.189 131.2 718.749 131.088 719.378 131.088C720.349 131.088 721.133 131.333 721.73 131.824C722.328 132.315 722.648 132.987 722.69 133.84H721.234C721.202 133.381 721.016 133.013 720.674 132.736C720.344 132.459 719.896 132.32 719.33 132.32C718.808 132.32 718.392 132.432 718.082 132.656C717.773 132.88 717.618 133.173 717.618 133.536C717.618 133.824 717.709 134.064 717.89 134.256C718.082 134.437 718.317 134.587 718.594 134.704C718.882 134.811 719.277 134.933 719.778 135.072C720.408 135.243 720.92 135.413 721.314 135.584C721.709 135.744 722.045 135.989 722.322 136.32C722.61 136.651 722.76 137.083 722.77 137.616C722.77 138.096 722.637 138.528 722.37 138.912C722.104 139.296 721.725 139.6 721.234 139.824C720.754 140.037 720.2 140.144 719.57 140.144ZM658.544 163.928V175H657.088V166.744L653.408 175H652.384L648.688 166.728V175H647.232V163.928H648.8L652.896 173.08L656.992 163.928H658.544ZM664.837 175.144C664.016 175.144 663.269 174.957 662.597 174.584C661.936 174.211 661.413 173.683 661.029 173C660.656 172.307 660.469 171.507 660.469 170.6C660.469 169.704 660.661 168.915 661.045 168.232C661.44 167.539 661.973 167.011 662.645 166.648C663.317 166.275 664.069 166.088 664.901 166.088C665.733 166.088 666.485 166.275 667.157 166.648C667.829 167.011 668.357 167.533 668.741 168.216C669.136 168.899 669.333 169.693 669.333 170.6C669.333 171.507 669.131 172.307 668.725 173C668.331 173.683 667.792 174.211 667.109 174.584C666.427 174.957 665.669 175.144 664.837 175.144ZM664.837 173.864C665.36 173.864 665.851 173.741 666.309 173.496C666.768 173.251 667.136 172.883 667.413 172.392C667.701 171.901 667.845 171.304 667.845 170.6C667.845 169.896 667.707 169.299 667.429 168.808C667.152 168.317 666.789 167.955 666.341 167.72C665.893 167.475 665.408 167.352 664.885 167.352C664.352 167.352 663.861 167.475 663.413 167.72C662.976 167.955 662.624 168.317 662.357 168.808C662.091 169.299 661.957 169.896 661.957 170.6C661.957 171.315 662.085 171.917 662.341 172.408C662.608 172.899 662.96 173.267 663.397 173.512C663.835 173.747 664.315 173.864 664.837 173.864ZM670.704 170.584C670.704 169.688 670.885 168.904 671.248 168.232C671.61 167.549 672.106 167.021 672.736 166.648C673.376 166.275 674.09 166.088 674.88 166.088C675.562 166.088 676.197 166.248 676.784 166.568C677.37 166.877 677.818 167.288 678.128 167.8V163.16H679.6V175H678.128V173.352C677.84 173.875 677.413 174.307 676.848 174.648C676.282 174.979 675.621 175.144 674.864 175.144C674.085 175.144 673.376 174.952 672.736 174.568C672.106 174.184 671.61 173.645 671.248 172.952C670.885 172.259 670.704 171.469 670.704 170.584ZM678.128 170.6C678.128 169.939 677.994 169.363 677.728 168.872C677.461 168.381 677.098 168.008 676.64 167.752C676.192 167.485 675.696 167.352 675.152 167.352C674.608 167.352 674.112 167.48 673.664 167.736C673.216 167.992 672.858 168.365 672.592 168.856C672.325 169.347 672.192 169.923 672.192 170.584C672.192 171.256 672.325 171.843 672.592 172.344C672.858 172.835 673.216 173.213 673.664 173.48C674.112 173.736 674.608 173.864 675.152 173.864C675.696 173.864 676.192 173.736 676.64 173.48C677.098 173.213 677.461 172.835 677.728 172.344C677.994 171.843 678.128 171.261 678.128 170.6ZM689.836 166.232V175H688.38V173.704C688.103 174.152 687.713 174.504 687.212 174.76C686.721 175.005 686.177 175.128 685.58 175.128C684.897 175.128 684.284 174.989 683.74 174.712C683.196 174.424 682.764 173.997 682.444 173.432C682.135 172.867 681.98 172.179 681.98 171.368V166.232H683.42V171.176C683.42 172.04 683.639 172.707 684.076 173.176C684.513 173.635 685.111 173.864 685.868 173.864C686.647 173.864 687.26 173.624 687.708 173.144C688.156 172.664 688.38 171.965 688.38 171.048V166.232H689.836ZM693.751 163.16V175H692.295V163.16H693.751ZM704.232 170.28C704.232 170.557 704.216 170.851 704.184 171.16H697.176C697.229 172.024 697.523 172.701 698.056 173.192C698.6 173.672 699.256 173.912 700.024 173.912C700.653 173.912 701.176 173.768 701.592 173.48C702.019 173.181 702.317 172.787 702.488 172.296H704.056C703.821 173.139 703.352 173.827 702.648 174.36C701.944 174.883 701.069 175.144 700.024 175.144C699.192 175.144 698.445 174.957 697.784 174.584C697.133 174.211 696.621 173.683 696.248 173C695.875 172.307 695.688 171.507 695.688 170.6C695.688 169.693 695.869 168.899 696.232 168.216C696.595 167.533 697.101 167.011 697.752 166.648C698.413 166.275 699.171 166.088 700.024 166.088C700.856 166.088 701.592 166.269 702.232 166.632C702.872 166.995 703.363 167.496 703.704 168.136C704.056 168.765 704.232 169.48 704.232 170.28ZM702.728 169.976C702.728 169.421 702.605 168.947 702.36 168.552C702.115 168.147 701.779 167.843 701.352 167.64C700.936 167.427 700.472 167.32 699.96 167.32C699.224 167.32 698.595 167.555 698.072 168.024C697.56 168.493 697.267 169.144 697.192 169.976H702.728ZM709.258 175.144C708.586 175.144 707.983 175.032 707.45 174.808C706.917 174.573 706.495 174.253 706.186 173.848C705.877 173.432 705.706 172.957 705.674 172.424H707.178C707.221 172.861 707.423 173.219 707.786 173.496C708.159 173.773 708.645 173.912 709.242 173.912C709.797 173.912 710.234 173.789 710.554 173.544C710.874 173.299 711.034 172.989 711.034 172.616C711.034 172.232 710.863 171.949 710.522 171.768C710.181 171.576 709.653 171.389 708.938 171.208C708.287 171.037 707.754 170.867 707.338 170.696C706.933 170.515 706.581 170.253 706.282 169.912C705.994 169.56 705.85 169.101 705.85 168.536C705.85 168.088 705.983 167.677 706.25 167.304C706.517 166.931 706.895 166.637 707.386 166.424C707.877 166.2 708.437 166.088 709.066 166.088C710.037 166.088 710.821 166.333 711.418 166.824C712.015 167.315 712.335 167.987 712.378 168.84H710.922C710.89 168.381 710.703 168.013 710.362 167.736C710.031 167.459 709.583 167.32 709.018 167.32C708.495 167.32 708.079 167.432 707.77 167.656C707.461 167.88 707.306 168.173 707.306 168.536C707.306 168.824 707.397 169.064 707.578 169.256C707.77 169.437 708.005 169.587 708.282 169.704C708.57 169.811 708.965 169.933 709.466 170.072C710.095 170.243 710.607 170.413 711.002 170.584C711.397 170.744 711.733 170.989 712.01 171.32C712.298 171.651 712.447 172.083 712.458 172.616C712.458 173.096 712.325 173.528 712.058 173.912C711.791 174.296 711.413 174.6 710.922 174.824C710.442 175.037 709.887 175.144 709.258 175.144ZM653.536 198.848V200.032H648.688V203.792H652.624V204.976H648.688V210H647.232V198.848H653.536ZM663.295 205.28C663.295 205.557 663.279 205.851 663.247 206.16H656.239C656.292 207.024 656.585 207.701 657.119 208.192C657.663 208.672 658.319 208.912 659.087 208.912C659.716 208.912 660.239 208.768 660.655 208.48C661.081 208.181 661.38 207.787 661.551 207.296H663.119C662.884 208.139 662.415 208.827 661.711 209.36C661.007 209.883 660.132 210.144 659.087 210.144C658.255 210.144 657.508 209.957 656.847 209.584C656.196 209.211 655.684 208.683 655.311 208C654.937 207.307 654.751 206.507 654.751 205.6C654.751 204.693 654.932 203.899 655.295 203.216C655.657 202.533 656.164 202.011 656.815 201.648C657.476 201.275 658.233 201.088 659.087 201.088C659.919 201.088 660.655 201.269 661.295 201.632C661.935 201.995 662.425 202.496 662.767 203.136C663.119 203.765 663.295 204.48 663.295 205.28ZM661.791 204.976C661.791 204.421 661.668 203.947 661.423 203.552C661.177 203.147 660.841 202.843 660.415 202.64C659.999 202.427 659.535 202.32 659.023 202.32C658.287 202.32 657.657 202.555 657.135 203.024C656.623 203.493 656.329 204.144 656.255 204.976H661.791ZM664.672 205.584C664.672 204.688 664.854 203.904 665.216 203.232C665.579 202.549 666.075 202.021 666.704 201.648C667.344 201.275 668.054 201.088 668.832 201.088C669.6 201.088 670.267 201.253 670.832 201.584C671.398 201.915 671.819 202.331 672.096 202.832V201.232H673.568V210H672.096V208.368C671.808 208.88 671.376 209.307 670.8 209.648C670.235 209.979 669.574 210.144 668.816 210.144C668.038 210.144 667.334 209.952 666.704 209.568C666.075 209.184 665.579 208.645 665.216 207.952C664.854 207.259 664.672 206.469 664.672 205.584ZM672.096 205.6C672.096 204.939 671.963 204.363 671.696 203.872C671.43 203.381 671.067 203.008 670.608 202.752C670.16 202.485 669.664 202.352 669.12 202.352C668.576 202.352 668.08 202.48 667.632 202.736C667.184 202.992 666.827 203.365 666.56 203.856C666.294 204.347 666.16 204.923 666.16 205.584C666.16 206.256 666.294 206.843 666.56 207.344C666.827 207.835 667.184 208.213 667.632 208.48C668.08 208.736 668.576 208.864 669.12 208.864C669.664 208.864 670.16 208.736 670.608 208.48C671.067 208.213 671.43 207.835 671.696 207.344C671.963 206.843 672.096 206.261 672.096 205.6ZM677.805 202.432V207.6C677.805 208.027 677.896 208.331 678.077 208.512C678.258 208.683 678.573 208.768 679.021 208.768H680.093V210H678.781C677.97 210 677.362 209.813 676.957 209.44C676.552 209.067 676.349 208.453 676.349 207.6V202.432H675.213V201.232H676.349V199.024H677.805V201.232H680.093V202.432H677.805ZM689.633 201.232V210H688.177V208.704C687.9 209.152 687.51 209.504 687.009 209.76C686.518 210.005 685.974 210.128 685.377 210.128C684.694 210.128 684.081 209.989 683.537 209.712C682.993 209.424 682.561 208.997 682.241 208.432C681.932 207.867 681.777 207.179 681.777 206.368V201.232H683.217V206.176C683.217 207.04 683.436 207.707 683.873 208.176C684.31 208.635 684.908 208.864 685.665 208.864C686.444 208.864 687.057 208.624 687.505 208.144C687.953 207.664 688.177 206.965 688.177 206.048V201.232H689.633ZM693.547 202.656C693.803 202.155 694.166 201.765 694.635 201.488C695.115 201.211 695.697 201.072 696.379 201.072V202.576H695.995C694.363 202.576 693.547 203.461 693.547 205.232V210H692.091V201.232H693.547V202.656ZM706.06 205.28C706.06 205.557 706.044 205.851 706.012 206.16H699.004C699.057 207.024 699.351 207.701 699.884 208.192C700.428 208.672 701.084 208.912 701.852 208.912C702.481 208.912 703.004 208.768 703.42 208.48C703.847 208.181 704.145 207.787 704.316 207.296H705.884C705.649 208.139 705.18 208.827 704.476 209.36C703.772 209.883 702.897 210.144 701.852 210.144C701.02 210.144 700.273 209.957 699.612 209.584C698.961 209.211 698.449 208.683 698.076 208C697.703 207.307 697.516 206.507 697.516 205.6C697.516 204.693 697.697 203.899 698.06 203.216C698.423 202.533 698.929 202.011 699.58 201.648C700.241 201.275 700.999 201.088 701.852 201.088C702.684 201.088 703.42 201.269 704.06 201.632C704.7 201.995 705.191 202.496 705.532 203.136C705.884 203.765 706.06 204.48 706.06 205.28ZM704.556 204.976C704.556 204.421 704.433 203.947 704.188 203.552C703.943 203.147 703.607 202.843 703.18 202.64C702.764 202.427 702.3 202.32 701.788 202.32C701.052 202.32 700.423 202.555 699.9 203.024C699.388 203.493 699.095 204.144 699.02 204.976H704.556ZM711.086 210.144C710.414 210.144 709.811 210.032 709.278 209.808C708.745 209.573 708.323 209.253 708.014 208.848C707.705 208.432 707.534 207.957 707.502 207.424H709.006C709.049 207.861 709.251 208.219 709.614 208.496C709.987 208.773 710.473 208.912 711.07 208.912C711.625 208.912 712.062 208.789 712.382 208.544C712.702 208.299 712.862 207.989 712.862 207.616C712.862 207.232 712.691 206.949 712.35 206.768C712.009 206.576 711.481 206.389 710.766 206.208C710.115 206.037 709.582 205.867 709.166 205.696C708.761 205.515 708.409 205.253 708.11 204.912C707.822 204.56 707.678 204.101 707.678 203.536C707.678 203.088 707.811 202.677 708.078 202.304C708.345 201.931 708.723 201.637 709.214 201.424C709.705 201.2 710.265 201.088 710.894 201.088C711.865 201.088 712.649 201.333 713.246 201.824C713.843 202.315 714.163 202.987 714.206 203.84H712.75C712.718 203.381 712.531 203.013 712.19 202.736C711.859 202.459 711.411 202.32 710.846 202.32C710.323 202.32 709.907 202.432 709.598 202.656C709.289 202.88 709.134 203.173 709.134 203.536C709.134 203.824 709.225 204.064 709.406 204.256C709.598 204.437 709.833 204.587 710.11 204.704C710.398 204.811 710.793 204.933 711.294 205.072C711.923 205.243 712.435 205.413 712.83 205.584C713.225 205.744 713.561 205.989 713.838 206.32C714.126 206.651 714.275 207.083 714.286 207.616C714.286 208.096 714.153 208.528 713.886 208.912C713.619 209.296 713.241 209.6 712.75 209.824C712.27 210.037 711.715 210.144 711.086 210.144Z" fill="white"/>
<path d="M828.816 99.256C829.221 99.32 829.589 99.4853 829.92 99.752C830.261 100.019 830.528 100.349 830.72 100.744C830.923 101.139 831.024 101.56 831.024 102.008C831.024 102.573 830.88 103.085 830.592 103.544C830.304 103.992 829.883 104.349 829.328 104.616C828.784 104.872 828.139 105 827.392 105H823.232V93.848H827.232C827.989 93.848 828.635 93.976 829.168 94.232C829.701 94.4773 830.101 94.8133 830.368 95.24C830.635 95.6667 830.768 96.1467 830.768 96.68C830.768 97.3413 830.587 97.8907 830.224 98.328C829.872 98.7547 829.403 99.064 828.816 99.256ZM824.688 98.664H827.136C827.819 98.664 828.347 98.504 828.72 98.184C829.093 97.864 829.28 97.4213 829.28 96.856C829.28 96.2907 829.093 95.848 828.72 95.528C828.347 95.208 827.808 95.048 827.104 95.048H824.688V98.664ZM827.264 103.8C827.989 103.8 828.555 103.629 828.96 103.288C829.365 102.947 829.568 102.472 829.568 101.864C829.568 101.245 829.355 100.76 828.928 100.408C828.501 100.045 827.931 99.864 827.216 99.864H824.688V103.8H827.264ZM841.045 100.28C841.045 100.557 841.029 100.851 840.997 101.16H833.989C834.042 102.024 834.335 102.701 834.869 103.192C835.413 103.672 836.069 103.912 836.837 103.912C837.466 103.912 837.989 103.768 838.405 103.48C838.831 103.181 839.13 102.787 839.301 102.296H840.869C840.634 103.139 840.165 103.827 839.461 104.36C838.757 104.883 837.882 105.144 836.837 105.144C836.005 105.144 835.258 104.957 834.597 104.584C833.946 104.211 833.434 103.683 833.061 103C832.687 102.307 832.501 101.507 832.501 100.6C832.501 99.6933 832.682 98.8987 833.045 98.216C833.407 97.5333 833.914 97.0107 834.565 96.648C835.226 96.2747 835.983 96.088 836.837 96.088C837.669 96.088 838.405 96.2693 839.045 96.632C839.685 96.9947 840.175 97.496 840.517 98.136C840.869 98.7653 841.045 99.48 841.045 100.28ZM839.541 99.976C839.541 99.4213 839.418 98.9467 839.173 98.552C838.927 98.1467 838.591 97.8427 838.165 97.64C837.749 97.4267 837.285 97.32 836.773 97.32C836.037 97.32 835.407 97.5547 834.885 98.024C834.373 98.4933 834.079 99.144 834.005 99.976H839.541ZM847.238 96.072C848.305 96.072 849.169 96.3973 849.83 97.048C850.492 97.688 850.822 98.616 850.822 99.832V105H849.382V100.04C849.382 99.1653 849.164 98.4987 848.726 98.04C848.289 97.5707 847.692 97.336 846.934 97.336C846.166 97.336 845.553 97.576 845.094 98.056C844.646 98.536 844.422 99.2347 844.422 100.152V105H842.966V96.232H844.422V97.48C844.71 97.032 845.1 96.6853 845.59 96.44C846.092 96.1947 846.641 96.072 847.238 96.072ZM861.201 100.28C861.201 100.557 861.185 100.851 861.153 101.16H854.145C854.198 102.024 854.491 102.701 855.025 103.192C855.569 103.672 856.225 103.912 856.993 103.912C857.622 103.912 858.145 103.768 858.561 103.48C858.987 103.181 859.286 102.787 859.457 102.296H861.025C860.79 103.139 860.321 103.827 859.617 104.36C858.913 104.883 858.038 105.144 856.993 105.144C856.161 105.144 855.414 104.957 854.753 104.584C854.102 104.211 853.59 103.683 853.217 103C852.843 102.307 852.657 101.507 852.657 100.6C852.657 99.6933 852.838 98.8987 853.201 98.216C853.563 97.5333 854.07 97.0107 854.721 96.648C855.382 96.2747 856.139 96.088 856.993 96.088C857.825 96.088 858.561 96.2693 859.201 96.632C859.841 96.9947 860.331 97.496 860.673 98.136C861.025 98.7653 861.201 99.48 861.201 100.28ZM859.697 99.976C859.697 99.4213 859.574 98.9467 859.329 98.552C859.083 98.1467 858.747 97.8427 858.321 97.64C857.905 97.4267 857.441 97.32 856.929 97.32C856.193 97.32 855.563 97.5547 855.041 98.024C854.529 98.4933 854.235 99.144 854.161 99.976H859.697ZM866.691 97.432H864.851V105H863.395V97.432H862.259V96.232H863.395V95.608C863.395 94.6267 863.645 93.912 864.147 93.464C864.659 93.0053 865.475 92.776 866.595 92.776V93.992C865.955 93.992 865.501 94.12 865.235 94.376C864.979 94.6213 864.851 95.032 864.851 95.608V96.232H866.691V97.432ZM869.14 94.808C868.863 94.808 868.628 94.712 868.436 94.52C868.244 94.328 868.148 94.0933 868.148 93.816C868.148 93.5387 868.244 93.304 868.436 93.112C868.628 92.92 868.863 92.824 869.14 92.824C869.407 92.824 869.631 92.92 869.812 93.112C870.004 93.304 870.1 93.5387 870.1 93.816C870.1 94.0933 870.004 94.328 869.812 94.52C869.631 94.712 869.407 94.808 869.14 94.808ZM869.844 96.232V105H868.388V96.232H869.844ZM874.102 97.432V102.6C874.102 103.027 874.192 103.331 874.374 103.512C874.555 103.683 874.87 103.768 875.318 103.768H876.39V105H875.078C874.267 105 873.659 104.813 873.254 104.44C872.848 104.067 872.646 103.453 872.646 102.6V97.432H871.51V96.232H872.646V94.024H874.102V96.232H876.39V97.432H874.102ZM881.258 105.144C880.586 105.144 879.983 105.032 879.45 104.808C878.917 104.573 878.495 104.253 878.186 103.848C877.877 103.432 877.706 102.957 877.674 102.424H879.178C879.221 102.861 879.423 103.219 879.786 103.496C880.159 103.773 880.645 103.912 881.242 103.912C881.797 103.912 882.234 103.789 882.554 103.544C882.874 103.299 883.034 102.989 883.034 102.616C883.034 102.232 882.863 101.949 882.522 101.768C882.181 101.576 881.653 101.389 880.938 101.208C880.287 101.037 879.754 100.867 879.338 100.696C878.933 100.515 878.581 100.253 878.282 99.912C877.994 99.56 877.85 99.1013 877.85 98.536C877.85 98.088 877.983 97.6773 878.25 97.304C878.517 96.9307 878.895 96.6373 879.386 96.424C879.877 96.2 880.437 96.088 881.066 96.088C882.037 96.088 882.821 96.3333 883.418 96.824C884.015 97.3147 884.335 97.9867 884.378 98.84H882.922C882.89 98.3813 882.703 98.0133 882.362 97.736C882.031 97.4587 881.583 97.32 881.018 97.32C880.495 97.32 880.079 97.432 879.77 97.656C879.461 97.88 879.306 98.1733 879.306 98.536C879.306 98.824 879.397 99.064 879.578 99.256C879.77 99.4373 880.005 99.5867 880.282 99.704C880.57 99.8107 880.965 99.9333 881.466 100.072C882.095 100.243 882.607 100.413 883.002 100.584C883.397 100.744 883.733 100.989 884.01 101.32C884.298 101.651 884.447 102.083 884.458 102.616C884.458 103.096 884.325 103.528 884.058 103.912C883.791 104.296 883.413 104.6 882.922 104.824C882.442 105.037 881.887 105.144 881.258 105.144ZM824.656 128.848V135.904C824.656 136.896 824.896 137.632 825.376 138.112C825.867 138.592 826.544 138.832 827.408 138.832C828.261 138.832 828.928 138.592 829.408 138.112C829.899 137.632 830.144 136.896 830.144 135.904V128.848H831.6V135.888C831.6 136.816 831.413 137.6 831.04 138.24C830.667 138.869 830.16 139.339 829.52 139.648C828.891 139.957 828.181 140.112 827.392 140.112C826.603 140.112 825.888 139.957 825.248 139.648C824.619 139.339 824.117 138.869 823.744 138.24C823.381 137.6 823.2 136.816 823.2 135.888V128.848H824.656ZM837.133 140.144C836.461 140.144 835.858 140.032 835.325 139.808C834.792 139.573 834.37 139.253 834.061 138.848C833.752 138.432 833.581 137.957 833.549 137.424H835.053C835.096 137.861 835.298 138.219 835.661 138.496C836.034 138.773 836.52 138.912 837.117 138.912C837.672 138.912 838.109 138.789 838.429 138.544C838.749 138.299 838.909 137.989 838.909 137.616C838.909 137.232 838.738 136.949 838.397 136.768C838.056 136.576 837.528 136.389 836.813 136.208C836.162 136.037 835.629 135.867 835.213 135.696C834.808 135.515 834.456 135.253 834.157 134.912C833.869 134.56 833.725 134.101 833.725 133.536C833.725 133.088 833.858 132.677 834.125 132.304C834.392 131.931 834.77 131.637 835.261 131.424C835.752 131.2 836.312 131.088 836.941 131.088C837.912 131.088 838.696 131.333 839.293 131.824C839.89 132.315 840.21 132.987 840.253 133.84H838.797C838.765 133.381 838.578 133.013 838.237 132.736C837.906 132.459 837.458 132.32 836.893 132.32C836.37 132.32 835.954 132.432 835.645 132.656C835.336 132.88 835.181 133.173 835.181 133.536C835.181 133.824 835.272 134.064 835.453 134.256C835.645 134.437 835.88 134.587 836.157 134.704C836.445 134.811 836.84 134.933 837.341 135.072C837.97 135.243 838.482 135.413 838.877 135.584C839.272 135.744 839.608 135.989 839.885 136.32C840.173 136.651 840.322 137.083 840.333 137.616C840.333 138.096 840.2 138.528 839.933 138.912C839.666 139.296 839.288 139.6 838.797 139.824C838.317 140.037 837.762 140.144 837.133 140.144ZM850.388 135.28C850.388 135.557 850.372 135.851 850.34 136.16H843.332C843.386 137.024 843.679 137.701 844.212 138.192C844.756 138.672 845.412 138.912 846.18 138.912C846.81 138.912 847.332 138.768 847.748 138.48C848.175 138.181 848.474 137.787 848.644 137.296H850.212C849.978 138.139 849.508 138.827 848.804 139.36C848.1 139.883 847.226 140.144 846.18 140.144C845.348 140.144 844.602 139.957 843.94 139.584C843.29 139.211 842.778 138.683 842.404 138C842.031 137.307 841.844 136.507 841.844 135.6C841.844 134.693 842.026 133.899 842.388 133.216C842.751 132.533 843.258 132.011 843.908 131.648C844.57 131.275 845.327 131.088 846.18 131.088C847.012 131.088 847.748 131.269 848.388 131.632C849.028 131.995 849.519 132.496 849.86 133.136C850.212 133.765 850.388 134.48 850.388 135.28ZM848.884 134.976C848.884 134.421 848.762 133.947 848.516 133.552C848.271 133.147 847.935 132.843 847.508 132.64C847.092 132.427 846.628 132.32 846.116 132.32C845.38 132.32 844.751 132.555 844.228 133.024C843.716 133.493 843.423 134.144 843.348 134.976H848.884ZM856.032 134.416C856.032 133.328 856.277 132.352 856.768 131.488C857.258 130.613 857.925 129.931 858.768 129.44C859.621 128.949 860.565 128.704 861.6 128.704C862.816 128.704 863.877 128.997 864.784 129.584C865.69 130.171 866.352 131.003 866.768 132.08H865.024C864.714 131.408 864.266 130.891 863.68 130.528C863.104 130.165 862.41 129.984 861.6 129.984C860.821 129.984 860.122 130.165 859.504 130.528C858.885 130.891 858.4 131.408 858.048 132.08C857.696 132.741 857.52 133.52 857.52 134.416C857.52 135.301 857.696 136.08 858.048 136.752C858.4 137.413 858.885 137.925 859.504 138.288C860.122 138.651 860.821 138.832 861.6 138.832C862.41 138.832 863.104 138.656 863.68 138.304C864.266 137.941 864.714 137.424 865.024 136.752H866.768C866.352 137.819 865.69 138.645 864.784 139.232C863.877 139.808 862.816 140.096 861.6 140.096C860.565 140.096 859.621 139.856 858.768 139.376C857.925 138.885 857.258 138.208 856.768 137.344C856.277 136.48 856.032 135.504 856.032 134.416ZM868.391 135.584C868.391 134.688 868.572 133.904 868.935 133.232C869.298 132.549 869.794 132.021 870.423 131.648C871.063 131.275 871.772 131.088 872.551 131.088C873.319 131.088 873.986 131.253 874.551 131.584C875.116 131.915 875.538 132.331 875.815 132.832V131.232H877.287V140H875.815V138.368C875.527 138.88 875.095 139.307 874.519 139.648C873.954 139.979 873.292 140.144 872.535 140.144C871.756 140.144 871.052 139.952 870.423 139.568C869.794 139.184 869.298 138.645 868.935 137.952C868.572 137.259 868.391 136.469 868.391 135.584ZM875.815 135.6C875.815 134.939 875.682 134.363 875.415 133.872C875.148 133.381 874.786 133.008 874.327 132.752C873.879 132.485 873.383 132.352 872.839 132.352C872.295 132.352 871.799 132.48 871.351 132.736C870.903 132.992 870.546 133.365 870.279 133.856C870.012 134.347 869.879 134.923 869.879 135.584C869.879 136.256 870.012 136.843 870.279 137.344C870.546 137.835 870.903 138.213 871.351 138.48C871.799 138.736 872.295 138.864 872.839 138.864C873.383 138.864 873.879 138.736 874.327 138.48C874.786 138.213 875.148 137.835 875.415 137.344C875.682 136.843 875.815 136.261 875.815 135.6ZM882.852 140.144C882.18 140.144 881.577 140.032 881.044 139.808C880.51 139.573 880.089 139.253 879.78 138.848C879.47 138.432 879.3 137.957 879.268 137.424H880.772C880.814 137.861 881.017 138.219 881.38 138.496C881.753 138.773 882.238 138.912 882.836 138.912C883.39 138.912 883.828 138.789 884.148 138.544C884.468 138.299 884.628 137.989 884.628 137.616C884.628 137.232 884.457 136.949 884.116 136.768C883.774 136.576 883.246 136.389 882.532 136.208C881.881 136.037 881.348 135.867 880.932 135.696C880.526 135.515 880.174 135.253 879.876 134.912C879.588 134.56 879.444 134.101 879.444 133.536C879.444 133.088 879.577 132.677 879.844 132.304C880.11 131.931 880.489 131.637 880.98 131.424C881.47 131.2 882.03 131.088 882.66 131.088C883.63 131.088 884.414 131.333 885.012 131.824C885.609 132.315 885.929 132.987 885.972 133.84H884.516C884.484 133.381 884.297 133.013 883.956 132.736C883.625 132.459 883.177 132.32 882.612 132.32C882.089 132.32 881.673 132.432 881.364 132.656C881.054 132.88 880.9 133.173 880.9 133.536C880.9 133.824 880.99 134.064 881.172 134.256C881.364 134.437 881.598 134.587 881.876 134.704C882.164 134.811 882.558 134.933 883.06 135.072C883.689 135.243 884.201 135.413 884.596 135.584C884.99 135.744 885.326 135.989 885.604 136.32C885.892 136.651 886.041 137.083 886.052 137.616C886.052 138.096 885.918 138.528 885.652 138.912C885.385 139.296 885.006 139.6 884.516 139.824C884.036 140.037 883.481 140.144 882.852 140.144ZM896.107 135.28C896.107 135.557 896.091 135.851 896.059 136.16H889.051C889.104 137.024 889.398 137.701 889.931 138.192C890.475 138.672 891.131 138.912 891.899 138.912C892.528 138.912 893.051 138.768 893.467 138.48C893.894 138.181 894.192 137.787 894.363 137.296H895.931C895.696 138.139 895.227 138.827 894.523 139.36C893.819 139.883 892.944 140.144 891.899 140.144C891.067 140.144 890.32 139.957 889.659 139.584C889.008 139.211 888.496 138.683 888.123 138C887.75 137.307 887.563 136.507 887.563 135.6C887.563 134.693 887.744 133.899 888.107 133.216C888.47 132.533 888.976 132.011 889.627 131.648C890.288 131.275 891.046 131.088 891.899 131.088C892.731 131.088 893.467 131.269 894.107 131.632C894.747 131.995 895.238 132.496 895.579 133.136C895.931 133.765 896.107 134.48 896.107 135.28ZM894.603 134.976C894.603 134.421 894.48 133.947 894.235 133.552C893.99 133.147 893.654 132.843 893.227 132.64C892.811 132.427 892.347 132.32 891.835 132.32C891.099 132.32 890.47 132.555 889.947 133.024C889.435 133.493 889.142 134.144 889.067 134.976H894.603ZM901.133 140.144C900.461 140.144 899.858 140.032 899.325 139.808C898.792 139.573 898.37 139.253 898.061 138.848C897.752 138.432 897.581 137.957 897.549 137.424H899.053C899.096 137.861 899.298 138.219 899.661 138.496C900.034 138.773 900.52 138.912 901.117 138.912C901.672 138.912 902.109 138.789 902.429 138.544C902.749 138.299 902.909 137.989 902.909 137.616C902.909 137.232 902.738 136.949 902.397 136.768C902.056 136.576 901.528 136.389 900.813 136.208C900.162 136.037 899.629 135.867 899.213 135.696C898.808 135.515 898.456 135.253 898.157 134.912C897.869 134.56 897.725 134.101 897.725 133.536C897.725 133.088 897.858 132.677 898.125 132.304C898.392 131.931 898.77 131.637 899.261 131.424C899.752 131.2 900.312 131.088 900.941 131.088C901.912 131.088 902.696 131.333 903.293 131.824C903.89 132.315 904.21 132.987 904.253 133.84H902.797C902.765 133.381 902.578 133.013 902.237 132.736C901.906 132.459 901.458 132.32 900.893 132.32C900.37 132.32 899.954 132.432 899.645 132.656C899.336 132.88 899.181 133.173 899.181 133.536C899.181 133.824 899.272 134.064 899.453 134.256C899.645 134.437 899.88 134.587 900.157 134.704C900.445 134.811 900.84 134.933 901.341 135.072C901.97 135.243 902.482 135.413 902.877 135.584C903.272 135.744 903.608 135.989 903.885 136.32C904.173 136.651 904.322 137.083 904.333 137.616C904.333 138.096 904.2 138.528 903.933 138.912C903.666 139.296 903.288 139.6 902.797 139.824C902.317 140.037 901.762 140.144 901.133 140.144ZM822.688 169.416C822.688 168.328 822.933 167.352 823.424 166.488C823.915 165.613 824.581 164.931 825.424 164.44C826.277 163.949 827.221 163.704 828.256 163.704C829.472 163.704 830.533 163.997 831.44 164.584C832.347 165.171 833.008 166.003 833.424 167.08H831.68C831.371 166.408 830.923 165.891 830.336 165.528C829.76 165.165 829.067 164.984 828.256 164.984C827.477 164.984 826.779 165.165 826.16 165.528C825.541 165.891 825.056 166.408 824.704 167.08C824.352 167.741 824.176 168.52 824.176 169.416C824.176 170.301 824.352 171.08 824.704 171.752C825.056 172.413 825.541 172.925 826.16 173.288C826.779 173.651 827.477 173.832 828.256 173.832C829.067 173.832 829.76 173.656 830.336 173.304C830.923 172.941 831.371 172.424 831.68 171.752H833.424C833.008 172.819 832.347 173.645 831.44 174.232C830.533 174.808 829.472 175.096 828.256 175.096C827.221 175.096 826.277 174.856 825.424 174.376C824.581 173.885 823.915 173.208 823.424 172.344C822.933 171.48 822.688 170.504 822.688 169.416ZM839.415 175.144C838.594 175.144 837.847 174.957 837.175 174.584C836.514 174.211 835.991 173.683 835.607 173C835.234 172.307 835.047 171.507 835.047 170.6C835.047 169.704 835.239 168.915 835.623 168.232C836.018 167.539 836.551 167.011 837.223 166.648C837.895 166.275 838.647 166.088 839.479 166.088C840.311 166.088 841.063 166.275 841.735 166.648C842.407 167.011 842.935 167.533 843.319 168.216C843.714 168.899 843.911 169.693 843.911 170.6C843.911 171.507 843.709 172.307 843.303 173C842.909 173.683 842.37 174.211 841.687 174.584C841.005 174.957 840.247 175.144 839.415 175.144ZM839.415 173.864C839.938 173.864 840.429 173.741 840.887 173.496C841.346 173.251 841.714 172.883 841.991 172.392C842.279 171.901 842.423 171.304 842.423 170.6C842.423 169.896 842.285 169.299 842.007 168.808C841.73 168.317 841.367 167.955 840.919 167.72C840.471 167.475 839.986 167.352 839.463 167.352C838.93 167.352 838.439 167.475 837.991 167.72C837.554 167.955 837.202 168.317 836.935 168.808C836.669 169.299 836.535 169.896 836.535 170.6C836.535 171.315 836.663 171.917 836.919 172.408C837.186 172.899 837.538 173.267 837.975 173.512C838.413 173.747 838.893 173.864 839.415 173.864ZM850.098 166.072C851.164 166.072 852.028 166.397 852.69 167.048C853.351 167.688 853.682 168.616 853.682 169.832V175H852.242V170.04C852.242 169.165 852.023 168.499 851.586 168.04C851.148 167.571 850.551 167.336 849.794 167.336C849.026 167.336 848.412 167.576 847.954 168.056C847.506 168.536 847.282 169.235 847.282 170.152V175H845.826V166.232H847.282V167.48C847.57 167.032 847.959 166.685 848.45 166.44C848.951 166.195 849.5 166.072 850.098 166.072ZM857.836 167.432V172.6C857.836 173.027 857.927 173.331 858.108 173.512C858.289 173.683 858.604 173.768 859.052 173.768H860.124V175H858.812C858.001 175 857.393 174.813 856.988 174.44C856.583 174.067 856.38 173.453 856.38 172.6V167.432H855.244V166.232H856.38V164.024H857.836V166.232H860.124V167.432H857.836ZM861.344 170.584C861.344 169.688 861.526 168.904 861.888 168.232C862.251 167.549 862.747 167.021 863.376 166.648C864.016 166.275 864.726 166.088 865.504 166.088C866.272 166.088 866.939 166.253 867.504 166.584C868.07 166.915 868.491 167.331 868.768 167.832V166.232H870.24V175H868.768V173.368C868.48 173.88 868.048 174.307 867.472 174.648C866.907 174.979 866.246 175.144 865.488 175.144C864.71 175.144 864.006 174.952 863.376 174.568C862.747 174.184 862.251 173.645 861.888 172.952C861.526 172.259 861.344 171.469 861.344 170.584ZM868.768 170.6C868.768 169.939 868.635 169.363 868.368 168.872C868.102 168.381 867.739 168.008 867.28 167.752C866.832 167.485 866.336 167.352 865.792 167.352C865.248 167.352 864.752 167.48 864.304 167.736C863.856 167.992 863.499 168.365 863.232 168.856C862.966 169.347 862.832 169.923 862.832 170.584C862.832 171.256 862.966 171.843 863.232 172.344C863.499 172.835 863.856 173.213 864.304 173.48C864.752 173.736 865.248 173.864 865.792 173.864C866.336 173.864 866.832 173.736 867.28 173.48C867.739 173.213 868.102 172.835 868.368 172.344C868.635 171.843 868.768 171.261 868.768 170.6ZM872.157 170.6C872.157 169.693 872.338 168.904 872.701 168.232C873.063 167.549 873.565 167.021 874.205 166.648C874.855 166.275 875.597 166.088 876.429 166.088C877.506 166.088 878.391 166.349 879.085 166.872C879.789 167.395 880.253 168.12 880.477 169.048H878.909C878.759 168.515 878.466 168.093 878.029 167.784C877.602 167.475 877.069 167.32 876.429 167.32C875.597 167.32 874.925 167.608 874.413 168.184C873.901 168.749 873.645 169.555 873.645 170.6C873.645 171.656 873.901 172.472 874.413 173.048C874.925 173.624 875.597 173.912 876.429 173.912C877.069 173.912 877.602 173.763 878.029 173.464C878.455 173.165 878.749 172.739 878.909 172.184H880.477C880.242 173.08 879.773 173.8 879.069 174.344C878.365 174.877 877.485 175.144 876.429 175.144C875.597 175.144 874.855 174.957 874.205 174.584C873.565 174.211 873.063 173.683 872.701 173C872.338 172.317 872.157 171.517 872.157 170.6ZM884.196 167.432V172.6C884.196 173.027 884.286 173.331 884.468 173.512C884.649 173.683 884.964 173.768 885.411 173.768H886.484V175H885.172C884.361 175 883.753 174.813 883.348 174.44C882.942 174.067 882.74 173.453 882.74 172.6V167.432H881.604V166.232H882.74V164.024H884.196V166.232H886.484V167.432H884.196ZM893.937 163.848V170.904C893.937 171.896 894.177 172.632 894.657 173.112C895.148 173.592 895.825 173.832 896.689 173.832C897.543 173.832 898.209 173.592 898.689 173.112C899.18 172.632 899.425 171.896 899.425 170.904V163.848H900.881V170.888C900.881 171.816 900.695 172.6 900.321 173.24C899.948 173.869 899.441 174.339 898.801 174.648C898.172 174.957 897.463 175.112 896.673 175.112C895.884 175.112 895.169 174.957 894.529 174.648C893.9 174.339 893.399 173.869 893.025 173.24C892.663 172.6 892.481 171.816 892.481 170.888V163.848H893.937ZM906.414 175.144C905.742 175.144 905.139 175.032 904.606 174.808C904.073 174.573 903.651 174.253 903.342 173.848C903.033 173.432 902.862 172.957 902.83 172.424H904.334C904.377 172.861 904.579 173.219 904.942 173.496C905.315 173.773 905.801 173.912 906.398 173.912C906.953 173.912 907.39 173.789 907.71 173.544C908.03 173.299 908.19 172.989 908.19 172.616C908.19 172.232 908.019 171.949 907.678 171.768C907.337 171.576 906.809 171.389 906.094 171.208C905.443 171.037 904.91 170.867 904.494 170.696C904.089 170.515 903.737 170.253 903.438 169.912C903.15 169.56 903.006 169.101 903.006 168.536C903.006 168.088 903.139 167.677 903.406 167.304C903.673 166.931 904.051 166.637 904.542 166.424C905.033 166.2 905.593 166.088 906.222 166.088C907.193 166.088 907.977 166.333 908.574 166.824C909.171 167.315 909.491 167.987 909.534 168.84H908.078C908.046 168.381 907.859 168.013 907.518 167.736C907.187 167.459 906.739 167.32 906.174 167.32C905.651 167.32 905.235 167.432 904.926 167.656C904.617 167.88 904.462 168.173 904.462 168.536C904.462 168.824 904.553 169.064 904.734 169.256C904.926 169.437 905.161 169.587 905.438 169.704C905.726 169.811 906.121 169.933 906.622 170.072C907.251 170.243 907.763 170.413 908.158 170.584C908.553 170.744 908.889 170.989 909.166 171.32C909.454 171.651 909.603 172.083 909.614 172.616C909.614 173.096 909.481 173.528 909.214 173.912C908.947 174.296 908.569 174.6 908.078 174.824C907.598 175.037 907.043 175.144 906.414 175.144Z" fill="white"/>
<path d="M1007.69 97.112C1007.69 98.04 1007.37 98.8133 1006.73 99.432C1006.1 100.04 1005.13 100.344 1003.83 100.344H1001.69V105H1000.23V93.848H1003.83C1005.09 93.848 1006.05 94.152 1006.7 94.76C1007.36 95.368 1007.69 96.152 1007.69 97.112ZM1003.83 99.144C1004.64 99.144 1005.24 98.968 1005.62 98.616C1006.01 98.264 1006.2 97.7627 1006.2 97.112C1006.2 95.736 1005.41 95.048 1003.83 95.048H1001.69V99.144H1003.83ZM1010.95 97.656C1011.21 97.1547 1011.57 96.7653 1012.04 96.488C1012.52 96.2107 1013.1 96.072 1013.79 96.072V97.576H1013.4C1011.77 97.576 1010.95 98.4613 1010.95 100.232V105H1009.5V96.232H1010.95V97.656ZM1016.22 94.808C1015.94 94.808 1015.71 94.712 1015.51 94.52C1015.32 94.328 1015.23 94.0933 1015.23 93.816C1015.23 93.5387 1015.32 93.304 1015.51 93.112C1015.71 92.92 1015.94 92.824 1016.22 92.824C1016.49 92.824 1016.71 92.92 1016.89 93.112C1017.08 93.304 1017.18 93.5387 1017.18 93.816C1017.18 94.0933 1017.08 94.328 1016.89 94.52C1016.71 94.712 1016.49 94.808 1016.22 94.808ZM1016.92 96.232V105H1015.47V96.232H1016.92ZM1022.67 103.656L1025.39 96.232H1026.94L1023.5 105H1021.8L1018.36 96.232H1019.93L1022.67 103.656ZM1027.83 100.584C1027.83 99.688 1028.01 98.904 1028.37 98.232C1028.74 97.5493 1029.23 97.0213 1029.86 96.648C1030.5 96.2747 1031.21 96.088 1031.99 96.088C1032.76 96.088 1033.42 96.2533 1033.99 96.584C1034.55 96.9147 1034.98 97.3307 1035.25 97.832V96.232H1036.72V105H1035.25V103.368C1034.96 103.88 1034.53 104.307 1033.96 104.648C1033.39 104.979 1032.73 105.144 1031.97 105.144C1031.19 105.144 1030.49 104.952 1029.86 104.568C1029.23 104.184 1028.74 103.645 1028.37 102.952C1028.01 102.259 1027.83 101.469 1027.83 100.584ZM1035.25 100.6C1035.25 99.9387 1035.12 99.3627 1034.85 98.872C1034.59 98.3813 1034.22 98.008 1033.76 97.752C1033.32 97.4853 1032.82 97.352 1032.28 97.352C1031.73 97.352 1031.24 97.48 1030.79 97.736C1030.34 97.992 1029.98 98.3653 1029.72 98.856C1029.45 99.3467 1029.32 99.9227 1029.32 100.584C1029.32 101.256 1029.45 101.843 1029.72 102.344C1029.98 102.835 1030.34 103.213 1030.79 103.48C1031.24 103.736 1031.73 103.864 1032.28 103.864C1032.82 103.864 1033.32 103.736 1033.76 103.48C1034.22 103.213 1034.59 102.835 1034.85 102.344C1035.12 101.843 1035.25 101.261 1035.25 100.6ZM1038.64 100.6C1038.64 99.6933 1038.82 98.904 1039.19 98.232C1039.55 97.5493 1040.05 97.0213 1040.69 96.648C1041.34 96.2747 1042.08 96.088 1042.91 96.088C1043.99 96.088 1044.88 96.3493 1045.57 96.872C1046.27 97.3947 1046.74 98.12 1046.96 99.048H1045.39C1045.24 98.5147 1044.95 98.0933 1044.51 97.784C1044.09 97.4747 1043.55 97.32 1042.91 97.32C1042.08 97.32 1041.41 97.608 1040.9 98.184C1040.39 98.7493 1040.13 99.5547 1040.13 100.6C1040.13 101.656 1040.39 102.472 1040.9 103.048C1041.41 103.624 1042.08 103.912 1042.91 103.912C1043.55 103.912 1044.09 103.763 1044.51 103.464C1044.94 103.165 1045.23 102.739 1045.39 102.184H1046.96C1046.73 103.08 1046.26 103.8 1045.55 104.344C1044.85 104.877 1043.97 105.144 1042.91 105.144C1042.08 105.144 1041.34 104.957 1040.69 104.584C1040.05 104.211 1039.55 103.683 1039.19 103C1038.82 102.317 1038.64 101.517 1038.64 100.6ZM1056.46 96.232L1051.18 109.128H1049.67L1051.4 104.904L1047.86 96.232H1049.48L1052.23 103.336L1054.95 96.232H1056.46ZM1069.64 97.112C1069.64 98.04 1069.32 98.8133 1068.68 99.432C1068.05 100.04 1067.09 100.344 1065.79 100.344H1063.64V105H1062.19V93.848H1065.79C1067.04 93.848 1068 94.152 1068.65 94.76C1069.31 95.368 1069.64 96.152 1069.64 97.112ZM1065.79 99.144C1066.6 99.144 1067.19 98.968 1067.58 98.616C1067.96 98.264 1068.15 97.7627 1068.15 97.112C1068.15 95.736 1067.36 95.048 1065.79 95.048H1063.64V99.144H1065.79ZM1075.27 105.144C1074.45 105.144 1073.71 104.957 1073.03 104.584C1072.37 104.211 1071.85 103.683 1071.47 103C1071.09 102.307 1070.91 101.507 1070.91 100.6C1070.91 99.704 1071.1 98.9147 1071.48 98.232C1071.88 97.5387 1072.41 97.0107 1073.08 96.648C1073.75 96.2747 1074.51 96.088 1075.34 96.088C1076.17 96.088 1076.92 96.2747 1077.59 96.648C1078.27 97.0107 1078.79 97.5333 1079.18 98.216C1079.57 98.8987 1079.77 99.6933 1079.77 100.6C1079.77 101.507 1079.57 102.307 1079.16 103C1078.77 103.683 1078.23 104.211 1077.55 104.584C1076.86 104.957 1076.11 105.144 1075.27 105.144ZM1075.27 103.864C1075.8 103.864 1076.29 103.741 1076.75 103.496C1077.21 103.251 1077.57 102.883 1077.85 102.392C1078.14 101.901 1078.28 101.304 1078.28 100.6C1078.28 99.896 1078.14 99.2987 1077.87 98.808C1077.59 98.3173 1077.23 97.9547 1076.78 97.72C1076.33 97.4747 1075.85 97.352 1075.32 97.352C1074.79 97.352 1074.3 97.4747 1073.85 97.72C1073.41 97.9547 1073.06 98.3173 1072.79 98.808C1072.53 99.2987 1072.39 99.896 1072.39 100.6C1072.39 101.315 1072.52 101.917 1072.78 102.408C1073.05 102.899 1073.4 103.267 1073.83 103.512C1074.27 103.747 1074.75 103.864 1075.27 103.864ZM1083.14 93.16V105H1081.69V93.16H1083.14ZM1086.37 94.808C1086.1 94.808 1085.86 94.712 1085.67 94.52C1085.48 94.328 1085.38 94.0933 1085.38 93.816C1085.38 93.5387 1085.48 93.304 1085.67 93.112C1085.86 92.92 1086.1 92.824 1086.37 92.824C1086.64 92.824 1086.87 92.92 1087.05 93.112C1087.24 93.304 1087.33 93.5387 1087.33 93.816C1087.33 94.0933 1087.24 94.328 1087.05 94.52C1086.87 94.712 1086.64 94.808 1086.37 94.808ZM1087.08 96.232V105H1085.62V96.232H1087.08ZM1089.02 100.6C1089.02 99.6933 1089.2 98.904 1089.56 98.232C1089.92 97.5493 1090.42 97.0213 1091.06 96.648C1091.71 96.2747 1092.46 96.088 1093.29 96.088C1094.37 96.088 1095.25 96.3493 1095.94 96.872C1096.65 97.3947 1097.11 98.12 1097.34 99.048H1095.77C1095.62 98.5147 1095.33 98.0933 1094.89 97.784C1094.46 97.4747 1093.93 97.32 1093.29 97.32C1092.46 97.32 1091.78 97.608 1091.27 98.184C1090.76 98.7493 1090.5 99.5547 1090.5 100.6C1090.5 101.656 1090.76 102.472 1091.27 103.048C1091.78 103.624 1092.46 103.912 1093.29 103.912C1093.93 103.912 1094.46 103.763 1094.89 103.464C1095.31 103.165 1095.61 102.739 1095.77 102.184H1097.34C1097.1 103.08 1096.63 103.8 1095.93 104.344C1095.22 104.877 1094.34 105.144 1093.29 105.144C1092.46 105.144 1091.71 104.957 1091.06 104.584C1090.42 104.211 1089.92 103.683 1089.56 103C1089.2 102.317 1089.02 101.517 1089.02 100.6ZM1106.83 96.232L1101.55 109.128H1100.05L1101.77 104.904L1098.24 96.232H1099.85L1102.61 103.336L1105.33 96.232H1106.83ZM1003.7 128.848C1004.92 128.848 1005.97 129.077 1006.86 129.536C1007.75 129.984 1008.43 130.629 1008.9 131.472C1009.38 132.315 1009.62 133.307 1009.62 134.448C1009.62 135.589 1009.38 136.581 1008.9 137.424C1008.43 138.256 1007.75 138.896 1006.86 139.344C1005.97 139.781 1004.92 140 1003.7 140H1000.23V128.848H1003.7ZM1003.7 138.8C1005.14 138.8 1006.24 138.421 1007 137.664C1007.76 136.896 1008.14 135.824 1008.14 134.448C1008.14 133.061 1007.75 131.979 1006.98 131.2C1006.23 130.421 1005.13 130.032 1003.7 130.032H1001.69V138.8H1003.7ZM1012.3 129.808C1012.02 129.808 1011.78 129.712 1011.59 129.52C1011.4 129.328 1011.3 129.093 1011.3 128.816C1011.3 128.539 1011.4 128.304 1011.59 128.112C1011.78 127.92 1012.02 127.824 1012.3 127.824C1012.56 127.824 1012.79 127.92 1012.97 128.112C1013.16 128.304 1013.26 128.539 1013.26 128.816C1013.26 129.093 1013.16 129.328 1012.97 129.52C1012.79 129.712 1012.56 129.808 1012.3 129.808ZM1013 131.232V140H1011.54V131.232H1013ZM1018.59 140.144C1017.91 140.144 1017.31 140.032 1016.78 139.808C1016.24 139.573 1015.82 139.253 1015.51 138.848C1015.2 138.432 1015.03 137.957 1015 137.424H1016.51C1016.55 137.861 1016.75 138.219 1017.11 138.496C1017.49 138.773 1017.97 138.912 1018.57 138.912C1019.12 138.912 1019.56 138.789 1019.88 138.544C1020.2 138.299 1020.36 137.989 1020.36 137.616C1020.36 137.232 1020.19 136.949 1019.85 136.768C1019.51 136.576 1018.98 136.389 1018.27 136.208C1017.62 136.037 1017.08 135.867 1016.67 135.696C1016.26 135.515 1015.91 135.253 1015.61 134.912C1015.32 134.56 1015.18 134.101 1015.18 133.536C1015.18 133.088 1015.31 132.677 1015.58 132.304C1015.84 131.931 1016.22 131.637 1016.71 131.424C1017.2 131.2 1017.76 131.088 1018.39 131.088C1019.36 131.088 1020.15 131.333 1020.75 131.824C1021.34 132.315 1021.66 132.987 1021.71 133.84H1020.25C1020.22 133.381 1020.03 133.013 1019.69 132.736C1019.36 132.459 1018.91 132.32 1018.35 132.32C1017.82 132.32 1017.41 132.432 1017.1 132.656C1016.79 132.88 1016.63 133.173 1016.63 133.536C1016.63 133.824 1016.72 134.064 1016.91 134.256C1017.1 134.437 1017.33 134.587 1017.61 134.704C1017.9 134.811 1018.29 134.933 1018.79 135.072C1019.42 135.243 1019.94 135.413 1020.33 135.584C1020.72 135.744 1021.06 135.989 1021.34 136.32C1021.63 136.651 1021.78 137.083 1021.79 137.616C1021.79 138.096 1021.65 138.528 1021.39 138.912C1021.12 139.296 1020.74 139.6 1020.25 139.824C1019.77 140.037 1019.22 140.144 1018.59 140.144ZM1023.3 135.6C1023.3 134.693 1023.48 133.904 1023.84 133.232C1024.2 132.549 1024.71 132.021 1025.35 131.648C1026 131.275 1026.74 131.088 1027.57 131.088C1028.65 131.088 1029.53 131.349 1030.23 131.872C1030.93 132.395 1031.39 133.12 1031.62 134.048H1030.05C1029.9 133.515 1029.61 133.093 1029.17 132.784C1028.74 132.475 1028.21 132.32 1027.57 132.32C1026.74 132.32 1026.07 132.608 1025.55 133.184C1025.04 133.749 1024.79 134.555 1024.79 135.6C1024.79 136.656 1025.04 137.472 1025.55 138.048C1026.07 138.624 1026.74 138.912 1027.57 138.912C1028.21 138.912 1028.74 138.763 1029.17 138.464C1029.6 138.165 1029.89 137.739 1030.05 137.184H1031.62C1031.38 138.08 1030.91 138.8 1030.21 139.344C1029.51 139.877 1028.63 140.144 1027.57 140.144C1026.74 140.144 1026 139.957 1025.35 139.584C1024.71 139.211 1024.2 138.683 1023.84 138C1023.48 137.317 1023.3 136.517 1023.3 135.6ZM1035.02 128.16V140H1033.56V128.16H1035.02ZM1036.95 135.584C1036.95 134.688 1037.13 133.904 1037.5 133.232C1037.86 132.549 1038.36 132.021 1038.99 131.648C1039.63 131.275 1040.33 131.088 1041.11 131.088C1041.88 131.088 1042.55 131.253 1043.11 131.584C1043.68 131.915 1044.1 132.331 1044.38 132.832V131.232H1045.85V140H1044.38V138.368C1044.09 138.88 1043.66 139.307 1043.08 139.648C1042.52 139.979 1041.85 140.144 1041.1 140.144C1040.32 140.144 1039.61 139.952 1038.99 139.568C1038.36 139.184 1037.86 138.645 1037.5 137.952C1037.13 137.259 1036.95 136.469 1036.95 135.584ZM1044.38 135.6C1044.38 134.939 1044.24 134.363 1043.98 133.872C1043.71 133.381 1043.35 133.008 1042.89 132.752C1042.44 132.485 1041.95 132.352 1041.4 132.352C1040.86 132.352 1040.36 132.48 1039.91 132.736C1039.47 132.992 1039.11 133.365 1038.84 133.856C1038.57 134.347 1038.44 134.923 1038.44 135.584C1038.44 136.256 1038.57 136.843 1038.84 137.344C1039.11 137.835 1039.47 138.213 1039.91 138.48C1040.36 138.736 1040.86 138.864 1041.4 138.864C1041.95 138.864 1042.44 138.736 1042.89 138.48C1043.35 138.213 1043.71 137.835 1043.98 137.344C1044.24 136.843 1044.38 136.261 1044.38 135.6ZM1049.06 129.808C1048.78 129.808 1048.55 129.712 1048.36 129.52C1048.17 129.328 1048.07 129.093 1048.07 128.816C1048.07 128.539 1048.17 128.304 1048.36 128.112C1048.55 127.92 1048.78 127.824 1049.06 127.824C1049.33 127.824 1049.55 127.92 1049.73 128.112C1049.93 128.304 1050.02 128.539 1050.02 128.816C1050.02 129.093 1049.93 129.328 1049.73 129.52C1049.55 129.712 1049.33 129.808 1049.06 129.808ZM1049.77 131.232V140H1048.31V131.232H1049.77ZM1062.79 131.072C1063.47 131.072 1064.08 131.216 1064.62 131.504C1065.15 131.781 1065.57 132.203 1065.88 132.768C1066.19 133.333 1066.34 134.021 1066.34 134.832V140H1064.9V135.04C1064.9 134.165 1064.68 133.499 1064.25 133.04C1063.82 132.571 1063.24 132.336 1062.5 132.336C1061.75 132.336 1061.14 132.581 1060.7 133.072C1060.25 133.552 1060.02 134.251 1060.02 135.168V140H1058.58V135.04C1058.58 134.165 1058.36 133.499 1057.93 133.04C1057.5 132.571 1056.92 132.336 1056.18 132.336C1055.43 132.336 1054.82 132.581 1054.38 133.072C1053.93 133.552 1053.7 134.251 1053.7 135.168V140H1052.25V131.232H1053.7V132.496C1053.99 132.037 1054.38 131.685 1054.86 131.44C1055.35 131.195 1055.88 131.072 1056.47 131.072C1057.21 131.072 1057.86 131.237 1058.42 131.568C1058.99 131.899 1059.41 132.384 1059.69 133.024C1059.93 132.405 1060.34 131.925 1060.9 131.584C1061.47 131.243 1062.1 131.072 1062.79 131.072ZM1076.73 135.28C1076.73 135.557 1076.72 135.851 1076.68 136.16H1069.68C1069.73 137.024 1070.02 137.701 1070.56 138.192C1071.1 138.672 1071.76 138.912 1072.52 138.912C1073.15 138.912 1073.68 138.768 1074.09 138.48C1074.52 138.181 1074.82 137.787 1074.99 137.296H1076.56C1076.32 138.139 1075.85 138.827 1075.15 139.36C1074.44 139.883 1073.57 140.144 1072.52 140.144C1071.69 140.144 1070.95 139.957 1070.28 139.584C1069.63 139.211 1069.12 138.683 1068.75 138C1068.37 137.307 1068.19 136.507 1068.19 135.6C1068.19 134.693 1068.37 133.899 1068.73 133.216C1069.09 132.533 1069.6 132.011 1070.25 131.648C1070.91 131.275 1071.67 131.088 1072.52 131.088C1073.36 131.088 1074.09 131.269 1074.73 131.632C1075.37 131.995 1075.86 132.496 1076.2 133.136C1076.56 133.765 1076.73 134.48 1076.73 135.28ZM1075.23 134.976C1075.23 134.421 1075.11 133.947 1074.86 133.552C1074.61 133.147 1074.28 132.843 1073.85 132.64C1073.44 132.427 1072.97 132.32 1072.46 132.32C1071.72 132.32 1071.09 132.555 1070.57 133.024C1070.06 133.493 1069.77 134.144 1069.69 134.976H1075.23ZM1080.11 132.656C1080.37 132.155 1080.73 131.765 1081.2 131.488C1081.68 131.211 1082.26 131.072 1082.94 131.072V132.576H1082.56C1080.93 132.576 1080.11 133.461 1080.11 135.232V140H1078.65V131.232H1080.11V132.656ZM1007.1 163.848V165.032H1004.06V175H1002.6V165.032H999.544V163.848H1007.1ZM1016.89 170.28C1016.89 170.557 1016.87 170.851 1016.84 171.16H1009.83C1009.89 172.024 1010.18 172.701 1010.71 173.192C1011.26 173.672 1011.91 173.912 1012.68 173.912C1013.31 173.912 1013.83 173.768 1014.25 173.48C1014.67 173.181 1014.97 172.787 1015.14 172.296H1016.71C1016.48 173.139 1016.01 173.827 1015.3 174.36C1014.6 174.883 1013.73 175.144 1012.68 175.144C1011.85 175.144 1011.1 174.957 1010.44 174.584C1009.79 174.211 1009.28 173.683 1008.9 173C1008.53 172.307 1008.34 171.507 1008.34 170.6C1008.34 169.693 1008.53 168.899 1008.89 168.216C1009.25 167.533 1009.76 167.011 1010.41 166.648C1011.07 166.275 1011.83 166.088 1012.68 166.088C1013.51 166.088 1014.25 166.269 1014.89 166.632C1015.53 166.995 1016.02 167.496 1016.36 168.136C1016.71 168.765 1016.89 169.48 1016.89 170.28ZM1015.38 169.976C1015.38 169.421 1015.26 168.947 1015.02 168.552C1014.77 168.147 1014.43 167.843 1014.01 167.64C1013.59 167.427 1013.13 167.32 1012.62 167.32C1011.88 167.32 1011.25 167.555 1010.73 168.024C1010.22 168.493 1009.92 169.144 1009.85 169.976H1015.38ZM1020.27 167.656C1020.52 167.155 1020.88 166.765 1021.35 166.488C1021.83 166.211 1022.42 166.072 1023.1 166.072V167.576H1022.71C1021.08 167.576 1020.27 168.461 1020.27 170.232V175H1018.81V166.232H1020.27V167.656ZM1035.32 166.072C1036.01 166.072 1036.61 166.216 1037.15 166.504C1037.68 166.781 1038.1 167.203 1038.41 167.768C1038.72 168.333 1038.87 169.021 1038.87 169.832V175H1037.43V170.04C1037.43 169.165 1037.22 168.499 1036.78 168.04C1036.35 167.571 1035.77 167.336 1035.03 167.336C1034.28 167.336 1033.67 167.581 1033.23 168.072C1032.78 168.552 1032.55 169.251 1032.55 170.168V175H1031.11V170.04C1031.11 169.165 1030.9 168.499 1030.46 168.04C1030.03 167.571 1029.45 167.336 1028.71 167.336C1027.96 167.336 1027.35 167.581 1026.91 168.072C1026.46 168.552 1026.23 169.251 1026.23 170.168V175H1024.78V166.232H1026.23V167.496C1026.52 167.037 1026.91 166.685 1027.39 166.44C1027.88 166.195 1028.42 166.072 1029 166.072C1029.74 166.072 1030.39 166.237 1030.95 166.568C1031.52 166.899 1031.94 167.384 1032.22 168.024C1032.46 167.405 1032.87 166.925 1033.43 166.584C1034 166.243 1034.63 166.072 1035.32 166.072ZM1044.37 175.144C1043.7 175.144 1043.09 175.032 1042.56 174.808C1042.03 174.573 1041.6 174.253 1041.3 173.848C1040.99 173.432 1040.82 172.957 1040.78 172.424H1042.29C1042.33 172.861 1042.53 173.219 1042.9 173.496C1043.27 173.773 1043.75 173.912 1044.35 173.912C1044.91 173.912 1045.34 173.789 1045.66 173.544C1045.98 173.299 1046.14 172.989 1046.14 172.616C1046.14 172.232 1045.97 171.949 1045.63 171.768C1045.29 171.576 1044.76 171.389 1044.05 171.208C1043.4 171.037 1042.86 170.867 1042.45 170.696C1042.04 170.515 1041.69 170.253 1041.39 169.912C1041.1 169.56 1040.96 169.101 1040.96 168.536C1040.96 168.088 1041.09 167.677 1041.36 167.304C1041.63 166.931 1042 166.637 1042.5 166.424C1042.99 166.2 1043.55 166.088 1044.18 166.088C1045.15 166.088 1045.93 166.333 1046.53 166.824C1047.12 167.315 1047.44 167.987 1047.49 168.84H1046.03C1046 168.381 1045.81 168.013 1045.47 167.736C1045.14 167.459 1044.69 167.32 1044.13 167.32C1043.6 167.32 1043.19 167.432 1042.88 167.656C1042.57 167.88 1042.42 168.173 1042.42 168.536C1042.42 168.824 1042.51 169.064 1042.69 169.256C1042.88 169.437 1043.11 169.587 1043.39 169.704C1043.68 169.811 1044.07 169.933 1044.58 170.072C1045.2 170.243 1045.72 170.413 1046.11 170.584C1046.51 170.744 1046.84 170.989 1047.12 171.32C1047.41 171.651 1047.56 172.083 1047.57 172.616C1047.57 173.096 1047.43 173.528 1047.17 173.912C1046.9 174.296 1046.52 174.6 1046.03 174.824C1045.55 175.037 1045 175.144 1044.37 175.144ZM1058.94 175.112C1057.91 175.112 1056.97 174.872 1056.11 174.392C1055.26 173.901 1054.58 173.224 1054.08 172.36C1053.59 171.485 1053.34 170.504 1053.34 169.416C1053.34 168.328 1053.59 167.352 1054.08 166.488C1054.58 165.613 1055.26 164.936 1056.11 164.456C1056.97 163.965 1057.91 163.72 1058.94 163.72C1059.99 163.72 1060.94 163.965 1061.79 164.456C1062.65 164.936 1063.32 165.608 1063.81 166.472C1064.3 167.336 1064.54 168.317 1064.54 169.416C1064.54 170.515 1064.3 171.496 1063.81 172.36C1063.32 173.224 1062.65 173.901 1061.79 174.392C1060.94 174.872 1059.99 175.112 1058.94 175.112ZM1058.94 173.848C1059.72 173.848 1060.42 173.667 1061.04 173.304C1061.67 172.941 1062.16 172.424 1062.51 171.752C1062.87 171.08 1063.06 170.301 1063.06 169.416C1063.06 168.52 1062.87 167.741 1062.51 167.08C1062.16 166.408 1061.67 165.891 1061.06 165.528C1060.44 165.165 1059.73 164.984 1058.94 164.984C1058.15 164.984 1057.45 165.165 1056.83 165.528C1056.21 165.891 1055.72 166.408 1055.36 167.08C1055.01 167.741 1054.83 168.52 1054.83 169.416C1054.83 170.301 1055.01 171.08 1055.36 171.752C1055.72 172.424 1056.21 172.941 1056.83 173.304C1057.46 173.667 1058.17 173.848 1058.94 173.848ZM1070.03 167.432H1068.19V175H1066.74V167.432H1065.6V166.232H1066.74V165.608C1066.74 164.627 1066.99 163.912 1067.49 163.464C1068 163.005 1068.82 162.776 1069.94 162.776V163.992C1069.3 163.992 1068.85 164.12 1068.58 164.376C1068.32 164.621 1068.19 165.032 1068.19 165.608V166.232H1070.03V167.432ZM1077.42 163.848V170.904C1077.42 171.896 1077.66 172.632 1078.14 173.112C1078.63 173.592 1079.31 173.832 1080.17 173.832C1081.03 173.832 1081.69 173.592 1082.17 173.112C1082.66 172.632 1082.91 171.896 1082.91 170.904V163.848H1084.37V170.888C1084.37 171.816 1084.18 172.6 1083.81 173.24C1083.43 173.869 1082.93 174.339 1082.29 174.648C1081.66 174.957 1080.95 175.112 1080.16 175.112C1079.37 175.112 1078.65 174.957 1078.01 174.648C1077.38 174.339 1076.88 173.869 1076.51 173.24C1076.15 172.6 1075.97 171.816 1075.97 170.888V163.848H1077.42ZM1089.9 175.144C1089.23 175.144 1088.62 175.032 1088.09 174.808C1087.56 174.573 1087.14 174.253 1086.83 173.848C1086.52 173.432 1086.35 172.957 1086.31 172.424H1087.82C1087.86 172.861 1088.06 173.219 1088.43 173.496C1088.8 173.773 1089.29 173.912 1089.88 173.912C1090.44 173.912 1090.87 173.789 1091.19 173.544C1091.51 173.299 1091.67 172.989 1091.67 172.616C1091.67 172.232 1091.5 171.949 1091.16 171.768C1090.82 171.576 1090.29 171.389 1089.58 171.208C1088.93 171.037 1088.39 170.867 1087.98 170.696C1087.57 170.515 1087.22 170.253 1086.92 169.912C1086.63 169.56 1086.49 169.101 1086.49 168.536C1086.49 168.088 1086.62 167.677 1086.89 167.304C1087.16 166.931 1087.54 166.637 1088.03 166.424C1088.52 166.2 1089.08 166.088 1089.71 166.088C1090.68 166.088 1091.46 166.333 1092.06 166.824C1092.66 167.315 1092.98 167.987 1093.02 168.84H1091.56C1091.53 168.381 1091.34 168.013 1091 167.736C1090.67 167.459 1090.22 167.32 1089.66 167.32C1089.14 167.32 1088.72 167.432 1088.41 167.656C1088.1 167.88 1087.95 168.173 1087.95 168.536C1087.95 168.824 1088.04 169.064 1088.22 169.256C1088.41 169.437 1088.65 169.587 1088.92 169.704C1089.21 169.811 1089.61 169.933 1090.11 170.072C1090.74 170.243 1091.25 170.413 1091.64 170.584C1092.04 170.744 1092.37 170.989 1092.65 171.32C1092.94 171.651 1093.09 172.083 1093.1 172.616C1093.1 173.096 1092.97 173.528 1092.7 173.912C1092.43 174.296 1092.05 174.6 1091.56 174.824C1091.08 175.037 1090.53 175.144 1089.9 175.144ZM1103.15 170.28C1103.15 170.557 1103.14 170.851 1103.11 171.16H1096.1C1096.15 172.024 1096.44 172.701 1096.98 173.192C1097.52 173.672 1098.18 173.912 1098.95 173.912C1099.58 173.912 1100.1 173.768 1100.51 173.48C1100.94 173.181 1101.24 172.787 1101.41 172.296H1102.98C1102.74 173.139 1102.27 173.827 1101.57 174.36C1100.87 174.883 1099.99 175.144 1098.95 175.144C1098.11 175.144 1097.37 174.957 1096.71 174.584C1096.06 174.211 1095.54 173.683 1095.17 173C1094.8 172.307 1094.61 171.507 1094.61 170.6C1094.61 169.693 1094.79 168.899 1095.15 168.216C1095.52 167.533 1096.02 167.011 1096.67 166.648C1097.34 166.275 1098.09 166.088 1098.95 166.088C1099.78 166.088 1100.51 166.269 1101.15 166.632C1101.79 166.995 1102.28 167.496 1102.63 168.136C1102.98 168.765 1103.15 169.48 1103.15 170.28ZM1101.65 169.976C1101.65 169.421 1101.53 168.947 1101.28 168.552C1101.04 168.147 1100.7 167.843 1100.27 167.64C1099.86 167.427 1099.39 167.32 1098.88 167.32C1098.15 167.32 1097.52 167.555 1096.99 168.024C1096.48 168.493 1096.19 169.144 1096.11 169.976H1101.65Z" fill="white"/>
<rect width="1920" height="333" fill="#03192F"/>
<mask id="mask0" mask-type="alpha" maskUnits="userSpaceOnUse" x="0" y="0" width="1920" height="333">
<rect width="1920" height="333" fill="#03192F"/>
</mask>
<g mask="url(#mask0)">
<path d="M615.632 -0.000183105C560.613 139.972 606.459 326.721 747.171 393.681C887.526 460.47 1070.46 396.441 1121.69 243.559C1149.73 159.887 1173.87 78.703 1267.48 52.362C1286.58 46.9884 1306.45 44.4917 1325.15 37.8224C1341.06 32.1451 1351.27 24.9829 1357.03 16.8188V-0.000183105L615.632 -0.000183105Z" fill="#08223D"/>
</g>
<path d="M1990.9 208.449C1990.9 268.344 1942.35 316.898 1882.45 316.898C1822.56 316.898 1774 268.344 1774 208.449C1774 148.554 1822.56 99.9999 1882.45 99.9999C1942.35 99.9999 1990.9 148.554 1990.9 208.449Z" stroke="#00B9B6" stroke-opacity="0.1" stroke-width="1.33333" stroke-miterlimit="10"/>
<path d="M1974.58 208.449C1974.58 259.33 1933.33 300.576 1882.45 300.576C1831.57 300.576 1790.32 259.33 1790.32 208.449C1790.32 157.569 1831.57 116.322 1882.45 116.322C1933.33 116.322 1974.58 157.569 1974.58 208.449Z" stroke="#00B9B6" stroke-opacity="0.1" stroke-width="1.33333" stroke-miterlimit="10"/>
<path d="M1958.25 208.449C1958.25 250.315 1924.32 284.25 1882.45 284.25C1840.58 284.25 1806.64 250.315 1806.64 208.449C1806.64 166.583 1840.58 132.644 1882.45 132.644C1924.32 132.644 1958.25 166.583 1958.25 208.449Z" stroke="#00B9B6" stroke-opacity="0.1" stroke-width="1.33333" stroke-miterlimit="10"/>
<path d="M1941.93 208.448C1941.93 241.296 1915.3 267.928 1882.45 267.928C1849.6 267.928 1822.97 241.296 1822.97 208.448C1822.97 175.597 1849.6 148.965 1882.45 148.965C1915.3 148.965 1941.93 175.597 1941.93 208.448Z" stroke="#00B9B6" stroke-opacity="0.1" stroke-width="1.33333" stroke-miterlimit="10"/>
<path d="M1925.61 208.45C1925.61 232.283 1906.29 251.607 1882.45 251.607C1858.62 251.607 1839.29 232.283 1839.29 208.45C1839.29 184.612 1858.62 165.292 1882.45 165.292C1906.29 165.292 1925.61 184.612 1925.61 208.45Z" stroke="#00B9B6" stroke-opacity="0.1" stroke-width="1.33333" stroke-miterlimit="10"/>
<path d="M1909.29 208.449C1909.29 223.272 1897.27 235.284 1882.45 235.284C1867.63 235.284 1855.61 223.272 1855.61 208.449C1855.61 193.626 1867.63 181.613 1882.45 181.613C1897.27 181.613 1909.29 193.626 1909.29 208.449Z" stroke="#00B9B6" stroke-opacity="0.1" stroke-width="1.33333" stroke-miterlimit="10"/>
<path d="M1892.96 208.449C1892.96 214.253 1888.26 218.962 1882.45 218.962C1876.64 218.962 1871.94 214.253 1871.94 208.449C1871.94 202.64 1876.64 197.935 1882.45 197.935C1888.26 197.935 1892.96 202.64 1892.96 208.449Z" stroke="#00B9B6" stroke-opacity="0.1" stroke-width="1.33333" stroke-miterlimit="10"/>
<circle cx="1732.81" cy="69.8077" r="3.30768" stroke="#00B9B6"/>
<circle cx="1755.5" cy="69.8077" r="3.30768" fill="#00B9B6" stroke="#00B9B6"/>
<circle cx="1778.19" cy="69.8077" r="3.30768" stroke="#00B9B6"/>
<circle cx="1732.81" cy="92.4996" r="3.30768" fill="#00B9B6" stroke="#00B9B6"/>
<circle cx="1755.5" cy="92.4996" r="3.30768" stroke="#00B9B6"/>
<circle cx="1778.19" cy="92.4996" r="3.30768" fill="#00B9B6" stroke="#00B9B6"/>
<path d="M109.132 177.565C109.132 178.983 107.984 180.132 106.567 180.132C105.149 180.132 104 178.983 104 177.565C104 176.148 105.149 175 106.567 175C107.984 175 109.132 176.148 109.132 177.565Z" fill="white"/>
<path d="M109.132 195.197C109.132 196.614 107.984 197.764 106.567 197.764C105.149 197.764 104 196.614 104 195.197C104 193.78 105.149 192.632 106.567 192.632C107.984 192.632 109.132 193.78 109.132 195.197Z" fill="white"/>
<path d="M109.132 212.828C109.132 214.246 107.984 215.395 106.567 215.395C105.149 215.395 104 214.246 104 212.828C104 211.411 105.149 210.263 106.567 210.263C107.984 210.263 109.132 211.411 109.132 212.828Z" fill="white"/>
<path d="M109.132 230.46C109.132 231.877 107.984 233.026 106.567 233.026C105.149 233.026 104 231.877 104 230.46C104 229.042 105.149 227.894 106.567 227.894C107.984 227.894 109.132 229.042 109.132 230.46Z" fill="white"/>
<path d="M127.364 212.828C127.364 214.246 126.214 215.395 124.797 215.395C123.38 215.395 122.232 214.246 122.232 212.828C122.232 211.411 123.38 210.263 124.797 210.263C126.214 210.263 127.364 211.411 127.364 212.828Z" fill="white"/>
<path d="M127.364 230.46C127.364 231.877 126.214 233.026 124.797 233.026C123.38 233.026 122.232 231.877 122.232 230.46C122.232 229.042 123.38 227.894 124.797 227.894C126.214 227.894 127.364 229.042 127.364 230.46Z" fill="white"/>
<path d="M109.132 248.092C109.132 249.508 107.984 250.657 106.567 250.657C105.149 250.657 104 249.508 104 248.092C104 246.675 105.149 245.525 106.567 245.525C107.984 245.525 109.132 246.675 109.132 248.092Z" fill="white"/>
<path d="M109.132 265.724C109.132 267.14 107.984 268.289 106.567 268.289C105.149 268.289 104 267.14 104 265.724C104 264.306 105.149 263.157 106.567 263.157C107.984 263.157 109.132 264.306 109.132 265.724Z" fill="white"/>
<path d="M109.132 283.355C109.132 284.771 107.984 285.922 106.567 285.922C105.149 285.922 104 284.771 104 283.355C104 281.938 105.149 280.789 106.567 280.789C107.984 280.789 109.132 281.938 109.132 283.355Z" fill="white"/>
<path d="M127.343 195.197C127.343 196.614 126.195 197.764 124.778 197.764C123.361 197.764 122.211 196.614 122.211 195.197C122.211 193.78 123.361 192.632 124.778 192.632C126.195 192.632 127.343 193.78 127.343 195.197Z" fill="white"/>
<path d="M127.343 248.092C127.343 249.508 126.195 250.657 124.778 250.657C123.361 250.657 122.211 249.508 122.211 248.092C122.211 246.675 123.361 245.525 124.778 245.525C126.195 245.525 127.343 246.675 127.343 248.092Z" fill="white"/>
<path d="M127.343 265.724C127.343 267.14 126.195 268.289 124.778 268.289C123.361 268.289 122.211 267.14 122.211 265.724C122.211 264.306 123.361 263.157 124.778 263.157C126.195 263.157 127.343 264.306 127.343 265.724Z" fill="white"/>
</svg>
