<svg width="102" height="99" viewBox="0 0 102 99" fill="none" xmlns="http://www.w3.org/2000/svg">
<path d="M1.49304 94.089C1.49304 95.7388 2.83098 97.0768 4.48087 97.0768H93.9323C95.5836 97.0768 96.9186 95.7388 96.9186 94.089V6.47367C96.9186 4.82378 95.5851 3.48584 93.9323 3.48584H6.47373C4.82237 3.48584 3.48591 4.82378 3.48591 6.47367L1.49304 22.8483V94.089Z" fill="#F8F5F9"/>
<path d="M43.0324 69.4987H13.1408C12.0409 69.4987 11.1494 68.6072 11.1494 67.5058V58.393C11.1494 57.2931 12.0409 56.4016 13.1408 56.4016H43.0309C44.1308 56.4016 45.0238 57.2931 45.0238 58.393V67.5058C45.0238 68.6072 44.1323 69.4987 43.0324 69.4987Z" fill="#00B9B6"/>
<path d="M88.8588 69.4987H58.9687C57.8688 69.4987 56.9773 68.6072 56.9773 67.5058V58.393C56.9773 57.2931 57.8688 56.4016 58.9687 56.4016H88.8588C89.9587 56.4016 90.8517 57.2931 90.8517 58.393V67.5058C90.8517 68.6072 89.9587 69.4987 88.8588 69.4987Z" fill="#00B9B6"/>
<path d="M43.0324 90.9562H13.1408C12.0409 90.9562 11.1494 90.0632 11.1494 88.9633V79.8491C11.1494 78.7506 12.0409 77.8577 13.1408 77.8577H43.0309C44.1308 77.8577 45.0238 78.7506 45.0238 79.8491V88.9633C45.0238 90.0632 44.1323 90.9562 43.0324 90.9562Z" fill="#00B9B6"/>
<path d="M88.8588 90.9562H58.9687C57.8688 90.9562 56.9773 90.0632 56.9773 88.9633V79.8491C56.9773 78.7506 57.8688 77.8577 58.9687 77.8577H88.8588C89.9587 77.8577 90.8517 78.7506 90.8517 79.8491V88.9633C90.8517 90.0632 89.9587 90.9562 88.8588 90.9562Z" fill="#00B9B6"/>
<path d="M35.8263 12.1717C35.8263 14.9495 38.0853 17.21 40.8632 17.21C43.6425 17.21 45.9015 14.9495 45.9015 12.1717C45.9015 9.39376 43.6425 7.1333 40.8632 7.1333C38.0853 7.1333 35.8263 9.39376 35.8263 12.1717ZM42.9152 12.1717C42.9152 13.3011 41.9956 14.2222 40.8632 14.2222C39.7337 14.2222 38.8156 13.3011 38.8156 12.1717C38.8156 11.0407 39.7337 10.1211 40.8632 10.1211C41.9956 10.1211 42.9152 11.0407 42.9152 12.1717Z" fill="black"/>
<path d="M21.5969 12.1717C21.5969 14.9495 23.8574 17.21 26.6353 17.21C29.4161 17.21 31.6736 14.9495 31.6736 12.1717C31.6736 9.39376 29.4161 7.1333 26.6353 7.1333C23.8574 7.1333 21.5969 9.39376 21.5969 12.1717ZM28.6858 12.1717C28.6858 13.3011 27.7677 14.2222 26.6353 14.2222C25.5058 14.2222 24.5848 13.3011 24.5848 12.1717C24.5848 11.0407 25.5058 10.1211 26.6353 10.1211C27.7662 10.1211 28.6858 11.0407 28.6858 12.1717Z" fill="black"/>
<path d="M7.37317 12.1717C7.37317 14.9495 9.63214 17.21 12.41 17.21C15.1894 17.21 17.4499 14.9495 17.4499 12.1717C17.4499 9.39376 15.1909 7.1333 12.41 7.1333C9.63067 7.1333 7.37317 9.39376 7.37317 12.1717ZM14.4606 12.1717C14.4606 13.3011 13.541 14.2222 12.41 14.2222C11.2805 14.2222 10.361 13.3011 10.361 12.1717C10.361 11.0407 11.2805 10.1211 12.41 10.1211C13.5395 10.1211 14.4606 11.0407 14.4606 12.1717Z" fill="black"/>
<path d="M97.519 0H4.48248C2.01061 0 0 2.01061 0 4.48248V62.5093C0 63.3342 0.669714 64.0025 1.49318 64.0025C2.31812 64.0025 2.98782 63.3342 2.98782 62.5093V24.3417H58.8902C59.7151 24.3417 60.3833 23.672 60.3833 22.8485C60.3833 22.0221 59.7151 21.3539 58.8902 21.3539H2.98782V4.48248C2.98782 3.65902 3.65902 2.98783 4.48248 2.98783H97.519C98.3425 2.98783 99.0122 3.65902 99.0122 4.48248V21.3539H65.3995C64.5746 21.3539 63.9063 22.0221 63.9063 22.8485C63.9063 23.672 64.5746 24.3417 65.3995 24.3417H99.0122V94.0892C99.0122 94.9126 98.3425 95.5838 97.519 95.5838H4.48248C3.65902 95.5838 2.98782 94.9126 2.98782 94.0892V69.0216C2.98782 68.1952 2.31812 67.5269 1.49318 67.5269C0.669714 67.5269 0 68.1952 0 69.0216V94.0892C0 96.561 2.01061 98.5716 4.48248 98.5716H97.519C99.9909 98.5716 102 96.561 102 94.0892V4.48248C102 2.01061 99.9909 0 97.519 0Z" fill="black"/>
<path d="M9.65614 67.5071C9.65614 69.429 11.2188 70.9931 13.1422 70.9931H43.0323C44.9542 70.9931 46.5168 69.429 46.5168 67.5071V58.3928C46.5168 56.4709 44.9527 54.9067 43.0323 54.9067H13.1407C11.2173 54.9067 9.65466 56.4709 9.65466 58.3928V67.5071H9.65614ZM12.644 58.3928C12.644 58.1178 12.8672 57.8946 13.1422 57.8946H43.0323C43.3073 57.8946 43.5305 58.1178 43.5305 58.3928V67.5071C43.5305 67.782 43.3073 68.0053 43.0323 68.0053H13.1407C12.8657 68.0053 12.6425 67.782 12.6425 67.5071V58.3928H12.644Z" fill="black"/>
<path d="M92.3447 58.3928C92.3447 56.4709 90.7821 54.9067 88.8602 54.9067H58.9671C57.0467 54.9067 55.4825 56.4709 55.4825 58.3928V67.5071C55.4825 69.429 57.0482 70.9931 58.9671 70.9931H88.8587C90.7821 70.9931 92.3432 69.429 92.3432 67.5071V58.3928H92.3447ZM89.3554 67.5071C89.3554 67.782 89.1337 68.0053 88.8587 68.0053H58.9671C58.6921 68.0053 58.4704 67.782 58.4704 67.5071V58.3928C58.4704 58.1178 58.6921 57.8946 58.9671 57.8946H88.8587C89.1337 57.8946 89.3554 58.1178 89.3554 58.3928V67.5071Z" fill="black"/>
<path d="M9.65614 88.9636C9.65614 90.887 11.2188 92.4496 13.1422 92.4496H43.0323C44.9542 92.4496 46.5168 90.887 46.5168 88.9636V79.8493C46.5168 77.9274 44.9527 76.3633 43.0323 76.3633H13.1407C11.2173 76.3633 9.65466 77.9274 9.65466 79.8493V88.9636H9.65614ZM12.644 79.8493C12.644 79.5743 12.8672 79.3511 13.1422 79.3511H43.0323C43.3073 79.3511 43.5305 79.5743 43.5305 79.8493V88.9636C43.5305 89.2386 43.3073 89.4618 43.0323 89.4618H13.1407C12.8657 89.4618 12.6425 89.2386 12.6425 88.9636V79.8493H12.644Z" fill="black"/>
<path d="M88.8587 76.3633H58.9671C57.0467 76.3633 55.4825 77.9274 55.4825 79.8493V88.9636C55.4825 90.887 57.0482 92.4496 58.9671 92.4496H88.8587C90.7821 92.4496 92.3433 90.887 92.3433 88.9636V79.8493C92.3447 77.9274 90.7821 76.3633 88.8587 76.3633ZM89.3554 88.9636C89.3554 89.2386 89.1337 89.4618 88.8587 89.4618H58.9671C58.6921 89.4618 58.4704 89.2386 58.4704 88.9636V79.8493C58.4704 79.5743 58.6921 79.3511 58.9671 79.3511H88.8587C89.1337 79.3511 89.3554 79.5743 89.3554 79.8493V88.9636Z" fill="black"/>
<path d="M92.3455 30.9599C92.3455 29.038 90.7828 27.4739 88.8609 27.4739H13.1407C11.2188 27.4739 9.65466 29.038 9.65466 30.9599V46.0513C9.65466 47.9732 11.2188 49.5359 13.1407 49.5359H24.4563C25.2827 49.5359 25.9495 48.8691 25.9495 48.0427C25.9495 47.2178 25.2827 46.5481 24.4563 46.5481H13.1407C12.8657 46.5481 12.6425 46.3263 12.6425 46.0513V30.9599C12.6425 30.6849 12.8657 30.4617 13.1407 30.4617H88.8594C89.1344 30.4617 89.3591 30.6849 89.3591 30.9599V46.0513C89.3591 46.3263 89.1344 46.5481 88.8594 46.5481H30.9686C30.1437 46.5481 29.4754 47.2178 29.4754 48.0427C29.4754 48.8691 30.1437 49.5359 30.9686 49.5359H88.8609C90.7843 49.5359 92.3455 47.9732 92.3455 46.0513V30.9599Z" fill="black"/>
</svg>
