<svg width="1855" height="905" viewBox="0 0 1855 905" fill="none" xmlns="http://www.w3.org/2000/svg">
<rect width="1920" height="904" fill="url(#paint0_linear)"/>
<path d="M1.15364 98C16.8026 154.653 60.6296 279.558 182.758 361.761C240.031 400.311 297.548 418.05 349.984 428.75C635.999 487.111 757.146 332.716 1009.6 350.595C1301.99 371.305 1368.65 594.658 1634.37 567.194C1762.42 553.958 1859.85 490.418 1917.73 444.38C1918.48 658.684 1919.24 690.696 1920 905C1268.42 905 652.73 905 1.15414 905C-2.84336 592.854 5.15014 410.146 1.15364 98Z" fill="url(#paint1_radial)" fill-opacity="0.5"/>
<path d="M74.132 408.565C74.132 409.983 72.984 411.132 71.5667 411.132C70.1493 411.132 69 409.983 69 408.565C69 407.148 70.1493 406 71.5667 406C72.984 406 74.132 407.148 74.132 408.565Z" fill="white"/>
<path d="M74.132 426.197C74.132 427.614 72.984 428.763 71.5667 428.763C70.1493 428.763 69 427.614 69 426.197C69 424.779 70.1493 423.631 71.5667 423.631C72.984 423.631 74.132 424.779 74.132 426.197Z" fill="white"/>
<path d="M74.132 443.828C74.132 445.246 72.984 446.395 71.5667 446.395C70.1493 446.395 69 445.246 69 443.828C69 442.411 70.1493 441.263 71.5667 441.263C72.984 441.263 74.132 442.411 74.132 443.828Z" fill="white"/>
<path d="M74.132 461.46C74.132 462.877 72.984 464.027 71.5667 464.027C70.1493 464.027 69 462.877 69 461.46C69 460.043 70.1493 458.895 71.5667 458.895C72.984 458.895 74.132 460.043 74.132 461.46Z" fill="white"/>
<path d="M92.3637 443.828C92.3637 445.246 91.2144 446.395 89.797 446.395C88.3797 446.395 87.2317 445.246 87.2317 443.828C87.2317 442.411 88.3797 441.263 89.797 441.263C91.2144 441.263 92.3637 442.411 92.3637 443.828Z" fill="white"/>
<path d="M92.3637 461.46C92.3637 462.877 91.2144 464.027 89.797 464.027C88.3797 464.027 87.2317 462.877 87.2317 461.46C87.2317 460.043 88.3797 458.895 89.797 458.895C91.2144 458.895 92.3637 460.043 92.3637 461.46Z" fill="white"/>
<path d="M74.132 479.092C74.132 480.508 72.984 481.657 71.5667 481.657C70.1493 481.657 69 480.508 69 479.092C69 477.675 70.1493 476.525 71.5667 476.525C72.984 476.525 74.132 477.675 74.132 479.092Z" fill="white"/>
<path d="M74.132 496.723C74.132 498.139 72.984 499.289 71.5667 499.289C70.1493 499.289 69 498.139 69 496.723C69 495.306 70.1493 494.157 71.5667 494.157C72.984 494.157 74.132 495.306 74.132 496.723Z" fill="white"/>
<path d="M74.132 514.355C74.132 515.771 72.984 516.922 71.5667 516.922C70.1493 516.922 69 515.771 69 514.355C69 512.938 70.1493 511.788 71.5667 511.788C72.984 511.788 74.132 512.938 74.132 514.355Z" fill="white"/>
<path d="M92.3434 426.197C92.3434 427.614 91.1954 428.763 89.7781 428.763C88.3608 428.763 87.2114 427.614 87.2114 426.197C87.2114 424.779 88.3608 423.631 89.7781 423.631C91.1954 423.631 92.3434 424.779 92.3434 426.197Z" fill="white"/>
<path d="M92.3434 479.092C92.3434 480.508 91.1954 481.657 89.7781 481.657C88.3608 481.657 87.2114 480.508 87.2114 479.092C87.2114 477.675 88.3608 476.525 89.7781 476.525C91.1954 476.525 92.3434 477.675 92.3434 479.092Z" fill="white"/>
<path d="M92.3434 496.723C92.3434 498.139 91.1954 499.289 89.7781 499.289C88.3608 499.289 87.2114 498.139 87.2114 496.723C87.2114 495.306 88.3608 494.157 89.7781 494.157C91.1954 494.157 92.3434 495.306 92.3434 496.723Z" fill="white"/>
<path d="M1321.58 839.261C1321.58 840.802 1320.33 842.051 1318.79 842.051C1317.25 842.051 1316 840.802 1316 839.261C1316 837.721 1317.25 836.472 1318.79 836.472C1320.33 836.472 1321.58 837.721 1321.58 839.261Z" fill="white"/>
<path d="M1341.48 839.261C1341.48 840.802 1340.23 842.051 1338.69 842.051C1337.15 842.051 1335.9 840.802 1335.9 839.261C1335.9 837.721 1337.15 836.472 1338.69 836.472C1340.23 836.472 1341.48 837.721 1341.48 839.261Z" fill="white"/>
<path d="M1361.38 839.261C1361.38 840.802 1360.13 842.051 1358.59 842.051C1357.05 842.051 1355.8 840.802 1355.8 839.261C1355.8 837.721 1357.05 836.472 1358.59 836.472C1360.13 836.472 1361.38 837.721 1361.38 839.261Z" fill="white"/>
<path d="M1381.28 839.261C1381.28 840.802 1380.03 842.051 1378.49 842.051C1376.95 842.051 1375.7 840.802 1375.7 839.261C1375.7 837.721 1376.95 836.472 1378.49 836.472C1380.03 836.472 1381.28 837.721 1381.28 839.261Z" fill="white"/>
<path d="M1301.68 858.428C1301.68 859.969 1300.43 861.219 1298.89 861.219C1297.35 861.219 1296.1 859.969 1296.1 858.428C1296.1 856.889 1297.35 855.64 1298.89 855.64C1300.43 855.64 1301.68 856.889 1301.68 858.428Z" fill="white"/>
<path d="M1321.58 858.428C1321.58 859.969 1320.33 861.219 1318.79 861.219C1317.25 861.219 1316 859.969 1316 858.428C1316 856.889 1317.25 855.64 1318.79 855.64C1320.33 855.64 1321.58 856.889 1321.58 858.428Z" fill="white"/>
<path d="M1341.48 858.428C1341.48 859.969 1340.23 861.219 1338.69 861.219C1337.15 861.219 1335.9 859.969 1335.9 858.428C1335.9 856.889 1337.15 855.64 1338.69 855.64C1340.23 855.64 1341.48 856.889 1341.48 858.428Z" fill="white"/>
<path d="M1361.38 858.428C1361.38 859.969 1360.13 861.219 1358.59 861.219C1357.05 861.219 1355.8 859.969 1355.8 858.428C1355.8 856.889 1357.05 855.64 1358.59 855.64C1360.13 855.64 1361.38 856.889 1361.38 858.428Z" fill="white"/>
<path d="M1381.28 858.428C1381.28 859.969 1380.03 861.219 1378.49 861.219C1376.95 861.219 1375.7 859.969 1375.7 858.428C1375.7 856.889 1376.95 855.64 1378.49 855.64C1380.03 855.64 1381.28 856.889 1381.28 858.428Z" fill="white"/>
<path d="M1401.18 858.428C1401.18 859.969 1399.93 861.219 1398.39 861.219C1396.85 861.219 1395.6 859.969 1395.6 858.428C1395.6 856.889 1396.85 855.64 1398.39 855.64C1399.93 855.64 1401.18 856.889 1401.18 858.428Z" fill="white"/>
<path d="M1281.78 877.598C1281.78 879.137 1280.53 880.387 1278.99 880.387C1277.45 880.387 1276.2 879.137 1276.2 877.598C1276.2 876.057 1277.45 874.807 1278.99 874.807C1280.53 874.807 1281.78 876.057 1281.78 877.598Z" fill="white"/>
<path d="M1301.68 877.598C1301.68 879.137 1300.43 880.387 1298.89 880.387C1297.35 880.387 1296.1 879.137 1296.1 877.598C1296.1 876.057 1297.35 874.807 1298.89 874.807C1300.43 874.807 1301.68 876.057 1301.68 877.598Z" fill="white"/>
<path d="M1321.58 877.598C1321.58 879.137 1320.33 880.387 1318.79 880.387C1317.25 880.387 1316 879.137 1316 877.598C1316 876.057 1317.25 874.807 1318.79 874.807C1320.33 874.807 1321.58 876.057 1321.58 877.598Z" fill="white"/>
<path d="M1341.48 877.598C1341.48 879.137 1340.23 880.387 1338.69 880.387C1337.15 880.387 1335.9 879.137 1335.9 877.598C1335.9 876.057 1337.15 874.807 1338.69 874.807C1340.23 874.807 1341.48 876.057 1341.48 877.598Z" fill="white"/>
<path d="M1361.38 877.598C1361.38 879.137 1360.13 880.387 1358.59 880.387C1357.05 880.387 1355.8 879.137 1355.8 877.598C1355.8 876.057 1357.05 874.807 1358.59 874.807C1360.13 874.807 1361.38 876.057 1361.38 877.598Z" fill="white"/>
<path d="M1381.28 877.598C1381.28 879.137 1380.03 880.387 1378.49 880.387C1376.95 880.387 1375.7 879.137 1375.7 877.598C1375.7 876.057 1376.95 874.807 1378.49 874.807C1380.03 874.807 1381.28 876.057 1381.28 877.598Z" fill="white"/>
<path d="M1401.18 877.598C1401.18 879.137 1399.93 880.387 1398.39 880.387C1396.85 880.387 1395.6 879.137 1395.6 877.598C1395.6 876.057 1396.85 874.807 1398.39 874.807C1399.93 874.807 1401.18 876.057 1401.18 877.598Z" fill="white"/>
<path d="M1281.78 896.766C1281.78 898.305 1280.53 899.554 1278.99 899.554C1277.45 899.554 1276.2 898.305 1276.2 896.766C1276.2 895.225 1277.45 893.975 1278.99 893.975C1280.53 893.975 1281.78 895.225 1281.78 896.766Z" fill="white"/>
<path d="M1301.68 896.766C1301.68 898.305 1300.43 899.554 1298.89 899.554C1297.35 899.554 1296.1 898.305 1296.1 896.766C1296.1 895.225 1297.35 893.975 1298.89 893.975C1300.43 893.975 1301.68 895.225 1301.68 896.766Z" fill="white"/>
<path d="M1321.58 896.766C1321.58 898.305 1320.33 899.554 1318.79 899.554C1317.25 899.554 1316 898.305 1316 896.766C1316 895.225 1317.25 893.975 1318.79 893.975C1320.33 893.975 1321.58 895.225 1321.58 896.766Z" fill="white"/>
<path d="M1341.48 896.766C1341.48 898.305 1340.23 899.554 1338.69 899.554C1337.15 899.554 1335.9 898.305 1335.9 896.766C1335.9 895.225 1337.15 893.975 1338.69 893.975C1340.23 893.975 1341.48 895.225 1341.48 896.766Z" fill="white"/>
<path d="M1361.38 896.766C1361.38 898.305 1360.13 899.554 1358.59 899.554C1357.05 899.554 1355.8 898.305 1355.8 896.766C1355.8 895.225 1357.05 893.975 1358.59 893.975C1360.13 893.975 1361.38 895.225 1361.38 896.766Z" fill="white"/>
<path d="M1381.28 896.766C1381.28 898.305 1380.03 899.554 1378.49 899.554C1376.95 899.554 1375.7 898.305 1375.7 896.766C1375.7 895.225 1376.95 893.975 1378.49 893.975C1380.03 893.975 1381.28 895.225 1381.28 896.766Z" fill="white"/>
<path d="M1401.18 896.766C1401.18 898.305 1399.93 899.554 1398.39 899.554C1396.85 899.554 1395.6 898.305 1395.6 896.766C1395.6 895.225 1396.85 893.975 1398.39 893.975C1399.93 893.975 1401.18 895.225 1401.18 896.766Z" fill="white"/>
<path d="M1421 896.766C1421 898.305 1419.75 899.554 1418.21 899.554C1416.67 899.554 1415.42 898.305 1415.42 896.766C1415.42 895.225 1416.67 893.975 1418.21 893.975C1419.75 893.975 1421 895.225 1421 896.766Z" fill="white"/>
<path d="M1420.98 877.598C1420.98 879.137 1419.73 880.387 1418.19 880.387C1416.65 880.387 1415.4 879.137 1415.4 877.598C1415.4 876.057 1416.65 874.807 1418.19 874.807C1419.73 874.807 1420.98 876.057 1420.98 877.598Z" fill="white"/>
<g opacity="0.05">
<path fill-rule="evenodd" clip-rule="evenodd" d="M1646.45 803.908C1708.56 803.908 1758.91 753.559 1758.91 691.453C1758.91 629.346 1708.56 579 1646.45 579C1584.35 579 1534 629.346 1534 691.453C1534 753.559 1584.35 803.908 1646.45 803.908ZM1646.45 746.688C1676.96 746.688 1701.69 721.957 1701.69 691.452C1701.69 660.948 1676.96 636.217 1646.45 636.217C1615.95 636.217 1591.22 660.948 1591.22 691.452C1591.22 721.957 1615.95 746.688 1646.45 746.688Z" fill="white"/>
</g>
<g opacity="0.1">
<path d="M255 903.276C255 856.732 292.732 819 339.276 819C385.82 819 423.552 856.732 423.552 903.276H255Z" fill="white"/>
</g>
<path d="M1323 223.121C1323 198.755 1342.75 179 1367.12 179C1391.49 179 1411.24 198.755 1411.24 223.121H1323Z" fill="white" fill-opacity="0.05"/>
<path d="M1638.23 170.116C1638.23 171.836 1636.84 173.231 1635.11 173.231C1633.39 173.231 1632 171.836 1632 170.116C1632 168.395 1633.39 167 1635.11 167C1636.84 167 1638.23 168.395 1638.23 170.116Z" fill="#00B9B6"/>
<path d="M1657.72 170.116C1657.72 171.836 1656.33 173.231 1654.61 173.231C1652.89 173.231 1651.49 171.836 1651.49 170.116C1651.49 168.395 1652.89 167 1654.61 167C1656.33 167 1657.72 168.395 1657.72 170.116Z" fill="#00B9B6" fill-opacity="0.2"/>
<path d="M1677.21 170.116C1677.21 171.836 1675.82 173.231 1674.1 173.231C1672.38 173.231 1670.99 171.836 1670.99 170.116C1670.99 168.395 1672.38 167 1674.1 167C1675.82 167 1677.21 168.395 1677.21 170.116Z" fill="#00B9B6"/>
<path d="M1696.71 170.116C1696.71 171.836 1695.31 173.231 1693.59 173.231C1691.87 173.231 1690.48 171.836 1690.48 170.116C1690.48 168.395 1691.87 167 1693.59 167C1695.31 167 1696.71 168.395 1696.71 170.116Z" fill="#00B9B6" fill-opacity="0.2"/>
<path d="M1716.2 170.116C1716.2 171.836 1714.8 173.231 1713.08 173.231C1711.36 173.231 1709.97 171.836 1709.97 170.116C1709.97 168.395 1711.36 167 1713.08 167C1714.8 167 1716.2 168.395 1716.2 170.116Z" fill="#00B9B6"/>
<path d="M1638.23 189.606C1638.23 191.327 1636.84 192.722 1635.11 192.722C1633.39 192.722 1632 191.327 1632 189.606C1632 187.885 1633.39 186.491 1635.11 186.491C1636.84 186.491 1638.23 187.885 1638.23 189.606Z" fill="#00B9B6" fill-opacity="0.2"/>
<path d="M1657.72 189.606C1657.72 191.327 1656.33 192.722 1654.61 192.722C1652.89 192.722 1651.49 191.327 1651.49 189.606C1651.49 187.885 1652.89 186.491 1654.61 186.491C1656.33 186.491 1657.72 187.885 1657.72 189.606Z" fill="#00B9B6"/>
<path d="M1677.21 189.606C1677.21 191.327 1675.82 192.722 1674.1 192.722C1672.38 192.722 1670.99 191.327 1670.99 189.606C1670.99 187.885 1672.38 186.491 1674.1 186.491C1675.82 186.491 1677.21 187.885 1677.21 189.606Z" fill="#00B9B6" fill-opacity="0.2"/>
<path d="M1696.71 189.606C1696.71 191.327 1695.31 192.722 1693.59 192.722C1691.87 192.722 1690.48 191.327 1690.48 189.606C1690.48 187.885 1691.87 186.491 1693.59 186.491C1695.31 186.491 1696.71 187.885 1696.71 189.606Z" fill="#00B9B6"/>
<path d="M1716.2 189.606C1716.2 191.327 1714.8 192.722 1713.08 192.722C1711.36 192.722 1709.97 191.327 1709.97 189.606C1709.97 187.885 1711.36 186.491 1713.08 186.491C1714.8 186.491 1716.2 187.885 1716.2 189.606Z" fill="#00B9B6" fill-opacity="0.2"/>
<path d="M1638.23 209.099C1638.23 210.82 1636.84 212.215 1635.11 212.215C1633.39 212.215 1632 210.82 1632 209.099C1632 207.378 1633.39 205.984 1635.11 205.984C1636.84 205.984 1638.23 207.378 1638.23 209.099Z" fill="#00B9B6"/>
<path d="M1657.72 209.099C1657.72 210.82 1656.33 212.215 1654.61 212.215C1652.89 212.215 1651.49 210.82 1651.49 209.099C1651.49 207.378 1652.89 205.984 1654.61 205.984C1656.33 205.984 1657.72 207.378 1657.72 209.099Z" fill="#00B9B6" fill-opacity="0.2"/>
<path d="M1677.21 209.099C1677.21 210.82 1675.82 212.215 1674.1 212.215C1672.38 212.215 1670.99 210.82 1670.99 209.099C1670.99 207.378 1672.38 205.984 1674.1 205.984C1675.82 205.984 1677.21 207.378 1677.21 209.099Z" fill="#00B9B6"/>
<path d="M1696.71 209.099C1696.71 210.82 1695.31 212.215 1693.59 212.215C1691.87 212.215 1690.48 210.82 1690.48 209.099C1690.48 207.378 1691.87 205.984 1693.59 205.984C1695.31 205.984 1696.71 207.378 1696.71 209.099Z" fill="#00B9B6" fill-opacity="0.2"/>
<path d="M1716.2 209.099C1716.2 210.82 1714.8 212.215 1713.08 212.215C1711.36 212.215 1709.97 210.82 1709.97 209.099C1709.97 207.378 1711.36 205.984 1713.08 205.984C1714.8 205.984 1716.2 207.378 1716.2 209.099Z" fill="#00B9B6"/>
<path d="M1638.23 228.592C1638.23 230.313 1636.84 231.708 1635.11 231.708C1633.39 231.708 1632 230.313 1632 228.592C1632 226.871 1633.39 225.477 1635.11 225.477C1636.84 225.477 1638.23 226.871 1638.23 228.592Z" fill="#00B9B6"/>
<path d="M1657.72 228.592C1657.72 230.313 1656.33 231.708 1654.61 231.708C1652.89 231.708 1651.49 230.313 1651.49 228.592C1651.49 226.871 1652.89 225.477 1654.61 225.477C1656.33 225.477 1657.72 226.871 1657.72 228.592Z" fill="#00B9B6"/>
<path d="M1677.21 228.592C1677.21 230.313 1675.82 231.708 1674.1 231.708C1672.38 231.708 1670.99 230.313 1670.99 228.592C1670.99 226.871 1672.38 225.477 1674.1 225.477C1675.82 225.477 1677.21 226.871 1677.21 228.592Z" fill="#00B9B6" fill-opacity="0.2"/>
<path d="M1696.71 228.592C1696.71 230.313 1695.31 231.708 1693.59 231.708C1691.87 231.708 1690.48 230.313 1690.48 228.592C1690.48 226.871 1691.87 225.477 1693.59 225.477C1695.31 225.477 1696.71 226.871 1696.71 228.592Z" fill="#00B9B6"/>
<path d="M1716.2 228.592C1716.2 230.313 1714.8 231.708 1713.08 231.708C1711.36 231.708 1709.97 230.313 1709.97 228.592C1709.97 226.871 1711.36 225.477 1713.08 225.477C1714.8 225.477 1716.2 226.871 1716.2 228.592Z" fill="#00B9B6"/>
<g opacity="0.3">
<path d="M1004.11 231.551C1004.11 281.561 963.564 322.102 913.551 322.102C863.544 322.102 823 281.561 823 231.551C823 181.541 863.544 141 913.551 141C963.564 141 1004.11 181.541 1004.11 231.551Z" stroke="#CFC2E7" stroke-width="1.33333" stroke-miterlimit="10"/>
<path d="M990.473 231.551C990.473 274.034 956.037 308.474 913.551 308.474C871.07 308.474 836.628 274.034 836.628 231.551C836.628 189.067 871.07 154.628 913.551 154.628C956.037 154.628 990.473 189.067 990.473 231.551Z" stroke="#CFC2E7" stroke-width="1.33333" stroke-miterlimit="10"/>
<path d="M976.845 231.551C976.845 266.508 948.511 294.842 913.551 294.842C878.594 294.842 850.256 266.508 850.256 231.551C850.256 196.594 878.594 168.256 913.551 168.256C948.511 168.256 976.845 196.594 976.845 231.551Z" stroke="#CFC2E7" stroke-width="1.33333" stroke-miterlimit="10"/>
<path d="M963.217 231.551C963.217 258.977 940.981 281.214 913.551 281.214C886.121 281.214 863.888 258.977 863.888 231.551C863.888 204.121 886.121 181.884 913.551 181.884C940.981 181.884 963.217 204.121 963.217 231.551Z" stroke="#CFC2E7" stroke-width="1.33333" stroke-miterlimit="10"/>
<path d="M949.589 231.551C949.589 251.451 933.454 267.586 913.551 267.586C893.651 267.586 877.516 251.451 877.516 231.551C877.516 211.648 893.651 195.516 913.551 195.516C933.454 195.516 949.589 211.648 949.589 231.551Z" stroke="#CFC2E7" stroke-width="1.33333" stroke-miterlimit="10"/>
<path d="M935.96 231.551C935.96 243.928 925.927 253.958 913.551 253.958C901.177 253.958 891.144 243.928 891.144 231.551C891.144 219.174 901.177 209.144 913.551 209.144C925.927 209.144 935.96 219.174 935.96 231.551Z" stroke="#CFC2E7" stroke-width="1.33333" stroke-miterlimit="10"/>
<path d="M922.329 231.551C922.329 236.397 918.401 240.329 913.551 240.329C908.704 240.329 904.772 236.397 904.772 231.551C904.772 226.701 908.704 222.773 913.551 222.773C918.401 222.773 922.329 226.701 922.329 231.551Z" stroke="#CFC2E7" stroke-width="1.33333" stroke-miterlimit="10"/>
</g>
<circle cx="844.808" cy="742.808" r="3.30768" stroke="white"/>
<circle cx="867.5" cy="742.808" r="3.30768" fill="#00B9B6" stroke="#00B9B6"/>
<circle cx="890.192" cy="742.808" r="3.30768" stroke="white"/>
<circle cx="844.808" cy="765.5" r="3.30768" fill="#00B9B6" stroke="#00B9B6"/>
<circle cx="867.5" cy="765.5" r="3.30768" stroke="white"/>
<circle cx="890.192" cy="765.5" r="3.30768" fill="#00B9B6" stroke="#00B9B6"/>
<defs>
<linearGradient id="paint0_linear" x1="99.5" y1="87.3867" x2="1977.9" y2="715.868" gradientUnits="userSpaceOnUse">
<stop stop-color="#013265"/>
<stop offset="1" stop-color="#067573"/>
</linearGradient>
<radialGradient id="paint1_radial" cx="0" cy="0" r="1" gradientUnits="userSpaceOnUse" gradientTransform="translate(525.338 -147.543) scale(1770.49 1702.18)">
<stop stop-color="#2075A6"/>
<stop offset="0.6223" stop-color="#137775"/>
<stop offset="1" stop-color="#045C6E"/>
</radialGradient>
</defs>
</svg>
