<svg width="162" height="130" viewBox="0 0 162 130" fill="none" xmlns="http://www.w3.org/2000/svg">
<path d="M101.692 11.2669L101.68 11.2774C95.9433 16.3108 90.5482 22.0179 85.1104 27.7703L85.0527 27.8313L85.0422 27.8424L85.0313 27.8533C83.9267 28.952 82.7505 29.6683 81.3894 29.6683C80.0538 29.6683 78.8026 28.9756 77.5452 27.906L77.5361 27.8984L77.5362 27.8983C73.4101 24.3036 69.4732 20.317 65.6145 16.4097C64.3427 15.1219 63.0794 13.8427 61.8206 12.5889L61.813 12.5813L61.8131 12.5813C47.2046 -2.28478 25.694 -2.61235 10.7591 11.5826C-2.76857 25.056 -2.16025 46.7968 12.1353 61.02L12.1414 61.026L12.1473 61.0321L22.0684 71.244H53.3743L59.2359 58.9284L59.2667 58.8637L59.3064 58.804C60.1075 57.6009 61.4092 56.6589 62.868 56.6589H62.9906L63.1095 56.6885C63.8661 56.8768 64.6398 57.1837 65.2372 57.7198C65.8478 58.268 66.2221 59.0114 66.2482 59.9319L68.8098 73.1364L72.7709 43.0078C72.7954 41.976 73.3448 41.2024 74.0687 40.7223C74.7799 40.2507 75.6655 40.0477 76.4934 40.0477C78.3795 40.0477 79.7188 41.4336 80.1647 42.7614L80.1907 42.839L80.2038 42.9197L84.7557 71.0074L86.8019 66.1253C87.3191 64.6392 88.7817 63.7814 90.4605 63.7814H90.6247L90.7803 63.8339C91.9188 64.2183 93.3044 65.047 93.7902 66.5028L101.692 11.2669ZM101.692 11.2669L101.704 11.256C107.214 6.10189 113.099 2.8983 119.318 1.62773C125.534 0.357717 132.153 1.00492 139.155 3.66068C152.66 8.90951 160.993 21.7011 161 39.666C160.667 46.4585 156.733 54.6962 149.048 62.0258L149.041 62.0327L149.034 62.0398C146.058 64.9948 143.076 67.9617 140.092 71.247H104.084C102.952 71.247 101.366 71.6245 100.785 73.1937L97.8395 78.5753L93.7909 66.505L101.692 11.2669ZM77.8786 126.803L77.8778 126.803C70.1767 119.139 62.4763 111.474 54.7757 103.808C46.3569 95.4281 37.938 87.0478 29.5179 78.6687H55.7129C57.1164 78.6687 58.5122 77.7635 59.0174 76.3601L61.0907 72.2386L65.9512 96.7614C65.986 97.7496 66.4972 98.5689 67.1658 99.1225C67.8532 99.6916 68.7599 100.03 69.6785 100.03C71.616 100.03 72.9518 98.5765 73.3719 96.8963L73.3867 96.8374L73.3941 96.7772L76.9565 68.1489L79.5931 84.6092L79.6061 84.6903L79.6322 84.7682C79.861 85.4525 80.3038 86.1053 80.8498 86.5943C81.3608 87.052 82.0513 87.4424 82.8352 87.4814C84.6215 87.8723 86.1022 86.9564 86.6162 85.497L89.9784 78.0322L93.5925 88.8298C93.5925 88.8299 93.5926 88.8301 93.5926 88.8302C94.076 90.288 95.4642 91.1245 96.6216 91.5046L96.7736 91.5546H96.9337C98.3982 91.5546 99.6905 90.602 100.489 89.4126L100.514 89.3751L100.536 89.3356L106.377 78.6687H132.665C122.091 89.1912 111.514 99.7197 100.939 110.247L100.656 110.529L100.645 110.539L100.635 110.55C96.9838 114.407 93.1963 118.1 89.4445 121.759C87.6012 123.556 85.7666 125.345 83.961 127.141L83.9212 127.181L83.8861 127.224C82.6122 128.813 81.7338 129.078 81.0604 128.982C80.2345 128.865 79.2543 128.176 77.8786 126.803Z" fill="#F69A79" stroke="black" stroke-width="2"/>
</svg>
