<svg width="32" height="32" viewBox="0 0 32 32" fill="none" xmlns="http://www.w3.org/2000/svg">
<path d="M6.78987 4.70587L26.6238 26.4092L25.481 27.4536L5.64704 5.75026L6.78987 4.70587Z" fill="#00B9B6"/>
<path d="M32 16C32 24.8366 24.8366 32 16 32C7.16344 32 0 24.8366 0 16C0 7.16344 7.16344 0 16 0C24.8366 0 32 7.16344 32 16ZM1.47439 16C1.47439 24.0223 7.97772 30.5256 16 30.5256C24.0223 30.5256 30.5256 24.0223 30.5256 16C30.5256 7.97772 24.0223 1.47439 16 1.47439C7.97772 1.47439 1.47439 7.97772 1.47439 16Z" fill="#0050A4"/>
</svg>
