<svg width="24" height="24" viewBox="0 0 24 24" fill="none" xmlns="http://www.w3.org/2000/svg">
<path d="M11.7188 0.5625C9.401 0.5625 7.1353 1.24979 5.20817 2.53746C3.28103 3.82514 1.77901 5.65536 0.892042 7.79668C0.00507757 9.938 -0.226993 12.2942 0.225178 14.5675C0.677348 16.8407 1.79345 18.9288 3.43235 20.5677C5.07124 22.2065 7.15932 23.3227 9.43254 23.7748C11.7058 24.227 14.062 23.9949 16.2033 23.108C18.3446 22.221 20.1749 20.719 21.4625 18.7918C22.7502 16.8647 23.4375 14.599 23.4375 12.2812C23.4375 9.17324 22.2028 6.19253 20.0052 3.99484C17.8075 1.79715 14.8268 0.5625 11.7188 0.5625ZM11.7188 22.0469C9.7873 22.0469 7.89921 21.4741 6.29326 20.4011C4.68731 19.328 3.43563 17.8028 2.69649 16.0184C1.95736 14.234 1.76396 12.2704 2.14077 10.3761C2.51758 8.48172 3.44767 6.74166 4.81341 5.37591C6.17916 4.01016 7.91923 3.08008 9.81357 2.70327C11.7079 2.32646 13.6715 2.51985 15.4559 3.25899C17.2403 3.99813 18.7655 5.24981 19.8386 6.85576C20.9116 8.46171 21.4844 10.3498 21.4844 12.2812C21.4844 14.8713 20.4555 17.3552 18.6241 19.1866C16.7927 21.018 14.3088 22.0469 11.7188 22.0469Z" fill="#231F20"/>
<path d="M11.7188 10.0351C11.4598 10.0351 11.2114 10.138 11.0282 10.3211C10.8451 10.5043 10.7422 10.7527 10.7422 11.0117V17.6523C10.7422 17.9113 10.8451 18.1597 11.0282 18.3428C11.2114 18.526 11.4598 18.6289 11.7188 18.6289C11.9778 18.6289 12.2261 18.526 12.4093 18.3428C12.5924 18.1597 12.6953 17.9113 12.6953 17.6523V11.0117C12.6953 10.7527 12.5924 10.5043 12.4093 10.3211C12.2261 10.138 11.9778 10.0351 11.7188 10.0351ZM11.7188 6.0312C11.4544 6.04114 11.2039 6.15192 11.0186 6.3408C10.8334 6.52968 10.7275 6.78231 10.7227 7.04683V7.20308C10.7222 7.33049 10.7483 7.45661 10.7992 7.5734C10.8501 7.69019 10.9248 7.79509 11.0185 7.88144C11.1122 7.96779 11.2229 8.03368 11.3434 8.07493C11.464 8.11619 11.5918 8.13189 11.7188 8.12104C11.9747 8.11138 12.2175 8.00539 12.3986 7.8243C12.5797 7.64321 12.6857 7.4004 12.6953 7.14448V6.91011C12.6961 6.78599 12.6706 6.66312 12.6204 6.54958C12.5703 6.43604 12.4966 6.33441 12.4044 6.25138C12.3121 6.16835 12.2033 6.1058 12.0852 6.06785C11.967 6.0299 11.8421 6.01741 11.7188 6.0312Z" fill="#231F20"/>
</svg>
