<svg id="Layer_1" data-name="Layer 1" xmlns="http://www.w3.org/2000/svg" viewBox="0 0 464.06 106.35"><defs><style>.cls-1{fill:#0050a4;}.cls-2{fill:#00b9b6;}</style></defs><path class="cls-1" d="M146.85,17.43V81.32H134.08V17.43Z" transform="translate(-4.08 -4.01)"/><path class="cls-1" d="M204.93,21.79A30.93,30.93,0,0,1,215.9,36a35.79,35.79,0,0,1,2.56,13.39,36.16,36.16,0,0,1-2.56,13.44,31,31,0,0,1-11,14.19q-8.15,5.77-19.48,5.77A32.91,32.91,0,0,1,166,77a31,31,0,0,1-11-14.19,36,36,0,0,1-2.56-13.44A35.6,35.6,0,0,1,155,36a30.93,30.93,0,0,1,11-14.19A32.91,32.91,0,0,1,185.45,16Q196.78,16,204.93,21.79Zm-7.49,10.44a22.53,22.53,0,0,0-23.93,0,18.17,18.17,0,0,0-6.65,8.5,22.71,22.71,0,0,0-1.63,8.64,23,23,0,0,0,1.63,8.68,18.11,18.11,0,0,0,6.65,8.46,22.31,22.31,0,0,0,23.93,0,18.43,18.43,0,0,0,6.65-8.46,23.53,23.53,0,0,0,1.59-8.68,23.28,23.28,0,0,0-1.59-8.64A18.48,18.48,0,0,0,197.44,32.23Z" transform="translate(-4.08 -4.01)"/><path class="cls-1" d="M250.63,30.2V81.32H237.85V30.2H220.53V17.43h47.41V30.2Z" transform="translate(-4.08 -4.01)"/><path class="cls-2" d="M331.7,17.38V52.76A28.9,28.9,0,0,1,322.94,74a30,30,0,0,1-42.39,0,28.87,28.87,0,0,1-8.77-21.2V17.38h12.78V52.76a17.19,17.19,0,1,0,34.37,0h0V17.38Z" transform="translate(-4.08 -4.01)"/><path class="cls-2" d="M349.91,17.29a6.6,6.6,0,0,1,0,9.35A6.61,6.61,0,0,1,338.63,22a6.61,6.61,0,0,1,11.28-4.68Zm1.72,14.9V81.32H338.85V32.19Z" transform="translate(-4.08 -4.01)"/><path class="cls-2" d="M373.09,91a15.28,15.28,0,0,0,10.71,4.14A13.83,13.83,0,0,0,394.08,91a13.66,13.66,0,0,0,4.08-10c0-.41,0-.81,0-1.19V77.75q-5.07,5-15.07,5a25.62,25.62,0,0,1-18.86-7.62,25.09,25.09,0,0,1-7.62-18.42,25.09,25.09,0,0,1,7.62-18.42q7.62-7.66,19.74-7.66,9.12,0,14.19,5V32.14h12.73V81.32h0a25.11,25.11,0,0,1-7.66,18.41,25.63,25.63,0,0,1-18.86,7.63,28.33,28.33,0,0,1-16.83-5.82,29.64,29.64,0,0,1-9.92-12.91l11-3.61A17.85,17.85,0,0,0,373.09,91Zm10.84-48.38q-6.84,0-10.27,4.1a13.69,13.69,0,0,0,0,20q3.43,4.14,10.27,4.14a14.49,14.49,0,0,0,10.31-4.14,14.78,14.78,0,0,0,0-20A14.58,14.58,0,0,0,383.93,42.63Z" transform="translate(-4.08 -4.01)"/><path class="cls-2" d="M442.09,30.69a25,25,0,0,1,18.42,7.67,25,25,0,0,1,7.62,18.37,26,26,0,1,1-52.08,0,25,25,0,0,1,7.63-18.37A25,25,0,0,1,442.09,30.69Zm-9.38,16.08a14.78,14.78,0,0,0,0,20,12.79,12.79,0,0,0,18.77,0,14.78,14.78,0,0,0,0-20,12.71,12.71,0,0,0-18.77,0Z" transform="translate(-4.08 -4.01)"/><path class="cls-2" d="M15.8,107.69c5.66,3.39,11.48,3.61,17.25.32,6.19-3.5,12.28-7.27,18.43-10.94.21-.16.59-.22.59-.59A39.26,39.26,0,0,1,38.6,97.61,37.71,37.71,0,0,1,24,92.92a7.09,7.09,0,0,1-2.21-1.56A33.52,33.52,0,0,1,15,85.43,36.88,36.88,0,0,1,7.82,73.3a6.35,6.35,0,0,0-.43-1c.16,7.6.11,14.88.48,22.15A15.3,15.3,0,0,0,15.8,107.69Z" transform="translate(-4.08 -4.01)"/><path class="cls-1" d="M45,19A37,37,0,1,0,82,56,37,37,0,0,0,45,19Zm0,52A15,15,0,1,1,60,56,15,15,0,0,1,45,71Z" transform="translate(-4.08 -4.01)"/><path class="cls-2" d="M86.14,45.92A35.65,35.65,0,0,1,86,65.54,38.68,38.68,0,0,1,78.91,79c.7.22,1.14-.27,1.62-.54,2.64-1.72,5.23-3.39,7.76-5.12,3.51-2.37,7.23-4.42,10.46-7.16,4.63-3.88,7.22-11.75,4.74-18a19.7,19.7,0,0,0-6.41-8.84,25.74,25.74,0,0,0-5.55-2.85C86.35,33.85,81.12,31.26,76,28.62a1,1,0,0,1-.22.32,42.75,42.75,0,0,1,5.39,6.36A41.8,41.8,0,0,1,86.14,45.92Z" transform="translate(-4.08 -4.01)"/><path class="cls-2" d="M24.53,19a38.78,38.78,0,0,1,23.61-3.61C42.1,12.39,36,9.43,30,6.52A18.71,18.71,0,0,0,20.11,4a17.18,17.18,0,0,0-16,17.89c.38,6.85.81,13.69,1.24,20.54,0,.22,0,.43.27.59a38,38,0,0,1,2.8-7.7,34.44,34.44,0,0,1,6-8.84A46,46,0,0,1,24.53,19Z" transform="translate(-4.08 -4.01)"/></svg>