<svg width="368" height="84" viewBox="0 0 368 84" fill="none" xmlns="http://www.w3.org/2000/svg">
<path d="M113.312 10.5473V60.4248H103.163V10.5473H113.312Z" fill="#0050A4"/>
<path d="M159.377 13.9818C163.262 16.7137 166.196 20.3824 168.098 25.0657C169.446 28.4221 170.16 31.8565 170.16 35.5252C170.16 39.1938 169.446 42.7063 168.098 45.9846C166.196 50.6679 163.341 54.3366 159.377 57.0685C155.096 60.0346 149.942 61.5957 143.916 61.5957C137.97 61.5957 132.816 60.1127 128.455 57.0685C124.57 54.3366 121.637 50.6679 119.734 45.9846C118.386 42.6282 117.672 39.1157 117.672 35.5252C117.672 31.8565 118.386 28.4221 119.734 25.0657C121.637 20.3824 124.491 16.7137 128.455 13.9818C132.816 11.0157 137.97 9.45456 143.916 9.45456C149.863 9.45456 155.016 10.9376 159.377 13.9818ZM153.431 22.0996C150.814 20.3043 147.643 19.4457 143.916 19.4457C140.269 19.4457 137.098 20.3043 134.481 22.0996C132.102 23.7387 130.358 25.9243 129.169 28.7343C128.297 30.8418 127.9 33.1054 127.9 35.4471C127.9 37.8668 128.297 40.1304 129.169 42.2379C130.279 45.0479 132.023 47.2335 134.481 48.8727C137.098 50.6679 140.269 51.6046 143.916 51.6046C147.563 51.6046 150.735 50.6679 153.431 48.8727C155.809 47.2335 157.553 45.0479 158.743 42.2379C159.615 40.1304 160.011 37.8668 160.011 35.4471C160.011 33.0274 159.615 30.7638 158.743 28.7343C157.553 25.9243 155.809 23.7387 153.431 22.0996Z" fill="#0050A4"/>
<path d="M195.532 20.5384V60.4248H185.383V20.5384H171.667V10.5473H209.248V20.5384H195.532Z" fill="#0050A4"/>
<path d="M259.833 10.5473V38.179C259.833 44.6576 257.534 50.1215 252.856 54.7268C248.257 59.254 242.628 61.5957 236.047 61.5957C229.466 61.5957 223.916 59.332 219.238 54.7268C214.64 50.1995 212.261 44.6576 212.261 38.179V10.5473H222.41V38.179C222.41 41.9256 223.758 45.0479 226.374 47.7018C229.07 50.3556 232.241 51.6826 236.047 51.6826C239.853 51.6826 243.024 50.3556 245.72 47.7018C248.336 45.1259 249.684 41.9256 249.684 38.179V10.5473H259.833Z" fill="#00B9B6"/>
<path d="M274.263 10.4693C275.294 11.484 275.77 12.6548 275.77 14.1379C275.77 15.5429 275.294 16.7918 274.263 17.8065C273.232 18.8212 272.043 19.2895 270.537 19.2895C269.109 19.2895 267.841 18.8212 266.81 17.8065C265.779 16.7918 265.304 15.6209 265.304 14.1379C265.304 12.7329 265.779 11.484 266.81 10.4693C267.841 9.45454 269.03 8.98621 270.537 8.98621C272.043 8.90815 273.232 9.45454 274.263 10.4693ZM275.611 22.0996V60.4249H265.462V22.0996H275.611Z" fill="#00B9B6"/>
<path d="M292.658 67.9961C295.036 70.1817 297.891 71.1964 301.141 71.1964C304.392 71.1964 307.167 70.1036 309.308 67.9961C311.449 65.8886 312.559 63.2347 312.559 60.1905C312.559 59.8783 312.559 59.5661 312.559 59.2539V57.6147C309.863 60.1905 305.899 61.5175 300.586 61.5175C294.64 61.5175 289.645 59.5661 285.601 55.5853C281.557 51.6044 279.575 46.843 279.575 41.223C279.575 35.603 281.557 30.8416 285.601 26.8608C289.645 22.8799 294.878 20.8505 301.221 20.8505C306.057 20.8505 309.784 22.1774 312.479 24.7533V22.0213H322.549V60.4247C322.549 66.0447 320.487 70.8061 316.444 74.7869C312.4 78.7678 307.405 80.7192 301.458 80.7192C296.86 80.7192 292.34 79.2361 288.138 76.1919C284.491 73.46 281.875 70.1036 280.289 66.1228L289.01 63.3128C289.962 65.1861 291.151 66.7472 292.658 67.9961ZM301.221 30.2172C297.573 30.2172 294.878 31.31 293.054 33.4175C290.755 35.603 289.645 38.1788 289.645 41.223C289.645 44.2672 290.755 46.843 293.054 49.0286C294.878 51.2141 297.573 52.2289 301.221 52.2289C304.392 52.2289 307.088 51.1361 309.387 49.0286C311.449 46.843 312.479 44.2672 312.479 41.223C312.479 38.1788 311.449 35.603 309.387 33.4175C307.167 31.31 304.392 30.2172 301.221 30.2172Z" fill="#00B9B6"/>
<path d="M347.365 20.9286C353.074 20.9286 357.91 22.9581 361.954 26.9389C365.998 30.9198 367.98 35.6812 367.98 41.3012C367.98 46.9212 365.998 51.6826 361.954 55.6635C357.91 59.6443 353.074 61.5957 347.365 61.5957C341.657 61.5957 336.82 59.6443 332.777 55.6635C328.733 51.6826 326.751 46.9212 326.751 41.3012C326.751 35.6812 328.733 30.9198 332.777 26.9389C336.82 22.88 341.657 20.9286 347.365 20.9286ZM339.912 33.4956C337.851 35.6812 336.82 38.257 336.82 41.3012C336.82 44.3454 337.851 46.9212 339.912 49.1068C341.974 51.2143 344.432 52.3071 347.365 52.3071C350.299 52.3071 352.757 51.2143 354.818 49.1068C356.88 46.9212 357.91 44.3454 357.91 41.3012C357.91 38.257 356.88 35.6812 354.818 33.4956C352.757 31.3101 350.299 30.2953 347.365 30.2953C344.432 30.2173 341.974 31.3101 339.912 33.4956Z" fill="#00B9B6"/>
<path d="M102.925 67.4498H109.189V68.1523H106.493V75.5677H105.7V68.1523H103.004V67.4498H102.925Z" fill="black"/>
<path d="M113.391 69.8697C113.867 70.1038 114.263 70.4941 114.501 70.9625C114.739 71.4308 114.897 71.9772 114.897 72.5236C114.897 73.148 114.739 73.6164 114.501 74.0847C114.263 74.553 113.867 74.9433 113.391 75.1775C112.915 75.4116 112.36 75.5678 111.805 75.5678C111.25 75.5678 110.695 75.4116 110.219 75.1775C109.744 74.9433 109.347 74.553 109.109 74.0847C108.871 73.6164 108.713 73.07 108.713 72.5236C108.713 71.8991 108.871 71.4308 109.109 70.9625C109.347 70.4941 109.744 70.1038 110.219 69.8697C110.695 69.6355 111.25 69.4794 111.805 69.4794C112.36 69.4794 112.915 69.6355 113.391 69.8697ZM110.616 70.4161C110.299 70.6502 109.981 70.8844 109.823 71.2747C109.664 71.665 109.506 72.0552 109.506 72.5236C109.506 72.9919 109.585 73.3822 109.823 73.7725C109.981 74.1628 110.299 74.3969 110.616 74.6311C110.933 74.8653 111.409 74.9433 111.805 74.9433C112.281 74.9433 112.677 74.8653 112.994 74.6311C113.312 74.3969 113.629 74.1628 113.787 73.7725C113.946 73.3822 114.104 72.9919 114.104 72.5236C114.104 72.0552 114.025 71.665 113.787 71.2747C113.629 70.8844 113.312 70.6502 112.994 70.4161C112.677 70.1819 112.202 70.1038 111.805 70.1038C111.329 70.1819 110.933 70.26 110.616 70.4161Z" fill="black"/>
<path d="M121.716 69.4794V74.9433C121.716 75.5677 121.557 76.036 121.319 76.5044C121.082 76.9727 120.685 77.2849 120.209 77.5191C119.734 77.7533 119.179 77.9094 118.624 77.9094C117.672 77.9094 116.879 77.5971 116.087 76.9727L116.483 76.4263C116.8 76.6605 117.117 76.8946 117.434 77.0508C117.752 77.2069 118.148 77.2849 118.544 77.2849C119.258 77.2849 119.813 77.0508 120.209 76.6605C120.606 76.2702 120.844 75.7238 120.844 75.0213V74.0066C120.606 74.3969 120.289 74.7872 119.892 75.0213C119.496 75.2555 119.02 75.4116 118.465 75.4116C117.91 75.4116 117.434 75.2555 116.959 75.0213C116.562 74.7872 116.166 74.3969 115.928 74.0066C115.69 73.5383 115.532 73.0699 115.532 72.5236C115.532 71.9772 115.69 71.4308 115.928 71.0405C116.166 70.5722 116.483 70.26 116.959 70.0258C117.355 69.7916 117.91 69.6355 118.465 69.6355C119.02 69.6355 119.496 69.7916 119.892 70.0258C120.289 70.26 120.606 70.5722 120.844 71.0405V69.7136H121.716V69.4794ZM119.813 74.3969C120.13 74.1627 120.447 73.9285 120.606 73.6163C120.764 73.3041 120.923 72.9138 120.923 72.4455C120.923 71.9772 120.844 71.5869 120.606 71.2747C120.447 70.9624 120.13 70.6502 119.813 70.4941C119.496 70.2599 119.099 70.1819 118.703 70.1819C118.307 70.1819 117.91 70.2599 117.593 70.4941C117.276 70.7283 116.959 70.9624 116.8 71.2747C116.642 71.5869 116.483 72.0552 116.483 72.4455C116.483 72.9138 116.562 73.3041 116.8 73.6163C116.959 73.9285 117.276 74.2408 117.593 74.3969C117.91 74.631 118.307 74.7091 118.782 74.7091C119.099 74.7091 119.496 74.631 119.813 74.3969Z" fill="black"/>
<path d="M128.217 70.3379C128.693 70.9623 128.931 71.7429 128.931 72.7576H123.777C123.856 73.382 124.094 73.9284 124.491 74.3187C124.887 74.709 125.442 74.9432 126.076 74.9432C126.473 74.9432 126.869 74.8651 127.187 74.709C127.504 74.5529 127.821 74.3968 128.059 74.0845L128.534 74.5529C128.217 74.8651 127.9 75.0993 127.424 75.2554C127.028 75.4115 126.552 75.4895 126.076 75.4895C125.442 75.4895 124.966 75.3334 124.491 75.0993C124.015 74.8651 123.698 74.4748 123.381 74.0065C123.143 73.5382 122.984 72.9918 122.984 72.4454C122.984 71.8209 123.143 71.3526 123.381 70.8843C123.619 70.416 124.015 70.0257 124.491 69.7915C124.966 69.5574 125.442 69.4012 126.076 69.4012C126.949 69.4793 127.742 69.7915 128.217 70.3379ZM128.217 72.2112C128.217 71.5868 127.979 71.0404 127.583 70.7282C127.187 70.3379 126.711 70.1818 126.076 70.1818C125.442 70.1818 124.966 70.3379 124.491 70.7282C124.094 71.1185 123.856 71.5868 123.777 72.2112H128.217Z" fill="black"/>
<path d="M133.45 75.1774C133.054 75.4896 132.578 75.6457 132.102 75.6457C131.627 75.6457 131.23 75.4896 130.992 75.1774C130.755 74.8651 130.596 74.4749 130.596 73.8504V70.2599H129.724V69.6354H130.596V68.0743H131.389V69.6354H133.371V70.2599H131.389V73.7724C131.389 74.5529 131.706 74.8652 132.261 74.8652C132.578 74.8652 132.895 74.7871 133.292 74.5529L133.45 75.1774Z" fill="black"/>
<path d="M139.635 70.1039C140.031 70.4942 140.269 71.1186 140.269 71.8211V75.5678H139.476V71.9772C139.476 71.4308 139.317 70.9625 139 70.6503C138.683 70.338 138.207 70.1819 137.652 70.1819C136.939 70.1819 136.463 70.4161 136.067 70.8844C135.67 71.3528 135.512 71.8992 135.512 72.6017V75.5678H134.719V66.9816H135.512V70.9625C135.908 70.0258 136.78 69.4794 137.969 69.4794C138.683 69.4794 139.238 69.7136 139.635 70.1039Z" fill="black"/>
<path d="M146.771 70.3379C147.246 70.9623 147.484 71.7429 147.484 72.7576H142.33C142.41 73.382 142.648 73.9284 143.044 74.3187C143.44 74.709 143.995 74.9432 144.63 74.9432C145.026 74.9432 145.423 74.8651 145.74 74.709C146.057 74.5529 146.374 74.3968 146.612 74.0845L147.088 74.5529C146.77 74.8651 146.453 75.0993 145.978 75.2554C145.581 75.4115 145.105 75.4895 144.63 75.4895C143.995 75.4895 143.52 75.3334 143.044 75.0993C142.568 74.8651 142.251 74.4748 141.934 74.0065C141.696 73.5382 141.538 72.9918 141.538 72.4454C141.538 71.8209 141.696 71.3526 141.934 70.8843C142.172 70.416 142.568 70.0257 143.044 69.7915C143.52 69.5574 143.995 69.4012 144.63 69.4012C145.581 69.4793 146.295 69.7915 146.771 70.3379ZM146.771 72.2112C146.771 71.5868 146.533 71.0404 146.136 70.7282C145.74 70.3379 145.264 70.1818 144.63 70.1818C143.995 70.1818 143.52 70.3379 143.044 70.7282C142.648 71.1185 142.41 71.5868 142.33 72.2112H146.771Z" fill="black"/>
<path d="M150.576 69.8697C150.973 69.6355 151.448 69.4794 151.924 69.4794V70.1819C151.29 70.1819 150.735 70.338 150.338 70.7283C149.942 71.1186 149.704 71.665 149.625 72.2894V75.5678H148.832V69.4794H149.625V70.8844C149.863 70.4161 150.18 70.1038 150.576 69.8697Z" fill="black"/>
<path d="M157.236 67.9182C156.998 68.1524 156.919 68.4646 156.919 68.7768V69.6354H158.743V70.2599H156.919V75.5677H156.126V70.2599H155.333V69.6354H156.126V68.8549C156.126 68.4646 156.205 68.0743 156.364 67.7621C156.523 67.4499 156.76 67.2157 157.078 67.0596C157.395 66.9035 157.712 66.8254 158.029 66.8254C158.425 66.8254 158.743 66.9035 159.139 67.1377L158.901 67.7621C158.584 67.606 158.346 67.5279 158.108 67.5279C157.791 67.5279 157.474 67.6841 157.236 67.9182Z" fill="black"/>
<path d="M163.5 69.8697C163.975 70.1038 164.372 70.4941 164.61 70.9625C164.848 71.4308 165.006 71.9772 165.006 72.5236C165.006 73.148 164.848 73.6164 164.61 74.0847C164.372 74.553 163.975 74.9433 163.5 75.1775C163.024 75.4116 162.469 75.5678 161.914 75.5678C161.359 75.5678 160.804 75.4116 160.328 75.1775C159.853 74.9433 159.456 74.553 159.218 74.0847C158.98 73.6164 158.822 73.07 158.822 72.5236C158.822 71.8991 158.98 71.4308 159.218 70.9625C159.456 70.4941 159.853 70.1038 160.328 69.8697C160.804 69.6355 161.359 69.4794 161.914 69.4794C162.469 69.4794 163.103 69.6355 163.5 69.8697ZM160.725 70.4161C160.408 70.6502 160.09 70.8844 159.932 71.2747C159.773 71.665 159.615 72.0552 159.615 72.5236C159.615 72.9919 159.694 73.3822 159.932 73.7725C160.09 74.1628 160.408 74.3969 160.725 74.6311C161.042 74.8653 161.518 74.9433 161.914 74.9433C162.31 74.9433 162.786 74.8653 163.103 74.6311C163.42 74.3969 163.738 74.1628 163.896 73.7725C164.055 73.3822 164.213 72.9919 164.213 72.5236C164.213 72.0552 164.134 71.665 163.896 71.2747C163.738 70.8844 163.42 70.6502 163.103 70.4161C162.786 70.1819 162.31 70.1038 161.914 70.1038C161.518 70.1038 161.121 70.26 160.725 70.4161Z" fill="black"/>
<path d="M168.178 69.8697C168.574 69.6355 169.05 69.4794 169.526 69.4794V70.1819C168.891 70.1819 168.336 70.338 167.94 70.7283C167.543 71.1186 167.306 71.665 167.226 72.2894V75.5678H166.433V69.4794H167.226V70.8844C167.464 70.4161 167.781 70.1038 168.178 69.8697Z" fill="black"/>
<path d="M177.454 75.5676V74.5529C177.216 74.9432 176.899 75.1774 176.503 75.3335C176.106 75.4896 175.631 75.5676 175.155 75.5676C174.758 75.5676 174.362 75.4896 174.045 75.3335C173.728 75.1774 173.49 74.9432 173.331 74.709C173.173 74.3968 173.093 74.0846 173.093 73.7724C173.093 73.226 173.331 72.8357 173.728 72.5235C174.124 72.2112 174.679 72.0551 175.472 72.0551H177.533V71.5868C177.533 71.1185 177.375 70.7282 177.058 70.494C176.741 70.2599 176.344 70.1037 175.789 70.1037C175.155 70.1037 174.441 70.3379 173.807 70.8062L173.49 70.2599C173.886 69.9476 174.283 69.7915 174.679 69.6354C175.075 69.4793 175.472 69.4012 175.948 69.4012C176.661 69.4012 177.296 69.5574 177.692 69.9476C178.088 70.3379 178.326 70.8062 178.326 71.5087V75.5676H177.454ZM176.661 74.5529C177.058 74.3187 177.296 73.9285 177.454 73.4601V72.6796H175.472C174.917 72.6796 174.521 72.7576 174.203 72.9137C173.886 73.0699 173.807 73.3821 173.807 73.6943C173.807 74.0846 173.965 74.3187 174.203 74.5529C174.441 74.7871 174.838 74.8651 175.313 74.8651C175.789 74.9432 176.265 74.8651 176.661 74.5529Z" fill="black"/>
<path d="M185.541 70.1819C185.066 70.1819 184.669 70.2599 184.352 70.4941C184.035 70.7282 183.718 70.9624 183.559 71.3527C183.401 71.743 183.242 72.1333 183.242 72.6016C183.242 73.0699 183.321 73.4602 183.559 73.8505C183.718 74.2408 184.035 74.4749 184.352 74.7091C184.669 74.9433 185.066 75.0213 185.541 75.0213C185.938 75.0213 186.334 74.9433 186.651 74.7872C186.969 74.631 187.286 74.4749 187.524 74.1627L187.999 74.631C187.761 74.9433 187.365 75.1774 186.969 75.4116C186.572 75.5677 186.096 75.6458 185.541 75.6458C184.986 75.6458 184.431 75.4897 183.956 75.2555C183.48 75.0213 183.163 74.631 182.846 74.1627C182.608 73.6944 182.449 73.148 182.449 72.6016C182.449 72.0552 182.608 71.5088 182.846 71.0405C183.083 70.5721 183.48 70.1819 183.956 69.9477C184.431 69.7135 184.907 69.5574 185.541 69.5574C186.017 69.5574 186.493 69.6355 186.889 69.7916C187.286 69.9477 187.603 70.1819 187.92 70.416L187.444 70.9624C186.889 70.416 186.334 70.1819 185.541 70.1819Z" fill="black"/>
<path d="M193.311 69.8697C193.787 70.1038 194.184 70.4941 194.421 70.9625C194.659 71.4308 194.818 71.9772 194.818 72.5236C194.818 73.148 194.659 73.6164 194.421 74.0847C194.184 74.553 193.787 74.9433 193.311 75.1775C192.836 75.4116 192.281 75.5678 191.726 75.5678C191.171 75.5678 190.616 75.4116 190.14 75.1775C189.664 74.9433 189.268 74.553 189.03 74.0847C188.792 73.6164 188.633 73.07 188.633 72.5236C188.633 71.8991 188.792 71.4308 189.03 70.9625C189.268 70.4941 189.664 70.1038 190.14 69.8697C190.616 69.6355 191.171 69.4794 191.726 69.4794C192.281 69.4794 192.836 69.6355 193.311 69.8697ZM190.457 70.4161C190.14 70.6502 189.823 70.8844 189.664 71.2747C189.506 71.665 189.347 72.0552 189.347 72.5236C189.347 72.9919 189.426 73.3822 189.664 73.7725C189.823 74.1628 190.14 74.3969 190.457 74.6311C190.774 74.8653 191.25 74.9433 191.646 74.9433C192.043 74.9433 192.519 74.8653 192.836 74.6311C193.153 74.3969 193.47 74.1628 193.629 73.7725C193.787 73.3822 193.946 72.9919 193.946 72.5236C193.946 72.0552 193.866 71.665 193.629 71.2747C193.47 70.8844 193.153 70.6502 192.836 70.4161C192.519 70.1819 192.043 70.1038 191.646 70.1038C191.25 70.1038 190.853 70.26 190.457 70.4161Z" fill="black"/>
<path d="M201.161 70.1037C201.557 70.494 201.795 71.1185 201.795 71.821V75.5676H201.002V71.9771C201.002 71.4307 200.844 70.9624 200.527 70.6501C200.209 70.3379 199.734 70.1818 199.179 70.1818C198.544 70.1818 198.069 70.416 197.672 70.7282C197.276 71.1185 197.038 71.5868 197.038 72.2893V75.5676H196.245V69.4793H197.038V70.8843C197.276 70.416 197.593 70.0257 197.989 69.7915C198.386 69.5574 198.941 69.4012 199.496 69.4012C200.209 69.4793 200.764 69.7135 201.161 70.1037Z" fill="black"/>
<path d="M208.693 70.1037C209.09 70.494 209.327 71.1185 209.327 71.821V75.5676H208.535V71.9771C208.535 71.4307 208.376 70.9624 208.059 70.6501C207.742 70.3379 207.266 70.1818 206.711 70.1818C206.077 70.1818 205.601 70.416 205.205 70.7282C204.808 71.1185 204.57 71.5868 204.57 72.2893V75.5676H203.778V69.4793H204.57V70.8843C204.808 70.416 205.125 70.0257 205.522 69.7915C205.918 69.5574 206.473 69.4012 207.028 69.4012C207.662 69.4793 208.218 69.7135 208.693 70.1037Z" fill="black"/>
<path d="M215.75 70.3379C216.225 70.9623 216.463 71.7429 216.463 72.7576H211.31C211.389 73.382 211.627 73.9284 212.023 74.3187C212.42 74.709 212.975 74.9432 213.609 74.9432C214.005 74.9432 214.402 74.8651 214.719 74.709C215.036 74.5529 215.353 74.3968 215.591 74.0845L216.067 74.5529C215.75 74.8651 215.433 75.0993 214.957 75.2554C214.56 75.4115 214.085 75.4895 213.609 75.4895C212.975 75.4895 212.499 75.3334 212.023 75.0993C211.547 74.8651 211.23 74.4748 210.913 74.0065C210.675 73.5382 210.517 72.9918 210.517 72.4454C210.517 71.8209 210.675 71.3526 210.913 70.8843C211.151 70.416 211.547 70.0257 212.023 69.7915C212.499 69.5574 212.975 69.4012 213.609 69.4012C214.56 69.4793 215.274 69.7915 215.75 70.3379ZM215.75 72.2112C215.75 71.5868 215.512 71.0404 215.115 70.7282C214.719 70.3379 214.243 70.1818 213.609 70.1818C212.975 70.1818 212.499 70.3379 212.023 70.7282C211.627 71.1185 211.389 71.5868 211.31 72.2112H215.75Z" fill="black"/>
<path d="M220.348 70.1819C219.873 70.1819 219.476 70.2599 219.159 70.4941C218.842 70.7282 218.525 70.9624 218.366 71.3527C218.208 71.743 218.049 72.1333 218.049 72.6016C218.049 73.0699 218.128 73.4602 218.366 73.8505C218.525 74.2408 218.842 74.4749 219.159 74.7091C219.476 74.9433 219.873 75.0213 220.348 75.0213C220.745 75.0213 221.141 74.9433 221.458 74.7872C221.775 74.631 222.093 74.4749 222.33 74.1627L222.806 74.631C222.568 74.9433 222.172 75.1774 221.775 75.4116C221.379 75.5677 220.903 75.6458 220.348 75.6458C219.793 75.6458 219.238 75.4897 218.763 75.2555C218.287 75.0213 217.97 74.631 217.653 74.1627C217.415 73.6944 217.256 73.148 217.256 72.6016C217.256 72.0552 217.415 71.5088 217.653 71.0405C217.891 70.5721 218.287 70.1819 218.763 69.9477C219.238 69.7135 219.714 69.5574 220.348 69.5574C220.824 69.5574 221.3 69.6355 221.696 69.7916C222.093 69.9477 222.41 70.1819 222.727 70.416L222.251 70.9624C221.696 70.416 221.062 70.1819 220.348 70.1819Z" fill="black"/>
<path d="M227.405 75.1774C227.008 75.4896 226.533 75.6457 226.057 75.6457C225.581 75.6457 225.185 75.4896 224.947 75.1774C224.709 74.8651 224.551 74.4749 224.551 73.8504V70.2599H223.678V69.6354H224.551V68.0743H225.343V69.6354H227.325V70.2599H225.264V73.7724C225.264 74.5529 225.581 74.8652 226.136 74.8652C226.453 74.8652 226.77 74.7871 227.167 74.5529L227.405 75.1774Z" fill="black"/>
<path d="M233.113 70.3379C233.589 70.9623 233.827 71.7429 233.827 72.7576H228.673C228.752 73.382 228.99 73.9284 229.387 74.3187C229.783 74.709 230.338 74.9432 230.973 74.9432C231.369 74.9432 231.765 74.8651 232.083 74.709C232.4 74.5529 232.717 74.3968 232.955 74.0845L233.43 74.5529C233.113 74.8651 232.796 75.0993 232.32 75.2554C231.924 75.4115 231.448 75.4895 230.973 75.4895C230.338 75.4895 229.862 75.3334 229.387 75.0993C228.911 74.8651 228.594 74.4748 228.277 74.0065C228.039 73.5382 227.88 72.9918 227.88 72.4454C227.88 71.8209 228.039 71.3526 228.277 70.8843C228.515 70.416 228.911 70.0257 229.387 69.7915C229.862 69.5574 230.338 69.4012 230.973 69.4012C231.845 69.4793 232.558 69.7915 233.113 70.3379ZM233.034 72.2112C233.034 71.5868 232.796 71.0404 232.4 70.7282C232.003 70.3379 231.528 70.1818 230.893 70.1818C230.259 70.1818 229.783 70.3379 229.307 70.7282C228.911 71.1185 228.673 71.5868 228.594 72.2112H233.034Z" fill="black"/>
<path d="M240.804 66.9816V75.5678H240.011V74.1628C239.773 74.6311 239.456 74.9433 239.06 75.2556C238.663 75.4897 238.108 75.6458 237.553 75.6458C236.998 75.6458 236.443 75.4897 235.968 75.2556C235.492 75.0214 235.175 74.6311 234.937 74.1628C234.699 73.6944 234.541 73.148 234.541 72.5236C234.541 71.8991 234.699 71.4308 234.937 70.9625C235.175 70.4941 235.571 70.1039 235.968 69.8697C236.443 69.6355 236.919 69.4794 237.474 69.4794C238.029 69.4794 238.505 69.6355 238.981 69.8697C239.456 70.1039 239.773 70.4941 240.011 70.9625V67.0597H240.804V66.9816ZM238.901 74.6311C239.218 74.3969 239.536 74.1628 239.694 73.7725C239.932 73.3822 240.011 72.9919 240.011 72.5236C240.011 72.0553 239.932 71.665 239.694 71.2747C239.456 70.8844 239.218 70.6503 238.901 70.4161C238.584 70.1819 238.108 70.1039 237.712 70.1039C237.236 70.1039 236.84 70.1819 236.523 70.4161C236.206 70.6503 235.888 70.8844 235.651 71.2747C235.413 71.665 235.333 72.0553 235.333 72.5236C235.333 72.9919 235.413 73.3822 235.651 73.7725C235.888 74.1628 236.126 74.3969 236.523 74.6311C236.919 74.8653 237.316 74.9433 237.712 74.9433C238.108 74.9433 238.505 74.8653 238.901 74.6311Z" fill="black"/>
<path d="M244.848 69.4794H245.72L247.623 74.7872L249.526 69.4794H250.398L252.301 74.7872L254.204 69.4794H254.997L252.697 75.5678H251.904L250.002 70.4161L248.099 75.5678H247.306L244.848 69.4794Z" fill="black"/>
<path d="M259.674 69.8697C260.15 70.1038 260.546 70.4941 260.784 70.9625C261.022 71.4308 261.181 71.9772 261.181 72.5236C261.181 73.148 261.022 73.6164 260.784 74.0847C260.546 74.553 260.15 74.9433 259.674 75.1775C259.198 75.4116 258.643 75.5678 258.088 75.5678C257.534 75.5678 256.979 75.4116 256.503 75.1775C256.027 74.9433 255.631 74.553 255.393 74.0847C255.155 73.6164 254.996 73.07 254.996 72.5236C254.996 71.8991 255.155 71.4308 255.393 70.9625C255.631 70.4941 256.027 70.1038 256.503 69.8697C256.979 69.6355 257.534 69.4794 258.088 69.4794C258.643 69.4794 259.198 69.6355 259.674 69.8697ZM256.899 70.4161C256.582 70.6502 256.265 70.8844 256.106 71.2747C255.948 71.665 255.789 72.0552 255.789 72.5236C255.789 72.9919 255.869 73.3822 256.106 73.7725C256.265 74.1628 256.582 74.3969 256.899 74.6311C257.216 74.8653 257.692 74.9433 258.088 74.9433C258.485 74.9433 258.961 74.8653 259.278 74.6311C259.595 74.3969 259.912 74.1628 260.071 73.7725C260.229 73.3822 260.388 72.9919 260.388 72.5236C260.388 72.0552 260.308 71.665 260.071 71.2747C259.912 70.8844 259.595 70.6502 259.278 70.4161C258.961 70.1819 258.485 70.1038 258.088 70.1038C257.692 70.1038 257.216 70.26 256.899 70.4161Z" fill="black"/>
<path d="M264.352 69.8697C264.749 69.6355 265.224 69.4794 265.7 69.4794V70.1819C265.066 70.1819 264.511 70.338 264.114 70.7283C263.718 71.1186 263.48 71.665 263.401 72.2894V75.5678H262.608V69.4794H263.401V70.8844C263.639 70.4161 263.956 70.1038 264.352 69.8697Z" fill="black"/>
<path d="M266.81 66.9816H267.603V75.5678H266.81V66.9816Z" fill="black"/>
<path d="M275.373 66.9816V75.5678H274.58V74.1628C274.342 74.6311 274.025 74.9433 273.629 75.2556C273.232 75.4897 272.677 75.6458 272.122 75.6458C271.567 75.6458 271.012 75.4897 270.537 75.2556C270.061 75.0214 269.744 74.6311 269.506 74.1628C269.268 73.6944 269.109 73.148 269.109 72.5236C269.109 71.8991 269.268 71.4308 269.506 70.9625C269.744 70.4941 270.14 70.1039 270.537 69.8697C271.012 69.6355 271.488 69.4794 272.043 69.4794C272.598 69.4794 273.074 69.6355 273.549 69.8697C274.025 70.1039 274.342 70.4941 274.58 70.9625V67.0597H275.373V66.9816ZM273.391 74.6311C273.708 74.3969 274.025 74.1628 274.184 73.7725C274.422 73.3822 274.501 72.9919 274.501 72.5236C274.501 72.0553 274.422 71.665 274.184 71.2747C273.946 70.8844 273.708 70.6503 273.391 70.4161C273.074 70.1819 272.598 70.1039 272.202 70.1039C271.726 70.1039 271.329 70.1819 271.012 70.4161C270.695 70.6503 270.378 70.8844 270.14 71.2747C269.902 71.665 269.823 72.0553 269.823 72.5236C269.823 72.9919 269.902 73.3822 270.14 73.7725C270.378 74.1628 270.616 74.3969 271.012 74.6311C271.409 74.8653 271.805 74.9433 272.202 74.9433C272.677 74.9433 273.074 74.8653 273.391 74.6311Z" fill="black"/>
<path d="M9.3672 81.0316C13.8865 83.6855 18.4851 83.8416 23.0045 81.2658C27.9202 78.5338 32.7567 75.5677 37.5932 72.7577C37.7517 72.6016 38.0689 72.6016 38.0689 72.2894C34.5803 73.226 31.0124 73.4602 27.3652 73.148C23.2423 72.8357 19.4366 71.3527 15.7894 69.4793C15.0758 69.2452 14.6001 68.6988 14.0451 68.2305C12.0629 66.9035 10.2393 65.4205 8.65362 63.6252C6.11646 60.8152 4.21358 57.6929 2.945 54.1804C2.86571 53.9463 2.78643 53.7902 2.62785 53.3999C2.78643 59.3321 2.70714 65.0302 3.02429 70.7282C3.26214 75.1774 5.48216 78.6899 9.3672 81.0316Z" fill="#00B9B6"/>
<path d="M32.5189 11.7962C16.3444 11.7962 3.18289 24.7535 3.18289 40.6768C3.18289 56.6002 16.3444 69.5574 32.5189 69.5574C48.6933 69.5574 61.8549 56.6002 61.8549 40.6768C61.8549 24.6754 48.7726 11.7962 32.5189 11.7962ZM32.5189 52.3852C25.9381 52.3852 20.6259 47.1554 20.6259 40.6768C20.6259 34.1982 25.9381 28.9685 32.5189 28.9685C39.0997 28.9685 44.4118 34.1982 44.4118 40.6768C44.4118 47.1554 39.0997 52.3852 32.5189 52.3852Z" fill="#0050A4"/>
<path d="M65.1848 32.7933C66.5326 37.945 66.6119 43.0186 65.0262 48.0922C63.8369 51.995 62.0133 55.4295 59.3969 58.6298C59.9519 58.7859 60.269 58.3956 60.6654 58.2395C62.7269 56.9125 64.7883 55.5856 66.8498 54.2586C69.6248 52.3853 72.5584 50.8242 75.1749 48.6386C78.822 45.5944 80.8835 39.428 78.9013 34.5886C77.7913 31.7786 76.2056 29.4369 73.827 27.6416C72.4791 26.7049 70.9727 26.0805 69.3869 25.378C65.2641 23.3485 61.1412 21.3191 57.0183 19.2116C56.939 19.2896 56.939 19.3677 56.8597 19.4457C58.4454 20.9288 59.8726 22.568 61.1412 24.4413C62.9647 27.0952 64.2333 29.9052 65.1848 32.7933Z" fill="#00B9B6"/>
<path d="M16.2727 11.7266C22.1399 8.76052 28.4828 7.97996 34.9843 8.91663C30.2271 6.57496 25.3906 4.31134 20.5541 2.04772C18.0963 0.720772 15.4798 -0.137842 12.7048 0.0182696C5.48974 0.486605 -0.377455 6.73107 0.0189767 13.9903C0.336122 19.2981 0.653268 24.6839 0.970413 29.9917C0.970413 30.1478 0.891127 30.3039 1.20827 30.46C1.68399 28.3525 2.47685 26.3231 3.42829 24.4497C4.69687 21.952 6.20331 19.5322 8.18547 17.5808C10.5641 15.2392 13.2598 13.2878 16.2727 11.7266Z" fill="#00B9B6"/>
</svg>
