<svg width="200" height="163" viewBox="0 0 200 163" fill="none" xmlns="http://www.w3.org/2000/svg">
<path d="M49.0065 80.7532H47.7065V133.736H49.0065V80.7532Z" fill="#1F1F3C"/>
<path d="M53.0956 128.25H48.3574V129.556H53.0956V128.25Z" fill="#1F1F3C"/>
<path d="M53.0956 123.38H48.3574V124.686H53.0956V123.38Z" fill="#1F1F3C"/>
<path d="M53.0956 118.512H48.3574V119.81H53.0956V118.512Z" fill="#1F1F3C"/>
<path d="M53.0956 113.643H48.3574V114.941H53.0956V113.643Z" fill="#1F1F3C"/>
<path d="M53.0956 108.769H48.3574V110.071H53.0956V108.769Z" fill="#1F1F3C"/>
<path d="M53.0956 103.895H48.3574V105.199H53.0956V103.895Z" fill="#1F1F3C"/>
<path d="M53.0956 99.0254H48.3574V100.327H53.0956V99.0254Z" fill="#1F1F3C"/>
<path d="M53.0956 94.152H48.3574V95.4538H53.0956V94.152Z" fill="#1F1F3C"/>
<path d="M53.0956 89.2839H48.3574V90.5839H53.0956V89.2839Z" fill="#1F1F3C"/>
<path d="M53.0956 84.4105H48.3574V85.7142H53.0956V84.4105Z" fill="#1F1F3C"/>
<path d="M14.2832 65.6561H12.9832V118.64H14.2832V65.6561Z" fill="#1F1F3C"/>
<path d="M18.3741 113.155H13.634V114.457H18.3741V113.155Z" fill="#1F1F3C"/>
<path d="M18.3741 108.285H13.634V109.587H18.3741V108.285Z" fill="#1F1F3C"/>
<path d="M18.3741 103.41H13.634V104.713H18.3741V103.41Z" fill="#1F1F3C"/>
<path d="M18.3741 98.5415H13.634V99.8415H18.3741V98.5415Z" fill="#1F1F3C"/>
<path d="M18.3741 93.6681H13.634V94.9699H18.3741V93.6681Z" fill="#1F1F3C"/>
<path d="M18.3741 88.8H13.634V90.1H18.3741V88.8Z" fill="#1F1F3C"/>
<path d="M18.3741 83.9285H13.634V85.2303H18.3741V83.9285Z" fill="#1F1F3C"/>
<path d="M18.3741 79.0549H13.634V80.3568H18.3741V79.0549Z" fill="#1F1F3C"/>
<path d="M18.3741 74.187H13.634V75.4852H18.3741V74.187Z" fill="#1F1F3C"/>
<path d="M18.3741 69.3113H13.634V70.615H18.3741V69.3113Z" fill="#1F1F3C"/>
<path d="M39.1907 115.689H34.4507V117.075H39.1907V115.689Z" fill="#1F1F3C"/>
<path d="M39.1907 110.513H34.4507V111.897H39.1907V110.513Z" fill="#1F1F3C"/>
<path d="M39.1907 105.343H34.4507V106.721H39.1907V105.343Z" fill="#1F1F3C"/>
<path d="M39.1907 100.169H34.4507V101.549H39.1907V100.169Z" fill="#1F1F3C"/>
<path d="M39.1907 94.9952H34.4507V96.375H39.1907V94.9952Z" fill="#1F1F3C"/>
<path d="M39.1907 89.8212H34.4507V91.2046H39.1907V89.8212Z" fill="#1F1F3C"/>
<path d="M39.1907 84.6472H34.4507V86.0307H39.1907V84.6472Z" fill="#1F1F3C"/>
<path d="M39.1907 79.4717H34.4507V80.8551H39.1907V79.4717Z" fill="#1F1F3C"/>
<path d="M39.1907 74.3013H34.4507V75.6847H39.1907V74.3013Z" fill="#1F1F3C"/>
<path d="M39.1907 69.1273H34.4507V70.5089H39.1907V69.1273Z" fill="#1F1F3C"/>
<path d="M123.934 26.8368L108.781 15.8842L107.795 17.2474L122.949 28.2L123.934 26.8368Z" fill="#194254"/>
<path d="M123.948 28.1938L122.964 26.8295L107.797 37.7663L108.781 39.1306L123.948 28.1938Z" fill="#194254"/>
<path d="M123.916 48.7349L108.764 37.7804L107.779 39.1435L122.93 50.098L123.916 48.7349Z" fill="#194254"/>
<path d="M123.95 50.0855L122.967 48.7234L107.808 59.6696L108.791 61.0317L123.95 50.0855Z" fill="#194254"/>
<path d="M123.942 70.6219L108.788 59.6682L107.804 61.0298L122.958 71.9835L123.942 70.6219Z" fill="#194254"/>
<path d="M123.954 71.9929L122.97 70.6307L107.811 81.577L108.795 82.9391L123.954 71.9929Z" fill="#194254"/>
<path d="M123.939 92.5694L108.785 81.6198L107.801 82.9817L122.955 93.9314L123.939 92.5694Z" fill="#194254"/>
<path d="M124.028 93.8183L122.84 92.6284L107.411 108.044L108.6 109.234L124.028 93.8183Z" fill="#194254"/>
<path d="M123.818 17.2436L122.832 15.8805L107.677 26.8372L108.663 28.2003L123.818 17.2436Z" fill="#194254"/>
<path d="M123.797 37.7691L108.642 26.8173L107.657 28.1805L122.812 39.1324L123.797 37.7691Z" fill="#194254"/>
<path d="M123.805 39.1426L122.82 37.7792L107.662 48.7291L108.647 50.0926L123.805 39.1426Z" fill="#194254"/>
<path d="M123.82 59.7003L108.665 48.7466L107.68 50.1098L122.835 61.0636L123.82 59.7003Z" fill="#194254"/>
<path d="M123.812 61.0761L122.826 59.7108L107.665 70.657L108.651 72.0223L123.812 61.0761Z" fill="#194254"/>
<path d="M123.816 81.5823L108.659 70.6294L107.673 71.9942L122.83 82.9471L123.816 81.5823Z" fill="#194254"/>
<path d="M123.802 82.9568L122.817 81.5934L107.659 92.5444L108.644 93.9079L123.802 82.9568Z" fill="#194254"/>
<path d="M124.153 108.048L108.728 92.6229L107.54 93.811L122.965 109.236L124.153 108.048Z" fill="#194254"/>
<path d="M155.795 151.11H150.428V160.269H155.795V151.11Z" fill="#194254"/>
<path d="M172.476 153.838H130.9C125.797 153.838 121.795 150.762 121.795 146.828C121.795 142.971 125.622 140.169 130.9 140.169V145.326C128.347 145.326 126.952 146.32 126.952 146.828C126.952 147.485 128.451 148.681 130.9 148.681H172.476V153.838Z" fill="#194254"/>
<path d="M105.778 153.838H29.7198V148.681H105.778C108.227 148.681 109.729 147.483 109.729 146.828C109.729 146.174 108.227 144.978 105.778 144.978V139.82C110.885 139.82 114.885 142.897 114.885 146.828C114.885 150.76 110.887 153.838 105.778 153.838Z" fill="#194254"/>
<path d="M172.476 162.703H96.4199V157.546H172.476C174.929 157.546 176.428 156.346 176.428 155.691C176.428 155.038 174.927 153.838 172.476 153.838V148.681C177.583 148.681 181.585 151.763 181.585 155.691C181.583 159.623 177.583 162.703 172.476 162.703Z" fill="#194254"/>
<path d="M106.208 162.703H30.1464C25.0429 162.703 21.0409 159.623 21.0409 155.691C21.0409 151.763 25.0429 148.681 30.1464 148.681V153.838C27.6985 153.838 26.2001 155.038 26.2001 155.691C26.2001 156.346 27.7003 157.546 30.1464 157.546H106.21V162.703H106.208Z" fill="#194254"/>
<path d="M190.579 109.878C195.683 109.878 199.683 106.797 199.683 102.864C199.683 99.0161 195.842 96.0081 190.895 95.882V95.856C188.447 95.856 186.948 94.6562 186.948 94.0016C186.948 93.3469 188.447 92.1471 190.895 92.1471C196 92.1471 200 89.0723 200 85.1371C200 81.2093 196 78.1272 190.895 78.1272H169.119C165.568 78.1272 162.675 81.0239 162.675 84.5771V88.6773H156.733C153.178 88.6773 150.289 91.5685 150.289 95.1235V100.123H142.164C138.613 100.123 135.722 103.012 135.722 106.567V112.934H140.877V106.567C140.877 105.861 141.456 105.281 142.164 105.281L150.289 105.312V105.334L152.744 105.323L155.198 105.334V105.312L163.322 105.281C164.032 105.281 164.609 105.861 164.609 106.567V112.934H169.765V106.567C169.765 103.012 166.873 100.123 163.322 100.123H155.441V95.1235C155.441 94.4132 156.021 93.8365 156.733 93.8365H167.821V90.9417H167.83V84.5771C167.83 83.8631 168.411 83.2845 169.119 83.2845H190.895C193.346 83.2845 194.843 84.4843 194.843 85.1371C194.843 85.7918 193.346 86.9916 190.895 86.9916C185.789 86.9916 181.787 90.0738 181.787 94.0016C181.787 97.8478 185.63 100.859 190.579 100.987V101.011C193.027 101.011 194.527 102.211 194.527 102.864C194.527 103.519 193.027 104.719 190.579 104.719C185.474 104.719 181.474 107.799 181.474 111.727C181.474 115.658 185.472 118.737 190.579 118.737C193.027 118.737 194.527 119.936 194.527 120.591C194.527 121.244 193.027 122.444 190.579 122.444C185.474 122.444 181.474 125.522 181.474 129.454C181.474 133.387 185.472 136.46 190.579 136.46C193.027 136.46 194.527 137.66 194.527 138.316C194.527 138.967 193.027 140.167 190.579 140.167H130.898V145.324H190.579C195.683 145.324 199.683 142.244 199.683 138.316C199.683 134.385 195.683 131.303 190.579 131.303C188.13 131.303 186.631 130.105 186.631 129.454C186.631 128.799 188.131 127.599 190.579 127.599C195.683 127.599 199.683 124.521 199.683 120.591C199.683 116.656 195.683 113.579 190.579 113.579C188.13 113.579 186.631 112.381 186.631 111.727C186.631 111.076 188.131 109.878 190.579 109.878Z" fill="#194254"/>
<path d="M52.1832 142.25H46.8126V151.407H52.1832V142.25Z" fill="#194254"/>
<path d="M105.778 139.818L194.845 139.77L191.953 144.976H105.778V139.818Z" fill="#194254"/>
<path d="M100.75 149.514H95.3795V158.673H100.75V149.514Z" fill="#194254"/>
<path d="M9.10734 139.818C6.65572 139.818 5.15916 138.62 5.15916 137.966C5.15916 137.311 6.65572 136.115 9.10734 136.115V136.111H16.8591V130.958H9.10734C4.00196 130.958 0 134.034 0 137.966C0 141.897 4.00196 144.976 9.10734 144.976H85.1651V139.818H9.10734Z" fill="#194254"/>
<path d="M105.779 139.818H85.165V144.976H105.779V139.818Z" fill="#194254"/>
<path d="M34.7901 48.3186C34.7901 43.3504 30.7677 39.3243 25.7995 39.3243C20.8332 39.3243 16.8035 43.3486 16.8035 48.3186V139.791H34.7901V48.3186Z" fill="#7FC9A1"/>
<path d="M81.1743 79.906C81.1743 72.1506 74.8894 65.8657 67.134 65.8657C59.3786 65.8657 53.0938 72.1506 53.0938 79.906V139.819H81.1743V79.906Z" fill="#7FC9A1"/>
<path d="M41.531 139.819L37.8387 140.167V35.0516C37.8387 31.3408 35.4446 28.3217 32.5034 28.3217C29.5659 28.3217 27.1718 31.3408 27.1718 35.0516V40.6187L23.4795 40.4778V35.0516C23.4795 29.3009 27.5278 24.6257 32.5015 24.6257C37.4808 24.6257 41.5291 29.3009 41.5291 35.0516V139.819H41.531Z" fill="#7FC9A1"/>
<path d="M98.0148 88.9167H81.1743V91.1254H98.0148V88.9167Z" fill="#1F1F3C"/>
<path d="M98.0148 96.049H81.1743V98.2577H98.0148V96.049Z" fill="#1F1F3C"/>
<path d="M98.0148 103.189H81.1743V105.399H98.0148V103.189Z" fill="#1F1F3C"/>
<path d="M98.0148 110.327H81.1743V112.535H98.0148V110.327Z" fill="#1F1F3C"/>
<path d="M98.0148 117.461H81.1743V119.67H98.0148V117.461Z" fill="#1F1F3C"/>
<path d="M124.415 14.8988H122.214V108.769H124.415V14.8988Z" fill="#194254"/>
<path d="M98.0148 124.599H81.1743V126.804H98.0148V124.599Z" fill="#1F1F3C"/>
<path d="M124.413 14.2889H107.194V16.5533H124.413V14.2889Z" fill="#194254"/>
<path d="M109.396 14.8988H107.194V108.769H109.396V14.8988Z" fill="#194254"/>
<path d="M118.357 4.32654H113.387V15.7891H118.357V4.32654Z" fill="#194254"/>
<path d="M120.129 0H111.478V6.44433H120.129V0Z" fill="#194254"/>
<path d="M143.312 112.934H133.437V139.818H143.312V112.934Z" fill="#7CD4DA"/>
<path d="M145.133 115.553H131.336V118.985H145.133V115.553Z" fill="#194254"/>
<path d="M145.133 125.005H131.336V128.434H145.133V125.005Z" fill="#194254"/>
<path d="M145.133 134.453H131.336V137.886H145.133V134.453Z" fill="#194254"/>
<path d="M92.9854 139.646H87.0937V60.2556C87.0937 54.3379 83.2791 49.5181 78.5891 49.5181C73.8973 49.5181 70.0826 54.3361 70.0826 60.2556V69.1348L64.1909 68.9123V60.2556C64.1909 51.087 70.6482 43.6283 78.5891 43.6283C86.5281 43.6283 92.9854 51.087 92.9854 60.2556V139.646Z" fill="#7FC9A1"/>
<path d="M34.7901 61.129H16.8035V65.6558H34.7901V61.129Z" fill="#194254"/>
<path d="M34.7901 75.8647H16.8035V80.3915H34.7901V75.8647Z" fill="#194254"/>
<path d="M34.7901 91.205H16.8035V95.7299H34.7901V91.205Z" fill="#194254"/>
<path d="M34.7901 109.418H16.8035V113.945H34.7901V109.418Z" fill="#194254"/>
<path d="M173.349 135.351C177.563 133.384 180.452 129.396 180.452 124.781C180.452 119.332 176.426 114.753 170.944 113.351V110.216H163.656V113.409C158.296 114.883 154.389 119.414 154.389 124.783C154.389 129.246 157.093 133.13 161.084 135.162L157.519 136.449L157.117 139.772H158.729L159.372 137.165L163.304 136.05C164.24 136.332 165.221 136.527 166.239 136.61L166.215 136.794L166.495 139.772H166.951H167.406L167.686 136.794L167.669 136.653C168.848 136.633 169.989 136.471 171.07 136.184L174.529 137.165L175.172 139.772H176.786L176.383 136.449L173.349 135.351Z" fill="#7CD4DA"/>
<path d="M165.484 117.582H164.196V130.932H165.484V117.582Z" fill="#1F1F3C"/>
<path d="M170.642 117.582H169.355V130.932H170.642V117.582Z" fill="#1F1F3C"/>
<path d="M169.998 120.346H164.604V121.313H169.998V120.346Z" fill="#1F1F3C"/>
<path d="M169.998 123.815H164.604V124.781H169.998V123.815Z" fill="#1F1F3C"/>
<path d="M169.998 127.277H164.604V128.245H169.998V127.277Z" fill="#1F1F3C"/>
<path d="M127.657 107.246H104.763V139.819H127.657V107.246Z" fill="#7FC9A1"/>
<path d="M64.6731 72.6493H63.0319V89.6549H64.6731V72.6493Z" fill="#1F1F3C"/>
<path d="M71.2417 72.6492H69.6005V89.6547H71.2417V72.6492Z" fill="#1F1F3C"/>
<path d="M70.4182 76.1707H63.5474V77.4039H70.4182V76.1707Z" fill="#1F1F3C"/>
<path d="M70.4182 80.5883H63.5474V81.8196H70.4182V80.5883Z" fill="#1F1F3C"/>
<path d="M70.4182 84.998H63.5474V86.2313H70.4182V84.998Z" fill="#1F1F3C"/>
<path d="M64.6731 89.6306H63.0319V106.636H64.6731V89.6306Z" fill="#1F1F3C"/>
<path d="M71.2417 89.6305H69.6005V106.636H71.2417V89.6305Z" fill="#1F1F3C"/>
<path d="M70.4182 93.1538H63.5474V94.3833H70.4182V93.1538Z" fill="#1F1F3C"/>
<path d="M70.4182 97.5696H63.5474V98.801H70.4182V97.5696Z" fill="#1F1F3C"/>
<path d="M70.4182 101.981H63.5474V103.213H70.4182V101.981Z" fill="#1F1F3C"/>
<path d="M71.2416 88.913H63.0319V90.3891H71.2416V88.913Z" fill="#1F1F3C"/>
<path d="M64.6731 105.833H63.0319V122.841H64.6731V105.833Z" fill="#1F1F3C"/>
<path d="M71.2417 105.833H69.6005V122.841H71.2417V105.833Z" fill="#1F1F3C"/>
<path d="M70.4182 109.355H63.5474V110.588H70.4182V109.355Z" fill="#1F1F3C"/>
<path d="M70.4182 113.77H63.5474V115.004H70.4182V113.77Z" fill="#1F1F3C"/>
<path d="M70.4182 118.182H63.5474V119.415H70.4182V118.182Z" fill="#1F1F3C"/>
<path d="M64.6731 122.813H63.0319V139.818H64.6731V122.813Z" fill="#1F1F3C"/>
<path d="M71.2417 122.813H69.6005V139.819H71.2417V122.813Z" fill="#1F1F3C"/>
<path d="M70.4182 126.338H63.5474V127.566H70.4182V126.338Z" fill="#1F1F3C"/>
<path d="M70.4182 130.754H63.5474V131.985H70.4182V130.754Z" fill="#1F1F3C"/>
<path d="M70.4182 135.165H63.5474V136.397H70.4182V135.165Z" fill="#1F1F3C"/>
<path d="M71.2416 122.094H63.0319V123.575H71.2416V122.094Z" fill="#1F1F3C"/>
<path d="M70.6241 105.416H63.6995V106.822H70.6241V105.416Z" fill="#1F1F3C"/>
</svg>
