<svg width="24" height="24" viewBox="0 0 24 24" fill="none" xmlns="http://www.w3.org/2000/svg">
<path d="M7 18H14M7 14H8M7 10H10M7 2H16.5L21 6.5V19" stroke="#00B9B6" stroke-width="1.8" stroke-linecap="round" stroke-linejoin="round"/>
<path d="M3 20.5V6.5C3 6.10218 3.15804 5.72064 3.43934 5.43934C3.72064 5.15804 4.10218 5 4.5 5H14.252C14.4111 5.00014 14.5636 5.06345 14.676 5.176L17.824 8.324C17.88 8.3799 17.9243 8.44632 17.9545 8.51943C17.9847 8.59254 18.0002 8.6709 18 8.75V20.5C18 20.8978 17.842 21.2794 17.5607 21.5607C17.2794 21.842 16.8978 22 16.5 22H4.5C4.10218 22 3.72064 21.842 3.43934 21.5607C3.15804 21.2794 3 20.8978 3 20.5Z" stroke="#0050A4" stroke-width="1.8" stroke-linecap="round" stroke-linejoin="round"/>
<path d="M14 8.4V5.354C14.0001 5.28408 14.021 5.21576 14.0599 5.15766C14.0988 5.09956 14.154 5.05429 14.2186 5.02754C14.2832 5.0008 14.3543 4.99379 14.4229 5.0074C14.4915 5.02101 14.5545 5.05462 14.604 5.104L17.896 8.396C17.9459 8.44532 17.9799 8.50837 17.9938 8.57712C18.0077 8.64587 18.0008 8.7172 17.974 8.78201C17.9471 8.84682 17.9016 8.90216 17.8432 8.94099C17.7848 8.97981 17.7161 9.00036 17.646 9H14.6C14.4409 9 14.2883 8.93679 14.1757 8.82427C14.0632 8.71175 14 8.55913 14 8.4Z" fill="#0050A4" stroke="#0050A4" stroke-width="1.5" stroke-linecap="round" stroke-linejoin="round"/>
</svg>
