<svg width="25" height="23" viewBox="0 0 25 23" fill="none" xmlns="http://www.w3.org/2000/svg">
<path d="M5.58588 0.275375C5.1269 0.42186 4.45307 1.04686 4.20893 1.56444C4.00385 1.99412 4.00385 2.06248 4.00385 9.3574C4.00385 14.9433 4.03315 16.7402 4.12104 16.8281C4.27729 16.9844 4.93159 16.9746 5.05854 16.8183C5.13667 16.7304 5.17573 14.5137 5.19526 9.50389C5.22456 2.41405 5.22456 2.30662 5.42963 2.04295C5.53706 1.89647 5.7519 1.68163 5.89838 1.5742C6.15229 1.37889 6.30854 1.36913 10.0683 1.33983L13.9648 1.31053V3.23436C13.9648 5.52928 14.0234 5.77342 14.6972 6.44725C15.371 7.12108 15.6152 7.17967 17.9101 7.17967H19.8242V10.9687C19.8242 13.7812 19.8535 14.7871 19.9414 14.875C20.0976 15.0312 20.7226 15.0312 20.8789 14.875C20.9667 14.7871 20.996 13.6836 20.996 10.5V6.25194L17.9394 3.1953L14.8925 0.148422L10.4003 0.158188C7.54877 0.167953 5.79096 0.207016 5.58588 0.275375ZM17.9492 5.98826C16.5527 6.03709 16.0546 5.9492 15.6542 5.58787C15.2343 5.19725 15.1464 4.80662 15.1367 3.37108V2.24803L16.9921 4.1035L18.8476 5.95897L17.9492 5.98826Z" fill="black"/>
<path d="M21.289 17.209C20.8886 17.3457 20.7617 17.9707 21.084 18.2539C21.1816 18.3418 21.5625 18.4785 21.9336 18.5371L22.6074 18.6641L21.9238 19.0644C19.7754 20.3144 17.539 21.0664 14.8437 21.4375C13.7695 21.5937 11.1523 21.5644 9.94137 21.3984C7.13864 20.998 4.32614 19.9238 2.01169 18.3809C1.41599 17.9805 0.93747 17.7266 0.78122 17.7266C0.419891 17.7266 0.175751 18.0195 0.214813 18.4199C0.24411 18.7031 0.351532 18.8203 1.22067 19.416C3.65231 21.0957 6.93356 22.3164 10.0586 22.6973C11.2597 22.8535 13.9746 22.8242 15.2636 22.6582C17.8222 22.3262 20.9082 21.2519 22.8613 20.0117C23.0664 19.8848 23.2519 19.7773 23.2715 19.7773C23.291 19.7773 23.2519 20.0703 23.1836 20.4316C23.0175 21.3203 23.125 21.5742 23.6914 21.6133C23.9355 21.6328 24.1308 21.5937 24.1992 21.5156C24.248 21.4473 24.4336 20.6953 24.5996 19.8359C25 17.7266 25.0586 17.834 23.2226 17.4922C22.4511 17.3457 21.7382 17.2187 21.6308 17.1992C21.5234 17.1797 21.3672 17.1797 21.289 17.209Z" fill="black"/>
</svg>
