<svg width="742" height="445" viewBox="0 0 742 445" fill="none" xmlns="http://www.w3.org/2000/svg">
<path d="M6.61404 393.308C6.61404 395.135 5.1355 396.616 3.30589 396.616C1.48079 396.616 0 395.135 0 393.308C0 391.481 1.48079 390 3.30589 390C5.1355 390 6.61404 391.481 6.61404 393.308Z" fill="#00B9B6"/>
<path d="M27.3118 393.308C27.3118 395.135 25.831 396.616 24.0036 396.616C22.1785 396.616 20.6978 395.135 20.6978 393.308C20.6978 391.481 22.1785 390 24.0036 390C25.831 390 27.3118 391.481 27.3118 393.308Z" fill="#00B9B6" fill-opacity="0.3"/>
<path d="M48.01 393.308C48.01 395.135 46.5292 396.616 44.7019 396.616C42.8768 396.616 41.396 395.135 41.396 393.308C41.396 391.481 42.8768 390 44.7019 390C46.5292 390 48.01 391.481 48.01 393.308Z" fill="#00B9B6"/>
<path d="M6.61404 414.005C6.61404 415.833 5.1355 417.313 3.30589 417.313C1.48079 417.313 0 415.833 0 414.005C0 412.178 1.48079 410.697 3.30589 410.697C5.1355 410.697 6.61404 412.178 6.61404 414.005Z" fill="#00B9B6" fill-opacity="0.3"/>
<path d="M27.3118 414.005C27.3118 415.833 25.831 417.313 24.0036 417.313C22.1785 417.313 20.6978 415.833 20.6978 414.005C20.6978 412.178 22.1785 410.697 24.0036 410.697C25.831 410.697 27.3118 412.178 27.3118 414.005Z" fill="#00B9B6"/>
<path d="M48.01 414.005C48.01 415.833 46.5292 417.313 44.7019 417.313C42.8768 417.313 41.396 415.833 41.396 414.005C41.396 412.178 42.8768 410.697 44.7019 410.697C46.5292 410.697 48.01 412.178 48.01 414.005Z" fill="#00B9B6" fill-opacity="0.3"/>
<path d="M6.61404 434.703C6.61404 436.53 5.1355 438.011 3.30589 438.011C1.48079 438.011 0 436.53 0 434.703C0 432.876 1.48079 431.395 3.30589 431.395C5.1355 431.395 6.61404 432.876 6.61404 434.703Z" fill="#00B9B6"/>
<path d="M27.3118 434.703C27.3118 436.53 25.831 438.011 24.0036 438.011C22.1785 438.011 20.6978 436.53 20.6978 434.703C20.6978 432.876 22.1785 431.395 24.0036 431.395C25.831 431.395 27.3118 432.876 27.3118 434.703Z" fill="#00B9B6" fill-opacity="0.3"/>
<path d="M48.01 434.703C48.01 436.53 46.5292 438.011 44.7019 438.011C42.8768 438.011 41.396 436.53 41.396 434.703C41.396 432.876 42.8768 431.395 44.7019 431.395C46.5292 431.395 48.01 432.876 48.01 434.703Z" fill="#00B9B6"/>
<path d="M579.582 146.231C577.096 136.792 582.444 126.906 591.709 123.825C601.932 120.422 612.889 126.348 615.632 136.77C618.118 146.212 612.77 156.096 603.507 159.178C593.279 162.581 582.327 156.654 579.582 146.231ZM563.44 143.53C563.514 146.105 563.919 148.71 564.688 151.293C565.402 153.695 566.392 155.938 567.606 158.002L572.722 155.839C574.177 158.348 575.984 160.588 578.063 162.506L574.861 167.117C576.732 168.882 578.86 170.435 581.23 171.718C582.154 172.217 583.095 172.666 584.042 173.059C584.289 173.167 584.541 173.265 584.792 173.362C585.863 173.775 586.949 174.121 588.041 174.404L590.145 169.205C590.46 169.289 590.776 169.37 591.094 169.445C591.45 169.532 591.81 169.609 592.173 169.679C594.276 170.095 596.437 170.273 598.62 170.201L599.612 175.716C602.184 175.643 604.791 175.235 607.372 174.467C609.77 173.752 612.018 172.769 614.084 171.547L611.908 166.411C614.43 164.967 616.675 163.171 618.6 161.105L623.194 164.295C624.962 162.426 626.518 160.296 627.801 157.93C628.991 155.724 629.88 153.439 630.482 151.119L625.324 149.029C626.071 146.296 626.416 143.435 626.318 140.532L631.796 139.547C631.722 136.972 631.318 134.368 630.551 131.787C629.836 129.386 628.845 127.14 627.63 125.075L622.532 127.233C621.085 124.713 619.278 122.465 617.201 120.537L620.377 115.965C618.505 114.196 616.376 112.642 614.007 111.359C611.805 110.168 609.518 109.278 607.197 108.677L605.115 113.808C602.377 113.058 599.514 112.706 596.607 112.803L595.624 107.366C593.053 107.437 590.452 107.84 587.864 108.61C585.467 109.325 583.221 110.311 581.156 111.529L583.297 116.593C580.768 118.046 578.514 119.854 576.581 121.935L572.043 118.783C570.278 120.651 568.72 122.781 567.436 125.152C566.244 127.355 565.357 129.638 564.756 131.961L569.873 134.034C569.133 136.772 568.794 139.638 568.899 142.548L563.44 143.53Z" fill="white"/>
<path d="M506.851 40.8526C509.743 38.5574 514.67 39.6296 516.35 38.415C518.363 36.9585 518.195 35.4792 518.588 33.1954C519.017 30.7065 519.724 28.2661 520.695 25.9339C522.763 20.9719 527.07 17.8837 532.604 18.0033C535.775 18.073 538.766 19.3359 541.054 21.5258C543.092 23.4778 544.084 27.6923 546.787 28.7331C550.592 30.2011 554.105 24.8447 557.966 25.5865C560.539 26.0806 562.937 27.9827 563.485 30.5442C563.828 32.1488 563.445 33.8076 563.378 35.4464C563.313 37.0852 563.687 38.9347 565.056 39.8389C565.664 40.2404 566.401 40.4041 567.127 40.4525C569 40.5793 570.838 39.9969 572.683 39.6538C574.527 39.3106 576.567 39.2409 578.14 40.2632C580.209 41.6087 580.774 44.1972 581.728 46.3044C582.745 48.5512 584.465 50.5929 586.615 51.8402C591.638 54.7519 598.092 52.1335 602.438 56.479C592.391 56.479 512.787 56.479 509.772 56.479C506.755 56.479 502.991 53.348 503 48.4985C503.004 46.2845 503.906 43.1905 506.851 40.8526Z" fill="white"/>
<path d="M293.448 113.708L292.783 113.963C292.887 114.235 292.935 114.513 292.935 114.786C292.935 115.71 292.374 116.584 291.458 116.935C291.186 117.04 290.908 117.088 290.635 117.088C289.709 117.087 288.835 116.526 288.485 115.609C288.381 115.337 288.332 115.059 288.332 114.788C288.332 113.862 288.895 112.988 289.81 112.638C290.084 112.534 290.36 112.484 290.633 112.484C291.559 112.485 292.433 113.046 292.783 113.963L293.448 113.708L294.113 113.453C293.543 111.971 292.132 111.06 290.633 111.06C290.189 111.06 289.738 111.141 289.3 111.308C287.818 111.877 286.907 113.288 286.908 114.788C286.908 115.23 286.988 115.683 287.156 116.119C287.724 117.601 289.135 118.512 290.635 118.512C291.079 118.512 291.53 118.432 291.967 118.264C293.449 117.695 294.361 116.284 294.359 114.786C294.359 114.342 294.28 113.89 294.113 113.453L293.448 113.708Z" fill="#BDBEE5"/>
<path d="M162.588 87.5444L161.923 87.7993C162.027 88.0727 162.077 88.3489 162.077 88.6223C162.076 89.5478 161.515 90.422 160.598 90.7722C160.326 90.8762 160.048 90.9246 159.775 90.9246C158.849 90.9246 157.975 90.3622 157.626 89.4467C157.521 89.1733 157.472 88.8971 157.472 88.6237C157.472 87.6982 158.035 86.824 158.95 86.4737C159.224 86.3698 159.5 86.3214 159.773 86.3214C160.699 86.3214 161.573 86.8824 161.923 87.7993L162.588 87.5444L163.253 87.2896C162.684 85.8074 161.273 84.8961 159.773 84.8976C159.33 84.8976 158.878 84.9773 158.442 85.1439C156.96 85.7134 156.047 87.1244 156.049 88.6237C156.049 89.0679 156.128 89.5193 156.296 89.9564C156.864 91.4386 158.277 92.3498 159.775 92.3484C160.219 92.3484 160.67 92.2687 161.107 92.1006C162.59 91.5325 163.501 90.1216 163.501 88.6223C163.501 88.178 163.42 87.7267 163.253 87.2896L162.588 87.5444Z" fill="#BDBEE5"/>
<path d="M47.5396 247.032L46.8747 247.285C46.9786 247.559 47.0284 247.835 47.0284 248.108C47.027 249.034 46.466 249.908 45.5491 250.258C45.2771 250.362 44.9995 250.411 44.7261 250.411C43.8006 250.411 42.9264 249.85 42.5776 248.933C42.4722 248.661 42.4238 248.383 42.4238 248.11C42.4252 247.184 42.9862 246.31 43.9017 245.961C44.1751 245.856 44.4527 245.807 44.7247 245.807C45.6502 245.809 46.5244 246.37 46.8747 247.285L47.5396 247.032L48.2045 246.777C47.635 245.295 46.224 244.382 44.7247 244.384C44.2819 244.384 43.8291 244.463 43.3934 244.631C41.9112 245.199 41 246.612 41 248.11C41 248.554 41.0797 249.005 41.2477 249.442C41.8173 250.925 43.2283 251.836 44.7261 251.834C45.1703 251.834 45.6217 251.755 46.0588 251.588C47.541 251.019 48.4522 249.608 48.4522 248.108C48.4522 247.666 48.3725 247.213 48.2045 246.777L47.5396 247.032Z" fill="#BDBEE5"/>
<path d="M393.337 118.06L392.672 118.313C392.776 118.587 392.824 118.863 392.824 119.136C392.824 120.062 392.262 120.936 391.346 121.286C391.074 121.39 390.797 121.438 390.523 121.438C389.598 121.438 388.724 120.877 388.374 119.961C388.27 119.689 388.221 119.411 388.221 119.138C388.221 118.212 388.784 117.338 389.699 116.989C389.972 116.884 390.249 116.835 390.522 116.835C391.448 116.837 392.322 117.398 392.672 118.315L393.337 118.06L394.002 117.805C393.432 116.323 392.021 115.41 390.522 115.411C390.078 115.411 389.626 115.491 389.189 115.659C387.707 116.227 386.796 117.64 386.797 119.138C386.797 119.582 386.877 120.033 387.045 120.47C387.613 121.952 389.024 122.864 390.523 122.862C390.968 122.864 391.419 122.783 391.856 122.616C393.338 122.046 394.25 120.635 394.248 119.136C394.248 118.693 394.168 118.241 394.002 117.805L393.337 118.06Z" fill="#BDBEE5"/>
<path d="M661.644 132.207L660.979 132.46C661.083 132.734 661.131 133.01 661.131 133.283C661.131 134.209 660.569 135.083 659.653 135.433C659.38 135.537 659.104 135.586 658.83 135.587C657.905 135.586 657.031 135.025 656.68 134.108C656.577 133.836 656.528 133.558 656.528 133.285C656.528 132.359 657.091 131.485 658.006 131.136C658.279 131.031 658.556 130.982 658.829 130.982C659.754 130.984 660.629 131.545 660.979 132.462L661.644 132.207L662.309 131.952C661.739 130.47 660.327 129.559 658.829 129.559C658.385 129.559 657.933 129.638 657.496 129.806C656.014 130.374 655.103 131.787 655.104 133.285C655.104 133.729 655.184 134.18 655.351 134.617C655.92 136.1 657.331 137.011 658.83 137.011C659.273 137.011 659.726 136.93 660.163 136.763C661.644 136.193 662.557 134.782 662.555 133.283C662.555 132.84 662.475 132.388 662.309 131.952L661.644 132.207Z" fill="#BDBEE5"/>
<path d="M741.026 286.578L740.361 286.833C740.465 287.105 740.515 287.383 740.515 287.656C740.513 288.58 739.952 289.454 739.035 289.805C738.763 289.909 738.486 289.959 738.212 289.959C737.287 289.957 736.413 289.396 736.064 288.481C735.959 288.207 735.91 287.93 735.91 287.658C735.912 286.732 736.473 285.858 737.388 285.508C737.661 285.404 737.939 285.354 738.211 285.354C739.137 285.355 740.011 285.916 740.361 286.833L741.026 286.578L741.691 286.324C741.121 284.841 739.71 283.93 738.211 283.93C737.768 283.93 737.315 284.011 736.88 284.178C735.398 284.747 734.485 286.158 734.486 287.658C734.486 288.1 734.566 288.553 734.734 288.989C735.302 290.471 736.715 291.382 738.212 291.382C738.657 291.382 739.108 291.303 739.545 291.135C741.027 290.565 741.939 289.154 741.939 287.656C741.939 287.212 741.859 286.761 741.691 286.324L741.026 286.578Z" fill="#BDBEE5"/>
<path d="M329.254 70.5002V76.3948C329.254 76.7878 329.573 77.1067 329.966 77.1067C330.359 77.1067 330.678 76.7878 330.678 76.3948V70.5002C330.678 70.1072 330.359 69.7883 329.966 69.7883C329.573 69.7883 329.254 70.1072 329.254 70.5002Z" fill="#BDBEE5"/>
<path d="M332.913 72.7359H327.019C326.626 72.7359 326.307 73.0548 326.307 73.4478C326.307 73.8407 326.626 74.1597 327.019 74.1597H332.913C333.306 74.1597 333.625 73.8407 333.625 73.4478C333.625 73.0548 333.306 72.7359 332.913 72.7359Z" fill="#BDBEE5"/>
<path d="M404.752 62.7131V68.6077C404.752 69.0006 405.071 69.3196 405.464 69.3196C405.859 69.3196 406.176 69.0006 406.176 68.6077V62.7131C406.176 62.3201 405.859 62.0012 405.464 62.0012C405.071 62.0012 404.752 62.3201 404.752 62.7131Z" fill="#BDBEE5"/>
<path d="M408.411 64.9487H402.517C402.124 64.9487 401.805 65.2677 401.805 65.6607C401.805 66.0536 402.124 66.3726 402.517 66.3726H408.411C408.804 66.3726 409.123 66.0536 409.123 65.6607C409.123 65.2677 408.804 64.9487 408.411 64.9487Z" fill="#BDBEE5"/>
<path d="M197.08 196.809V202.704C197.08 203.097 197.399 203.416 197.792 203.416C198.185 203.416 198.504 203.097 198.504 202.704V196.809C198.504 196.417 198.185 196.098 197.792 196.098C197.399 196.098 197.08 196.417 197.08 196.809Z" fill="#BDBEE5"/>
<path d="M200.739 199.045H194.845C194.452 199.045 194.133 199.364 194.133 199.757C194.133 200.15 194.452 200.469 194.845 200.469H200.739C201.132 200.469 201.451 200.15 201.451 199.757C201.451 199.364 201.132 199.045 200.739 199.045Z" fill="#BDBEE5"/>
<path d="M39.9473 129.712V135.605C39.9473 135.998 40.2662 136.317 40.6592 136.317C41.0521 136.317 41.3711 135.998 41.3711 135.605V129.712C41.3711 129.319 41.0521 129 40.6592 129C40.2662 129 39.9473 129.319 39.9473 129.712Z" fill="#BDBEE5"/>
<path d="M43.6065 131.946H37.7119C37.3189 131.946 37 132.265 37 132.658C37 133.052 37.3189 133.37 37.7119 133.37H43.6065C43.9995 133.37 44.3184 133.052 44.3184 132.658C44.3184 132.265 43.9995 131.946 43.6065 131.946Z" fill="#BDBEE5"/>
<path d="M551.133 116.19V122.085C551.133 122.478 551.451 122.797 551.845 122.797C552.238 122.797 552.557 122.478 552.557 122.085V116.19C552.557 115.797 552.238 115.478 551.845 115.478C551.451 115.478 551.133 115.797 551.133 116.19Z" fill="#BDBEE5"/>
<path d="M554.791 118.426H548.898C548.503 118.426 548.186 118.745 548.186 119.138C548.186 119.531 548.503 119.85 548.898 119.85H554.791C555.184 119.85 555.503 119.531 555.503 119.138C555.503 118.745 555.184 118.426 554.791 118.426Z" fill="#BDBEE5"/>
<path d="M71.2261 279.385V285.28C71.2261 285.673 71.545 285.992 71.938 285.992C72.331 285.992 72.6499 285.673 72.6499 285.28V279.385C72.6499 278.992 72.331 278.674 71.938 278.674C71.545 278.674 71.2261 278.992 71.2261 279.385Z" fill="#BDBEE5"/>
<path d="M74.8851 281.62H68.9905C68.5975 281.62 68.2786 281.939 68.2786 282.332C68.2786 282.725 68.5975 283.044 68.9905 283.044H74.8851C75.278 283.044 75.597 282.725 75.597 282.332C75.597 281.939 75.278 281.62 74.8851 281.62Z" fill="#BDBEE5"/>
<path d="M721.85 220.957V226.852C721.85 227.245 722.169 227.564 722.562 227.564C722.955 227.564 723.274 227.245 723.274 226.852V220.957C723.274 220.565 722.955 220.246 722.562 220.246C722.169 220.246 721.85 220.565 721.85 220.957Z" fill="#BDBEE5"/>
<path d="M725.509 223.192H719.614C719.221 223.192 718.902 223.51 718.902 223.904C718.902 224.297 719.221 224.616 719.614 224.616H725.509C725.902 224.616 726.221 224.297 726.221 223.904C726.221 223.51 725.902 223.192 725.509 223.192Z" fill="#BDBEE5"/>
<path d="M629.37 188.768V194.663C629.37 195.056 629.689 195.375 630.082 195.375C630.475 195.375 630.794 195.056 630.794 194.663V188.768C630.794 188.375 630.475 188.056 630.082 188.056C629.689 188.056 629.37 188.375 629.37 188.768Z" fill="#BDBEE5"/>
<path d="M633.029 191.003H627.135C626.742 191.003 626.423 191.322 626.423 191.715C626.423 192.108 626.742 192.427 627.135 192.427H633.029C633.422 192.427 633.741 192.108 633.741 191.715C633.741 191.322 633.422 191.003 633.029 191.003Z" fill="#BDBEE5"/>
<path d="M171.066 193.652C171.066 204.965 161.893 214.139 150.578 214.139C139.263 214.139 130.09 204.967 130.09 193.652C130.09 182.337 139.263 173.163 150.578 173.163C161.893 173.163 171.066 182.337 171.066 193.652Z" fill="white"/>
<path d="M119.328 155.342H118.616C118.614 160.805 116.403 165.744 112.824 169.325C109.243 172.905 104.304 175.117 98.8405 175.117C93.3773 175.117 88.4367 172.905 84.8558 169.325C81.2763 165.744 79.0651 160.805 79.0637 155.342C79.0651 149.879 81.2763 144.938 84.8558 141.357C88.4367 137.778 93.3773 135.567 98.8405 135.565C104.304 135.567 109.243 137.778 112.824 141.357C116.403 144.938 118.614 149.879 118.616 155.342H119.328H120.04C120.038 143.633 110.549 134.143 98.8405 134.141C87.131 134.143 77.6413 143.633 77.6399 155.342C77.6413 167.05 87.131 176.541 98.8405 176.541C110.549 176.541 120.038 167.05 120.04 155.342H119.328Z" fill="#D3D0ED"/>
<path d="M269.183 14.9471H268.471C268.471 18.6846 266.959 22.0605 264.511 24.5109C262.061 26.9584 258.685 28.4719 254.949 28.4719C251.211 28.4719 247.835 26.9584 245.385 24.5109C242.937 22.0605 241.425 18.6846 241.424 14.9471C241.425 11.211 242.937 7.83514 245.385 5.38475C247.835 2.93721 251.211 1.42514 254.947 1.42372C258.685 1.42514 262.061 2.93721 264.511 5.38475C266.959 7.83514 268.471 11.211 268.471 14.9471H269.183H269.894C269.894 6.69184 263.204 0.00132751 254.947 -9.53674e-05C246.692 0.00132751 240.001 6.69184 240 14.9471C240.001 23.2038 246.692 29.8943 254.949 29.8958C263.204 29.8943 269.894 23.2038 269.894 14.9471H269.183Z" fill="#D3D0ED"/>
<path d="M559.806 416.335C557.503 380.059 561.228 328.435 577.284 282.035C593.946 233.887 623.605 191.639 656.535 203.978C669.172 208.712 670.865 229.936 665.545 249.704C649.865 307.977 613.54 343.205 599.573 416.335" fill="#EAE9F6"/>
<path d="M582.047 416.37C584.835 359.708 602.086 306.209 618.645 266.889C626.924 247.228 635.028 231.112 641.063 219.913C644.08 214.314 646.578 209.944 648.323 206.977C649.194 205.492 649.877 204.358 650.342 203.596C650.806 202.833 651.051 202.447 651.051 202.446L649.846 201.687C649.822 201.74 586.239 302.493 580.625 416.3L582.047 416.37Z" fill="white"/>
<path d="M185.22 416.335C165.44 366.198 94.7933 273.742 64.7252 320.305C58.8491 329.405 64.3279 343.965 73.4247 354.235C100.238 384.512 128.575 375.613 158.92 416.335" fill="#EAE9F6"/>
<path d="M173.364 416.029C139.66 344.946 69.3397 314.271 69.2756 314.232L68.7061 315.538C68.7061 315.538 68.9709 315.653 69.4877 315.893C77.2561 319.479 140.757 350.515 172.078 416.639L173.364 416.029Z" fill="white"/>
<path d="M198.256 416.335C209.785 339.345 163.928 193.506 104.431 231.69C90.8036 240.435 97.3033 274.123 105.052 293.133C124.522 340.901 157.502 352.959 170.886 416.335" fill="#D3D0ED"/>
<path d="M187.69 416.179C187.172 366.032 167.996 319.001 148.969 284.495C129.938 249.987 111.044 228.002 111.023 227.977L109.944 228.905C109.944 228.906 110.233 229.242 110.782 229.906C119.046 239.86 185.329 322.835 186.266 416.193L187.69 416.179Z" fill="white"/>
<path d="M255.757 416.335C271.074 356.113 267.946 228.035 203.121 243.475C190.936 246.377 186.565 264.623 188.263 280.728C193.267 328.202 224.265 356.755 225.512 416.335" fill="#EAE9F6"/>
<path d="M242.448 416.396C243.21 407.8 243.558 399.364 243.558 391.128C243.552 305.261 205.788 241.185 205.757 241.125L204.531 241.848C204.531 241.848 204.673 242.09 204.947 242.576C209.058 249.859 242.139 311.023 242.134 391.128C242.134 399.324 241.788 407.717 241.03 416.271L242.448 416.396Z" fill="white"/>
<path d="M600.996 416.335C605.52 371.07 619.504 314.582 641.965 280.78C659.946 253.719 688.03 241.6 704.657 258.465C713.899 267.841 710.401 294.943 696.346 315.345C671.482 351.436 641.796 364.344 625.237 416.335" fill="#D3D0ED"/>
<path d="M613.36 416.48C624.111 365.541 646.025 325.301 665.25 297.8C674.864 284.049 683.803 273.484 690.337 266.361C693.603 262.798 696.268 260.096 698.114 258.288C699.038 257.382 699.755 256.7 700.242 256.246C700.729 255.792 700.98 255.568 700.981 255.567L700.033 254.506C699.977 254.56 633.578 313.832 611.967 416.187L613.36 416.48Z" fill="white"/>
<path d="M624.219 416.335C639.267 373.956 678.548 325.024 708.33 316.151C720.363 312.567 738.876 313.881 741.184 327.352C743.032 338.143 732.198 354.51 719.88 363.665C697.222 380.509 675.855 387.32 650.81 416.335" fill="#EAE9F6"/>
<path d="M640.749 416.685C662.892 377.517 687.339 353.732 706.238 339.738C715.687 332.741 723.749 328.192 729.441 325.396C732.288 323.996 734.542 323.035 736.081 322.425C736.85 322.121 737.439 321.903 737.836 321.763C738.034 321.692 738.184 321.642 738.282 321.608L738.426 321.561L737.999 320.204C737.879 320.237 683.993 337.287 639.51 415.984L640.749 416.685Z" fill="white"/>
<path d="M535.794 257.855C536.398 262.406 537 266.955 537.602 271.506C529.77 271.35 522.295 271.943 514.464 272.163C517.041 270.653 522.512 267.638 524.452 263.736L535.794 257.855Z" fill="#FABBA8"/>
<path d="M537.426 277.523H532.958C532.944 277.126 533.038 276.001 532.922 275.651C532.08 275.651 530.281 275.765 530.044 275.849C529.848 275.918 529.515 276.311 529.211 276.7C528.803 277.221 528.147 277.523 527.455 277.523H509.694C507.502 277.523 507.156 275.221 509.496 274.117C511.618 273.118 516.237 270.955 516.438 270.918C523.503 271.516 535.055 270.378 537.316 268.265C539.032 269.87 537.453 277.476 537.426 277.523Z" fill="#151A34"/>
<path d="M531.52 185.244C534.675 224.507 536.798 265.432 536.798 265.432L524.452 263.736C524.452 263.736 511.35 211.056 507.984 185.244H531.52Z" fill="#FABBA8"/>
<path d="M500.217 257.855C500.82 262.406 501.422 266.955 502.024 271.506C494.192 271.35 486.717 271.943 478.886 272.163C481.463 270.653 486.933 267.638 488.874 263.736L500.217 257.855Z" fill="#FABBA8"/>
<path d="M501.849 277.523H497.38C497.365 277.126 497.459 276.001 497.344 275.651C496.501 275.651 494.703 275.765 494.465 275.849C494.27 275.918 493.937 276.311 493.634 276.7C493.225 277.221 492.568 277.523 491.878 277.523H474.117C471.925 277.523 471.579 275.221 473.918 274.117C476.041 273.118 480.658 270.955 480.859 270.918C487.925 271.516 499.478 270.378 501.738 268.265C503.454 269.87 501.876 277.476 501.849 277.523Z" fill="#151A34"/>
<path d="M507.019 185.244C504.489 224.49 501.221 265.432 501.221 265.432L488.874 263.736C488.874 263.736 483.483 213.219 483.483 185.244H507.019Z" fill="#FABBA8"/>
<path d="M523.354 143.71C534.641 169.753 535.914 198.549 535.914 198.549C535.914 198.549 519.847 202.768 506.73 202.768C493.612 202.768 479.936 200.686 479.936 200.686C479.936 200.686 483.435 155.677 488.841 141.894L523.354 143.71Z" fill="#282D6B"/>
<path d="M519.597 152.983C523.4 160.817 526.28 172.502 528.191 182.205C529.149 187.058 529.867 191.417 530.344 194.563C530.583 196.136 530.762 197.405 530.882 198.282C531.002 199.156 531.06 199.636 531.06 199.636L532.121 199.505C532.119 199.498 531.161 191.742 529.239 181.999C527.315 172.251 524.439 160.526 520.558 152.517L519.597 152.984V152.983Z" fill="#3A47A4"/>
<path d="M478.443 93.0233L479.212 98.3114C479.212 98.3114 483.057 100.79 486.289 99.4832C489.692 98.1049 489.51 96.2454 489.51 96.2454L485.427 86.5506" fill="#FAC1B9"/>
<path d="M472.844 84.2186C472.182 87.2698 474.204 95.8896 478.7 95.5436C483.44 95.1777 486.961 91.2807 485.263 85.9656C483.479 80.38 474.586 76.1982 472.844 84.2186Z" fill="#FAC1B9"/>
<path d="M478.953 96.459C480.163 96.2597 481.51 95.841 482.733 95.0437C483.954 94.2492 485.045 93.0617 485.697 91.3816L484.702 90.9944C484.131 92.458 483.211 93.4547 482.149 94.1495C481.087 94.8443 479.878 95.2259 478.779 95.4053L478.953 96.459Z" fill="#E87365"/>
<path d="M484.484 85.6777L484.478 85.7375H484.585L484.591 85.6777H484.484Z" fill="#F46F4E"/>
<path d="M484.666 87.009C483.178 86.8054 482.365 85.833 481.802 84.5273C480.829 85.3118 479.163 85.2051 478.198 84.7736C477.233 84.3436 476.616 83.6203 476.118 82.7305C475.384 84.2411 474.282 85.1851 472.572 85.5582C472.081 83.0565 473.545 80.394 475.819 78.9274C478.094 77.4609 481.299 77.1178 483.667 78.3038C486.036 79.4899 487.675 82.1495 487.972 84.6839C488.165 86.3156 487.71 89.589 486.329 89.3953C485.674 89.3028 484.666 87.009 484.666 87.009Z" fill="#202131"/>
<path d="M483.66 86.824C483.617 86.6446 483.731 86.0723 484.269 85.7462C485.22 85.1753 486.123 86.3001 486.218 87.3266C486.278 87.973 486.163 88.5113 485.833 89.0922C485.398 89.8582 484.678 90.1629 484.097 89.4609" fill="#FAC1B9"/>
<path d="M477.6 78.1503C476.784 78.0535 476.292 77.1707 476.434 76.4018C476.578 75.6316 477.196 74.998 477.885 74.548C478.219 74.3288 478.581 74.1408 478.968 74.0298C479.551 73.8632 480.17 73.8774 480.762 73.9685C481.473 74.0767 482.2 74.3202 482.639 74.8499C483.197 75.5248 483.14 76.5513 482.637 77.2946C482.136 78.0364 481.262 78.5119 480.361 78.7141" fill="#202131"/>
<path d="M479.704 122.658C471.61 143.525 449.867 166.037 449.867 166.037L442.781 160.669C442.781 160.669 457.934 139.41 464.734 117.752" fill="#FAC1B9"/>
<path d="M444.59 158.284C442.755 160.966 436.076 167.922 436.409 168.494C436.742 169.067 439.127 166.649 439.306 167.167C439.487 167.684 436.089 171.636 436.584 172.125C437.258 172.787 440.507 168.565 440.507 168.565C440.507 168.565 437.195 173.356 437.957 173.772C438.495 174.067 441.203 170.52 442.42 169.286C441.283 170.781 439.749 173.406 440.316 173.701C440.878 173.994 442.776 171.617 444.334 169.867C443.471 171.044 442.023 173.264 442.533 173.56C443.043 173.855 448.09 168.373 452.625 163.038" fill="#FAC1B9"/>
<path d="M440.429 167.358C440.439 167.355 441.226 167.171 442.166 166.86C443.111 166.539 444.192 166.126 444.885 165.537L444.185 164.73C443.749 165.12 442.717 165.558 441.83 165.846C441.385 165.994 440.971 166.112 440.671 166.193C440.369 166.274 440.187 166.317 440.187 166.317L440.429 167.358Z" fill="#E98073"/>
<path d="M477.697 99.3026C468.418 102.164 463.98 118.424 463.98 118.424L474.265 122.815L478.823 101.794" fill="#EF373F"/>
<path d="M477.697 99.3025C480.361 99.7909 481.004 99.808 482.891 99.21C486.287 98.135 488.874 96.4079 488.874 96.4079C488.874 96.4079 498.598 95.938 508.074 105.942C512.923 111.06 521.021 125.636 525.835 145.108C507.768 150.95 481.45 154.586 481.45 154.586C481.45 154.586 471.879 117.752 472.229 106.823C472.348 103.154 477.697 99.3025 477.697 99.3025Z" fill="#EF373F"/>
<path d="M488.617 94.1255L482.454 99.3466L486.395 104.479L490.483 96.4036L488.617 94.1255Z" fill="white"/>
<path d="M482.454 99.3466L478.964 96.6101L477.697 99.3025L479.575 104.971L482.454 99.3466Z" fill="white"/>
<path d="M474.394 122.254C473.846 119.513 473.434 117.154 473.161 115.483C472.886 113.811 472.749 112.832 472.749 112.829L471.691 112.975C471.693 112.982 472.245 116.952 473.347 122.464L474.394 122.254Z" fill="#D81B36"/>
<path d="M450.677 354.418H363.685C363.685 354.418 367.291 409.83 350.067 409.83C355.578 409.83 458.784 409.83 464.294 409.83C447.07 409.83 450.677 354.418 450.677 354.418Z" fill="#BDBEE5"/>
<path d="M362.698 387.727L450.398 369.958C450.239 361.172 450.677 354.419 450.677 354.419H363.685C363.685 354.419 364.847 372.285 362.698 387.727Z" fill="#8789CD"/>
<path d="M573.814 371.125H240.548C236.171 371.125 232.623 367.577 232.623 363.2V149.96C232.623 145.583 236.171 142.035 240.548 142.035H573.814C578.191 142.035 581.739 145.583 581.739 149.96V363.2C581.739 367.577 578.191 371.125 573.814 371.125Z" fill="#BDBEE5"/>
<path d="M568.249 363.005H246.113C244.077 363.005 242.427 361.355 242.427 359.319V153.841C242.427 151.805 244.077 150.155 246.113 150.155H568.249C570.285 150.155 571.935 151.805 571.935 153.841V359.319C571.935 361.355 570.285 363.005 568.249 363.005Z" fill="white"/>
<path d="M568.249 363.005V362.293H246.113C244.47 362.291 243.142 360.962 243.139 359.319V153.841C243.142 152.198 244.47 150.87 246.113 150.867H568.249C569.892 150.87 571.22 152.198 571.223 153.841V359.319C571.22 360.962 569.892 362.291 568.249 362.293V363.005V363.717C570.678 363.717 572.647 361.748 572.647 359.319V153.841C572.647 151.412 570.678 149.443 568.249 149.443H246.113C243.684 149.443 241.715 151.412 241.715 153.841V359.319C241.715 361.748 243.684 363.717 246.113 363.717H568.249V363.005Z" fill="#8789CD"/>
<path d="M242.427 177.713H571.935V176.29H242.427V177.713Z" fill="#8789CD"/>
<path d="M532.363 168.641H305.354C302.244 168.641 299.723 166.119 299.723 163.008C299.723 159.897 302.244 157.376 305.354 157.376H532.363C535.474 157.376 537.995 159.897 537.995 163.008C537.995 166.119 535.474 168.641 532.363 168.641Z" fill="#EAE9F6"/>
<path d="M258.597 163.286C258.597 164.946 257.252 166.292 255.593 166.292C253.933 166.292 252.587 164.946 252.587 163.286C252.587 161.627 253.933 160.282 255.593 160.282C257.252 160.282 258.597 161.627 258.597 163.286Z" fill="white"/>
<path d="M258.597 163.286H257.885C257.883 164.553 256.859 165.577 255.593 165.58C254.326 165.577 253.302 164.553 253.299 163.286C253.302 162.02 254.326 160.996 255.593 160.994C256.859 160.996 257.883 162.02 257.885 163.286H258.597H259.309C259.308 161.233 257.645 159.57 255.593 159.57C253.54 159.57 251.875 161.233 251.875 163.286C251.875 165.339 253.54 167.002 255.593 167.003C257.645 167.002 259.308 165.339 259.309 163.286H258.597Z" fill="#8789CD"/>
<path d="M272.621 163.286C272.621 164.946 271.275 166.292 269.615 166.292C267.956 166.292 266.611 164.946 266.611 163.286C266.611 161.627 267.956 160.282 269.615 160.282C271.275 160.282 272.621 161.627 272.621 163.286Z" fill="white"/>
<path d="M272.62 163.286H271.908C271.906 164.553 270.88 165.577 269.615 165.58C268.349 165.577 267.325 164.553 267.322 163.286C267.325 162.02 268.349 160.996 269.615 160.994C270.88 160.996 271.906 162.02 271.908 163.286H272.62H273.332C273.331 161.233 271.668 159.57 269.615 159.57C267.563 159.57 265.898 161.233 265.898 163.286C265.898 165.339 267.563 167.002 269.615 167.003C271.668 167.002 273.331 165.339 273.332 163.286H272.62Z" fill="#8789CD"/>
<path d="M286.644 163.286C286.644 164.946 285.298 166.292 283.638 166.292C281.979 166.292 280.634 164.946 280.634 163.286C280.634 161.627 281.979 160.282 283.638 160.282C285.298 160.282 286.644 161.627 286.644 163.286Z" fill="white"/>
<path d="M286.644 163.286H285.932C285.929 164.553 284.904 165.577 283.638 165.58C282.372 165.577 281.347 164.553 281.346 163.286C281.347 162.02 282.372 160.996 283.638 160.994C284.904 160.996 285.929 162.02 285.932 163.286H286.644H287.356C287.354 161.233 285.691 159.57 283.638 159.57C281.585 159.57 279.922 161.233 279.922 163.286C279.922 165.339 281.585 167.002 283.638 167.003C285.691 167.002 287.354 165.339 287.356 163.286H286.644Z" fill="#8789CD"/>
<path d="M499.148 254.127V253.059H315.214C312.022 253.059 309.141 251.767 307.048 249.676C304.957 247.583 303.665 244.703 303.665 241.51C303.665 238.318 304.957 235.438 307.048 233.345C309.141 231.253 312.022 229.963 315.214 229.962H499.148C502.34 229.963 505.221 231.253 507.314 233.345C509.405 235.438 510.697 238.318 510.697 241.51C510.697 244.703 509.405 247.583 507.314 249.676C505.221 251.767 502.34 253.059 499.148 253.059V254.127V255.195C506.706 255.193 512.831 249.068 512.832 241.51C512.831 233.953 506.706 227.827 499.148 227.826H315.214C307.656 227.827 301.531 233.953 301.53 241.51C301.531 249.068 307.656 255.193 315.214 255.195H499.148V254.127Z" fill="#4C72C1"/>
<path d="M499.148 228.894H477.976V254.126H499.148C506.116 254.126 511.764 248.478 511.764 241.51C511.764 234.542 506.116 228.894 499.148 228.894Z" fill="#4C72C1"/>
<path d="M498.113 239.497C498.113 242.092 496 244.205 493.405 244.205C490.807 244.205 488.695 242.092 488.695 239.497C488.695 236.9 490.807 234.788 493.405 234.788C496 234.788 498.113 236.9 498.113 239.497ZM502.834 247.597L498.658 243.419C499.503 242.29 499.964 240.911 499.964 239.497C499.964 235.88 497.021 232.937 493.405 232.937C489.788 232.937 486.845 235.88 486.845 239.497C486.845 243.113 489.788 246.056 493.405 246.056C494.454 246.056 495.493 245.799 496.429 245.31L500.774 249.657C501.05 249.932 501.415 250.083 501.804 250.083C502.192 250.083 502.558 249.932 502.834 249.657C503.109 249.382 503.26 249.016 503.26 248.626C503.26 248.238 503.109 247.872 502.834 247.597Z" fill="white"/>
<path d="M479.83 416.335H334.532V408.248H479.83V416.335Z" fill="#BDBEE5"/>
<path d="M347.333 278.49H382.032V276.354H347.333V278.49Z" fill="#4C72C1"/>
<path d="M411.416 278.49H460.331V276.354H411.416V278.49Z" fill="#4C72C1"/>
<path d="M507.394 187.881H520.725V186.457H507.394V187.881Z" fill="#8789CD"/>
<path d="M527.18 187.881H540.511V186.457H527.18V187.881Z" fill="#8789CD"/>
<path d="M564.067 187.169C564.067 189.679 562.031 191.715 559.521 191.715C557.009 191.715 554.974 189.679 554.974 187.169C554.974 184.657 557.009 182.622 559.521 182.622C562.031 182.622 564.067 184.657 564.067 187.169Z" fill="#F8F8FC"/>
<path d="M564.021 157.376C564.021 158.031 563.49 158.562 562.835 158.562C562.18 158.562 561.649 158.031 561.649 157.376C561.649 156.721 562.18 156.19 562.835 156.19C563.49 156.19 564.021 156.721 564.021 157.376Z" fill="#8789CD"/>
<path d="M564.021 163.008C564.021 163.663 563.49 164.194 562.835 164.194C562.18 164.194 561.649 163.663 561.649 163.008C561.649 162.353 562.18 161.822 562.835 161.822C563.49 161.822 564.021 162.353 564.021 163.008Z" fill="#8789CD"/>
<path d="M564.021 168.641C564.021 169.296 563.49 169.827 562.835 169.827C562.18 169.827 561.649 169.296 561.649 168.641C561.649 167.985 562.18 167.455 562.835 167.455C563.49 167.455 564.021 167.985 564.021 168.641Z" fill="#8789CD"/>
<path d="M385.98 409.394H460.33V407.97H385.98V409.394Z" fill="#8789CD"/>
<path d="M353.366 409.394H377.639V407.97H353.366V409.394Z" fill="#8789CD"/>
<path d="M440.703 342.296H270.009C267.115 342.296 264.768 339.949 264.768 337.055V336.426H430.126V335.714V336.426C433.413 336.426 436.077 333.762 436.079 330.473V322.469H445.944V337.055C445.944 339.949 443.598 342.296 440.703 342.296Z" fill="#F8F8FC"/>
<path d="M430.126 335.714H259.43C256.536 335.714 254.191 333.367 254.191 330.473V212.966C254.191 210.072 256.536 207.725 259.43 207.725H430.126C433.02 207.725 435.367 210.072 435.367 212.966V330.473C435.367 333.367 433.02 335.714 430.126 335.714Z" fill="white"/>
<path d="M430.126 335.713V335.001H259.43C256.93 334.997 254.907 332.974 254.901 330.472V212.966C254.907 210.465 256.93 208.441 259.43 208.437H430.126C432.626 208.441 434.65 210.465 434.655 212.966V330.472C434.65 332.974 432.627 334.997 430.126 335.001V335.713V336.425C433.413 336.425 436.077 333.761 436.079 330.472V212.966C436.077 209.679 433.413 207.013 430.126 207.013H259.43C256.142 207.013 253.479 209.677 253.479 212.966V330.472C253.479 333.761 256.142 336.425 259.43 336.425H430.126V335.713Z" fill="#8789CD"/>
<path d="M430.405 207.726H259.151C256.412 207.726 254.191 209.947 254.191 212.687V220.889H435.367V212.687C435.367 209.947 433.146 207.726 430.405 207.726Z" fill="#8789CD"/>
<path d="M417.38 298.621H273.678C272.329 298.621 271.234 297.526 271.234 296.175C271.234 294.825 272.329 293.73 273.678 293.73H417.38C418.731 293.73 419.826 294.825 419.826 296.175C419.826 297.526 418.731 298.621 417.38 298.621Z" fill="#F8F8FC"/>
<path d="M417.38 307.139H273.678C272.329 307.139 271.234 306.044 271.234 304.694C271.234 303.345 272.329 302.25 273.678 302.25H417.38C418.731 302.25 419.826 303.345 419.826 304.694C419.826 306.044 418.731 307.139 417.38 307.139Z" fill="#F8F8FC"/>
<path d="M417.38 315.641H273.678C272.329 315.641 271.234 314.547 271.234 313.196C271.234 311.846 272.329 310.751 273.678 310.751H417.38C418.731 310.751 419.826 311.846 419.826 313.196C419.826 314.547 418.731 315.641 417.38 315.641Z" fill="#F8F8FC"/>
<path d="M417.38 324.144H273.678C272.329 324.144 271.234 323.049 271.234 321.699C271.234 320.348 272.329 319.255 273.678 319.255H417.38C418.731 319.255 419.826 320.348 419.826 321.699C419.826 323.049 418.731 324.144 417.38 324.144Z" fill="#F8F8FC"/>
<path d="M417.38 290.101H273.678C272.329 290.101 271.234 289.006 271.234 287.656C271.234 286.306 272.329 285.211 273.678 285.211H417.38C418.731 285.211 419.826 286.306 419.826 287.656C419.826 289.006 418.731 290.101 417.38 290.101Z" fill="#F8F8FC"/>
<path d="M289.148 249.024V229.462C295.953 229.462 301.947 232.938 305.449 238.21L289.148 249.024Z" fill="#CFCFEC"/>
<path d="M304.043 241.1L287.746 251.911V232.351C276.942 232.351 268.184 241.109 268.184 251.911C268.184 262.715 276.942 271.473 287.746 271.473C298.548 271.473 307.306 262.715 307.306 251.911C307.306 247.913 306.101 244.198 304.043 241.1Z" fill="#EAE9F6"/>
<path d="M401.812 232.351V251.911L386.259 263.743C389.833 268.432 395.46 271.473 401.812 271.473C412.614 271.473 421.372 262.715 421.372 251.911C421.372 241.109 412.614 232.351 401.812 232.351Z" fill="#EAE9F6"/>
<path d="M359.574 262.755C362.115 259.456 363.639 255.336 363.639 250.851C363.639 240.047 354.883 231.289 344.079 231.289V250.851L359.574 262.755Z" fill="#BDBEE5"/>
<path d="M357.393 263.817L341.896 251.911V232.351C331.094 232.351 322.336 241.109 322.336 251.911C322.336 262.715 331.094 271.473 341.896 271.473C348.215 271.473 353.816 268.464 357.393 263.816V263.817Z" fill="#EAE9F6"/>
<path d="M380.396 250.888C380.396 255.34 381.901 259.43 384.407 262.718L399.958 250.888V231.326C389.154 231.326 380.396 240.084 380.396 250.888Z" fill="#BDBEE5"/>
<path d="M557.117 322.469H445.944V281.973H467.489C470.841 281.973 473.558 279.256 473.558 275.905C473.558 272.553 470.841 269.836 467.489 269.836H445.944V255.194H499.148V254.126V255.194C506.706 255.193 512.831 249.067 512.832 241.51C512.831 233.952 506.706 227.827 499.148 227.825H445.944V219.547C445.944 216.653 443.598 214.306 440.703 214.306H436.079V212.966C436.077 209.679 433.413 207.014 430.126 207.014H363.726V181.848C363.726 180.224 364.398 178.759 365.477 177.713H561.127C562.207 178.759 562.878 180.226 562.878 181.848V184.103C562.046 183.193 560.85 182.622 559.521 182.622C557.009 182.622 554.974 184.657 554.974 187.168C554.974 189.679 557.009 191.715 559.521 191.715C560.85 191.715 562.046 191.144 562.878 190.234V316.708C562.878 319.889 560.299 322.469 557.117 322.469ZM550.316 188.985V190.779H552.11V188.985H550.316ZM547.814 188.985V190.779H549.608V188.985H547.814ZM545.311 188.985V190.779H547.105V188.985H545.311ZM550.316 186.271V188.065H552.11V186.271H550.316ZM547.814 186.271V188.065H549.608V186.271H547.814ZM545.311 186.271V188.065H547.105V186.271H545.311ZM527.18 187.168V187.88H540.511V186.456H527.18V187.168ZM507.393 187.168V187.88H520.724V186.456H507.393V187.168ZM550.316 183.558V185.35H552.11V183.558H550.316ZM547.814 183.558V185.35H549.608V183.558H547.814ZM545.311 183.558V185.35H547.105V183.558H545.311ZM477.976 253.058H445.944V229.961H477.976V253.058ZM558.632 176.289H367.972C368.455 176.157 368.963 176.087 369.487 176.087H557.117C557.641 176.087 558.149 176.157 558.632 176.289Z" fill="#F8F8FC"/>
<path d="M561.127 177.713H365.478C366.165 177.046 367.02 176.547 367.972 176.29H558.632C559.585 176.547 560.439 177.046 561.127 177.713Z" fill="#8183CA"/>
<path d="M499.148 255.195H445.944V253.059H477.976V254.127H499.148V255.195ZM499.148 255.195V254.127C506.116 254.127 511.764 248.478 511.764 241.51C511.764 234.542 506.116 228.894 499.148 228.894H477.976V229.962H445.944V227.826H499.148C506.706 227.827 512.831 233.953 512.832 241.51C512.831 249.068 506.706 255.193 499.148 255.195Z" fill="#4B6FBF"/>
<path d="M499.148 254.126H477.976V228.894H499.148C506.116 228.894 511.764 234.542 511.764 241.51C511.764 248.478 506.116 254.126 499.148 254.126ZM496.428 245.31L500.774 249.657C501.05 249.932 501.415 250.083 501.803 250.083C502.192 250.083 502.558 249.932 502.834 249.657C503.109 249.382 503.26 249.016 503.26 248.626C503.26 248.238 503.109 247.872 502.834 247.597L498.658 243.419C499.502 242.29 499.964 240.911 499.964 239.497C499.964 235.88 497.021 232.937 493.404 232.937C489.788 232.937 486.845 235.88 486.845 239.497C486.845 243.113 489.788 246.056 493.404 246.056C494.454 246.056 495.493 245.799 496.428 245.31ZM493.404 244.205C490.807 244.205 488.694 242.092 488.694 239.497C488.694 236.9 490.807 234.788 493.404 234.788C496 234.788 498.113 236.9 498.113 239.497C498.113 242.092 496 244.205 493.404 244.205Z" fill="#4B6FBF"/>
<path d="M501.804 250.083C501.415 250.083 501.05 249.932 500.774 249.657L496.429 245.31C495.493 245.799 494.454 246.056 493.405 246.056C489.788 246.056 486.845 243.113 486.845 239.497C486.845 235.88 489.788 232.937 493.405 232.937C497.021 232.937 499.964 235.88 499.964 239.497C499.964 240.911 499.503 242.29 498.658 243.419L502.834 247.597C503.109 247.872 503.26 248.238 503.26 248.626C503.26 249.016 503.109 249.382 502.834 249.657C502.558 249.932 502.192 250.083 501.804 250.083ZM493.405 234.788C490.807 234.788 488.695 236.9 488.695 239.497C488.695 242.092 490.807 244.205 493.405 244.205C496 244.205 498.113 242.092 498.113 239.497C498.113 236.9 496 234.788 493.405 234.788Z" fill="#F8F8FC"/>
<path d="M467.489 281.974H445.944V278.49H460.33V276.354H445.944V269.837H467.489C470.841 269.837 473.558 272.554 473.558 275.905C473.558 279.257 470.841 281.974 467.489 281.974Z" fill="#E4EAF8"/>
<path d="M445.944 278.49H460.33V276.354H445.944V278.49Z" fill="#4B6FBF"/>
<path d="M520.725 187.881H507.394V186.457H520.725V187.881Z" fill="#8183CA"/>
<path d="M540.511 187.881H527.18V186.457H540.511V187.881Z" fill="#8183CA"/>
<path d="M545.311 185.351H547.105V183.558H545.311V185.351Z" fill="#F2F1FA"/>
<path d="M547.814 185.351H549.608V183.558H547.814V185.351Z" fill="#F2F1FA"/>
<path d="M550.316 185.351H552.11V183.558H550.316V185.351Z" fill="#F2F1FA"/>
<path d="M545.311 188.066H547.105V186.272H545.311V188.066Z" fill="#F2F1FA"/>
<path d="M547.814 188.066H549.608V186.272H547.814V188.066Z" fill="#F2F1FA"/>
<path d="M550.316 188.066H552.11V186.272H550.316V188.066Z" fill="#F2F1FA"/>
<path d="M545.311 190.78H547.105V188.985H545.311V190.78Z" fill="#F2F1FA"/>
<path d="M547.814 190.78H549.608V188.985H547.814V190.78Z" fill="#F2F1FA"/>
<path d="M550.316 190.78H552.11V188.985H550.316V190.78Z" fill="#F2F1FA"/>
<path d="M559.521 191.715C557.009 191.715 554.974 189.679 554.974 187.169C554.974 184.657 557.009 182.622 559.521 182.622C560.85 182.622 562.046 183.193 562.878 184.103V190.234C562.046 191.144 560.85 191.715 559.521 191.715Z" fill="#EFEEF9"/>
<path d="M436.079 322.469H445.944V281.973H436.079V322.469Z" fill="#EFEEF9"/>
<path d="M436.079 281.974H445.944V278.49H436.079V281.974Z" fill="#DCE1F4"/>
<path d="M445.944 269.837H436.079V255.194H445.944V269.837ZM445.944 253.059H436.079V229.962H445.944V253.059ZM445.944 227.826H436.079V214.307H440.703C443.598 214.307 445.944 216.653 445.944 219.548V227.826Z" fill="#EFEEF9"/>
<path d="M445.944 255.195H436.079V253.059H445.944V255.195ZM445.944 229.962H436.079V227.826H445.944V229.962Z" fill="#4A6BBD"/>
<path d="M436.079 276.354H445.944V269.837H436.079V276.354Z" fill="#DCE1F4"/>
<path d="M436.079 278.49H445.944V276.354H436.079V278.49Z" fill="#4A6BBD"/>
<path d="M434.655 322.469H419.702C419.782 322.227 419.826 321.968 419.826 321.699C419.826 320.348 418.731 319.254 417.38 319.254H364.318C363.94 318.485 363.726 317.621 363.726 316.708V315.641H417.38C418.731 315.641 419.826 314.547 419.826 313.196C419.826 311.846 418.731 310.751 417.38 310.751H363.726V307.139H417.38C418.731 307.139 419.826 306.044 419.826 304.694C419.826 303.345 418.731 302.25 417.38 302.25H363.726V298.62H417.38C418.731 298.62 419.826 297.525 419.826 296.174C419.826 294.824 418.731 293.73 417.38 293.73H363.726V290.1H417.38C418.731 290.1 419.826 289.005 419.826 287.656C419.826 286.306 418.731 285.211 417.38 285.211H363.726V220.889H434.655V322.469ZM386.259 263.743C389.833 268.431 395.46 271.472 401.812 271.472C412.614 271.472 421.372 262.715 421.372 251.911C421.372 241.108 412.614 232.35 401.812 232.35V251.911L386.259 263.743ZM399.958 231.325C389.154 231.325 380.396 240.083 380.396 250.887C380.396 255.339 381.901 259.43 384.407 262.717L399.958 250.887V231.325Z" fill="#F8F8FC"/>
<path d="M436.079 322.469H434.655V220.889H435.367V212.686C435.367 209.947 433.146 207.725 430.405 207.725H363.726V207.013H430.126C433.413 207.013 436.077 209.679 436.079 212.966V214.306V227.825V229.961V253.058V255.194V269.836V276.353V278.489V281.973V322.469Z" fill="#8183CA"/>
<path d="M435.367 220.889H363.726V207.726H430.405C433.146 207.726 435.367 209.947 435.367 212.687V220.889Z" fill="#8183CA"/>
<path d="M417.38 298.621H363.726V293.73H417.38C418.731 293.73 419.826 294.825 419.826 296.175C419.826 297.526 418.731 298.621 417.38 298.621Z" fill="#EFEEF9"/>
<path d="M417.38 307.139H363.726V302.25H417.38C418.731 302.25 419.826 303.345 419.826 304.694C419.826 306.044 418.731 307.139 417.38 307.139Z" fill="#EFEEF9"/>
<path d="M417.38 315.641H363.726V310.751H417.38C418.731 310.751 419.826 311.846 419.826 313.196C419.826 314.547 418.731 315.641 417.38 315.641Z" fill="#EFEEF9"/>
<path d="M419.702 322.469H369.487C367.22 322.469 365.258 321.158 364.319 319.254H417.38C418.731 319.254 419.826 320.348 419.826 321.699C419.826 321.968 419.782 322.227 419.702 322.469Z" fill="#EFEEF9"/>
<path d="M417.38 290.101H363.726V285.211H417.38C418.731 285.211 419.826 286.306 419.826 287.656C419.826 289.006 418.731 290.101 417.38 290.101Z" fill="#EFEEF9"/>
<path d="M401.812 271.473C395.46 271.473 389.833 268.432 386.259 263.743L401.812 251.911V232.351C412.614 232.351 421.372 241.109 421.372 251.911C421.372 262.715 412.614 271.473 401.812 271.473Z" fill="#E2E0F3"/>
<path d="M384.407 262.718C381.901 259.43 380.396 255.34 380.396 250.888C380.396 240.084 389.154 231.326 399.958 231.326V250.888L384.407 262.718Z" fill="#B6B6E2"/>
<path d="M545.49 315.235H357.86C354.679 315.235 352.099 312.655 352.099 309.475V174.614C352.099 171.433 354.679 168.853 357.86 168.853H545.49C548.671 168.853 551.251 171.433 551.251 174.614V309.475C551.251 312.655 548.671 315.235 545.49 315.235Z" fill="white"/>
<path d="M545.49 315.235V314.523H357.86C355.072 314.517 352.817 312.262 352.811 309.474V174.613C352.817 171.825 355.072 169.57 357.86 169.564H545.49C548.278 169.57 550.534 171.825 550.539 174.613V309.474C550.534 312.262 548.278 314.517 545.49 314.523V315.235V315.947C549.066 315.945 551.962 313.049 551.963 309.474V174.613C551.962 171.038 549.066 168.142 545.49 168.141H357.86C354.285 168.142 351.387 171.038 351.387 174.613V309.474C351.387 313.049 354.285 315.945 357.86 315.947H545.49V315.235Z" fill="#8789CD"/>
<path d="M545.798 168.853H357.552C354.541 168.853 352.099 171.295 352.099 174.306V183.322H551.251V174.306C551.251 171.295 548.809 168.853 545.798 168.853Z" fill="#8789CD"/>
<path d="M518.506 219.538H505.178V210.152H518.506V219.538Z" fill="#DAD9F0"/>
<path d="M524.631 210.864H533.845V209.44H524.631V210.864Z" fill="#DAD9F0"/>
<path d="M524.631 220.25H543.265V218.826H524.631V220.25Z" fill="#DAD9F0"/>
<path d="M524.631 217.23H543.265V215.806H524.631V217.23Z" fill="#DAD9F0"/>
<path d="M524.631 214.288H543.265V212.864H524.631V214.288Z" fill="#DAD9F0"/>
<path d="M518.506 239.171H505.178V229.785H518.506V239.171Z" fill="#DAD9F0"/>
<path d="M524.631 230.497H533.845V229.073H524.631V230.497Z" fill="#DAD9F0"/>
<path d="M524.631 239.883H543.265V238.459H524.631V239.883Z" fill="#DAD9F0"/>
<path d="M524.631 236.863H543.265V235.439H524.631V236.863Z" fill="#DAD9F0"/>
<path d="M524.631 233.921H543.265V232.497H524.631V233.921Z" fill="#DAD9F0"/>
<path d="M518.506 258.802H505.178V249.417H518.506V258.802Z" fill="#DAD9F0"/>
<path d="M524.631 250.129H533.845V248.705H524.631V250.129Z" fill="#DAD9F0"/>
<path d="M524.631 259.514H543.265V258.09H524.631V259.514Z" fill="#DAD9F0"/>
<path d="M524.631 256.494H543.265V255.07H524.631V256.494Z" fill="#DAD9F0"/>
<path d="M524.631 253.554H543.265V252.131H524.631V253.554Z" fill="#DAD9F0"/>
<path d="M518.506 278.435H505.178V269.05H518.506V278.435Z" fill="#DAD9F0"/>
<path d="M524.631 269.762H533.845V268.338H524.631V269.762Z" fill="#DAD9F0"/>
<path d="M524.631 279.147H543.265V277.723H524.631V279.147Z" fill="#DAD9F0"/>
<path d="M524.631 276.128H543.265V274.704H524.631V276.128Z" fill="#DAD9F0"/>
<path d="M524.631 273.188H543.265V271.764H524.631V273.188Z" fill="#DAD9F0"/>
<path d="M518.506 298.068H505.178V288.683H518.506V298.068Z" fill="#DAD9F0"/>
<path d="M524.631 289.395H533.845V287.971H524.631V289.395Z" fill="#DAD9F0"/>
<path d="M524.631 298.78H543.265V297.356H524.631V298.78Z" fill="#DAD9F0"/>
<path d="M524.631 295.761H543.265V294.337H524.631V295.761Z" fill="#DAD9F0"/>
<path d="M524.631 292.819H543.265V291.395H524.631V292.819Z" fill="#DAD9F0"/>
<path d="M394.019 196.019H509.33V193.172H394.019V196.019Z" fill="#F8F8FC"/>
<path d="M409.798 201.875H493.551V199.028H409.798V201.875Z" fill="#F8F8FC"/>
<path d="M411.296 246.956V296.578H421.258V239.713L411.296 246.956Z" fill="#BDBEE5"/>
<path d="M397.975 256.641L392.994 253.455V296.578H402.955V253.02L397.975 256.641Z" fill="#BDBEE5"/>
<path d="M379.672 244.933L374.691 248.11V296.578H384.654V248.12L379.672 244.933Z" fill="#BDBEE5"/>
<path d="M466.204 235.379V296.578H476.165V229.442L466.204 235.379Z" fill="#BDBEE5"/>
<path d="M434.579 230.029L429.599 233.649V296.578H439.56V233.645L434.579 230.029Z" fill="#BDBEE5"/>
<path d="M452.882 243.317L447.901 239.7V296.578H457.863V240.35L452.882 243.317Z" fill="#BDBEE5"/>
<path d="M362.734 244.164V297.29H496.171V295.866H364.157V244.164H362.734Z" fill="#DAD9F0"/>
<path d="M361.667 246.034L363.445 244.712L365.224 246.034L366.074 244.892L363.445 242.938L360.817 244.892L361.667 246.034Z" fill="#DAD9F0"/>
<path d="M494.188 295.511L495.621 296.577L494.188 297.642L495.037 298.786L498.009 296.577L495.037 294.369L494.188 295.511Z" fill="#DAD9F0"/>
<path d="M366.357 250.566L379.671 242.074L398 253.799L434.579 227.205L452.844 240.466L488.825 219.024L488.096 217.801L452.921 238.762L434.579 225.445L397.949 252.076L379.673 240.385L365.591 249.364L366.357 250.566Z" fill="#DAD9F0"/>
<path d="M483.902 218.327L487.362 218.913L486.442 222.421L487.819 222.782L489.134 217.766L484.138 216.923L483.902 218.327Z" fill="#DAD9F0"/>
<path d="M374.691 304.487H384.356V303.063H374.691V304.487Z" fill="#DAD9F0"/>
<path d="M393.142 304.487H402.807V303.063H393.142V304.487Z" fill="#DAD9F0"/>
<path d="M411.593 304.487H421.259V303.063H411.593V304.487Z" fill="#DAD9F0"/>
<path d="M430.045 304.487H439.709V303.063H430.045V304.487Z" fill="#DAD9F0"/>
<path d="M448.496 304.487H458.16V303.063H448.496V304.487Z" fill="#DAD9F0"/>
<path d="M466.947 304.487H476.612V303.063H466.947V304.487Z" fill="#DAD9F0"/>
<path d="M88.8301 417.046H725.532V415.623H88.8301V417.046Z" fill="#8789CD"/>
<path d="M714.742 189.883C714.742 197.745 708.369 204.118 700.507 204.118C692.644 204.118 686.271 197.745 686.271 189.883C686.271 182.02 692.644 175.647 700.507 175.647C708.369 175.647 714.742 182.02 714.742 189.883Z" fill="white"/>
<path d="M714.742 189.882H714.03C714.029 193.62 712.517 196.996 710.069 199.445C707.619 201.894 704.243 203.406 700.507 203.406C696.769 203.406 693.394 201.894 690.943 199.445C688.496 196.996 686.983 193.62 686.982 189.882C686.983 186.146 688.496 182.769 690.943 180.32C693.394 177.871 696.769 176.359 700.507 176.359C704.243 176.359 707.619 177.871 710.069 180.32C712.517 182.769 714.029 186.146 714.03 189.882H714.742H715.454C715.453 181.627 708.762 174.935 700.507 174.935C692.25 174.935 685.56 181.627 685.56 189.882C685.56 198.138 692.25 204.83 700.507 204.83C708.762 204.83 715.453 198.138 715.454 189.882H714.742Z" fill="#D3D0ED"/>
<path d="M309.537 388.678C309.537 388.678 258.642 383.723 255.576 397.319C250.934 417.898 319.971 417.898 319.971 417.898L325.917 404.078L297.624 393.001" fill="#282D6B"/>
<path d="M308.062 421.11L294.005 420.603C294.005 420.603 291.761 419.89 290.34 415.682C288.919 411.473 289.494 411.095 289.494 411.095L305.879 409.261" fill="#FAC1B9"/>
<path d="M325.917 386.919C325.917 386.919 364.838 389.275 363.199 406.967C361.562 424.66 303.539 423.247 303.539 423.247L299.348 405.686C299.348 405.686 329.334 399.105 342.037 399.105" fill="#282D6B"/>
<path d="M323.307 385.032L353.153 400.752C353.153 400.752 330.859 413.414 309.537 408.169C288.216 402.924 284.961 393.346 284.961 393.346L323.307 385.032Z" fill="#282D6B"/>
<path d="M294.967 410.289C294.967 410.289 294.808 411.045 295.254 411.491C295.699 411.935 296.647 411.265 297.675 412.293C298.627 413.244 299.111 417.277 298.721 418.07C298.332 418.863 297.443 418.753 297.498 419.248C297.613 420.305 298.856 420.778 298.856 420.778C298.856 420.778 295.739 421.223 291.641 421.517C284.344 422.043 282.143 421.96 279.466 421.517C277.284 421.157 274.709 417.102 277.49 414.323C281.666 410.147 290.797 410.427 290.797 410.427L294.967 410.289Z" fill="#151A34"/>
<path d="M300.179 408.87C300.18 408.87 300.593 408.713 301.352 408.434C306.657 406.485 328.83 398.624 342.071 397.769L342.002 396.704C334.265 397.21 323.74 400.003 315.12 402.667C306.503 405.331 299.807 407.869 299.8 407.871L300.179 408.87Z" fill="#3A47A4"/>
<path d="M305.902 405.886C305.892 405.88 300.828 402.859 294.126 399.715C287.42 396.573 279.1 393.3 272.472 392.813L272.396 393.878C278.75 394.333 287.027 397.56 293.673 400.682C296.998 402.241 299.921 403.773 302.012 404.916C303.057 405.484 303.893 405.957 304.468 406.288C305.044 406.618 305.354 406.802 305.355 406.803L305.902 405.886Z" fill="#3A47A4"/>
<path d="M313.873 321.893C313.873 321.893 310.337 331.065 313.242 334.133C314.751 335.729 319.302 336.1 321.274 334.593C322.737 333.476 325.021 326.413 324.232 325.151C321.218 320.324 313.873 321.893 313.873 321.893Z" fill="#FAC1B9"/>
<path d="M325.385 330.94L326.03 340.924C326.03 340.924 319.63 345.943 314.384 340.31L315.497 333.81L325.385 330.94Z" fill="#FAC1B9"/>
<path d="M327.738 329.046C328.2 326.957 329.533 323.569 328.27 322.247C327.793 321.75 327.157 321.424 326.688 320.919C326.224 320.418 325.955 319.771 325.646 319.162C325.112 318.105 324.414 317.1 323.439 316.43C322.464 315.759 321.177 315.467 320.069 315.886C319.66 316.041 319.281 316.286 318.852 316.364C318.347 316.457 317.833 316.307 317.329 316.206C315.988 315.936 314.581 316.001 313.272 316.395C311.704 316.865 310.193 317.929 309.735 319.499C309.276 321.07 310.324 323.063 311.959 323.137C312.735 323.173 313.596 322.821 314.24 323.255C314.453 323.399 314.607 323.614 314.785 323.804C315.574 324.645 316.895 324.941 317.969 324.515C319.353 323.967 320.04 323.715 320.28 325.397C320.453 326.616 321.343 327.703 322.504 328.115C323.193 328.36 323.982 328.393 324.554 328.847C325.146 329.318 325.348 330.214 325.017 330.893C324.893 331.146 324.705 331.37 324.622 331.639C324.392 332.388 325.025 333.1 325.603 333.626C327.288 331.542 327.441 330.383 327.738 329.046Z" fill="#151A34"/>
<path d="M323.495 329.152C324.409 327.739 325.269 327.869 325.794 328.548C326.497 329.454 325.46 331.572 324.92 331.967C323.828 332.768 322.884 332.784 322.707 331.853" fill="#FAC1B9"/>
<path d="M315.059 336.162C315.638 336.3 316.205 336.359 316.747 336.359C319.699 336.349 321.899 334.684 321.944 334.657L321.305 333.801L321.289 333.813C321.09 333.962 319.121 335.298 316.747 335.291C316.28 335.291 315.798 335.241 315.306 335.124L315.059 336.162Z" fill="#E87365"/>
<path d="M303.496 342.682C303.496 342.682 295.151 344.787 291.98 358.511C290.142 366.47 288.071 374.549 288.071 374.549C288.071 374.549 274.635 376.045 270.244 377.401L271.89 385.032C271.89 385.032 297.826 387.305 303.538 381.594C309.249 375.881 306.913 360.756 306.913 360.756" fill="#EF373F"/>
<path d="M317.901 342.383L327.386 341.107L329.546 341.58C329.546 341.58 312.877 388.596 312.51 388.596C312.143 388.596 306.335 387.641 306.335 387.641L310.659 341.32L312.689 340.508L317.901 342.383Z" fill="white"/>
<path d="M317.099 344.786L316.202 346.99C316.202 346.99 308.987 361.172 308.987 364.552C308.987 367.932 307.827 387.935 308.106 387.935C308.384 387.935 313.302 388.524 313.302 388.524L318.403 367.267L318.638 346.99" fill="#282D6B"/>
<path d="M315.46 342.72C315.126 343.055 315.805 346.593 316.202 346.99C316.599 347.387 318.268 347.36 318.638 346.99C319.008 346.619 320.811 343.31 320.221 342.72C319.632 342.131 316.007 342.173 315.46 342.72Z" fill="#282D6B"/>
<path d="M311.584 375.03C320.194 352.058 329.768 341.58 329.768 341.58C329.768 341.58 340.13 342.557 343.061 347.697C346.726 354.127 342.389 363.147 341.486 375.935C340.583 388.723 339.544 385.461 339.544 385.461C339.544 385.461 326.728 390.344 315.37 390.344C315.37 390.344 302.216 389.95 298.833 388.596C298.833 388.596 298.833 378.269 298.833 370.197C298.833 362.126 296.795 349.176 300.933 344.139C302.748 341.926 310.881 341.319 310.881 341.319L311.584 375.03Z" fill="#EF373F"/>
<path d="M268.234 389.453H307.386L304.323 366.03C304.224 365.275 303.581 364.711 302.821 364.711H266.635C265.766 364.711 265.097 365.475 265.21 366.335L268.234 389.453Z" fill="#8789CD"/>
<path d="M281.992 376.909C282.095 378.39 283.38 379.592 284.861 379.592C286.342 379.592 287.459 378.39 287.356 376.909C287.252 375.428 285.967 374.227 284.487 374.227C283.004 374.227 281.888 375.428 281.992 376.909Z" fill="#BDBEE5"/>
<path d="M325.89 338.729L318.163 341.88L314.654 338.729L312.689 340.508L314.146 345.203L318.071 342.625L320.592 346.633L327.386 341.107L325.89 338.729Z" fill="white"/>
<path d="M331.497 342.117C328.075 351.843 327.482 359.544 327.479 359.575L328.011 359.617V359.083H322.777L325.578 363.582L326.031 363.3L325.787 362.824C325.715 362.86 316.658 367.537 310.997 381.391L311.985 381.795C314.755 375.017 318.343 370.506 321.234 367.69C322.678 366.283 323.948 365.299 324.852 364.67C325.303 364.355 325.663 364.129 325.91 363.982L326.187 363.823L326.274 363.774L326.791 363.509L324.699 360.151H328.505L328.544 359.658C328.544 359.657 328.552 359.545 328.575 359.32C328.73 357.751 329.549 350.867 332.505 342.471L331.497 342.117Z" fill="#A42127"/>
<path d="M307.531 341.93C307.25 344.995 306.48 348.108 305.78 350.446C305.429 351.615 305.096 352.592 304.851 353.274C304.606 353.956 304.453 354.339 304.453 354.34L304.296 354.727L306.648 356.423L303.618 358.137L303.795 358.572C303.795 358.573 303.874 358.769 304.017 359.135C305.016 361.693 309.013 372.511 309.003 379.65C309.003 380.313 308.969 380.943 308.896 381.528L309.957 381.659C310.035 381.022 310.071 380.35 310.071 379.65C310.068 375.367 308.741 370.023 307.424 365.72C306.104 361.423 304.789 358.18 304.784 358.17L304.29 358.371L304.552 358.836L308.624 356.531L305.26 354.105L304.947 354.539L305.442 354.739C305.451 354.713 308.011 348.374 308.594 342.027L307.531 341.93Z" fill="#A42127"/>
<path d="M327.179 340.909L320.821 346.223L318.232 341.848L314.398 344.643L312.94 340.435L311.93 340.784L313.86 346.356L317.91 343.403L320.542 347.848L327.864 341.728L327.179 340.909Z" fill="#F792A0"/>
<path d="M305.029 385.816C303.342 385.705 295.712 385.322 295.708 385.778C295.705 386.216 298.224 386.747 298.091 386.965C297.905 387.274 295.944 387.27 294.846 387.166C293.867 387.074 292.279 387.086 292.184 387.508C292.003 388.308 297.382 388.747 297.382 388.747C297.328 388.989 291.685 387.193 291.465 387.847C291.146 388.791 297.237 390.207 297.399 390.469C297.399 390.469 292.459 387.775 292.224 388.473C291.987 389.171 296.338 391.687 297.812 391.94C296.643 391.504 293.391 388.96 293.22 389.47C293.048 389.978 295.984 391.823 296.484 391.987C300.584 393.324 304.597 393.345 304.597 393.345" fill="#FAC1B9"/>
<path d="M306.695 385.032L303.539 385.394L304.78 395.658L309.133 395.452L306.695 385.032Z" fill="white"/>
<path d="M330.254 360.78C330.254 373.726 329.546 379.278 329.546 379.278C329.546 379.278 318.268 383.235 304.748 384.636C305.539 389.744 306.335 396.246 306.335 396.246C306.335 396.246 332.923 394.338 340.541 388.989C348.768 383.211 349.679 349.374 340.094 344.787" fill="#EF373F"/>
<path d="M307.178 384.621C317.456 382.972 323.313 381.766 326.61 380.969C329.909 380.17 330.642 379.788 330.724 379.748L330.967 379.617L331.001 379.343C331.001 379.331 332.076 370.485 332.076 363.298C332.076 361.897 332.036 360.558 331.937 359.355L330.873 359.442C330.969 360.605 331.008 361.918 331.008 363.298C331.008 366.84 330.742 370.825 330.474 373.919C330.341 375.465 330.208 376.791 330.107 377.728C330.007 378.665 329.941 379.212 329.941 379.213L330.47 379.278L330.218 378.807L330.321 378.998L330.225 378.804L330.218 378.807L330.321 378.998L330.225 378.804C330.167 378.84 326.882 380.383 307.009 383.566L307.178 384.621Z" fill="#A42127"/>
<path d="M191.632 231.144L189.548 241.627C189.548 241.627 195.418 247.57 201.568 242.039L201.498 235.009L191.632 231.144Z" fill="#FAC1B9"/>
<path d="M201.425 221.321C201.425 221.321 207.608 230.773 204.505 234.088C202.892 235.811 197.118 237.37 194.99 235.762C193.409 234.569 190.913 226.993 191.753 225.632C194.964 220.428 201.425 221.321 201.425 221.321Z" fill="#FAC1B9"/>
<path d="M190.586 222.011C191.124 218.453 194.745 217.718 201.479 218.722C202.381 218.856 204.048 218.383 204.395 219.226C204.852 220.333 204.76 222.484 203.612 223.354C202.845 223.935 202.358 224.032 201.405 224.168C200.152 224.346 198.8 225.404 199.338 226.747C199.48 227.097 199.834 227.705 199.553 227.959C199.411 228.088 198.961 228.203 198.784 228.279C198.274 228.497 198.239 229.24 198.502 229.73C198.764 230.218 198.583 230.718 198.848 231.205C199.476 232.36 198.44 234.293 197.255 234.861C196.206 235.364 192.851 236.06 190.569 234.608C188.59 233.349 187.603 230.312 188.051 225.048C188.224 223.029 189.844 221.808 190.586 222.011Z" fill="#151A34"/>
<path d="M200.054 228.296C199.063 226.782 198.141 226.927 197.578 227.661C196.829 228.637 197.957 230.907 198.539 231.33C199.718 232.184 200.732 232.195 200.917 231.193" fill="#FAC1B9"/>
<path d="M201.509 235.449C200.876 235.238 200.417 234.72 200.123 234.229C199.976 233.985 199.871 233.752 199.804 233.584L199.73 233.385L199.71 233.319L199.023 233.513C199.031 233.533 199.169 234.024 199.513 234.596C199.856 235.164 200.413 235.831 201.282 236.124L201.509 235.449Z" fill="#E87365"/>
<path d="M184.65 408.138L181.314 422.196L193.019 426.691L168.456 423.545L170.557 406.682" fill="#FAC1B9"/>
<path d="M182.003 419.404C182.746 419.659 182.207 420.172 183.451 421.669C184.695 423.166 192.057 426.058 195.528 427.103C198.887 428.114 198.159 431.008 197.016 431.008C197.016 431.008 180.294 431.008 178.967 431.008C177.642 431.008 176.678 429.936 175.653 429.936C175.375 429.936 174.8 429.742 174.639 429.942C174.387 430.254 174.411 431.008 174.411 431.008H168.292C167.604 431.008 167.201 430.567 167.248 430.055L167.907 421.37C167.907 421.37 175.379 422.386 177.484 421.771C178.334 421.523 177.443 420.874 177.8 420.516C178.156 420.16 181.26 419.15 182.003 419.404Z" fill="#151A34"/>
<path d="M174.088 311.74C174.998 344.243 167.789 414.461 167.789 414.461L187.718 414.377C187.718 414.377 198.8 366.212 201.532 341.977C203.161 327.538 203.825 311.254 204.087 298.971" fill="#26295E"/>
<path d="M198.663 342.599C197.108 354.551 193.344 372.384 189.969 387.219C188.282 394.638 186.692 401.308 185.523 406.124C184.939 408.532 184.459 410.475 184.127 411.818C183.794 413.159 183.608 413.897 183.608 413.9L184.298 414.073C184.3 414.067 196.247 366.688 199.369 342.692L198.663 342.599Z" fill="#3A47A4"/>
<path d="M217.731 407.634L218.456 422.196L230.161 426.691L205.597 423.545L204.387 406.682" fill="#FAC1B9"/>
<path d="M219.146 419.404C219.89 419.659 219.349 420.172 220.594 421.669C221.837 423.166 229.199 426.058 232.67 427.103C236.029 428.114 235.301 431.008 234.158 431.008C234.158 431.008 217.436 431.008 216.109 431.008C214.784 431.008 213.821 429.936 212.795 429.936C212.517 429.936 211.942 429.742 211.781 429.942C211.528 430.254 211.553 431.008 211.553 431.008H205.434C204.746 431.008 204.344 430.567 204.39 430.055L205.049 421.37C205.049 421.37 212.523 422.386 214.626 421.771C215.476 421.523 214.585 420.874 214.942 420.516C215.298 420.16 218.403 419.15 219.146 419.404Z" fill="#151A34"/>
<path d="M219.361 313.286C219.361 313.286 221.88 349.687 221.88 367.156C221.88 384.626 223.002 416.233 223.002 416.233H202.865C202.865 416.233 197.873 362.543 186.612 325.239C182.583 311.891 182.036 305.882 183.796 298.492L208.873 292.004L219.361 313.286Z" fill="#26295E"/>
<path d="M211.072 312.305C214.678 336.733 216.831 362.74 218.081 382.638C218.706 392.588 219.106 401.01 219.35 406.945C219.472 409.912 219.555 412.256 219.608 413.859C219.66 415.463 219.682 416.32 219.682 416.323L220.394 416.304C220.392 416.297 218.997 361.117 211.775 312.201L211.072 312.305Z" fill="#3A47A4"/>
<path d="M182.905 314.873C184.482 324 188.214 329.62 190.237 333.289L190.549 333.117L190.203 333.202C193.204 345.347 193.812 354.38 196.318 370.285L197.022 370.174C194.52 354.3 193.911 345.243 190.895 333.031L190.861 332.944C188.812 329.234 185.164 323.745 183.605 314.752L182.905 314.873Z" fill="#3A47A4"/>
<path d="M198.552 318.887C196.253 319.329 194.015 319.465 192.134 319.465C190.629 319.465 189.352 319.378 188.452 319.292C187.552 319.205 187.039 319.118 187.038 319.118L186.921 319.82C186.935 319.823 189.068 320.177 192.134 320.177C194.05 320.177 196.33 320.039 198.688 319.586L198.552 318.887Z" fill="#3A47A4"/>
<path d="M178.617 318.52C178.081 318.619 177.497 318.657 176.939 318.657C176.241 318.657 175.583 318.6 175.102 318.541C174.622 318.484 174.325 318.427 174.323 318.427L174.192 319.128C174.205 319.129 175.466 319.368 176.939 319.368C177.528 319.368 178.152 319.33 178.748 319.219L178.617 318.52Z" fill="#3A47A4"/>
<path d="M213.844 242.829C213.844 242.829 212.672 238.68 210.155 236.757C208.831 235.746 208.555 236.148 207.902 235.762C206.826 235.123 206.212 235.336 205.758 235.93C205.471 236.307 204.662 236.063 204.24 236.373C203.568 236.868 204.035 237.583 203.584 237.798C201.591 238.741 203.8 240.636 203.8 240.636C203.8 240.636 203.355 239.614 202.533 240.051C201.997 240.335 204.047 243.25 205.496 245.192C206.239 246.187 206.825 246.926 206.825 246.926" fill="#FAC1B9"/>
<path d="M214.49 241.15C214.319 240.979 212.662 238.727 212.662 238.727L206.06 244.872L208.144 246.192" fill="white"/>
<path d="M207.464 248.131L205.396 246.198L213.635 239.415L215.534 242.245" fill="white"/>
<path d="M190.549 241.288C186.969 240.693 182.533 240.936 179.449 242.458C166.478 248.865 159.347 270.72 159.01 275.907C158.131 289.382 173.745 311.798 173.745 311.798L182.738 307.545C182.738 307.545 173.098 284.663 175.701 277.256C178.304 269.85 190.515 256.638 190.515 256.638" fill="#525DB4"/>
<path d="M189.672 241.343C189.672 241.343 178.824 243.729 174.706 259.357C172.849 266.404 174.851 277.715 174.413 287.441C173.741 302.362 171.652 314.752 171.653 314.721C191.696 318.777 220.554 314.401 220.554 314.401C220.554 314.401 218.475 298.484 217.695 288.328C216.802 276.736 217.002 274.676 217.002 265.152C217.002 244.313 202.245 242.837 202.245 242.837L189.672 241.343Z" fill="#525DB4"/>
<path d="M188.26 241.452C188.26 241.452 189.329 238.778 189.548 238.727C192.219 238.097 199.959 238.371 202.005 240.417C202.832 241.244 202.445 242.357 202.626 243.773" fill="#525DB4"/>
<path d="M173.13 309.003C174.484 299.69 174.769 285.372 174.769 274.881C174.769 267.144 174.614 261.495 174.614 261.492L173.902 261.512C173.902 261.516 173.94 262.921 173.98 265.298C174.019 267.674 174.057 271.017 174.057 274.881C174.058 285.355 173.769 299.669 172.427 308.901L173.13 309.003Z" fill="#35419F"/>
<path d="M202.925 258.503C202.925 258.503 209.635 285.995 225.049 285.876C239.625 285.765 235.694 261.344 213.764 239.414L200.382 250.628" fill="#525DB4"/>
<path d="M217.422 282.64C215.191 280.783 212.937 278.245 211.248 276.174C210.404 275.139 209.701 274.221 209.208 273.562C208.715 272.903 208.436 272.505 208.436 272.505L207.854 272.914C207.864 272.925 212.386 279.371 216.966 283.187L217.422 282.64Z" fill="#35419F"/>
<path d="M207.932 245.403C214.092 250.009 218.768 255.812 221.899 260.464C223.465 262.79 224.644 264.828 225.431 266.282C225.825 267.009 226.122 267.59 226.318 267.989C226.515 268.387 226.611 268.6 226.611 268.601L227.259 268.306C227.245 268.281 220.855 254.185 208.358 244.832L207.932 245.403Z" fill="#35419F"/>
<path d="M493.087 163.089C492.735 166.256 490.104 175.274 490.676 175.646C491.249 176.018 492.22 172.857 492.628 173.244C493.038 173.631 491.898 178.589 492.576 178.817C493.495 179.126 494.373 173.99 494.373 173.99C494.373 173.99 493.712 179.661 494.592 179.714C495.215 179.751 495.933 175.445 496.429 173.831C496.13 175.643 496.019 178.633 496.666 178.66C497.31 178.686 497.864 175.764 498.418 173.546C498.211 174.961 497.983 177.553 498.58 177.602C499.177 177.652 501.057 170.636 502.55 163.965" fill="#FAC1B9"/>
<path d="M507.776 117.752C510.315 139.823 501.366 168.981 501.366 168.981L492.48 167.073C492.48 167.073 496.097 141.748 492.025 119.501" fill="#FAC1B9"/>
<path d="M498.94 99.8635C507.399 105.798 508.074 118.417 508.074 118.417L491.931 121.458C491.931 121.458 491.129 111.638 491.011 108.275" fill="#EF373F"/>
<path d="M491.907 121.403C491.427 116.823 490.024 112.751 490.017 112.729L489.008 113.075C489.008 113.077 489.09 113.319 489.227 113.761C489.634 115.091 490.497 118.188 490.844 121.514L491.907 121.403Z" fill="#D81B36"/>
<path d="M509.328 118.201C508.854 113.666 508.132 109.991 508.131 109.981L507.083 110.186C507.083 110.189 507.261 111.092 507.499 112.564C507.736 114.036 508.033 116.071 508.266 118.312L509.328 118.201Z" fill="#D81B36"/>
<path d="M575.097 430.955L563.825 280.233L562.405 280.34L573.676 431.061" fill="#303F9D"/>
<path d="M620.847 430.955L609.526 279.576H563.116V280.999H608.205L619.426 431.061L620.847 430.955Z" fill="#303F9D"/>
<path d="M598.304 431.061L609.575 280.34L608.155 280.233L596.884 430.955" fill="#303F9D"/>
<path d="M552.554 431.061L563.776 280.999H608.866V279.576H562.455L551.134 430.955L552.554 431.061Z" fill="#303F9D"/>
<path d="M553.441 410.368H618.332V408.944H553.441V410.368Z" fill="#303F9D"/>
<path d="M554.821 391.911H616.868V390.488H554.821V391.911Z" fill="#303F9D"/>
<path d="M556.239 372.948H615.058V371.524H556.239V372.948Z" fill="#303F9D"/>
<path d="M557.591 354.874H613.248V353.45H557.591V354.874Z" fill="#303F9D"/>
<path d="M558.942 335.993H612.118V334.569H558.942V335.993Z" fill="#303F9D"/>
<path d="M560.355 317.283H610.987V315.859H560.355V317.283Z" fill="#303F9D"/>
<path d="M561.723 299.612H609.938V298.188H561.723V299.612Z" fill="#303F9D"/>
<path d="M605.584 212.531L607.933 222.959C607.933 222.959 602.215 229.049 595.928 223.674L595.819 216.646L605.584 212.531Z" fill="#FAC1B9"/>
<path d="M592.231 203.4C592.231 203.4 589.434 214.344 593.44 216.478C595.523 217.589 601.49 217.199 602.987 214.99C604.096 213.351 604.012 205.375 602.778 204.357C598.059 200.469 592.231 203.4 592.231 203.4Z" fill="#FAC1B9"/>
<path d="M604.345 200.238C602.686 197.046 599.002 197.688 593.43 199.921C591.282 200.782 588.944 199.986 588.733 200.873C588.142 203.375 589.451 205.579 590.819 206.032C591.732 206.334 593.224 206.291 594.134 205.979C596.548 205.152 598.572 206.302 598.495 207.746C598.475 208.125 598.335 208.814 598.684 208.963C598.861 209.04 599.323 209.005 599.514 209.019C600.068 209.06 600.342 209.752 600.25 210.299C600.159 210.847 601.428 210.732 601.335 211.279C601.113 212.574 603.609 214.216 604.915 214.371C606.069 214.508 606.582 213.609 607.15 212.026C607.943 209.818 609.324 200.066 604.345 200.238Z" fill="#1E1B1B"/>
<path d="M599.051 209.322C599.501 207.569 600.421 207.409 601.19 207.921C602.215 208.605 601.881 211.116 601.466 211.704C600.626 212.893 599.669 213.231 599.171 212.342" fill="#FAC1B9"/>
<path d="M595.818 217.81L595.9 217.811C597.168 217.805 598.263 217.182 599.051 216.595C599.842 216.003 600.333 215.423 600.35 215.403L599.535 214.713L599.464 214.793C599.288 214.985 598.795 215.49 598.142 215.933C597.488 216.379 596.682 216.747 595.9 216.743H595.842L595.818 217.81Z" fill="#E87365"/>
<path d="M640.13 375.643L651.481 384.58L645.106 395.377L662.391 377.644L650.263 365.74" fill="#FAC1B9"/>
<path d="M649.207 382.822C648.781 383.483 649.523 383.55 649.479 385.496C649.436 387.442 645.468 394.282 643.398 397.26C641.396 400.139 643.763 401.954 644.661 401.243C644.661 401.243 657.758 390.848 658.796 390.024C659.835 389.199 659.924 387.761 660.727 387.124C660.945 386.951 661.275 386.442 661.526 386.498C661.916 386.585 662.366 387.192 662.366 387.192L667.16 383.387C667.698 382.96 667.739 382.365 667.385 381.994L661.47 375.599C661.47 375.599 656.247 381.04 654.217 381.867C653.397 382.2 653.692 381.138 653.191 381.079C652.689 381.021 649.63 382.162 649.207 382.822Z" fill="#151A34"/>
<path d="M631.758 289.719C631.758 300.547 631.583 317.246 634.193 334.464C635.222 341.263 658.548 371.634 658.548 371.634L644.693 384.662C644.693 384.662 604.523 349.131 605.52 323.322C606.595 295.461 601.616 257.75 601.616 257.75" fill="#525DB4"/>
<path d="M593.17 384.662L594.464 400.176L582.759 404.671L607.322 401.524L607.28 384.662" fill="#FAC1B9"/>
<path d="M593.775 397.385C593.031 397.638 593.571 398.151 592.327 399.649C591.082 401.147 583.721 404.037 580.25 405.082C576.891 406.093 577.619 408.988 578.762 408.988C578.762 408.988 595.485 408.988 596.81 408.988C598.136 408.988 599.1 407.915 600.125 407.915C600.404 407.915 600.978 407.722 601.14 407.921C601.392 408.233 601.366 408.988 601.366 408.988H607.486C608.174 408.988 608.577 408.547 608.53 408.037L607.872 399.35C607.872 399.35 600.398 400.365 598.294 399.751C597.444 399.502 598.335 398.853 597.979 398.496C597.622 398.14 594.518 397.13 593.775 397.385Z" fill="#151A34"/>
<path d="M586.485 291.265C586.485 291.265 583.966 327.666 583.966 345.135C583.966 362.605 588.907 394.213 588.907 394.213H609.044C609.044 394.213 607.973 340.522 619.234 303.218C623.263 289.871 623.809 283.863 622.05 276.472L596.973 269.983L586.485 291.265Z" fill="#525DB4"/>
<path d="M592.445 290.143C589.872 305.402 589.021 322.176 589.021 337.723C589.021 368.38 592.334 394.267 592.335 394.281L593.394 394.146C593.393 394.141 593.188 392.535 592.878 389.635C591.948 380.937 590.088 360.659 590.088 337.723C590.088 322.216 590.94 305.492 593.498 290.321L592.445 290.143Z" fill="#35419F"/>
<path d="M622.497 295.045C622.48 297.806 622.079 299.779 621.169 301.609C620.259 303.439 618.814 305.153 616.661 307.304L616.554 307.411L616.519 307.558C613.406 320.69 613.023 332.533 610.96 344.208L612.012 344.393C614.088 332.616 614.471 320.811 617.558 307.804L617.039 307.682L617.416 308.059C619.596 305.879 621.129 304.085 622.126 302.085C623.123 300.086 623.551 297.907 623.565 295.051L622.497 295.045Z" fill="#35419F"/>
<path d="M612.599 335.687C624.26 359.268 646.691 381.757 646.708 381.778L647.465 381.025C647.464 381.024 647.12 380.678 646.486 380.02C642.055 375.417 623.652 355.648 613.556 335.212L612.599 335.687Z" fill="#35419F"/>
<path d="M607.126 297.741C609.496 298.197 611.787 298.336 613.712 298.336C616.792 298.336 618.933 297.979 618.953 297.976L618.778 296.923C618.778 296.923 618.657 296.943 618.417 296.975C617.698 297.072 615.96 297.269 613.712 297.269C611.839 297.269 609.612 297.132 607.327 296.692L607.126 297.741Z" fill="#35419F"/>
<path d="M627.065 297.375C627.676 297.488 628.309 297.526 628.907 297.526C630.398 297.526 631.668 297.286 631.687 297.283L631.49 296.234C631.489 296.234 631.422 296.246 631.288 296.268C630.888 296.33 629.94 296.459 628.907 296.459C628.356 296.459 627.783 296.421 627.26 296.325L627.065 297.375Z" fill="#35419F"/>
<path d="M594.36 222.675C594.36 222.675 595.038 219.831 595.378 219.493C599.132 217.277 604.967 216.575 606.894 216.575L608.097 220.37" fill="#282D6B"/>
<path d="M544.381 248.653C541.085 248.807 531.461 247.684 531.164 248.29C530.868 248.897 534.247 249.337 533.909 249.79C533.572 250.241 528.326 249.918 528.191 250.603C528.007 251.531 533.398 251.575 533.398 251.575C533.398 251.575 527.49 251.821 527.565 252.673C527.617 253.276 532.134 253.296 533.858 253.52C531.958 253.516 528.879 253.873 528.946 254.498C529.013 255.117 532.087 255.196 534.439 255.382C532.959 255.404 530.271 255.587 530.307 256.168C530.341 256.746 537.805 257.46 544.855 257.855" fill="#FAC1B9"/>
<path d="M542.915 258.608L539.198 258.45L540.135 247.916L544.111 247.829" fill="white"/>
<path d="M599.595 219.562C599.949 219.489 603.998 218.92 604.402 218.896C608.604 218.655 615.843 221.477 621.272 234.898C628.243 252.133 632.886 290.904 632.886 290.904C632.886 290.904 603.483 296.506 582.79 294.664C581.304 267.64 574.756 224.656 599.595 219.562Z" fill="#282D6B"/>
<path d="M588.074 253.418C588.075 253.418 588.156 253.698 588.303 254.244C589.331 258.058 593.519 274.655 594.507 294.966L595.575 294.915C594.437 271.569 589.106 253.146 589.1 253.12L588.074 253.418Z" fill="#3A47A4"/>
<path d="M602.874 219.25C602.874 219.25 592.307 219.625 584.238 227.97C578.923 233.467 574.926 240.146 570.968 243.307C566.46 246.906 541.835 247.383 541.835 247.383L542.002 259.469C542.002 259.469 565.976 262.688 574.025 260.222C582.075 257.757 591.282 250.692 591.282 250.692" fill="#282D6B"/>
<path d="M582.313 257.638C586.835 255.587 591.423 251.784 591.443 251.772L590.762 250.949C590.76 250.949 590.483 251.179 589.99 251.561C588.512 252.707 585.119 255.197 581.873 256.665L582.313 257.638Z" fill="#3A47A4"/>
<path d="M395.362 444.325C394.348 444.325 393.527 443.502 393.527 442.488C393.527 441.475 394.348 440.653 395.362 440.653C396.376 440.653 397.197 441.475 397.197 442.488C397.197 443.502 396.376 444.325 395.362 444.325Z" fill="#3F51AC"/>
<path d="M403.241 444.325C402.227 444.325 401.406 443.502 401.406 442.488C401.406 441.475 402.227 440.653 403.241 440.653C404.255 440.653 405.076 441.475 405.076 442.488C405.076 443.502 404.255 444.325 403.241 444.325Z" fill="#5A6DBE"/>
<path d="M411.121 444.325C410.107 444.325 409.285 443.502 409.285 442.488C409.285 441.475 410.107 440.653 411.121 440.653C412.134 440.653 412.956 441.475 412.956 442.488C412.956 443.502 412.134 444.325 411.121 444.325Z" fill="#93A0D8"/>
<path d="M419 444.325C417.986 444.325 417.165 443.502 417.165 442.488C417.165 441.475 417.986 440.653 419 440.653C420.014 440.653 420.835 441.475 420.835 442.488C420.835 443.502 420.014 444.325 419 444.325Z" fill="#D7DCF2"/>
<circle cx="680.808" cy="45.8077" r="3.30768" stroke="#7C73C5"/>
<circle cx="703.5" cy="45.8077" r="3.30768" fill="#7C73C5" stroke="#7C73C5"/>
<circle cx="726.192" cy="45.8077" r="3.30768" stroke="#7C73C5"/>
<circle cx="680.808" cy="68.4996" r="3.30768" fill="#7C73C5" stroke="#7C73C5"/>
<circle cx="703.5" cy="68.4996" r="3.30768" stroke="#7C73C5"/>
<circle cx="726.192" cy="68.4996" r="3.30768" fill="#7C73C5" stroke="#7C73C5"/>
</svg>
