<svg width="32" height="32" viewBox="0 0 32 32" fill="none" xmlns="http://www.w3.org/2000/svg">
<path opacity="0.5" d="M26.9966 25.9933C29.7562 25.9933 31.9933 23.7562 31.9933 20.9966C31.9933 18.2371 29.7562 16 26.9966 16C24.2371 16 22 18.2371 22 20.9966C22 23.7562 24.2371 25.9933 26.9966 25.9933Z" fill="#00FFC2"/>
<path d="M11.7075 20.2925H15.8125L31.1725 4.93248L27.0675 0.827522L11.7075 16.1875V20.2925ZM29.3626 4.93248L27.0675 7.22752L24.7725 4.93248L27.0675 2.63744L29.3626 4.93248ZM12.9875 16.7174L23.8675 5.83744L26.1626 8.13248L15.2826 19.0125H12.9875V16.7174Z" fill="black"/>
<path d="M27.7075 12.6125H26.4275V29.8925H2.10751V5.57248H20.0275V4.29248H0.827515V31.1725H27.7075V12.6125Z" fill="black"/>
</svg>
