<svg width="32" height="32" viewBox="0 0 32 32" fill="none" xmlns="http://www.w3.org/2000/svg">
<path d="M10.32 28.08C9.83999 28.08 9.51999 27.76 9.51999 27.28V13.92C9.51999 13.44 9.83999 13.12 10.32 13.12C10.8 13.12 11.12 13.44 11.12 13.92V27.28C11.12 27.68 10.72 28.08 10.32 28.08ZM21.52 28.08C21.04 28.08 20.72 27.76 20.72 27.28V13.92C20.72 13.44 21.04 13.12 21.52 13.12C22 13.12 22.32 13.44 22.32 13.92V27.28C22.32 27.68 21.92 28.08 21.52 28.08ZM15.92 28.08C15.44 28.08 15.12 27.76 15.12 27.28V13.92C15.12 13.44 15.44 13.12 15.92 13.12C16.4 13.12 16.72 13.44 16.72 13.92V27.28C16.72 27.68 16.32 28.08 15.92 28.08Z" fill="black"/>
<path opacity="0.5" d="M5.99665 16.9933C8.75622 16.9933 10.9933 14.7562 10.9933 11.9966C10.9933 9.23708 8.75622 7 5.99665 7C3.23708 7 1 9.23708 1 11.9966C1 14.7562 3.23708 16.9933 5.99665 16.9933Z" fill="#00FFC2"/>
<path d="M22.4 32H9.44001C6.80001 32 4.72001 29.84 4.72001 27.28V12.8C4.72001 12.32 5.04001 12 5.52001 12C6.00001 12 6.32001 12.32 6.32001 12.8V27.28C6.32001 29.04 7.76001 30.4 9.44001 30.4H22.4C24.16 30.4 25.52 28.96 25.52 27.28V12.8C25.52 12.32 25.84 12 26.32 12C26.8 12 27.12 12.32 27.12 12.8V27.28C27.12 29.84 24.96 32 22.4 32ZM26.64 3.92H20.56C20.16 1.68 18.24 0 15.92 0C13.6 0 11.68 1.68 11.28 3.92H5.20001C3.36001 3.92 1.92001 5.36 1.92001 7.2C1.92001 9.04 3.36001 10.4 5.20001 10.4H26.72C28.56 10.4 30 8.96 30 7.12C30 5.28 28.48 3.92 26.64 3.92ZM15.92 1.6C17.36 1.6 18.56 2.56 18.88 3.92H12.88C13.28 2.56 14.48 1.6 15.92 1.6ZM26.64 8.8H5.20001C4.32001 8.8 3.52001 8.08 3.52001 7.12C3.52001 6.24 4.24001 5.44 5.20001 5.44H26.72C27.6 5.44 28.4 6.16 28.4 7.12C28.32 8.08 27.6 8.8 26.64 8.8Z" fill="black"/>
</svg>
