<svg width="24" height="24" viewBox="0 0 24 24" fill="none" xmlns="http://www.w3.org/2000/svg">
<path d="M12 2C6.486 2 2 6.486 2 12C2 17.514 6.486 22 12 22C17.514 22 22 17.514 22 12C22 6.486 17.514 2 12 2ZM12 20C7.589 20 4 16.411 4 12C4 7.589 7.589 4 12 4C16.411 4 20 7.589 20 12C20 16.411 16.411 20 12 20Z" fill="#0050A4"/>
<path d="M12 5.166V12H18.834C18.8362 11.1019 18.661 10.2122 18.3184 9.38209C17.9757 8.55194 17.4724 7.79767 16.8374 7.16263C16.2023 6.52759 15.4481 6.02429 14.6179 5.68164C13.7878 5.33899 12.8981 5.16376 12 5.166Z" fill="#00B9B6"/>
</svg>
