<svg width="120" height="66" viewBox="0 0 120 66" fill="none" xmlns="http://www.w3.org/2000/svg">
<path d="M59.9976 59.5592C74.7007 59.5592 86.6199 47.64 86.6199 32.937C86.6199 18.2339 74.7007 6.3147 59.9976 6.3147C45.2946 6.3147 33.3754 18.2339 33.3754 32.937C33.3754 47.64 45.2946 59.5592 59.9976 59.5592Z" fill="#00B9B6"/>
<path d="M59.9997 45.0721C66.7018 45.0721 72.1349 39.639 72.1349 32.9369C72.1349 26.2349 66.7018 20.8018 59.9997 20.8018C53.2976 20.8018 47.8645 26.2349 47.8645 32.9369C47.8645 39.639 53.2976 45.0721 59.9997 45.0721Z" fill="white"/>
<path d="M59.9997 65.8738C27.4905 65.8738 1.75458 36.0485 0.677233 34.7802C-0.225744 33.7174 -0.225744 32.1564 0.677233 31.0977C1.75665 29.8273 27.4905 0 59.9997 0C92.509 0 118.241 29.8273 119.324 31.0977C120.225 32.1585 120.225 33.7195 119.324 34.7802C118.241 36.0485 92.509 65.8738 59.9997 65.8738ZM6.69916 32.9369C12.7937 39.3366 34.6001 60.1881 59.9997 60.1881C85.445 60.1881 107.218 39.3387 113.298 32.939C107.208 26.5393 85.3973 5.68564 59.9997 5.68564C34.6022 5.68564 12.7937 26.5372 6.69916 32.9369Z" fill="black"/>
</svg>
