<svg width="25" height="22" viewBox="0 0 25 22" fill="none" xmlns="http://www.w3.org/2000/svg">
<path fill-rule="evenodd" clip-rule="evenodd" d="M23.6401 2.68174V12.8886C23.6362 14.0854 22.6026 15.2014 21.3291 15.2136C18.8851 15.2208 16.4406 15.2253 13.9967 15.2269L17.0073 20.4416C17.0644 20.548 17.0688 20.5868 17.0732 20.6582C17.0948 20.9873 16.7198 21.2903 16.3847 21.1518C16.2844 21.1102 16.2019 21.0338 16.1443 20.9402L13.0046 15.5022V21.1169C13.0035 21.1474 13.004 21.1551 12.9996 21.1861C12.952 21.5229 12.4939 21.7401 12.1992 21.5096C12.0976 21.4298 12.0306 21.314 12.0119 21.1861C12.0081 21.1551 12.0086 21.1474 12.0075 21.1169V15.5022L8.86783 20.9402C8.80412 21.0427 8.77255 21.0659 8.71273 21.1058C8.43631 21.2903 7.98874 21.1125 7.94165 20.7563C7.92725 20.6483 7.95218 20.5386 8.00425 20.4416L11.0149 15.2269C8.57092 15.2253 6.12641 15.2208 3.68247 15.2136C2.48265 15.202 1.37589 14.1591 1.37201 12.8887V2.68174H0.0115552C0.0115552 2.17156 -0.0515931 1.64361 0.117356 1.18119C0.356655 0.525166 1.01417 0.04679 1.73318 0.0357667C8.91103 -0.0302066 16.0894 0.0105626 23.2673 0.0356558C24.1674 0.0439094 24.9917 0.825121 25 1.76819V2.68174H23.6401ZM22.643 2.68174H2.36909C2.36909 6.08964 2.33752 9.49755 2.36909 12.9052C2.38017 13.5848 2.96125 14.2049 3.68025 14.2162C9.56399 14.2718 15.4481 14.2718 21.3319 14.2162C22.0165 14.2054 22.6408 13.6088 22.643 12.8871V2.68174ZM4.36436 11.9564H19.6329V12.9535H3.36728V5.12713H4.36436V11.9564ZM15.777 5.12807C15.8684 5.13859 15.8917 5.14507 15.9753 5.18313L19.3637 6.94164C19.4042 6.96513 19.4153 6.96956 19.4513 6.99909C19.7509 7.24592 19.6102 7.86184 19.1566 7.88222C19.0702 7.8861 18.9854 7.86339 18.9045 7.82666L15.8014 6.21616L12.6972 8.65762L12.6595 8.68471C12.5243 8.76303 12.5587 8.74353 12.4418 8.76154L8.0818 9.22346L5.60904 11.1926L5.56694 11.2229C5.52651 11.2457 5.51709 11.2531 5.47333 11.2695C5.12158 11.4012 4.68176 11.009 4.83464 10.6201C4.86677 10.5395 4.92161 10.4714 4.98808 10.4126L7.57439 8.35301C7.7162 8.25064 7.74279 8.26106 7.83253 8.24726L12.1936 7.78512L15.4375 5.23382L15.4801 5.2039C15.6463 5.11079 15.5826 5.12608 15.777 5.12807ZM23.2557 1.03268H1.75589C1.39583 1.03401 1.06292 1.32316 1.01473 1.68239V1.68466H23.9968C23.9514 1.32693 23.6207 1.03273 23.2557 1.03268Z" fill="black"/>
</svg>
