<svg width="181" height="281" viewBox="0 0 181 281" fill="none" xmlns="http://www.w3.org/2000/svg">
<g opacity="0.3">
<path d="M180.107 140.551C180.107 217.623 117.628 280.102 40.551 280.102C-36.5161 280.102 -99 217.623 -99 140.551C-99 63.4788 -36.5161 1.00006 40.551 1.00006C117.628 1.00006 180.107 63.4788 180.107 140.551Z" stroke="#CFC2E7" stroke-width="1.33333" stroke-miterlimit="10"/>
<path d="M159.098 140.55C159.098 206.023 106.028 259.098 40.5503 259.098C-24.9171 259.098 -77.9978 206.023 -77.9978 140.55C-77.9978 75.0777 -24.9171 22.0021 40.5503 22.0021C106.028 22.0021 159.098 75.0777 159.098 140.55Z" stroke="#CFC2E7" stroke-width="1.33333" stroke-miterlimit="10"/>
<path d="M138.096 140.551C138.096 194.424 94.4289 238.091 40.5509 238.091C-13.322 238.091 -56.9944 194.424 -56.9944 140.551C-56.9944 86.6783 -13.322 43.0059 40.5509 43.0059C94.4289 43.0059 138.096 86.6783 138.096 140.551Z" stroke="#CFC2E7" stroke-width="1.33333" stroke-miterlimit="10"/>
<path d="M117.093 140.55C117.093 182.818 82.8239 217.088 40.5507 217.088C-1.72253 217.088 -35.9866 182.818 -35.9866 140.55C-35.9866 98.2772 -1.72253 64.008 40.5507 64.008C82.8239 64.008 117.093 98.2772 117.093 140.55Z" stroke="#CFC2E7" stroke-width="1.33333" stroke-miterlimit="10"/>
<path d="M96.0905 140.551C96.0905 171.219 71.2245 196.085 40.551 196.085C9.8826 196.085 -14.9834 171.219 -14.9834 140.551C-14.9834 109.878 9.8826 85.0167 40.551 85.0167C71.2245 85.0167 96.0905 109.878 96.0905 140.551Z" stroke="#CFC2E7" stroke-width="1.33333" stroke-miterlimit="10"/>
<path d="M75.087 140.551C75.087 159.624 59.6242 175.082 40.5503 175.082C21.4816 175.082 6.0188 159.624 6.0188 140.551C6.0188 121.477 21.4816 106.019 40.5503 106.019C59.6242 106.019 75.087 121.477 75.087 140.551Z" stroke="#CFC2E7" stroke-width="1.33333" stroke-miterlimit="10"/>
<path d="M54.0795 140.55C54.0795 148.019 48.0251 154.079 40.5509 154.079C33.0818 154.079 27.0222 148.019 27.0222 140.55C27.0222 133.076 33.0818 127.022 40.5509 127.022C48.0251 127.022 54.0795 133.076 54.0795 140.55Z" stroke="#CFC2E7" stroke-width="1.33333" stroke-miterlimit="10"/>
</g>
</svg>
