<svg width="24" height="24" viewBox="0 0 24 24" fill="none" xmlns="http://www.w3.org/2000/svg">
<path d="M13.691 15.778L13.061 15.288C13.0747 15.1926 13.0824 15.0964 13.084 15C13.0851 14.9031 13.077 14.8064 13.06 14.711L13.685 14.221C13.7115 14.1984 13.7295 14.1675 13.736 14.1333C13.7426 14.0991 13.7373 14.0638 13.721 14.033L13.131 13.013C13.1132 12.9822 13.085 12.9588 13.0514 12.9469C13.0179 12.935 12.9813 12.9354 12.948 12.948L12.218 13.243C12.0655 13.123 11.8964 13.0257 11.716 12.954L11.604 12.176C11.6 12.1415 11.5834 12.1098 11.5574 12.0869C11.5313 12.0639 11.4977 12.0515 11.463 12.052H10.283C10.2479 12.0524 10.214 12.0649 10.1872 12.0876C10.1604 12.1102 10.1423 12.1415 10.136 12.176L10.024 12.954C9.84606 13.0298 9.67813 13.1272 9.524 13.244L8.792 12.948C8.75867 12.9362 8.72229 12.9362 8.68896 12.948C8.65564 12.9599 8.6274 12.9828 8.609 13.013L8.019 14.033C8.00107 14.0635 7.99484 14.0995 8.00146 14.1343C8.00809 14.169 8.02711 14.2002 8.055 14.222L8.68 14.712C8.65646 14.9036 8.65646 15.0974 8.68 15.289L8.055 15.779C8.02868 15.8017 8.01087 15.8327 8.00451 15.8669C7.99815 15.901 8.00361 15.9363 8.02 15.967L8.61 16.987C8.62781 17.0175 8.65584 17.0408 8.68914 17.0527C8.72244 17.0646 8.75887 17.0644 8.792 17.052L9.523 16.757C9.67524 16.8769 9.84398 16.9742 10.024 17.046L10.136 17.824C10.1415 17.8591 10.1596 17.8909 10.1868 17.9137C10.214 17.9365 10.2485 17.9487 10.284 17.948H11.463C11.4981 17.9476 11.532 17.9351 11.5588 17.9124C11.5856 17.8898 11.6037 17.8585 11.61 17.824L11.722 17.046C11.8991 16.9716 12.0655 16.8741 12.217 16.756L12.954 17.052C12.9873 17.0638 13.0237 17.0638 13.057 17.052C13.0904 17.0401 13.1186 17.0172 13.137 16.987L13.727 15.967C13.7435 15.9361 13.749 15.9005 13.7424 15.8661C13.7359 15.8317 13.7177 15.8006 13.691 15.778ZM10.873 15.884C10.6982 15.8838 10.5274 15.8318 10.3821 15.7345C10.2369 15.6373 10.1238 15.4991 10.057 15.3376C9.99025 15.1761 9.97289 14.9983 10.0071 14.8269C10.0413 14.6555 10.1256 14.4981 10.2493 14.3746C10.3729 14.251 10.5305 14.1669 10.7019 14.1329C10.8734 14.0989 11.0511 14.1164 11.2125 14.1834C11.374 14.2503 11.512 14.3636 11.6091 14.509C11.7062 14.6543 11.758 14.8252 11.758 15C11.7581 15.1162 11.7353 15.2313 11.6909 15.3387C11.6464 15.4461 11.5812 15.5436 11.499 15.6257C11.4168 15.7079 11.3192 15.7729 11.2118 15.8173C11.1043 15.8616 10.9892 15.8843 10.873 15.884Z" fill="#00B9B6"/>
<path d="M14 2H6C5.47005 2.00158 4.96227 2.2128 4.58753 2.58753C4.2128 2.96227 4.00158 3.47005 4 4V20C4.00158 20.5299 4.2128 21.0377 4.58753 21.4125C4.96227 21.7872 5.47005 21.9984 6 22H18C18.5299 21.9984 19.0377 21.7872 19.4125 21.4125C19.7872 21.0377 19.9984 20.5299 20 20V8L14 2ZM18 20H6V4H13V9H18V20Z" fill="#0050A4"/>
</svg>
