<svg width="24" height="24" viewBox="0 0 24 24" fill="none" xmlns="http://www.w3.org/2000/svg">
<path d="M20 3H4C2.9 3 2 3.9 2 5V16C2 17.1 2.9 18 4 18H7C6.45 18.55 6 18.87 6 19.59C6 20.37 6.63 21 7.41 21H16.58C17.36 21 17.99 20.37 17.99 19.59C17.99 18.87 17.55 18.56 16.99 18H19.99C21.09 18 21.99 17.1 21.99 16V5C22 3.9 21.1 3 20 3ZM20 16H4V5H20V16Z" fill="#0050A4"/>
<path d="M15.9246 12.0556L15.0475 11.3908C15.0666 11.2613 15.0773 11.1308 15.0796 11C15.081 10.8686 15.0699 10.7373 15.0462 10.6079L15.9163 9.94301C15.9532 9.91238 15.9782 9.87042 15.9873 9.82405C15.9964 9.77767 15.9891 9.72966 15.9664 9.68792L15.145 8.30394C15.1202 8.26219 15.0809 8.23039 15.0342 8.21424C14.9876 8.19809 14.9365 8.19862 14.8902 8.21575L13.8739 8.61602C13.6615 8.4532 13.4261 8.32113 13.175 8.22389L13.0191 7.16827C13.0136 7.1215 12.9904 7.0784 12.9542 7.04731C12.9179 7.01623 12.8711 6.99937 12.8228 7.00002H11.18C11.1311 7.00051 11.084 7.01758 11.0466 7.04828C11.0093 7.07899 10.9841 7.12141 10.9753 7.16827L10.8194 8.22389C10.5717 8.3267 10.3379 8.45885 10.1233 8.61738L9.10418 8.21575C9.05778 8.1997 9.00713 8.19971 8.96074 8.21577C8.91434 8.23183 8.87503 8.26297 8.84941 8.30394L8.028 9.68792C8.00305 9.72933 7.99437 9.77816 8.00359 9.82533C8.01281 9.8725 8.0393 9.9148 8.07812 9.94437L8.94826 10.6092C8.91548 10.8692 8.91548 11.1321 8.94826 11.3921L8.07812 12.057C8.04148 12.0878 8.01669 12.1298 8.00783 12.1762C7.99897 12.2225 8.00658 12.2705 8.0294 12.3121L8.8508 13.696C8.87559 13.7375 8.91462 13.7691 8.96098 13.7852C9.00734 13.8013 9.05806 13.801 9.10418 13.7842L10.1219 13.384C10.3338 13.5467 10.5688 13.6787 10.8194 13.7761L10.9753 14.8317C10.983 14.8793 11.0082 14.9225 11.046 14.9534C11.0839 14.9844 11.132 15.0009 11.1814 15H12.8228C12.8716 14.9995 12.9188 14.9824 12.9562 14.9517C12.9935 14.921 13.0187 14.8786 13.0274 14.8317L13.1834 13.7761C13.4299 13.6751 13.6616 13.5428 13.8725 13.3826L14.8986 13.7842C14.945 13.8003 14.9956 13.8003 15.042 13.7842C15.0884 13.7681 15.1277 13.737 15.1534 13.696L15.9748 12.3121C15.9978 12.2702 16.0054 12.2219 15.9962 12.1752C15.9871 12.1285 15.9618 12.0863 15.9246 12.0556ZM12.0014 12.1994C11.758 12.1992 11.5202 12.1286 11.318 11.9966C11.1158 11.8647 10.9583 11.6773 10.8653 11.4581C10.7724 11.2389 10.7482 10.9977 10.7959 10.7652C10.8435 10.5326 10.9608 10.319 11.133 10.1514C11.3052 9.98376 11.5245 9.86966 11.7632 9.82349C12.0019 9.77732 12.2493 9.80115 12.4741 9.89197C12.6989 9.9828 12.891 10.1365 13.0262 10.3338C13.1613 10.531 13.2335 10.7628 13.2335 11C13.2337 11.1577 13.2019 11.3138 13.1401 11.4595C13.0782 11.6052 12.9874 11.7376 12.8729 11.849C12.7585 11.9604 12.6226 12.0488 12.473 12.1089C12.3234 12.169 12.1632 12.1998 12.0014 12.1994Z" fill="#00B9B6"/>
</svg>
