<svg width="25" height="21" viewBox="0 0 25 21" fill="none" xmlns="http://www.w3.org/2000/svg">
<path d="M4.56888 0.0663128C3.89286 0.178558 3.25765 0.515293 2.74235 1.03315C2.32908 1.44641 2.04592 1.9056 1.89031 2.4158C1.72449 2.95407 1.73469 2.32652 1.73469 11.0485V18.9796H0.867347H0V19.8469V20.7143H12.5H25V19.8469V18.9796H24.148H23.2934L23.2832 15.3495C23.2755 11.3138 23.2857 11.5612 23.0995 11.0025C22.7219 9.86734 21.7781 8.99999 20.625 8.72958C20.2372 8.63774 19.8776 8.62244 18.0944 8.62244H16.3776V5.9107C16.3776 2.97958 16.3776 2.97193 16.2372 2.48723C16.1505 2.18111 15.9082 1.69386 15.7143 1.42856C15.2806 0.839272 14.6301 0.374987 13.9515 0.168354C13.4592 0.0203953 13.6633 0.0254974 9.03316 0.0280476C5.5051 0.0305977 4.74745 0.0356998 4.56888 0.0663128ZM13.4668 1.82141C13.9005 1.97448 14.273 2.29846 14.4643 2.68876C14.6582 3.08672 14.6429 2.31631 14.6429 11.0893V18.9796H9.04337H3.44388L3.44898 11.0663L3.45663 3.1505L3.52551 2.94642C3.73469 2.33162 4.20408 1.91325 4.83418 1.77295C4.95918 1.74488 5.7551 1.73978 9.1199 1.74233L13.2526 1.74744L13.4668 1.82141ZM20.1709 10.3954C20.699 10.4974 21.1556 10.8597 21.3929 11.3648C21.5638 11.7321 21.5561 11.5612 21.5561 15.4592V18.9796H18.9668H16.3776V14.6684V10.3571H18.1735C19.6633 10.3571 20.0051 10.3648 20.1709 10.3954Z" fill="black" stroke="white" stroke-width="0.5"/>
<path d="M5.17859 5.17855V6.0459H6.90053H8.62246V5.17855V4.31121H6.90053H5.17859V5.17855Z" fill="black" stroke="white" stroke-width="0.5"/>
<path d="M9.48981 5.17855V6.0459H11.2118H12.9337V5.17855V4.31121H11.2118H9.48981V5.17855Z" fill="black" stroke="white" stroke-width="0.5"/>
<path d="M5.17859 10.3571V11.2245H6.90053H8.62246V10.3571V9.48979H6.90053H5.17859V10.3571Z" fill="black" stroke="white" stroke-width="0.5"/>
<path d="M9.48981 10.3571V11.2245H11.2118H12.9337V10.3571V9.48979H11.2118H9.48981V10.3571Z" fill="black" stroke="white" stroke-width="0.5"/>
<path d="M5.17859 15.5357V16.4031H6.90053H8.62246V15.5357V14.6684H6.90053H5.17859V15.5357Z" fill="black" stroke="white" stroke-width="0.5"/>
<path d="M9.48981 15.5357V16.4031H11.2118H12.9337V15.5357V14.6684H11.2118H9.48981V15.5357Z" fill="black" stroke="white" stroke-width="0.5"/>
<path d="M17.2449 12.9464V13.801H18.9668H20.6888V12.9464V12.0918H18.9668H17.2449V12.9464Z" fill="black" stroke="white" stroke-width="0.5"/>
<path d="M17.2449 16.3903V17.2449H18.9668H20.6888V16.3903V15.5357H18.9668H17.2449V16.3903Z" fill="black" stroke="white" stroke-width="0.5"/>
</svg>
