<svg width="24" height="24" viewBox="0 0 24 24" fill="none" xmlns="http://www.w3.org/2000/svg">
<path d="M14 17H4V7L12 12L20 7V12H22V5C22 3.9 21.1 3 20 3H4C2.9 3 2 3.9 2 5V17C2 18.1 2.9 19 4 19H14V17ZM20 5L12 10L4 5H20Z" fill="#0050A4"/>
<path d="M22.9246 18.0556L22.0475 17.3908C22.0666 17.2613 22.0773 17.1308 22.0796 17C22.081 16.8686 22.0699 16.7373 22.0462 16.6079L22.9163 15.943C22.9532 15.9124 22.9782 15.8704 22.9873 15.824C22.9964 15.7777 22.9891 15.7297 22.9664 15.6879L22.145 14.3039C22.1202 14.2622 22.0809 14.2304 22.0342 14.2142C21.9876 14.1981 21.9365 14.1986 21.8902 14.2157L20.8739 14.616C20.6615 14.4532 20.4261 14.3211 20.175 14.2239L20.0191 13.1683C20.0136 13.1215 19.9904 13.0784 19.9542 13.0473C19.9179 13.0162 19.8711 12.9994 19.8228 13H18.18C18.1311 13.0005 18.084 13.0176 18.0466 13.0483C18.0093 13.079 17.9841 13.1214 17.9753 13.1683L17.8194 14.2239C17.5717 14.3267 17.3379 14.4589 17.1233 14.6174L16.1042 14.2157C16.0578 14.1997 16.0071 14.1997 15.9607 14.2158C15.9143 14.2318 15.875 14.263 15.8494 14.3039L15.028 15.6879C15.003 15.7293 14.9944 15.7782 15.0036 15.8253C15.0128 15.8725 15.0393 15.9148 15.0781 15.9444L15.9483 16.6092C15.9155 16.8692 15.9155 17.1321 15.9483 17.3921L15.0781 18.057C15.0415 18.0878 15.0167 18.1298 15.0078 18.1762C14.999 18.2225 15.0066 18.2705 15.0294 18.3121L15.8508 19.696C15.8756 19.7375 15.9146 19.7691 15.961 19.7852C16.0073 19.8013 16.0581 19.801 16.1042 19.7842L17.1219 19.384C17.3338 19.5467 17.5688 19.6787 17.8194 19.7761L17.9753 20.8317C17.983 20.8793 18.0082 20.9225 18.046 20.9534C18.0839 20.9844 18.132 21.0009 18.1814 21H19.8228C19.8716 20.9995 19.9188 20.9824 19.9562 20.9517C19.9935 20.921 20.0187 20.8786 20.0274 20.8317L20.1834 19.7761C20.4299 19.6751 20.6616 19.5428 20.8725 19.3826L21.8986 19.7842C21.945 19.8003 21.9956 19.8003 22.042 19.7842C22.0884 19.7681 22.1277 19.737 22.1534 19.696L22.9748 18.3121C22.9978 18.2702 23.0054 18.2219 22.9962 18.1752C22.9871 18.1285 22.9618 18.0863 22.9246 18.0556ZM19.0014 18.1994C18.758 18.1992 18.5202 18.1286 18.318 17.9966C18.1158 17.8647 17.9583 17.6773 17.8653 17.4581C17.7724 17.2389 17.7482 16.9977 17.7959 16.7652C17.8435 16.5326 17.9608 16.319 18.133 16.1514C18.3052 15.9838 18.5245 15.8697 18.7632 15.8235C19.0019 15.7773 19.2493 15.8012 19.4741 15.892C19.6989 15.9828 19.891 16.1365 20.0262 16.3338C20.1613 16.531 20.2335 16.7628 20.2335 17C20.2337 17.1577 20.2019 17.3138 20.1401 17.4595C20.0782 17.6052 19.9874 17.7376 19.8729 17.849C19.7585 17.9604 19.6226 18.0488 19.473 18.1089C19.3234 18.169 19.1632 18.1998 19.0014 18.1994Z" fill="#00B9B6"/>
</svg>
