<svg width="32" height="32" viewBox="0 0 32 32" fill="none" xmlns="http://www.w3.org/2000/svg">
<path opacity="0.5" d="M10.8903 12.6578C13.4051 12.6578 15.4437 10.6192 15.4437 8.10449C15.4437 5.58974 13.4051 3.55113 10.8903 3.55113C8.37558 3.55113 6.33698 5.58974 6.33698 8.10449C6.33698 10.6192 8.37558 12.6578 10.8903 12.6578Z" fill="#00FFC2"/>
<path d="M16 13.3333C15.2089 13.3333 14.4355 13.5679 13.7777 14.0075C13.1199 14.447 12.6072 15.0717 12.3045 15.8026C12.0017 16.5335 11.9225 17.3378 12.0769 18.1137C12.2312 18.8896 12.6122 19.6023 13.1716 20.1618C13.731 20.7212 14.4437 21.1021 15.2196 21.2565C15.9956 21.4108 16.7998 21.3316 17.5307 21.0288C18.2616 20.7261 18.8864 20.2134 19.3259 19.5556C19.7654 18.8978 20 18.1245 20 17.3333C20 16.2725 19.5786 15.255 18.8284 14.5049C18.0783 13.7548 17.0609 13.3333 16 13.3333ZM16 20C15.4726 20 14.957 19.8436 14.5185 19.5506C14.08 19.2576 13.7382 18.8411 13.5363 18.3538C13.3345 17.8665 13.2817 17.3304 13.3846 16.8131C13.4875 16.2958 13.7414 15.8207 14.1144 15.4477C14.4873 15.0748 14.9625 14.8208 15.4798 14.7179C15.997 14.615 16.5332 14.6678 17.0205 14.8696C17.5078 15.0715 17.9242 15.4133 18.2173 15.8518C18.5103 16.2903 18.6667 16.8059 18.6667 17.3333C18.6667 18.0406 18.3857 18.7189 17.8856 19.2189C17.3855 19.719 16.7072 20 16 20Z" fill="black"/>
<path d="M27.8667 24.4466L24.2267 19.5933C24.7067 12.5733 22.2867 5.77332 16.46 0.18666C16.336 0.0684671 16.1713 0.00253296 16 0.00253296C15.8287 0.00253296 15.664 0.0684671 15.54 0.18666C9.72002 5.75999 7.29335 12.5733 7.77335 19.5933C3.84002 24.84 4.00002 24.5267 4.00002 24.8467C4.00002 30.3266 3.86668 30.3466 4.36668 30.5933C4.86668 30.84 4.66668 30.8333 9.56668 27.1533C10.2333 28.8266 10.1067 28.6666 11.5067 28.6666C12.3867 31.6066 12.3467 32 13 32H19C19.6667 32 19.6267 31.5666 20.4933 28.6666C21.8867 28.6666 21.74 28.84 22.4333 27.1533C27.3333 30.8066 27.02 30.6666 27.3333 30.6666C27.5102 30.6666 27.6797 30.5964 27.8048 30.4714C27.9298 30.3464 28 30.1768 28 30C28 24.44 28.0533 24.7 27.8667 24.4466ZM16 1.58666C17.9197 3.43419 19.4993 5.60506 20.6667 7.99999H11.3333C12.5007 5.60506 14.0804 3.43419 16 1.58666ZM5.33335 25.0667L8.00002 21.5333C8.22577 23.0042 8.5896 24.4506 9.08668 25.8533L5.33335 28.6666V25.0667ZM18.5067 30.6666H13.4933L12.8933 28.6666H19.1067L18.5067 30.6666ZM20.9067 27.3333H16.6667V25.3333C16.6667 25.1565 16.5964 24.9869 16.4714 24.8619C16.3464 24.7369 16.1768 24.6667 16 24.6667C15.8232 24.6667 15.6536 24.7369 15.5286 24.8619C15.4036 24.9869 15.3333 25.1565 15.3333 25.3333V27.3333H11.0933C9.80812 24.5162 9.11371 21.4657 9.05294 18.3699C8.99217 15.2741 9.56633 12.1987 10.74 9.33332H21.26C22.4337 12.1987 23.0079 15.2741 22.9471 18.3699C22.8863 21.4657 22.1919 24.5162 20.9067 27.3333ZM26.6667 28.6666L22.9267 25.8533C23.4192 24.4502 23.7786 23.0038 24 21.5333L26.6667 25.0667V28.6666Z" fill="black"/>
</svg>
