<svg width="36" height="32" viewBox="0 0 36 32" fill="none" xmlns="http://www.w3.org/2000/svg">
<path opacity="0.5" d="M5.85578 24.4408C8.69033 24.4408 10.9882 22.143 10.9882 19.3084C10.9882 16.4739 8.69033 14.176 5.85578 14.176C3.02124 14.176 0.723389 16.4739 0.723389 19.3084C0.723389 22.143 3.02124 24.4408 5.85578 24.4408Z" fill="#00FFC2"/>
<path d="M35.3942 28.4395H32.9791V22.3396C32.9791 14.3493 26.4783 7.84906 18.4886 7.84906C10.4988 7.84906 3.99799 14.3493 3.99799 22.3396V28.4395H1.5829C1.42277 28.4395 1.2692 28.5032 1.15597 28.6164C1.04274 28.7296 0.979126 28.8832 0.979126 29.0433V31.3962C0.979126 31.5564 1.04274 31.7099 1.15597 31.8232C1.2692 31.9364 1.42277 32 1.5829 32H35.3942C35.5544 32 35.7079 31.9364 35.8212 31.8232C35.9344 31.7099 35.998 31.5564 35.998 31.3962V29.0433C35.998 28.8832 35.9344 28.7296 35.8212 28.6164C35.7079 28.5032 35.5544 28.4395 35.3942 28.4395ZM5.20554 22.3396C5.20554 15.0152 11.1642 9.0566 18.4886 9.0566C25.8129 9.0566 31.7716 15.0152 31.7716 22.3396V28.4395H5.20554V22.3396ZM34.7904 30.7925H2.18667V29.6471H34.7904V30.7925ZM2.33581 5.83245L3.24509 5.03668L7.4709 9.86687L6.56162 10.6626L2.33581 5.83245ZM29.5062 9.86566L33.7326 5.03547L34.6413 5.83064L30.4149 10.6608L29.5062 9.86566ZM17.8848 0H19.0923V6.03774H17.8848V0Z" fill="black"/>
</svg>
