<svg width="16" height="22" viewBox="0 0 16 22" fill="none" xmlns="http://www.w3.org/2000/svg">
<path d="M10.22 2H15C15.2652 2 15.5196 1.89464 15.7071 1.70711C15.8946 1.51957 16 1.26522 16 1C16 0.734784 15.8946 0.48043 15.7071 0.292893C15.5196 0.105357 15.2652 0 15 0H1C0.734784 0 0.48043 0.105357 0.292893 0.292893C0.105357 0.48043 0 0.734784 0 1C0 1.26522 0.105357 1.51957 0.292893 1.70711C0.48043 1.89464 0.734784 2 1 2H5.78L0.7 7.68C0.446326 7.96875 0.281228 8.32448 0.224463 8.70462C0.167697 9.08476 0.22167 9.47321 0.379922 9.82347C0.538173 10.1737 0.794 10.471 1.11679 10.6796C1.43957 10.8883 1.81565 10.9995 2.2 11H4V19C4 19.7956 4.31607 20.5587 4.87868 21.1213C5.44129 21.6839 6.20435 22 7 22H9C9.79565 22 10.5587 21.6839 11.1213 21.1213C11.6839 20.5587 12 19.7956 12 19V11H13.8C14.1854 10.9993 14.5624 10.8872 14.8856 10.6773C15.2088 10.4675 15.4645 10.1686 15.6219 9.81686C15.7793 9.46507 15.8317 9.0753 15.7728 8.69444C15.714 8.31357 15.5463 7.95783 15.29 7.67L10.22 2ZM11 9C10.7348 9 10.4804 9.10536 10.2929 9.29289C10.1054 9.48043 10 9.73478 10 10V19C10 19.2652 9.89464 19.5196 9.70711 19.7071C9.51957 19.8946 9.26522 20 9 20H7C6.73478 20 6.48043 19.8946 6.29289 19.7071C6.10536 19.5196 6 19.2652 6 19V10C6 9.73478 5.89464 9.48043 5.70711 9.29289C5.51957 9.10536 5.26522 9 5 9H2.2L8 2.53L13.8 9H11Z" fill="black"/>
</svg>
